<svg id="Layer_2" data-name="Layer 2" xmlns="http://www.w3.org/2000/svg" viewBox="0 0 17.5 20"><defs><style>.copy-1{fill:#9615db;}</style></defs><path id="Icon_awesome-copy" data-name="Icon awesome-copy" class="copy-1" d="M53.749,57.5v1.563a.936.936,0,0,1-.936.938H42.188a.936.936,0,0,1-.938-.936V44.688a.936.936,0,0,1,.936-.938H45V55.312A2.189,2.189,0,0,0,47.188,57.5Zm0-13.436V40H47.188a.936.936,0,0,0-.938.936V55.312a.936.936,0,0,0,.937.937H57.812a.936.936,0,0,0,.938-.936h0V45H54.687A.94.94,0,0,1,53.749,44.063Zm4.725-1.213L55.9,40.275A.937.937,0,0,0,55.236,40H55v3.75h3.75v-.237A.937.937,0,0,0,58.474,42.85Z" transform="translate(-41.25 -40)"/></svg>