<svg id="Layer_1" data-name="Layer 1" xmlns="http://www.w3.org/2000/svg" viewBox="0 0 40 40"><defs><style>.delegate-token-default-1{fill:#9615db;}</style></defs><path class="delegate-token-default-1" d="M36.75,41.9,34.1,46.48l2.65,1.47,2.65-1.47Zm0,7.55L34.1,47.98l2.65,3.52,2.65-3.52Zm0-7.55L34.1,46.48l2.65,1.47,2.65-1.47Zm0,7.55L34.1,47.98l2.65,3.52,2.65-3.52Zm0,0L34.1,47.98l2.65,3.52,2.65-3.52Zm0-7.55L34.1,46.48l2.65,1.47,2.65-1.47Zm2.65,4.58L36.75,41.9,34.1,46.48l2.65,1.47Zm-5.3,1.5,2.65,3.52,2.65-3.52-2.65,1.47ZM60,35H30a5,5,0,0,0-5,5V70a5,5,0,0,0,5,5H60a5,5,0,0,0,5-5V40A5,5,0,0,0,60,35Zm-8.63,7.4c.08-.02.17-.04.26-.06s.21-.04.31-.05a1.492,1.492,0,0,1,.21-.02c.11-.01.23-.02.35-.02a4.5,4.5,0,0,1,0,9c-.12,0-.24-.01-.35-.02a1.492,1.492,0,0,1-.21-.02c-.1-.01-.21-.03-.31-.05s-.18-.04-.26-.06c-.02,0-.03-.01-.05-.01a6.751,6.751,0,0,0,0-8.68C51.34,42.41,51.35,42.4,51.37,42.4Zm5.38,17.35a3.5,3.5,0,1,1-3.5-3.5A3.5,3.5,0,0,1,56.75,59.75ZM43.61,42.17a5.176,5.176,0,0,1,5.04-.03h.01a5.241,5.241,0,0,1,1.24.95,5.215,5.215,0,0,1,0,7.32,5.241,5.241,0,0,1-1.24.95h-.01a5.176,5.176,0,0,1-5.04-.03,8.24,8.24,0,0,0,0-9.16ZM30,46.75A6.747,6.747,0,0,1,36.75,40a6.662,6.662,0,0,1,4.7,1.92,5.3,5.3,0,0,1,.95,1.16,6.672,6.672,0,0,1,0,7.34,5.3,5.3,0,0,1-.95,1.16,6.662,6.662,0,0,1-4.7,1.92A6.747,6.747,0,0,1,30,46.75ZM46.31,65.11l-2.86,1.65a.126.126,0,0,1-.19-.11v-.9H36.88a.873.873,0,0,1-.88-.87V56a.75.75,0,0,1,1.5,0v8.25h5.76v-.9a.126.126,0,0,1,.19-.11l2.86,1.65A.123.123,0,0,1,46.31,65.11ZM46.5,70a6.713,6.713,0,0,1,3.92-6.12,5.038,5.038,0,0,0,5.66,0A6.713,6.713,0,0,1,60,70ZM39.4,46.48,36.75,41.9,34.1,46.48l2.65,1.47Zm0,1.5-2.65,1.47L34.1,47.98l2.65,3.52Zm-2.65,1.47L34.1,47.98l2.65,3.52,2.65-3.52Zm0-7.55L34.1,46.48l2.65,1.47,2.65-1.47Zm0,0L34.1,46.48l2.65,1.47,2.65-1.47Zm0,7.55L34.1,47.98l2.65,3.52,2.65-3.52Z" transform="translate(-25 -35)"/></svg>