<svg id="Layer_1" data-name="Layer 1" xmlns="http://www.w3.org/2000/svg" viewBox="0 0 20.51 20"><defs><style>.github-1{fill:#9615db;fill-rule:evenodd;}</style></defs><path id="Github_Icon-2" data-name="Github Icon-2" class="github-1" d="M50,40a10.25,10.25,0,0,0-3.24,20c.51.1.68-.22.68-.49V57.58C44.59,58.2,44,56.37,44,56.37a2.71,2.71,0,0,0-1.14-1.5c-.93-.63.07-.62.07-.62a2.15,2.15,0,0,1,1.57,1,2.19,2.19,0,0,0,3,.86h0a2.24,2.24,0,0,1,.65-1.37c-2.28-.26-4.67-1.14-4.67-5.07a4,4,0,0,1,1-2.74,3.76,3.76,0,0,1,.1-2.72s.87-.27,2.83,1a9.71,9.71,0,0,1,5.13,0c2-1.33,2.82-1,2.82-1a3.68,3.68,0,0,1,.1,2.71,4,4,0,0,1,1.06,2.76c0,3.93-2.41,4.8-4.69,5.05a2.46,2.46,0,0,1,.7,1.9v2.82c0,.27.17.59.69.49A10.26,10.26,0,0,0,50,40" transform="translate(-39.74 -40)"/></svg>