<svg id="Layer_1" data-name="Layer 1" xmlns="http://www.w3.org/2000/svg" xmlns:xlink="http://www.w3.org/1999/xlink" viewBox="0 0 180 240"><defs><style>.cls-1{fill:#626465;}.cls-2{fill:#969899;}.cls-3{fill:url(#linear-gradient);}.cls-4,.cls-5,.cls-6{fill:none;}.cls-4,.cls-5,.cls-9{stroke:#9615db;}.cls-4,.cls-9{stroke-miterlimit:10;}.cls-5,.cls-6{stroke-linecap:round;stroke-linejoin:round;}.cls-6{stroke:#b050e4;}.cls-7{fill:#e5c5f6;}.cls-8{fill:#9615db;opacity:0.5;}.cls-9{fill:#2d3032;}.cls-10{fill:#fff;}</style><linearGradient id="linear-gradient" x1="6.464" y1="223.536" x2="193.536" y2="36.464" gradientUnits="userSpaceOnUse"><stop offset="0" stop-color="#2d3032"/><stop offset="0.258" stop-color="#2f3035"/><stop offset="0.414" stop-color="#342e3d"/><stop offset="0.542" stop-color="#3d2c4b"/><stop offset="0.656" stop-color="#492960"/><stop offset="0.759" stop-color="#5a257a"/><stop offset="0.856" stop-color="#6e1f9a"/><stop offset="0.945" stop-color="#8519c0"/><stop offset="1" stop-color="#9615db"/></linearGradient></defs><g id="ERC-20_Linear_Voting_Moloch_Simple_Membership_Zodiac_Exit_Module" data-name="ERC-20 Linear Voting (Moloch) + Simple Membership + Zodiac Exit Module"><rect class="cls-1" width="160" height="220" rx="5"/><rect class="cls-2" x="10" y="10" width="160" height="220" rx="5"/><rect class="cls-3" x="20" y="20" width="160" height="220" rx="5"/><rect class="cls-4" x="25" y="25" width="150" height="210"/><path class="cls-5" d="M158.75,50H61.25M50,111.25v-50m0,157.5v-50m120-57.5v-50m0,157.5v-50M158.75,230H61.25M50,38.75A11.25,11.25,0,1,0,61.25,50,11.25,11.25,0,0,0,50,38.75Zm120,0A11.25,11.25,0,1,0,181.25,50,11.25,11.25,0,0,0,170,38.75Zm-120,180A11.25,11.25,0,1,0,61.25,230,11.25,11.25,0,0,0,50,218.75Zm120,0A11.25,11.25,0,1,0,181.25,230,11.25,11.25,0,0,0,170,218.75Z" transform="translate(-10 -10)"/><path class="cls-6" d="M155.47,53.75H64.53M53.75,103.9V64.53m0,150.94V176.1m112.5-72.2V64.53m0,150.94V176.131M155.47,226.25H64.53M53.75,64.53a15.023,15.023,0,0,0,2.63-.96,13.906,13.906,0,0,0,2.27-1.33,14.808,14.808,0,0,0,3.59-3.59,13.906,13.906,0,0,0,1.33-2.27,15.023,15.023,0,0,0,.96-2.63M60.22,77.9,56.38,63.57m7.37,7.5-1.5-2.6m-2.1-3.634-1.5-2.6m12.78,9.19L60.6,60.6m10.47,3.15-2.6-1.5m-3.634-2.1-2.6-1.5M77.9,60.22,63.57,56.38m91.9-2.63a15.023,15.023,0,0,0,.96,2.63,13.906,13.906,0,0,0,1.33,2.27,14.808,14.808,0,0,0,3.59,3.59,13.906,13.906,0,0,0,2.27,1.33,15.023,15.023,0,0,0,2.63.96m-9.82-8.15L142.1,60.22m15.66-1.57-2.6,1.5m-3.634,2.1-2.6,1.5M159.4,60.6,148.57,71.43m12.78-9.19-1.5,2.6m-2.1,3.634-1.5,2.6m7.37-7.5L159.78,77.9M64.53,226.25a15.023,15.023,0,0,0-.96-2.63,13.906,13.906,0,0,0-1.33-2.27,14.808,14.808,0,0,0-3.59-3.59,13.906,13.906,0,0,0-2.27-1.33,15.023,15.023,0,0,0-2.63-.96m2.63.96,3.84-14.33m-1.57,15.66,1.5-2.6m2.1-3.634,1.5-2.6M60.6,219.4l10.83-10.83m-9.19,12.78,2.6-1.5m3.634-2.1,2.6-1.5m-7.5,7.37,14.33-3.84m88.35-4.31a15.023,15.023,0,0,0-2.63.96,13.906,13.906,0,0,0-2.27,1.33,14.808,14.808,0,0,0-3.59,3.59,13.906,13.906,0,0,0-1.33,2.27,15.023,15.023,0,0,0-.96,2.63m4.31-24.15,3.84,14.33m-7.37-7.5,1.5,2.6m2.1,3.634,1.5,2.6m-12.78-9.19L159.4,219.4m-10.47-3.15,2.6,1.5m3.634,2.1,2.6,1.5m-15.66-1.57,14.33,3.84" transform="translate(-10 -10)"/><path class="cls-7" d="M112.75,42.25,110,43.75l-2.75-1.5L110,37.5Zm-2.75,3-2.75-1.5L110,47.5l2.75-3.75Z" transform="translate(-10 -10)"/><path class="cls-6" d="M120.25,42.5h31.47m-33.345-1.875A1.875,1.875,0,1,0,120.25,42.5,1.874,1.874,0,0,0,118.375,40.625Zm35.22,0A1.875,1.875,0,1,0,155.47,42.5,1.874,1.874,0,0,0,153.6,40.625Z" transform="translate(-10 -10)"/><path class="cls-6" d="M68.28,42.5H99.75M66.405,40.625A1.875,1.875,0,1,0,68.28,42.5,1.874,1.874,0,0,0,66.405,40.625Zm35.22,0A1.875,1.875,0,1,0,103.5,42.5,1.874,1.874,0,0,0,101.625,40.625Z" transform="translate(-10 -10)"/><path class="cls-6" d="M42.5,99.75V68.28m-1.875,33.345A1.875,1.875,0,1,0,42.5,99.75,1.874,1.874,0,0,0,40.625,101.625Zm0-35.22A1.875,1.875,0,1,0,42.5,64.53,1.874,1.874,0,0,0,40.625,66.405ZM177.5,99.75V68.28m-1.875,33.345A1.875,1.875,0,1,0,177.5,99.75,1.874,1.874,0,0,0,175.625,101.625Zm0-35.22A1.875,1.875,0,1,0,177.5,64.53,1.874,1.874,0,0,0,175.625,66.405ZM42.5,211.72V180.25M40.625,213.6A1.875,1.875,0,1,0,42.5,211.72,1.874,1.874,0,0,0,40.625,213.6Zm0-35.22A1.875,1.875,0,1,0,42.5,176.5,1.874,1.874,0,0,0,40.625,178.375ZM177.5,211.72V180.25M175.625,213.6a1.875,1.875,0,1,0,1.875-1.875A1.874,1.874,0,0,0,175.625,213.6Zm0-35.22A1.875,1.875,0,1,0,177.5,176.5,1.874,1.874,0,0,0,175.625,178.375Z" transform="translate(-10 -10)"/><path class="cls-7" d="M112.75,237.25l-2.75,1.5-2.75-1.5L110,232.5Zm-2.75,3-2.75-1.5L110,242.5l2.75-3.75Z" transform="translate(-10 -10)"/><path class="cls-6" d="M120.25,237.5h31.47m-33.345-1.875a1.875,1.875,0,1,0,1.875,1.875A1.874,1.874,0,0,0,118.375,235.625Zm35.22,0a1.875,1.875,0,1,0,1.875,1.875A1.874,1.874,0,0,0,153.6,235.625Z" transform="translate(-10 -10)"/><path class="cls-6" d="M68.28,237.5H99.75m-33.345-1.875A1.875,1.875,0,1,0,68.28,237.5,1.874,1.874,0,0,0,66.405,235.625Zm35.22,0A1.875,1.875,0,1,0,103.5,237.5,1.874,1.874,0,0,0,101.625,235.625Z" transform="translate(-10 -10)"/><path class="cls-7" d="M49.13,43.75H43.87a.129.129,0,0,0-.12.12v5.26a.129.129,0,0,0,.12.12h5.26a.129.129,0,0,0,.12-.12V43.87A.129.129,0,0,0,49.13,43.75Zm-.88,3.12a.131.131,0,0,1-.12.13H47v1.13a.131.131,0,0,1-.13.12h-.74a.131.131,0,0,1-.13-.12V47H44.87a.131.131,0,0,1-.12-.13v-.74a.131.131,0,0,1,.12-.13H46V44.87a.131.131,0,0,1,.13-.12h.74a.131.131,0,0,1,.13.12V46h1.13a.131.131,0,0,1,.12.13Zm.88,3.88H43.87a.129.129,0,0,0-.12.12v5.26a.129.129,0,0,0,.12.12h5.26a.129.129,0,0,0,.12-.12V50.87A.129.129,0,0,0,49.13,50.75ZM48,54.3a.115.115,0,0,1,0,.17l-.53.53a.115.115,0,0,1-.17,0l-.8-.8-.8.8a.115.115,0,0,1-.17,0L45,54.47a.115.115,0,0,1,0-.17l.8-.8-.8-.8a.115.115,0,0,1,0-.17l.53-.53a.115.115,0,0,1,.17,0l.8.8.8-.8a.115.115,0,0,1,.17,0l.53.53a.115.115,0,0,1,0,.17l-.8.8Zm8.13-10.55H50.87a.129.129,0,0,0-.12.12v5.26a.129.129,0,0,0,.12.12h5.26a.129.129,0,0,0,.12-.12V43.87A.129.129,0,0,0,56.13,43.75Zm-.88,3.12a.131.131,0,0,1-.12.13H51.87a.131.131,0,0,1-.12-.13v-.74a.131.131,0,0,1,.12-.13h3.26a.131.131,0,0,1,.12.13Zm.88,3.88H50.87a.129.129,0,0,0-.12.12v5.26a.129.129,0,0,0,.12.12h5.26a.129.129,0,0,0,.12-.12V50.87A.129.129,0,0,0,56.13,50.75Zm-.88,4.12a.131.131,0,0,1-.12.13H51.87a.131.131,0,0,1-.12-.13v-.74a.131.131,0,0,1,.12-.13h3.26a.131.131,0,0,1,.12.13Zm0-2a.131.131,0,0,1-.12.13H51.87a.131.131,0,0,1-.12-.13v-.74a.131.131,0,0,1,.12-.13h3.26a.131.131,0,0,1,.12.13Z" transform="translate(-10 -10)"/><path class="cls-7" d="M169.13,223.75h-5.26a.129.129,0,0,0-.12.12v5.26a.129.129,0,0,0,.12.12h5.26a.129.129,0,0,0,.12-.12v-5.26A.129.129,0,0,0,169.13,223.75Zm-.88,3.12a.131.131,0,0,1-.12.13H167v1.13a.131.131,0,0,1-.13.12h-.74a.131.131,0,0,1-.13-.12V227h-1.13a.131.131,0,0,1-.12-.13v-.74a.131.131,0,0,1,.12-.13H166v-1.13a.131.131,0,0,1,.13-.12h.74a.131.131,0,0,1,.13.12V226h1.13a.131.131,0,0,1,.12.13Zm.88,3.88h-5.26a.129.129,0,0,0-.12.12v5.26a.129.129,0,0,0,.12.12h5.26a.129.129,0,0,0,.12-.12v-5.26A.129.129,0,0,0,169.13,230.75ZM168,234.3a.115.115,0,0,1,0,.17l-.53.53a.115.115,0,0,1-.17,0l-.8-.8-.8.8a.115.115,0,0,1-.17,0l-.53-.53a.115.115,0,0,1,0-.17l.8-.8-.8-.8a.115.115,0,0,1,0-.17l.53-.53a.115.115,0,0,1,.17,0l.8.8.8-.8a.115.115,0,0,1,.17,0l.53.53a.115.115,0,0,1,0,.17l-.8.8Zm8.13-10.55h-5.26a.129.129,0,0,0-.12.12v5.26a.129.129,0,0,0,.12.12h5.26a.129.129,0,0,0,.12-.12v-5.26A.129.129,0,0,0,176.13,223.75Zm-.88,3.12a.131.131,0,0,1-.12.13h-3.26a.131.131,0,0,1-.12-.13v-.74a.131.131,0,0,1,.12-.13h3.26a.131.131,0,0,1,.12.13Zm.88,3.88h-5.26a.129.129,0,0,0-.12.12v5.26a.129.129,0,0,0,.12.12h5.26a.129.129,0,0,0,.12-.12v-5.26A.129.129,0,0,0,176.13,230.75Zm-.88,4.12a.131.131,0,0,1-.12.13h-3.26a.131.131,0,0,1-.12-.13v-.74a.131.131,0,0,1,.12-.13h3.26a.131.131,0,0,1,.12.13Zm0-2a.131.131,0,0,1-.12.13h-3.26a.131.131,0,0,1-.12-.13v-.74a.131.131,0,0,1,.12-.13h3.26a.131.131,0,0,1,.12.13Z" transform="translate(-10 -10)"/><path class="cls-7" d="M165.625,45h-1.75a.125.125,0,0,1-.125-.125v-.75a.125.125,0,0,1,.125-.125h1.75a.125.125,0,0,1,.125.125v.75A.125.125,0,0,1,165.625,45Zm-.125,8.375v-6.75a.125.125,0,0,0-.125-.125h-1.25a.125.125,0,0,0-.125.125v6.75a.125.125,0,0,0,.125.125h1.25A.125.125,0,0,0,165.5,53.375Zm10.5,0v-6.75a.125.125,0,0,0-.125-.125h-1.25a.125.125,0,0,0-.125.125v6.75a.125.125,0,0,0,.125.125h1.25A.125.125,0,0,0,176,53.375Zm-10.25,2.5v-.75a.125.125,0,0,0-.125-.125h-1.75a.125.125,0,0,0-.125.125v.75a.125.125,0,0,0,.125.125h1.75A.125.125,0,0,0,165.75,55.875Zm10.5-11v-.75a.125.125,0,0,0-.125-.125h-1.75a.125.125,0,0,0-.125.125v.75a.125.125,0,0,0,.125.125h1.75A.125.125,0,0,0,176.25,44.875Zm0,11v-.75a.125.125,0,0,0-.125-.125h-1.75a.125.125,0,0,0-.125.125v.75a.125.125,0,0,0,.125.125h1.75A.125.125,0,0,0,176.25,55.875ZM170.146,45a2.748,2.748,0,0,0-2.9,2.746v8.125a.125.125,0,0,0,.125.125h5.25a.125.125,0,0,0,.125-.125V47.9A2.853,2.853,0,0,0,170.146,45Z" transform="translate(-10 -10)"/><path class="cls-7" d="M51.856,230A1.856,1.856,0,1,1,50,228.143,1.856,1.856,0,0,1,51.856,230Zm-4.812-5.857a2.527,2.527,0,0,0-1.162.852.911.911,0,0,0-.1.418h0a1.264,1.264,0,0,0,.09.461,1.262,1.262,0,0,0-.46-.09h0a.911.911,0,0,0-.418.1,2.53,2.53,0,0,0-.852,1.162l-.834-.434c.032-.062.063-.123.1-.184s.058-.105.088-.157.059-.1.092-.156.063-.1.1-.153l.1-.152c.031-.049.066-.1.1-.148s.071-.1.107-.146c.069-.095.142-.19.222-.283l.117-.138c.036-.045.076-.09.118-.133s.083-.089.123-.132.081-.088.125-.131.085-.085.13-.125l.132-.123c.043-.042.088-.082.133-.118l.138-.117c.093-.079.188-.153.284-.222l.145-.107c.05-.037.1-.072.149-.1l.151-.1c.05-.033.1-.064.153-.1s.1-.063.156-.091.105-.061.158-.089.121-.066.182-.1Zm9.646,9.248c-.032.062-.063.123-.1.183s-.058.1-.088.158-.059.1-.092.156-.063.1-.1.153l-.1.152c-.031.049-.066.1-.1.148l-.107.145c-.069.1-.142.191-.222.284-.039.046-.078.091-.117.138s-.076.09-.118.133-.083.089-.123.132-.081.088-.125.131-.085.085-.13.125l-.132.123c-.043.041-.088.082-.133.118l-.138.117c-.093.079-.188.153-.284.222-.048.036-.1.072-.145.106s-.1.073-.149.1l-.151.1c-.05.033-.1.064-.153.1s-.1.063-.156.091-.105.06-.158.089-.121.066-.182.1l-.435-.834a2.527,2.527,0,0,0,1.162-.852.911.911,0,0,0,.1-.418h0a1.264,1.264,0,0,0-.09-.461,1.262,1.262,0,0,0,.46.09h0a.911.911,0,0,0,.418-.1,2.536,2.536,0,0,0,.852-1.163Zm0-6.782-.834.434A2.53,2.53,0,0,0,55,225.881a.911.911,0,0,0-.418-.1h0a1.262,1.262,0,0,0-.46.09,1.264,1.264,0,0,0,.09-.461h0a.911.911,0,0,0-.1-.418,2.527,2.527,0,0,0-1.162-.852l.435-.834c.061.031.122.062.182.1s.1.058.158.089.1.058.156.091.1.063.153.1l.151.1c.05.031.1.066.149.1l.145.107c.1.069.191.143.284.222l.138.117c.045.036.09.076.133.118l.132.123c.045.04.087.081.13.125s.086.085.125.131.082.086.123.132.082.088.118.133l.117.138c.08.093.153.188.222.283.036.048.072.1.107.146s.072.1.1.148l.1.152c.033.05.065.1.1.153s.063.1.092.156.06.1.088.157S56.658,226.547,56.69,226.609Zm-9.646,9.248-.435.834c-.061-.031-.122-.062-.182-.1s-.1-.058-.158-.089-.1-.058-.156-.091-.1-.063-.153-.1l-.151-.1c-.05-.031-.1-.066-.149-.1s-.1-.07-.145-.106c-.1-.069-.191-.143-.284-.222l-.138-.117c-.045-.036-.09-.077-.133-.118l-.132-.123c-.045-.04-.087-.082-.13-.125s-.086-.086-.125-.131-.082-.087-.123-.132-.082-.088-.118-.133-.078-.092-.117-.138c-.08-.093-.153-.188-.222-.284l-.107-.145c-.037-.05-.072-.1-.1-.148l-.1-.152c-.033-.05-.065-.1-.1-.153s-.063-.1-.092-.156-.06-.1-.088-.158-.066-.121-.1-.183l.834-.435A2.536,2.536,0,0,0,45,234.119a.911.911,0,0,0,.418.1h0a1.262,1.262,0,0,0,.46-.09,1.264,1.264,0,0,0-.09.461h0a.911.911,0,0,0,.1.418A2.527,2.527,0,0,0,47.044,235.857Zm5.289-12.987v0l-.283.894a2.532,2.532,0,0,0-1.425-.218.914.914,0,0,0-.361.229,1.179,1.179,0,0,0-.209.277,1.114,1.114,0,0,0-.055.112,1.114,1.114,0,0,0-.055-.112,1.179,1.179,0,0,0-.209-.277.914.914,0,0,0-.361-.229,2.532,2.532,0,0,0-1.425.218l-.283-.894v0l.033-.01a.318.318,0,0,0,.033-.011l.1-.028c.087-.027.174-.053.262-.074.054-.016.107-.029.161-.042.079-.019.158-.035.238-.052a.131.131,0,0,1,.027-.006c.094-.02.19-.036.286-.051l.165-.026c.041,0,.081-.01.122-.015s.1-.012.156-.017.118-.011.177-.016.127-.009.192-.011.127-.007.192-.008l.193,0,.193,0c.065,0,.129,0,.192.008s.128,0,.192.011.119.009.177.016.1.01.156.017.081.011.122.015l.165.026c.1.015.192.031.286.051a.131.131,0,0,1,.027.006c.08.017.159.033.238.052.054.013.107.026.161.042.088.021.175.047.262.074l.1.028a.318.318,0,0,0,.033.011Zm0,14.258h0a.255.255,0,0,1-.033.011l-.033.01c-.031.011-.063.02-.1.029-.087.027-.174.052-.262.073-.054.017-.107.03-.161.043-.079.019-.158.035-.238.052a.131.131,0,0,1-.027.006c-.094.019-.19.036-.286.051-.056.009-.11.018-.165.025l-.122.016c-.052.007-.1.011-.156.017s-.118.011-.177.015-.127.009-.192.012-.127.006-.192.008l-.193,0-.193,0c-.065,0-.129,0-.192-.008s-.128,0-.192-.012-.119-.009-.177-.015-.1-.01-.156-.017l-.122-.016c-.055-.007-.109-.016-.165-.025-.1-.015-.192-.032-.286-.051a.131.131,0,0,1-.027-.006c-.08-.017-.159-.033-.238-.052-.054-.013-.107-.026-.161-.043-.088-.021-.175-.046-.262-.073-.033-.009-.065-.018-.1-.029l-.033-.01a.255.255,0,0,1-.033-.011h0l.283-.894s.137.061.338.126l.016.006a1.94,1.94,0,0,0,1.071.086.914.914,0,0,0,.361-.229,1.221,1.221,0,0,0,.209-.277,1.114,1.114,0,0,0,.055-.112,1.114,1.114,0,0,0,.055.112,1.221,1.221,0,0,0,.209.277.914.914,0,0,0,.361.229,1.94,1.94,0,0,0,1.071-.086l.017-.006c.2-.065.337-.126.337-.126Zm-4.572-2.706-.421.8a2.641,2.641,0,0,0-1.039-.637,1.222,1.222,0,0,0-.515.005h0a1.991,1.991,0,0,0-.624.252,1.991,1.991,0,0,0,.252-.624h0a1.239,1.239,0,0,0,0-.515,2.641,2.641,0,0,0-.637-1.039l.8-.422s.278.62.689.776.967-.249.967-.249-.4.57-.249.968S47.761,234.422,47.761,234.422Zm7.456-7.083-.8.422s-.278-.62-.689-.776-.967.249-.967.249.4-.57.249-.968-.775-.688-.775-.688l.421-.8a2.639,2.639,0,0,0,1.039.638,1.239,1.239,0,0,0,.515-.005h0a1.991,1.991,0,0,0,.624-.252,1.991,1.991,0,0,0-.252.624h0a1.234,1.234,0,0,0,0,.514A2.64,2.64,0,0,0,55.217,227.339ZM45.174,230.7a1.962,1.962,0,0,0,.117.84l-.86.267a2.644,2.644,0,0,0-.285-1.187,1.724,1.724,0,0,0-.988-.622,1.722,1.722,0,0,0,.988-.623,2.638,2.638,0,0,0,.285-1.186l.86.267a1.962,1.962,0,0,0-.117.84v0a.773.773,0,0,0,.056.192c.172.387.861.507.861.507s-.689.12-.861.507a.761.761,0,0,0-.056.192Zm11.668-.7a1.724,1.724,0,0,0-.988.622,2.644,2.644,0,0,0-.285,1.187l-.86-.267a1.962,1.962,0,0,0,.117-.84v0a.761.761,0,0,0-.056-.192c-.172-.387-.861-.507-.861-.507s.689-.12.861-.507a.773.773,0,0,0,.056-.192v0a1.962,1.962,0,0,0-.117-.84l.86-.267a2.638,2.638,0,0,0,.285,1.186A1.722,1.722,0,0,0,56.842,230Zm-2.256,4.215a1.991,1.991,0,0,0,.252.624,1.991,1.991,0,0,0-.624-.252h0a1.222,1.222,0,0,0-.515-.005,2.641,2.641,0,0,0-1.039.637l-.421-.8s.619-.277.775-.688-.249-.968-.249-.968.57.4.967.249.689-.776.689-.776l.8.422a2.641,2.641,0,0,0-.637,1.039,1.239,1.239,0,0,0,0,.515Zm-7.351-6.981s-.57-.4-.967-.249-.689.776-.689.776l-.8-.422a2.64,2.64,0,0,0,.637-1.04,1.234,1.234,0,0,0,0-.514h0a1.991,1.991,0,0,0-.252-.624,1.991,1.991,0,0,0,.624.252h0a1.239,1.239,0,0,0,.515.005,2.639,2.639,0,0,0,1.039-.638l.421.8s-.619.277-.775.688S47.235,227.234,47.235,227.234Zm4.573,8.337s-.094,0-.238.013c-.045,0-.094.009-.147.017a2.072,2.072,0,0,0-.8.255,1.225,1.225,0,0,0-.358.367,2.025,2.025,0,0,0-.264.622,2.025,2.025,0,0,0-.264-.622,1.225,1.225,0,0,0-.358-.367,2.072,2.072,0,0,0-.8-.255c-.053-.008-.1-.012-.147-.017-.144-.013-.238-.013-.238-.013l.226-.731.04-.13a1.945,1.945,0,0,0,.84.117h0c.026,0,.051-.009.075-.016a.577.577,0,0,0,.117-.04c.387-.172.507-.86.507-.86s.12.688.507.86a.577.577,0,0,0,.117.04c.024.007.049.011.075.016h0a1.945,1.945,0,0,0,.84-.117l.04.13Zm0-11.142-.266.861a1.945,1.945,0,0,0-.84-.117h0a.761.761,0,0,0-.192.056c-.387.172-.507.86-.507.86s-.12-.688-.507-.86a.761.761,0,0,0-.192-.056h0a1.945,1.945,0,0,0-.84.117l-.266-.861a2.638,2.638,0,0,0,1.186-.285,1.225,1.225,0,0,0,.358-.367,2.025,2.025,0,0,0,.264-.622,2.025,2.025,0,0,0,.264.622,1.225,1.225,0,0,0,.358.367A2.638,2.638,0,0,0,51.808,224.429ZM56.842,230a6.307,6.307,0,0,0-1.66.218.69.69,0,0,0-.356.481v0l0,.012a.7.7,0,0,0-.359-.5A6.312,6.312,0,0,0,52.8,230a6.312,6.312,0,0,0,1.66-.218.7.7,0,0,0,.359-.5l0,.012v0a.69.69,0,0,0,.356.481A6.307,6.307,0,0,0,56.842,230ZM47.2,230a6.312,6.312,0,0,0-1.66.218.7.7,0,0,0-.359.5l0-.012v0a.69.69,0,0,0-.356-.481,6.307,6.307,0,0,0-1.66-.218,6.307,6.307,0,0,0,1.66-.218.69.69,0,0,0,.356-.481v0l0-.012a.7.7,0,0,0,.359.5A6.312,6.312,0,0,0,47.2,230Zm4.517,6.36c.025.119.047.2.053.237-.009-.032-.033-.116-.07-.231-.063-.2-.162-.5-.273-.765a2.31,2.31,0,0,0-.292-.539.667.667,0,0,0-.495-.22c.027-.008.049-.012.063-.015h0l.012,0a.483.483,0,0,1-.081-.02.663.663,0,0,0,.312-.434,6.083,6.083,0,0,0-.215-1.648,6.074,6.074,0,0,0,.636,1.535.689.689,0,0,0,.571.217.735.735,0,0,0-.355.366.8.8,0,0,0-.03.11,2.361,2.361,0,0,0,.018.634C51.608,235.865,51.668,236.159,51.713,236.36ZM49.3,234.827c.014,0,.036.007.063.015a.667.667,0,0,0-.495.22,2.31,2.31,0,0,0-.292.539c-.111.269-.21.564-.273.765-.037.115-.061.2-.07.231.006-.032.028-.118.054-.237.044-.2.1-.5.142-.776a2.361,2.361,0,0,0,.018-.634.8.8,0,0,0-.03-.11.735.735,0,0,0-.355-.366.689.689,0,0,0,.571-.217,6.074,6.074,0,0,0,.636-1.535,6.083,6.083,0,0,0-.215,1.648.663.663,0,0,0,.312.434.483.483,0,0,1-.081.02l.012,0Zm1.413-9.651a.7.7,0,0,0-.5.358A6.354,6.354,0,0,0,50,227.2a6.354,6.354,0,0,0-.217-1.661.7.7,0,0,0-.5-.358l.012,0h0a.7.7,0,0,0,.482-.357,2.792,2.792,0,0,0,.162-.762c.049-.45.055-.9.055-.9s.006.449.055.9a2.792,2.792,0,0,0,.162.762.7.7,0,0,0,.482.357h0Zm-.078,9.666a.67.67,0,0,0-.419.342,2.783,2.783,0,0,0-.162.762c-.049.45-.055.9-.055.9s-.006-.449-.055-.9a2.783,2.783,0,0,0-.162-.762.67.67,0,0,0-.419-.342c.047,0,.077,0,.077,0a.613.613,0,0,1-.065-.034l-.009-.007a.663.663,0,0,0,.416-.339,6.343,6.343,0,0,0,.217-1.66,6.343,6.343,0,0,0,.217,1.66.663.663,0,0,0,.416.339l-.009.007a.613.613,0,0,1-.065.034S50.589,234.842,50.636,234.842Z" transform="translate(-10 -10)"/><path class="cls-8" d="M107.62,210.96l.46.3L168,172.51v-.59Zm-2.16-1.4.46.3L168,169.72v-.59Zm58.81-40.81L103.3,208.17l.46.3,61.43-39.72Zm-4.31,0-58.81,38.03.46.29,59.27-38.32Zm-4.32,0L98.99,205.38l.46.3,57.12-36.93Zm-4.31,0-54.5,35.24.47.3,54.96-35.54Zm-4.32,0L94.67,202.59l.47.3,52.8-34.14Zm-4.3,0L92.52,201.2l.46.3,50.65-32.75Zm-4.32,0L90.36,199.8l.46.3,48.5-31.35Zm-4.31,0L88.21,198.41l.46.3L135,168.75Zm-4.31,0L86.05,197.02l.46.29,44.18-28.56Zm-4.32,0L83.89,195.62l.47.3,42.02-27.17Zm-4.3,0L81.74,194.23l.46.29,39.86-25.77Zm-4.32,0L79.58,192.83l.46.3,37.71-24.38Zm-4.31,0-35.1,22.69.46.3,35.56-22.99Zm-4.32,0L75.27,190.04l.46.3,33.39-21.59Zm-4.31,0-30.78,19.9.46.3,31.24-20.2Zm-4.32,0-28.62,18.5.46.3,29.08-18.8Zm-4.31,0L68.79,185.86l.46.3,26.93-17.41Zm-4.31,0L66.64,184.47l.46.29,24.76-16.01Zm-4.32,0L64.48,183.07l.46.3,22.61-14.62Zm-4.3,0-20,12.93.46.3,20.46-13.23ZM60.17,180.28l.46.3,18.3-11.83H78Zm102.46-69.03h.92l4.45-2.88v-.59ZM58.02,178.89l.46.3,16.14-10.44H73.7Zm100.31-67.64h.9l8.77-5.67V105ZM55.86,177.49l.46.3,13.98-9.04h-.92ZM165.84,103.6l-11.83,7.65h.92l11.37-7.35ZM53.7,176.1l.47.3L66,168.75h-.93Zm109.98-73.89-13.98,9.04h.91l13.53-8.75ZM52,174.41V175l9.67-6.25h-.92Zm109.52-73.6-16.15,10.44h.94l15.68-10.14ZM52,171.62v.6l5.37-3.47h-.93Zm107.37-72.2-18.3,11.83h.92l17.84-11.53Zm-2.16-1.39-20.45,13.22h.91l20-12.93Zm-2.15-1.4-22.61,14.62h.92l22.15-14.32Zm-2.16-1.39-24.76,16.01h.91l24.31-15.72Zm-2.15-1.39-26.91,17.4h.9l26.47-17.11Zm-2.17-1.4-29.07,18.8h.91l28.62-18.51Zm-2.15-1.39L115.2,111.25h.92l30.77-19.9Zm-2.16-1.4-33.4,21.59h.93l32.93-21.29Zm-2.15-1.39-35.55,22.98h.92l35.09-22.69Zm-2.16-1.4-37.71,24.38h.92l37.25-24.08Zm-2.15-1.39L97.95,111.25h.91l39.41-25.48Zm-2.16-1.4L93.62,111.25h.93l41.56-26.87Zm-2.16-1.39L89.32,111.25h.91l43.72-28.27Zm-2.16-1.4L85,111.25h.92l45.87-29.66Zm-2.15-1.39L80.69,111.25h.93L129.64,80.2Zm-2.16-1.4L76.37,111.25h.93L127.48,78.8Zm-2.16-1.39-52.8,34.14h.93l52.33-33.84Zm-2.15-1.39L67.75,111.25h.92l54.5-35.24Zm-2.16-1.4L63.43,111.25h.93l56.65-36.63Zm-2.15-1.39L59.12,111.25h.92l58.81-38.02Zm-2.16-1.4L54.81,111.25h.92L116.7,71.83Zm-2.16-1.39L52,110.28v.59l62.54-40.43Zm-2.15-1.39L52,107.5v.59l60.38-39.05Z" transform="translate(-10 -10)"/><path class="cls-5" d="M52,111.25V105l58-37.5.23.15,1.7,1.1.45.29,1.7,1.1.46.3,1.7,1.09.46.3,1.7,1.1.45.3,1.7,1.09.46.3,1.7,1.1.46.29,1.69,1.1.46.3,1.7,1.09.46.3,1.7,1.1.46.3,1.69,1.09.46.3,1.7,1.1.46.29,1.7,1.1.46.3,1.7,1.1.46.29,1.69,1.1.46.3,1.7,1.1.46.29,1.69,1.1.46.3,1.7,1.1.46.29,1.69,1.1.46.29,1.71,1.11.46.29,1.69,1.1.46.29,1.7,1.1.46.3,1.69,1.1.46.29,1.7,1.1.46.3,1.69,1.09.47.3,1.69,1.1.46.29,1.7,1.1.46.3L168,105v6.25M52,168.75V175l1.7,1.1.47.3,1.69,1.09.46.3,1.7,1.1.46.3,1.69,1.09.46.3,1.7,1.1.46.3,1.69,1.09.46.3,1.7,1.1.46.29,1.69,1.1.46.3,1.7,1.09.46.3,1.7,1.1.46.3,1.7,1.09.46.3,1.69,1.1.46.3,1.7,1.09.46.3,1.7,1.1.46.29,1.69,1.1.47.3,1.69,1.1.46.29,1.7,1.1.46.3,1.69,1.09.46.3,1.7,1.1.46.3,1.69,1.09.47.3,1.69,1.1.47.3,1.69,1.09.46.3,1.7,1.1.46.29,1.69,1.1.46.3,1.7,1.09.46.3,1.7,1.1.46.3,1.69,1.09.23.15L168,175v-6.25" transform="translate(-10 -10)"/><polygon class="cls-9" points="87.5 59.5 87.5 71.5 100 79.75 112.5 71.5 112.5 59.5 100 51.25 87.5 59.5"/><path class="cls-7" d="M103.945,73.359V68.13H107.3v.837H105V70.3h1.975v.844H105v1.383H107.3v.836Z" transform="translate(-10 -10)"/><path class="cls-7" d="M111.153,73.359l-.716-1.907h-1.1v1.907h-1.059V68.13h2.3a2.118,2.118,0,0,1,1.013.194.966.966,0,0,1,.463.544,3,3,0,0,1,.116.92,2.71,2.71,0,0,1-.146.93.961.961,0,0,1-.571.574l.825,2.067Zm-.341-2.812a.367.367,0,0,0,.238-.235,1.856,1.856,0,0,0,.054-.524,1.8,1.8,0,0,0-.054-.525.369.369,0,0,0-.23-.228,1.752,1.752,0,0,0-.583-.068h-.9v1.649h.892A1.8,1.8,0,0,0,110.812,70.547Z" transform="translate(-10 -10)"/><path class="cls-7" d="M115.754,73.386a6.424,6.424,0,0,1-.642.034,3.025,3.025,0,0,1-1.354-.228,1.164,1.164,0,0,1-.575-.775,9.624,9.624,0,0,1,0-3.34,1.169,1.169,0,0,1,.579-.775,2.981,2.981,0,0,1,1.35-.232,5.829,5.829,0,0,1,.65.038,3.873,3.873,0,0,1,.533.091v.775q-.633-.068-.941-.068a2.322,2.322,0,0,0-.867.11.589.589,0,0,0-.312.463,11.314,11.314,0,0,0,0,2.531.591.591,0,0,0,.312.464,2.343,2.343,0,0,0,.867.11,6.821,6.821,0,0,0,.966-.068V73.3A4.4,4.4,0,0,1,115.754,73.386Z" transform="translate(-10 -10)"/><path class="cls-7" d="M105.269,81.594h3.825v1.265h-5.388v-1a10.9,10.9,0,0,1,.075-1.5,1.632,1.632,0,0,1,.331-.8,2.086,2.086,0,0,1,.844-.553l1.037-.445c.158-.061.4-.159.713-.3a2.448,2.448,0,0,0,.513-.274.629.629,0,0,0,.219-.308,1.843,1.843,0,0,0,.055-.513,1.184,1.184,0,0,0-.138-.655.672.672,0,0,0-.443-.262,5.312,5.312,0,0,0-.969-.063q-.786,0-2.1.137V75.153a10.567,10.567,0,0,1,1.224-.165q.726-.063,1.35-.063a6,6,0,0,1,1.426.142,1.579,1.579,0,0,1,.906.61,2.317,2.317,0,0,1,.344,1.38,3.588,3.588,0,0,1-.138,1.1,1.569,1.569,0,0,1-.413.673,2.313,2.313,0,0,1-.75.439l-1.938.809a2.246,2.246,0,0,0-.287.142.543.543,0,0,0-.162.154.893.893,0,0,0-.106.325,4.08,4.08,0,0,0-.031.587Z" transform="translate(-10 -10)"/><path class="cls-7" d="M111.318,82.614a1.562,1.562,0,0,1-.762-1.111,14,14,0,0,1-.163-2.565,14,14,0,0,1,.163-2.565,1.564,1.564,0,0,1,.762-1.112,6.156,6.156,0,0,1,4.012,0,1.546,1.546,0,0,1,.757,1.106,14.735,14.735,0,0,1,.156,2.571,14.713,14.713,0,0,1-.156,2.57,1.546,1.546,0,0,1-.757,1.106,6.139,6.139,0,0,1-4.012,0Zm2.956-1.054a.818.818,0,0,0,.313-.644,28.8,28.8,0,0,0,0-3.956.818.818,0,0,0-.313-.644,3.383,3.383,0,0,0-1.906,0,.815.815,0,0,0-.319.649,28.228,28.228,0,0,0,0,3.945.816.816,0,0,0,.319.65,3.383,3.383,0,0,0,1.906,0Z" transform="translate(-10 -10)"/><path class="cls-10" d="M50.3,132.862v-8.048h-.08l-2.4,8.048H46.152l-2.384-8.048h-.08v8.048H41.752V121.854h2.96l2.272,7.679h.1l2.272-7.679h2.912v11.008Z" transform="translate(-10 -10)"/><path class="cls-10" d="M55.224,132.629a1.692,1.692,0,0,1-.88-1.183,18.689,18.689,0,0,1,0-5.344,1.669,1.669,0,0,1,.88-1.176,5.294,5.294,0,0,1,2.256-.353,5.241,5.241,0,0,1,2.24.353,1.671,1.671,0,0,1,.88,1.184,18.633,18.633,0,0,1,0,5.336,1.692,1.692,0,0,1-.88,1.183,5.13,5.13,0,0,1-2.24.36A5.182,5.182,0,0,1,55.224,132.629Zm3.232-1.416a.814.814,0,0,0,.336-.64,25.218,25.218,0,0,0,0-3.591.817.817,0,0,0-.328-.632,2.08,2.08,0,0,0-.984-.16,2.136,2.136,0,0,0-.992.16.807.807,0,0,0-.336.632,25.218,25.218,0,0,0,0,3.591.814.814,0,0,0,.336.64,2.122,2.122,0,0,0,.992.16A2.073,2.073,0,0,0,58.456,131.213Z" transform="translate(-10 -10)"/><path class="cls-10" d="M62.52,132.862V120.973h1.936v11.889Z" transform="translate(-10 -10)"/><path class="cls-10" d="M67.256,132.629a1.692,1.692,0,0,1-.88-1.183,18.689,18.689,0,0,1,0-5.344,1.669,1.669,0,0,1,.88-1.176,5.294,5.294,0,0,1,2.256-.353,5.241,5.241,0,0,1,2.24.353,1.671,1.671,0,0,1,.88,1.184,18.633,18.633,0,0,1,0,5.336,1.692,1.692,0,0,1-.88,1.183,5.13,5.13,0,0,1-2.24.36A5.182,5.182,0,0,1,67.256,132.629Zm3.232-1.416a.814.814,0,0,0,.336-.64,25.218,25.218,0,0,0,0-3.591.817.817,0,0,0-.328-.632,2.08,2.08,0,0,0-.984-.16,2.133,2.133,0,0,0-.992.16.8.8,0,0,0-.336.632,25.218,25.218,0,0,0,0,3.591.811.811,0,0,0,.336.64,2.12,2.12,0,0,0,.992.16A2.076,2.076,0,0,0,70.488,131.213Z" transform="translate(-10 -10)"/><path class="cls-10" d="M78.456,132.926a10.035,10.035,0,0,1-1.088.063,3.648,3.648,0,0,1-2.032-.448,2.049,2.049,0,0,1-.848-1.3,11.939,11.939,0,0,1-.192-2.457,10.784,10.784,0,0,1,.216-2.447,2.136,2.136,0,0,1,.864-1.32,3.52,3.52,0,0,1,1.96-.441,9.869,9.869,0,0,1,1.112.065,4.97,4.97,0,0,1,.92.176v1.5a8.371,8.371,0,0,0-1.52-.128,2.327,2.327,0,0,0-1.08.184.965.965,0,0,0-.432.7,9.694,9.694,0,0,0-.1,1.7,9.144,9.144,0,0,0,.112,1.72.955.955,0,0,0,.44.7,2.418,2.418,0,0,0,1.08.176,10.531,10.531,0,0,0,1.568-.111v1.487A6.23,6.23,0,0,1,78.456,132.926Z" transform="translate(-10 -10)"/><path class="cls-10" d="M85.5,128.462a10.2,10.2,0,0,0-.072-1.488.706.706,0,0,0-.312-.544,1.924,1.924,0,0,0-.832-.128,1.457,1.457,0,0,0-.888.216,1.07,1.07,0,0,0-.368.688,8.475,8.475,0,0,0-.088,1.432v4.224h-1.92V120.973h1.92v4.688h.112a1.659,1.659,0,0,1,.784-.823,2.943,2.943,0,0,1,1.328-.265,2.572,2.572,0,0,1,1.432.329,1.614,1.614,0,0,1,.656.967,7.254,7.254,0,0,1,.168,1.761v5.232H85.5Z" transform="translate(-10 -10)"/><path class="cls-10" d="M93.015,132.862V121.854h2.033v9.183h3.887v1.825Z" transform="translate(-10 -10)"/><path class="cls-10" d="M100.248,122.8v-1.825h1.968V122.8Zm.015,10.064V124.7H102.2v8.161Z" transform="translate(-10 -10)"/><path class="cls-10" d="M108.664,128.462a10.354,10.354,0,0,0-.072-1.488.706.706,0,0,0-.313-.544,1.918,1.918,0,0,0-.832-.128,1.461,1.461,0,0,0-.888.216,1.079,1.079,0,0,0-.368.688,8.584,8.584,0,0,0-.088,1.432v4.224h-1.92V124.7h1.792l.065,1.025h.111a1.708,1.708,0,0,1,.8-.872,3.033,3.033,0,0,1,1.393-.281,2.528,2.528,0,0,1,1.423.329,1.622,1.622,0,0,1,.649.976,7.4,7.4,0,0,1,.168,1.768v5.216h-1.92Z" transform="translate(-10 -10)"/><path class="cls-10" d="M118.712,129.405h-4.465a5.779,5.779,0,0,0,.1,1.336.726.726,0,0,0,.5.512,4.69,4.69,0,0,0,1.369.137,21.288,21.288,0,0,0,2.239-.128v1.487a8.409,8.409,0,0,1-1.216.177q-.752.063-1.456.063a4.932,4.932,0,0,1-2.312-.408,1.913,1.913,0,0,1-.944-1.248,14.8,14.8,0,0,1,0-5.039,2.027,2.027,0,0,1,.92-1.288,4.311,4.311,0,0,1,2.192-.433,4.037,4.037,0,0,1,2.1.416,1.818,1.818,0,0,1,.809,1.241,14.885,14.885,0,0,1,.16,2.568Zm-4-3.1a.741.741,0,0,0-.361.527,7.015,7.015,0,0,0-.1,1.265h2.64a5.624,5.624,0,0,0-.1-1.28.75.75,0,0,0-.368-.529,1.947,1.947,0,0,0-.808-.128A2.027,2.027,0,0,0,114.712,126.3Z" transform="translate(-10 -10)"/><path class="cls-10" d="M120.584,132.413a2.689,2.689,0,0,1-.529-1.855,4.29,4.29,0,0,1,.208-1.5,1.411,1.411,0,0,1,.712-.784,3.235,3.235,0,0,1,1.4-.248q.719,0,2.128.064v-.353a2.937,2.937,0,0,0-.136-1.063.683.683,0,0,0-.5-.4,5.929,5.929,0,0,0-1.24-.088c-.278,0-.635.013-1.073.04s-.789.055-1.055.088v-1.5a16.078,16.078,0,0,1,2.736-.241,5.006,5.006,0,0,1,2.04.321,1.668,1.668,0,0,1,.911,1,6.291,6.291,0,0,1,.233,1.944v5.024h-1.792l-.065-.993h-.111a2.166,2.166,0,0,1-2.225,1.12A2.13,2.13,0,0,1,120.584,132.413Zm3.24-1.128a.848.848,0,0,0,.439-.343,2.467,2.467,0,0,0,.241-1.281v-.319h-1.6a1.95,1.95,0,0,0-.616.071.456.456,0,0,0-.28.288,2.1,2.1,0,0,0-.081.681,1.761,1.761,0,0,0,.088.64.489.489,0,0,0,.329.28,2.938,2.938,0,0,0,.767.071A2.322,2.322,0,0,0,123.824,131.285Z" transform="translate(-10 -10)"/><path class="cls-10" d="M128.408,124.7H130.2l.063,1.409h.128a1.993,1.993,0,0,1,.809-1.2,2.836,2.836,0,0,1,1.479-.336v1.937a3.042,3.042,0,0,0-1.416.271,1.538,1.538,0,0,0-.719.88,5.209,5.209,0,0,0-.216,1.681v3.52h-1.92Z" transform="translate(-10 -10)"/><path class="cls-10" d="M139.623,132.862,136.7,121.854h2.1l2.24,8.8h.1l2.208-8.8H145.4l-2.944,11.008Z" transform="translate(-10 -10)"/><path class="cls-10" d="M146.967,132.629a1.694,1.694,0,0,1-.88-1.183,18.689,18.689,0,0,1,0-5.344,1.672,1.672,0,0,1,.88-1.176,5.291,5.291,0,0,1,2.256-.353,5.238,5.238,0,0,1,2.24.353,1.671,1.671,0,0,1,.88,1.184,18.633,18.633,0,0,1,0,5.336,1.692,1.692,0,0,1-.88,1.183,5.127,5.127,0,0,1-2.24.36A5.179,5.179,0,0,1,146.967,132.629Zm3.232-1.416a.811.811,0,0,0,.336-.64,25.218,25.218,0,0,0,0-3.591.817.817,0,0,0-.328-.632,2.08,2.08,0,0,0-.984-.16,2.133,2.133,0,0,0-.992.16.8.8,0,0,0-.336.632,25.218,25.218,0,0,0,0,3.591.811.811,0,0,0,.336.64,2.12,2.12,0,0,0,.992.16A2.076,2.076,0,0,0,150.2,131.213Z" transform="translate(-10 -10)"/><path class="cls-10" d="M154.823,132.862v-6.544H153.5V124.7h1.328v-2.367h1.92V124.7h1.6v1.617h-1.6v6.544Z" transform="translate(-10 -10)"/><path class="cls-10" d="M159.638,122.8v-1.825h1.969V122.8Zm.017,10.064V124.7h1.936v8.161Z" transform="translate(-10 -10)"/><path class="cls-10" d="M168.054,128.462a10.247,10.247,0,0,0-.071-1.488.709.709,0,0,0-.312-.544,1.928,1.928,0,0,0-.832-.128,1.457,1.457,0,0,0-.888.216,1.07,1.07,0,0,0-.368.688,8.475,8.475,0,0,0-.088,1.432v4.224h-1.92V124.7h1.792l.063,1.025h.113a1.7,1.7,0,0,1,.8-.872,3.029,3.029,0,0,1,1.392-.281,2.529,2.529,0,0,1,1.424.329,1.615,1.615,0,0,1,.647.976,7.3,7.3,0,0,1,.168,1.768v5.216h-1.92Z" transform="translate(-10 -10)"/><path class="cls-10" d="M173.391,136.062a10.465,10.465,0,0,1-1.143-.128v-1.488q1.119.048,2.063.047a4.333,4.333,0,0,0,1.376-.151.824.824,0,0,0,.521-.576,6.014,6.014,0,0,0,.12-1.448v-.464h-.112a1.532,1.532,0,0,1-.768.792,3.078,3.078,0,0,1-1.265.231,2.585,2.585,0,0,1-1.488-.367,2.114,2.114,0,0,1-.76-1.248,13.63,13.63,0,0,1,.008-5.04,2.17,2.17,0,0,1,.776-1.273,2.551,2.551,0,0,1,1.481-.376,2.022,2.022,0,0,1,2.079,1.153h.112l.065-1.025h1.792v7.168a11.017,11.017,0,0,1-.216,2.529,2,2,0,0,1-.952,1.28,4.77,4.77,0,0,1-2.32.432Q174.1,136.11,173.391,136.062Zm2.353-5a.834.834,0,0,0,.391-.473,2.509,2.509,0,0,0,.153-.7c.026-.288.04-.667.04-1.136a5.7,5.7,0,0,0-.177-1.761.926.926,0,0,0-.391-.536,1.562,1.562,0,0,0-.76-.151,2.08,2.08,0,0,0-.92.144.829.829,0,0,0-.353.624,10.858,10.858,0,0,0-.088,1.68,10.7,10.7,0,0,0,.088,1.663.853.853,0,0,0,.353.632,1.974,1.974,0,0,0,.92.152A1.656,1.656,0,0,0,175.744,131.062Z" transform="translate(-10 -10)"/><path class="cls-10" d="M54.734,141.178q-.2-1.1-1.62-1.1a1.8,1.8,0,0,0-1.163.331.986.986,0,0,0-.409.792.924.924,0,0,0,.252.7,2.147,2.147,0,0,0,.816.42l1.573.54a3.236,3.236,0,0,1,1.277.756,1.839,1.839,0,0,1,.475,1.35,1.808,1.808,0,0,1-.745,1.464,3.108,3.108,0,0,1-1.992.594,3.2,3.2,0,0,1-2.046-.63,2.186,2.186,0,0,1-.821-1.771h.923a1.345,1.345,0,0,0,.522,1.141,2.165,2.165,0,0,0,1.345.4,2.094,2.094,0,0,0,1.3-.365,1.067,1.067,0,0,0,.48-.864,1.05,1.05,0,0,0-.294-.786,2.227,2.227,0,0,0-.87-.481l-1.332-.492a4,4,0,0,1-1.416-.743,1.617,1.617,0,0,1-.48-1.267,1.735,1.735,0,0,1,.673-1.391,2.864,2.864,0,0,1,1.883-.559,2.834,2.834,0,0,1,1.854.534,2.075,2.075,0,0,1,.738,1.435Z" transform="translate(-10 -10)"/><path class="cls-10" d="M58.5,139.8a.612.612,0,0,1-.45-.162.657.657,0,0,1,0-.864.6.6,0,0,1,.45-.162.646.646,0,0,1,.462.162.623.623,0,0,1,0,.864A.655.655,0,0,1,58.5,139.8Zm-.468,1.344h.948v5.748h-.948Z" transform="translate(-10 -10)"/><path class="cls-10" d="M62.475,142.258a1.967,1.967,0,0,1,1.932-1.248,1.964,1.964,0,0,1,1.98,1.38,1.99,1.99,0,0,1,2-1.38,1.969,1.969,0,0,1,1.6.672,2.771,2.771,0,0,1,.564,1.836v3.372h-.936v-3.372a1.779,1.779,0,0,0-.39-1.248,1.455,1.455,0,0,0-1.122-.42,1.288,1.288,0,0,0-1.134.6,2.953,2.953,0,0,0-.4,1.657v2.784H65.63v-3.372a1.779,1.779,0,0,0-.389-1.248,1.44,1.44,0,0,0-1.111-.42,1.389,1.389,0,0,0-1.163.588,2.755,2.755,0,0,0-.468,1.633v2.819h-.948v-5.736h.816Z" transform="translate(-10 -10)"/><path class="cls-10" d="M73.67,142.03a1.816,1.816,0,0,1,1.686-1.02,2.422,2.422,0,0,1,1.873.828,3.131,3.131,0,0,1,.75,2.184,3.087,3.087,0,0,1-.757,2.177,2.426,2.426,0,0,1-1.86.823,1.8,1.8,0,0,1-1.632-.828v3.516h-.948v-8.556h.78Zm1.644,4.152a1.543,1.543,0,0,0,1.182-.576,2.3,2.3,0,0,0,.51-1.578,2.423,2.423,0,0,0-.485-1.59,1.485,1.485,0,0,0-1.183-.588,1.554,1.554,0,0,0-1.14.437,1.667,1.667,0,0,0-.468,1.183v1.092a1.555,1.555,0,0,0,.457,1.188A1.573,1.573,0,0,0,75.314,146.182Z" transform="translate(-10 -10)"/><path class="cls-10" d="M79.91,138.718h.948v8.172H79.91Z" transform="translate(-10 -10)"/><path class="cls-10" d="M85.25,146.254a1.19,1.19,0,0,0,1.356-1.044h.972a1.971,1.971,0,0,1-.762,1.338,2.531,2.531,0,0,1-1.566.474,2.369,2.369,0,0,1-1.872-.823,3.2,3.2,0,0,1-.72-2.189,3.168,3.168,0,0,1,.726-2.185,2.458,2.458,0,0,1,1.932-.815,1.987,1.987,0,0,1,1.8.936,3.311,3.311,0,0,1,.414,2.28H83.606a2.345,2.345,0,0,0,.432,1.458A1.433,1.433,0,0,0,85.25,146.254Zm.7-4.345a1.614,1.614,0,0,0-1.83.355,2.181,2.181,0,0,0-.5,1.242h3.06A1.648,1.648,0,0,0,85.946,141.909Z" transform="translate(-10 -10)"/><path class="cls-10" d="M93.663,139.342l2.544,5.111,2.519-5.111h1.332v7.548H99.11v-6.2l-2.592,5.256h-.636l-2.628-5.34v6.288h-.948v-7.548Z" transform="translate(-10 -10)"/><path class="cls-10" d="M104.461,146.254a1.191,1.191,0,0,0,1.357-1.044h.972a1.971,1.971,0,0,1-.762,1.338,2.534,2.534,0,0,1-1.567.474,2.372,2.372,0,0,1-1.872-.823,3.2,3.2,0,0,1-.719-2.189,3.168,3.168,0,0,1,.726-2.185,2.458,2.458,0,0,1,1.932-.815,1.987,1.987,0,0,1,1.8.936,3.311,3.311,0,0,1,.414,2.28h-3.924a2.339,2.339,0,0,0,.432,1.458A1.432,1.432,0,0,0,104.461,146.254Zm.7-4.345a1.614,1.614,0,0,0-1.83.355,2.167,2.167,0,0,0-.5,1.242h3.06A1.648,1.648,0,0,0,105.158,141.909Z" transform="translate(-10 -10)"/><path class="cls-10" d="M109.574,142.258a1.967,1.967,0,0,1,1.932-1.248,1.964,1.964,0,0,1,1.98,1.38,1.99,1.99,0,0,1,2-1.38,1.969,1.969,0,0,1,1.6.672,2.771,2.771,0,0,1,.564,1.836v3.372h-.936v-3.372a1.779,1.779,0,0,0-.39-1.248,1.452,1.452,0,0,0-1.122-.42,1.288,1.288,0,0,0-1.134.6,2.953,2.953,0,0,0-.4,1.657v2.784h-.936v-3.372a1.775,1.775,0,0,0-.39-1.248,1.438,1.438,0,0,0-1.11-.42,1.391,1.391,0,0,0-1.164.588,2.762,2.762,0,0,0-.468,1.633v2.819h-.948v-5.736h.816Z" transform="translate(-10 -10)"/><path class="cls-10" d="M120.83,142.006a1.833,1.833,0,0,1,1.679-1,2.353,2.353,0,0,1,1.836.821,3.581,3.581,0,0,1-.012,4.357,2.338,2.338,0,0,1-1.811.834,1.878,1.878,0,0,1-1.765-1.14l-.215,1.008h-.661v-8.172h.949Zm1.62-.156a1.58,1.58,0,0,0-1.14.437,1.68,1.68,0,0,0-.48,1.219v.936a1.714,1.714,0,0,0,.473,1.266,1.563,1.563,0,0,0,1.147.474,1.473,1.473,0,0,0,1.164-.594,2.786,2.786,0,0,0,.006-3.15A1.472,1.472,0,0,0,122.45,141.85Z" transform="translate(-10 -10)"/><path class="cls-10" d="M128.87,146.254a1.189,1.189,0,0,0,1.355-1.044h.972a1.971,1.971,0,0,1-.762,1.338,2.528,2.528,0,0,1-1.565.474A2.366,2.366,0,0,1,127,146.2a3.667,3.667,0,0,1,0-4.374,2.458,2.458,0,0,1,1.932-.815,1.987,1.987,0,0,1,1.8.936,3.311,3.311,0,0,1,.414,2.28h-3.924a2.345,2.345,0,0,0,.433,1.458A1.431,1.431,0,0,0,128.87,146.254Zm.695-4.345a1.614,1.614,0,0,0-1.83.355,2.195,2.195,0,0,0-.5,1.242h3.06A1.648,1.648,0,0,0,129.565,141.909Z" transform="translate(-10 -10)"/><path class="cls-10" d="M135.41,141.957q-1.357,0-1.4,2.137v2.8h-.948v-5.748h.948v1.1a1.558,1.558,0,0,1,1.524-1.2,1.978,1.978,0,0,1,.66.109l-.048.923A2.3,2.3,0,0,0,135.41,141.957Z" transform="translate(-10 -10)"/><path class="cls-10" d="M137.947,141.43a2.831,2.831,0,0,1,1.638-.42,2.659,2.659,0,0,1,1.614.432,1.374,1.374,0,0,1,.606,1.091h-.924q-.108-.778-1.32-.78a1.382,1.382,0,0,0-.906.265.746.746,0,0,0-.318.57.659.659,0,0,0,.241.516,2.1,2.1,0,0,0,.767.366l1.153.384a2.974,2.974,0,0,1,1.122.582,1.249,1.249,0,0,1,.389.971,1.418,1.418,0,0,1-.635,1.117,2.822,2.822,0,0,1-1.777.5,2.771,2.771,0,0,1-1.776-.51,1.714,1.714,0,0,1-.672-1.315h.912a.957.957,0,0,0,.439.811,2.138,2.138,0,0,0,2.069.006.753.753,0,0,0,.408-.63.672.672,0,0,0-.24-.558,2.171,2.171,0,0,0-.779-.336l-1.117-.373q-1.5-.442-1.5-1.559A1.307,1.307,0,0,1,137.947,141.43Z" transform="translate(-10 -10)"/><path class="cls-10" d="M144.9,142.209a2.158,2.158,0,0,1,3.5-.527,2.746,2.746,0,0,1,.569,1.836v3.372h-.935v-3.372a1.775,1.775,0,0,0-.39-1.248,1.455,1.455,0,0,0-1.122-.42,1.382,1.382,0,0,0-1.177.618,2.884,2.884,0,0,0-.443,1.71v2.712h-.948v-8.172h.948Z" transform="translate(-10 -10)"/><path class="cls-10" d="M151.729,139.8a.612.612,0,0,1-.45-.162.657.657,0,0,1,0-.864.6.6,0,0,1,.45-.162.648.648,0,0,1,.462.162.623.623,0,0,1,0,.864A.657.657,0,0,1,151.729,139.8Zm-.468,1.344h.947v5.748h-.947Z" transform="translate(-10 -10)"/><path class="cls-10" d="M155.676,142.03a1.818,1.818,0,0,1,1.687-1.02,2.418,2.418,0,0,1,1.872.828,3.127,3.127,0,0,1,.75,2.184,3.087,3.087,0,0,1-.756,2.177,2.426,2.426,0,0,1-1.86.823,1.8,1.8,0,0,1-1.632-.828v3.516h-.948v-8.556h.78Zm1.645,4.152a1.539,1.539,0,0,0,1.181-.576,2.3,2.3,0,0,0,.51-1.578,2.418,2.418,0,0,0-.485-1.59,1.484,1.484,0,0,0-1.183-.588,1.55,1.55,0,0,0-1.139.437,1.663,1.663,0,0,0-.468,1.183v1.092a1.554,1.554,0,0,0,.456,1.188A1.577,1.577,0,0,0,157.321,146.182Z" transform="translate(-10 -10)"/><path class="cls-10" d="M167.2,141v2.544h2.472v.805H167.2v2.544h-.947v-2.544h-2.473v-.805h2.473V141Z" transform="translate(-10 -10)"/><path class="cls-10" d="M58.25,158.038l4.356-5.8-4.356-.035v-.864h5.544v.852l-4.356,5.8,4.356.037v.864H58.25Z" transform="translate(-10 -10)"/><path class="cls-10" d="M67.754,153.01a2.543,2.543,0,0,1,1.938.78,3.721,3.721,0,0,1,0,4.451,2.8,2.8,0,0,1-3.876,0,3.729,3.729,0,0,1,0-4.451A2.548,2.548,0,0,1,67.754,153.01Zm1.717,3.006a2.653,2.653,0,0,0-.432-1.609,1.482,1.482,0,0,0-1.267-.582,1.511,1.511,0,0,0-1.277.582,2.594,2.594,0,0,0-.445,1.609,2.7,2.7,0,0,0,.421,1.608,1.444,1.444,0,0,0,1.254.582,1.546,1.546,0,0,0,1.29-.582A2.554,2.554,0,0,0,69.471,156.016Z" transform="translate(-10 -10)"/><path class="cls-10" d="M76,154.006v-3.288h.936v8.172h-.767l-.121-.96a1.973,1.973,0,0,1-.732.816,1.888,1.888,0,0,1-1,.276,2.339,2.339,0,0,1-1.83-.84,3.2,3.2,0,0,1-.738-2.191,3.141,3.141,0,0,1,.726-2.166,2.35,2.35,0,0,1,1.836-.815A1.839,1.839,0,0,1,76,154.006Zm-1.632-.156a1.449,1.449,0,0,0-1.17.588,2.839,2.839,0,0,0,.006,3.15,1.439,1.439,0,0,0,1.152.594,1.608,1.608,0,0,0,1.146-.45,1.662,1.662,0,0,0,.5-1.206v-.936a1.719,1.719,0,0,0-.468-1.272A1.58,1.58,0,0,0,74.366,153.85Z" transform="translate(-10 -10)"/><path class="cls-10" d="M79.9,151.8a.612.612,0,0,1-.45-.162.657.657,0,0,1,0-.864.608.608,0,0,1,.45-.162.651.651,0,0,1,.462.162.623.623,0,0,1,0,.864A.655.655,0,0,1,79.9,151.8Zm-.468,1.344h.948v5.748H79.43Z" transform="translate(-10 -10)"/><path class="cls-10" d="M86.51,155.17a1.577,1.577,0,0,0-.324-1.116,1.249,1.249,0,0,0-.942-.336,1.8,1.8,0,0,0-1,.246.857.857,0,0,0-.378.774H82.826a1.564,1.564,0,0,1,1.416-1.632,4.312,4.312,0,0,1,.936-.1,2.4,2.4,0,0,1,1.668.54,2.1,2.1,0,0,1,.6,1.644v3.7H86.63l-.1-.96a1.933,1.933,0,0,1-1.908,1.092,2.1,2.1,0,0,1-1.482-.516,1.677,1.677,0,0,1-.558-1.284,1.383,1.383,0,0,1,.618-1.2,2.627,2.627,0,0,1,1.542-.432,5.025,5.025,0,0,1,1.764.312Zm0,1.332a5.6,5.6,0,0,0-1.488-.24,2.066,2.066,0,0,0-1.032.227.773.773,0,0,0-.4.721q0,1.08,1.224,1.08a1.629,1.629,0,0,0,1.194-.5A1.745,1.745,0,0,0,86.51,156.5Z" transform="translate(-10 -10)"/><path class="cls-10" d="M91.592,153.01a2.285,2.285,0,0,1,2.395,1.824l-.96.084a1.6,1.6,0,0,0-.5-.786,1.192,1.192,0,0,0-.769-.282,1.534,1.534,0,0,0-1.242.576,2.39,2.39,0,0,0-.474,1.565,2.538,2.538,0,0,0,.462,1.591,1.4,1.4,0,0,0,1.153.6,1.465,1.465,0,0,0,1.031-.318,1.173,1.173,0,0,0,.343-.906H94a1.9,1.9,0,0,1-.642,1.493,2.6,2.6,0,0,1-3.529-.257,3.125,3.125,0,0,1-.762-2.2,3.05,3.05,0,0,1,.756-2.177A2.358,2.358,0,0,1,91.592,153.01Z" transform="translate(-10 -10)"/><path class="cls-10" d="M98.7,151.342h4.644v.815h-3.7v2.533h3.479v.8H99.65v2.569h3.7v.828H98.7Z" transform="translate(-10 -10)"/><path class="cls-10" d="M110.066,158.89h-1.152l-1.644-2.172-1.561,2.172h-1.151l2.172-2.868-2.172-2.88h1.151l1.645,2.16,1.572-2.16h1.152l-2.2,2.88Z" transform="translate(-10 -10)"/><path class="cls-10" d="M112.13,151.8a.612.612,0,0,1-.45-.162.657.657,0,0,1,0-.864.608.608,0,0,1,.45-.162.651.651,0,0,1,.462.162.623.623,0,0,1,0,.864A.655.655,0,0,1,112.13,151.8Zm-.468,1.344h.948v5.748h-.948Z" transform="translate(-10 -10)"/><path class="cls-10" d="M118.19,158.722a2.533,2.533,0,0,1-1.884.2,1.329,1.329,0,0,1-.864-.8,1.78,1.78,0,0,1-.132-.72v-3.528h-.924v-.72h.924v-1.6h.936v1.6h1.8v.72h-1.8v3.516q0,.876.816.876a2.768,2.768,0,0,0,1-.216Z" transform="translate(-10 -10)"/><path class="cls-10" d="M123.914,151.342l2.544,5.112,2.519-5.112h1.332v7.548h-.948v-6.2l-2.592,5.256h-.636l-2.628-5.34v6.288h-.948v-7.548Z" transform="translate(-10 -10)"/><path class="cls-10" d="M134.8,153.01a2.545,2.545,0,0,1,1.938.78,3.725,3.725,0,0,1,0,4.451,2.8,2.8,0,0,1-3.876,0,3.725,3.725,0,0,1,0-4.451A2.545,2.545,0,0,1,134.8,153.01Zm1.716,3.006a2.653,2.653,0,0,0-.432-1.609,1.481,1.481,0,0,0-1.266-.582,1.513,1.513,0,0,0-1.278.582,2.6,2.6,0,0,0-.444,1.609,2.706,2.706,0,0,0,.42,1.608,1.444,1.444,0,0,0,1.254.582,1.545,1.545,0,0,0,1.29-.582A2.548,2.548,0,0,0,136.513,156.016Z" transform="translate(-10 -10)"/><path class="cls-10" d="M143.041,154.006v-3.288h.936v8.172h-.769l-.12-.96a1.964,1.964,0,0,1-.731.816,1.89,1.89,0,0,1-1,.276,2.337,2.337,0,0,1-1.83-.84,3.2,3.2,0,0,1-.739-2.191,3.142,3.142,0,0,1,.727-2.166,2.349,2.349,0,0,1,1.836-.815A1.84,1.84,0,0,1,143.041,154.006Zm-1.632-.156a1.449,1.449,0,0,0-1.17.588,2.839,2.839,0,0,0,.006,3.15,1.439,1.439,0,0,0,1.152.594,1.606,1.606,0,0,0,1.145-.45,1.659,1.659,0,0,0,.5-1.206v-.936a1.723,1.723,0,0,0-.468-1.272A1.58,1.58,0,0,0,141.409,153.85Z" transform="translate(-10 -10)"/><path class="cls-10" d="M150.313,157.75A1.98,1.98,0,0,1,148.405,159a2.241,2.241,0,0,1-1.567-.54,2.15,2.15,0,0,1-.593-1.668v-3.648h.948v3.576q0,1.452,1.344,1.452a1.551,1.551,0,0,0,1.265-.6,2.477,2.477,0,0,0,.511-1.537v-2.891h.947v5.748h-.947Z" transform="translate(-10 -10)"/><path class="cls-10" d="M153.685,150.718h.948v8.172h-.948Z" transform="translate(-10 -10)"/><path class="cls-10" d="M159.025,158.254a1.189,1.189,0,0,0,1.355-1.044h.972a1.971,1.971,0,0,1-.762,1.338,2.528,2.528,0,0,1-1.565.474,2.366,2.366,0,0,1-1.872-.823,3.665,3.665,0,0,1,.006-4.374,2.456,2.456,0,0,1,1.931-.815,1.986,1.986,0,0,1,1.8.936,3.307,3.307,0,0,1,.414,2.28H157.38a2.347,2.347,0,0,0,.433,1.458A1.431,1.431,0,0,0,159.025,158.254Zm.695-4.345a1.614,1.614,0,0,0-1.83.355,2.195,2.195,0,0,0-.5,1.242h3.061A1.65,1.65,0,0,0,159.72,153.909Z" transform="translate(-10 -10)"/></g></svg>