<svg id="Layer_1" data-name="Layer 1" xmlns="http://www.w3.org/2000/svg" xmlns:xlink="http://www.w3.org/1999/xlink" viewBox="0 0 180 240"><defs><style>.cls-1{fill:#626465;}.cls-2{fill:#969899;}.cls-3{fill:url(#linear-gradient);}.cls-4,.cls-5,.cls-6{fill:none;}.cls-4,.cls-5,.cls-9{stroke:#9615db;}.cls-4,.cls-9{stroke-miterlimit:10;}.cls-5,.cls-6{stroke-linecap:round;stroke-linejoin:round;}.cls-6{stroke:#b050e4;}.cls-7{fill:#e5c5f6;}.cls-8{fill:#9615db;opacity:0.5;}.cls-9{fill:#2d3032;}.cls-10{fill:#fff;}</style><linearGradient id="linear-gradient" x1="6.464" y1="223.536" x2="193.536" y2="36.464" gradientUnits="userSpaceOnUse"><stop offset="0" stop-color="#2d3032"/><stop offset="0.258" stop-color="#2f3035"/><stop offset="0.414" stop-color="#342e3d"/><stop offset="0.542" stop-color="#3d2c4b"/><stop offset="0.656" stop-color="#492960"/><stop offset="0.759" stop-color="#5a257a"/><stop offset="0.856" stop-color="#6e1f9a"/><stop offset="0.945" stop-color="#8519c0"/><stop offset="1" stop-color="#9615db"/></linearGradient></defs><g id="ERC-20_Linear_Voting_Compround_Bravo_" data-name="ERC-20 Linear Voting (Compround Bravo)"><rect class="cls-1" width="160" height="220" rx="5"/><rect class="cls-2" x="10" y="10" width="160" height="220" rx="5"/><rect class="cls-3" x="20" y="20" width="160" height="220" rx="5"/><rect class="cls-4" x="25" y="25" width="150" height="210"/><path class="cls-5" d="M158.75,50H61.25M50,111.25v-50m0,157.5v-50m120-57.5v-50m0,157.5v-50M158.75,230H61.25M50,38.75A11.25,11.25,0,1,0,61.25,50,11.25,11.25,0,0,0,50,38.75Zm120,0A11.25,11.25,0,1,0,181.25,50,11.25,11.25,0,0,0,170,38.75Zm-120,180A11.25,11.25,0,1,0,61.25,230,11.25,11.25,0,0,0,50,218.75Zm120,0A11.25,11.25,0,1,0,181.25,230,11.25,11.25,0,0,0,170,218.75Z" transform="translate(-10 -10)"/><path class="cls-6" d="M155.47,53.75H64.53M53.75,103.9V64.53m0,150.94V176.1m112.5-72.2V64.53m0,150.94V176.131M155.47,226.25H64.53M53.75,64.53a15.023,15.023,0,0,0,2.63-.96,13.906,13.906,0,0,0,2.27-1.33,14.808,14.808,0,0,0,3.59-3.59,13.906,13.906,0,0,0,1.33-2.27,15.023,15.023,0,0,0,.96-2.63M60.22,77.9,56.38,63.57m7.37,7.5-1.5-2.6m-2.1-3.634-1.5-2.6m12.78,9.19L60.6,60.6m10.47,3.15-2.6-1.5m-3.634-2.1-2.6-1.5M77.9,60.22,63.57,56.38m91.9-2.63a15.023,15.023,0,0,0,.96,2.63,13.906,13.906,0,0,0,1.33,2.27,14.808,14.808,0,0,0,3.59,3.59,13.906,13.906,0,0,0,2.27,1.33,15.023,15.023,0,0,0,2.63.96m-9.82-8.15L142.1,60.22m15.66-1.57-2.6,1.5m-3.634,2.1-2.6,1.5M159.4,60.6,148.57,71.43m12.78-9.19-1.5,2.6m-2.1,3.634-1.5,2.6m7.37-7.5L159.78,77.9M64.53,226.25a15.023,15.023,0,0,0-.96-2.63,13.906,13.906,0,0,0-1.33-2.27,14.808,14.808,0,0,0-3.59-3.59,13.906,13.906,0,0,0-2.27-1.33,15.023,15.023,0,0,0-2.63-.96m2.63.96,3.84-14.33m-1.57,15.66,1.5-2.6m2.1-3.634,1.5-2.6M60.6,219.4l10.83-10.83m-9.19,12.78,2.6-1.5m3.634-2.1,2.6-1.5m-7.5,7.37,14.33-3.84m88.35-4.31a15.023,15.023,0,0,0-2.63.96,13.906,13.906,0,0,0-2.27,1.33,14.808,14.808,0,0,0-3.59,3.59,13.906,13.906,0,0,0-1.33,2.27,15.023,15.023,0,0,0-.96,2.63m4.31-24.15,3.84,14.33m-7.37-7.5,1.5,2.6m2.1,3.634,1.5,2.6m-12.78-9.19L159.4,219.4m-10.47-3.15,2.6,1.5m3.634,2.1,2.6,1.5m-15.66-1.57,14.33,3.84" transform="translate(-10 -10)"/><path class="cls-7" d="M112.75,42.25,110,43.75l-2.75-1.5L110,37.5Zm-2.75,3-2.75-1.5L110,47.5l2.75-3.75Z" transform="translate(-10 -10)"/><path class="cls-6" d="M120.25,42.5h31.47m-33.345-1.875A1.875,1.875,0,1,0,120.25,42.5,1.874,1.874,0,0,0,118.375,40.625Zm35.22,0A1.875,1.875,0,1,0,155.47,42.5,1.874,1.874,0,0,0,153.6,40.625Z" transform="translate(-10 -10)"/><path class="cls-6" d="M68.28,42.5H99.75M66.405,40.625A1.875,1.875,0,1,0,68.28,42.5,1.874,1.874,0,0,0,66.405,40.625Zm35.22,0A1.875,1.875,0,1,0,103.5,42.5,1.874,1.874,0,0,0,101.625,40.625Z" transform="translate(-10 -10)"/><path class="cls-6" d="M42.5,99.75V68.28m-1.875,33.345A1.875,1.875,0,1,0,42.5,99.75,1.874,1.874,0,0,0,40.625,101.625Zm0-35.22A1.875,1.875,0,1,0,42.5,64.53,1.874,1.874,0,0,0,40.625,66.405ZM177.5,99.75V68.28m-1.875,33.345A1.875,1.875,0,1,0,177.5,99.75,1.874,1.874,0,0,0,175.625,101.625Zm0-35.22A1.875,1.875,0,1,0,177.5,64.53,1.874,1.874,0,0,0,175.625,66.405ZM42.5,211.72V180.25M40.625,213.6A1.875,1.875,0,1,0,42.5,211.72,1.874,1.874,0,0,0,40.625,213.6Zm0-35.22A1.875,1.875,0,1,0,42.5,176.5,1.874,1.874,0,0,0,40.625,178.375ZM177.5,211.72V180.25M175.625,213.6a1.875,1.875,0,1,0,1.875-1.875A1.874,1.874,0,0,0,175.625,213.6Zm0-35.22A1.875,1.875,0,1,0,177.5,176.5,1.874,1.874,0,0,0,175.625,178.375Z" transform="translate(-10 -10)"/><path class="cls-7" d="M112.75,237.25l-2.75,1.5-2.75-1.5L110,232.5Zm-2.75,3-2.75-1.5L110,242.5l2.75-3.75Z" transform="translate(-10 -10)"/><path class="cls-6" d="M120.25,237.5h31.47m-33.345-1.875a1.875,1.875,0,1,0,1.875,1.875A1.874,1.874,0,0,0,118.375,235.625Zm35.22,0a1.875,1.875,0,1,0,1.875,1.875A1.874,1.874,0,0,0,153.6,235.625Z" transform="translate(-10 -10)"/><path class="cls-6" d="M68.28,237.5H99.75m-33.345-1.875A1.875,1.875,0,1,0,68.28,237.5,1.874,1.874,0,0,0,66.405,235.625Zm35.22,0A1.875,1.875,0,1,0,103.5,237.5,1.874,1.874,0,0,0,101.625,235.625Z" transform="translate(-10 -10)"/><path class="cls-7" d="M49.13,43.75H43.87a.129.129,0,0,0-.12.12v5.26a.129.129,0,0,0,.12.12h5.26a.129.129,0,0,0,.12-.12V43.87A.129.129,0,0,0,49.13,43.75Zm-.88,3.12a.131.131,0,0,1-.12.13H47v1.13a.131.131,0,0,1-.13.12h-.74a.131.131,0,0,1-.13-.12V47H44.87a.131.131,0,0,1-.12-.13v-.74a.131.131,0,0,1,.12-.13H46V44.87a.131.131,0,0,1,.13-.12h.74a.131.131,0,0,1,.13.12V46h1.13a.131.131,0,0,1,.12.13Zm.88,3.88H43.87a.129.129,0,0,0-.12.12v5.26a.129.129,0,0,0,.12.12h5.26a.129.129,0,0,0,.12-.12V50.87A.129.129,0,0,0,49.13,50.75ZM48,54.3a.115.115,0,0,1,0,.17l-.53.53a.115.115,0,0,1-.17,0l-.8-.8-.8.8a.115.115,0,0,1-.17,0L45,54.47a.115.115,0,0,1,0-.17l.8-.8-.8-.8a.115.115,0,0,1,0-.17l.53-.53a.115.115,0,0,1,.17,0l.8.8.8-.8a.115.115,0,0,1,.17,0l.53.53a.115.115,0,0,1,0,.17l-.8.8Zm8.13-10.55H50.87a.129.129,0,0,0-.12.12v5.26a.129.129,0,0,0,.12.12h5.26a.129.129,0,0,0,.12-.12V43.87A.129.129,0,0,0,56.13,43.75Zm-.88,3.12a.131.131,0,0,1-.12.13H51.87a.131.131,0,0,1-.12-.13v-.74a.131.131,0,0,1,.12-.13h3.26a.131.131,0,0,1,.12.13Zm.88,3.88H50.87a.129.129,0,0,0-.12.12v5.26a.129.129,0,0,0,.12.12h5.26a.129.129,0,0,0,.12-.12V50.87A.129.129,0,0,0,56.13,50.75Zm-.88,4.12a.131.131,0,0,1-.12.13H51.87a.131.131,0,0,1-.12-.13v-.74a.131.131,0,0,1,.12-.13h3.26a.131.131,0,0,1,.12.13Zm0-2a.131.131,0,0,1-.12.13H51.87a.131.131,0,0,1-.12-.13v-.74a.131.131,0,0,1,.12-.13h3.26a.131.131,0,0,1,.12.13Z" transform="translate(-10 -10)"/><path class="cls-7" d="M169.13,223.75h-5.26a.129.129,0,0,0-.12.12v5.26a.129.129,0,0,0,.12.12h5.26a.129.129,0,0,0,.12-.12v-5.26A.129.129,0,0,0,169.13,223.75Zm-.88,3.12a.131.131,0,0,1-.12.13H167v1.13a.131.131,0,0,1-.13.12h-.74a.131.131,0,0,1-.13-.12V227h-1.13a.131.131,0,0,1-.12-.13v-.74a.131.131,0,0,1,.12-.13H166v-1.13a.131.131,0,0,1,.13-.12h.74a.131.131,0,0,1,.13.12V226h1.13a.131.131,0,0,1,.12.13Zm.88,3.88h-5.26a.129.129,0,0,0-.12.12v5.26a.129.129,0,0,0,.12.12h5.26a.129.129,0,0,0,.12-.12v-5.26A.129.129,0,0,0,169.13,230.75ZM168,234.3a.115.115,0,0,1,0,.17l-.53.53a.115.115,0,0,1-.17,0l-.8-.8-.8.8a.115.115,0,0,1-.17,0l-.53-.53a.115.115,0,0,1,0-.17l.8-.8-.8-.8a.115.115,0,0,1,0-.17l.53-.53a.115.115,0,0,1,.17,0l.8.8.8-.8a.115.115,0,0,1,.17,0l.53.53a.115.115,0,0,1,0,.17l-.8.8Zm8.13-10.55h-5.26a.129.129,0,0,0-.12.12v5.26a.129.129,0,0,0,.12.12h5.26a.129.129,0,0,0,.12-.12v-5.26A.129.129,0,0,0,176.13,223.75Zm-.88,3.12a.131.131,0,0,1-.12.13h-3.26a.131.131,0,0,1-.12-.13v-.74a.131.131,0,0,1,.12-.13h3.26a.131.131,0,0,1,.12.13Zm.88,3.88h-5.26a.129.129,0,0,0-.12.12v5.26a.129.129,0,0,0,.12.12h5.26a.129.129,0,0,0,.12-.12v-5.26A.129.129,0,0,0,176.13,230.75Zm-.88,4.12a.131.131,0,0,1-.12.13h-3.26a.131.131,0,0,1-.12-.13v-.74a.131.131,0,0,1,.12-.13h3.26a.131.131,0,0,1,.12.13Zm0-2a.131.131,0,0,1-.12.13h-3.26a.131.131,0,0,1-.12-.13v-.74a.131.131,0,0,1,.12-.13h3.26a.131.131,0,0,1,.12.13Z" transform="translate(-10 -10)"/><path class="cls-8" d="M107.62,210.96l.46.3L168,172.51v-.59Zm-2.16-1.4.46.3L168,169.72v-.59Zm58.81-40.81L103.3,208.17l.46.3,61.43-39.72Zm-4.31,0-58.81,38.03.46.29,59.27-38.32Zm-4.32,0L98.99,205.38l.46.3,57.12-36.93Zm-4.31,0-54.5,35.24.47.3,54.96-35.54Zm-4.32,0L94.67,202.59l.47.3,52.8-34.14Zm-4.3,0L92.52,201.2l.46.3,50.65-32.75Zm-4.32,0L90.36,199.8l.46.3,48.5-31.35Zm-4.31,0L88.21,198.41l.46.3L135,168.75Zm-4.31,0L86.05,197.02l.46.29,44.18-28.56Zm-4.32,0L83.89,195.62l.47.3,42.02-27.17Zm-4.3,0L81.74,194.23l.46.29,39.86-25.77Zm-4.32,0L79.58,192.83l.46.3,37.71-24.38Zm-4.31,0-35.1,22.69.46.3,35.56-22.99Zm-4.32,0L75.27,190.04l.46.3,33.39-21.59Zm-4.31,0-30.78,19.9.46.3,31.24-20.2Zm-4.32,0-28.62,18.5.46.3,29.08-18.8Zm-4.31,0L68.79,185.86l.46.3,26.93-17.41Zm-4.31,0L66.64,184.47l.46.29,24.76-16.01Zm-4.32,0L64.48,183.07l.46.3,22.61-14.62Zm-4.3,0-20,12.93.46.3,20.46-13.23ZM60.17,180.28l.46.3,18.3-11.83H78Zm102.46-69.03h.92l4.45-2.88v-.59ZM58.02,178.89l.46.3,16.14-10.44H73.7Zm100.31-67.64h.9l8.77-5.67V105ZM55.86,177.49l.46.3,13.98-9.04h-.92ZM165.84,103.6l-11.83,7.65h.92l11.37-7.35ZM53.7,176.1l.47.3L66,168.75h-.93Zm109.98-73.89-13.98,9.04h.91l13.53-8.75ZM52,174.41V175l9.67-6.25h-.92Zm109.52-73.6-16.15,10.44h.94l15.68-10.14ZM52,171.62v.6l5.37-3.47h-.93Zm107.37-72.2-18.3,11.83h.92l17.84-11.53Zm-2.16-1.39-20.45,13.22h.91l20-12.93Zm-2.15-1.4-22.61,14.62h.92l22.15-14.32Zm-2.16-1.39-24.76,16.01h.91l24.31-15.72Zm-2.15-1.39-26.91,17.4h.9l26.47-17.11Zm-2.17-1.4-29.07,18.8h.91l28.62-18.51Zm-2.15-1.39L115.2,111.25h.92l30.77-19.9Zm-2.16-1.4-33.4,21.59h.93l32.93-21.29Zm-2.15-1.39-35.55,22.98h.92l35.09-22.69Zm-2.16-1.4-37.71,24.38h.92l37.25-24.08Zm-2.15-1.39L97.95,111.25h.91l39.41-25.48Zm-2.16-1.4L93.62,111.25h.93l41.56-26.87Zm-2.16-1.39L89.32,111.25h.91l43.72-28.27Zm-2.16-1.4L85,111.25h.92l45.87-29.66Zm-2.15-1.39L80.69,111.25h.93L129.64,80.2Zm-2.16-1.4L76.37,111.25h.93L127.48,78.8Zm-2.16-1.39-52.8,34.14h.93l52.33-33.84Zm-2.15-1.39L67.75,111.25h.92l54.5-35.24Zm-2.16-1.4L63.43,111.25h.93l56.65-36.63Zm-2.15-1.39L59.12,111.25h.92l58.81-38.02Zm-2.16-1.4L54.81,111.25h.92L116.7,71.83Zm-2.16-1.39L52,110.28v.59l62.54-40.43Zm-2.15-1.39L52,107.5v.59l60.38-39.05Z" transform="translate(-10 -10)"/><path class="cls-5" d="M52,111.25V105l58-37.5.23.15,1.7,1.1.45.29,1.7,1.1.46.3,1.7,1.09.46.3,1.7,1.1.45.3,1.7,1.09.46.3,1.7,1.1.46.29,1.69,1.1.46.3,1.7,1.09.46.3,1.7,1.1.46.3,1.69,1.09.46.3,1.7,1.1.46.29,1.7,1.1.46.3,1.7,1.1.46.29,1.69,1.1.46.3,1.7,1.1.46.29,1.69,1.1.46.3,1.7,1.1.46.29,1.69,1.1.46.29,1.71,1.11.46.29,1.69,1.1.46.29,1.7,1.1.46.3,1.69,1.1.46.29,1.7,1.1.46.3,1.69,1.09.47.3,1.69,1.1.46.29,1.7,1.1.46.3L168,105v6.25M52,168.75V175l1.7,1.1.47.3,1.69,1.09.46.3,1.7,1.1.46.3,1.69,1.09.46.3,1.7,1.1.46.3,1.69,1.09.46.3,1.7,1.1.46.29,1.69,1.1.46.3,1.7,1.09.46.3,1.7,1.1.46.3,1.7,1.09.46.3,1.69,1.1.46.3,1.7,1.09.46.3,1.7,1.1.46.29,1.69,1.1.47.3,1.69,1.1.46.29,1.7,1.1.46.3,1.69,1.09.46.3,1.7,1.1.46.3,1.69,1.09.47.3,1.69,1.1.47.3,1.69,1.09.46.3,1.7,1.1.46.29,1.69,1.1.46.3,1.7,1.09.46.3,1.7,1.1.46.3,1.69,1.09.23.15L168,175v-6.25" transform="translate(-10 -10)"/><polygon class="cls-9" points="87.5 59.5 87.5 71.5 100 79.75 112.5 71.5 112.5 59.5 100 51.25 87.5 59.5"/><path class="cls-7" d="M103.945,73.359V68.13H107.3v.837H105V70.3h1.975v.844H105v1.383H107.3v.836Z" transform="translate(-10 -10)"/><path class="cls-7" d="M111.153,73.359l-.716-1.907h-1.1v1.907h-1.059V68.13h2.3a2.118,2.118,0,0,1,1.013.194.966.966,0,0,1,.463.544,3,3,0,0,1,.116.92,2.71,2.71,0,0,1-.146.93.961.961,0,0,1-.571.574l.825,2.067Zm-.341-2.812a.367.367,0,0,0,.238-.235,1.856,1.856,0,0,0,.054-.524,1.8,1.8,0,0,0-.054-.525.369.369,0,0,0-.23-.228,1.752,1.752,0,0,0-.583-.068h-.9v1.649h.892A1.8,1.8,0,0,0,110.812,70.547Z" transform="translate(-10 -10)"/><path class="cls-7" d="M115.754,73.386a6.424,6.424,0,0,1-.642.034,3.025,3.025,0,0,1-1.354-.228,1.164,1.164,0,0,1-.575-.775,9.624,9.624,0,0,1,0-3.34,1.169,1.169,0,0,1,.579-.775,2.981,2.981,0,0,1,1.35-.232,5.829,5.829,0,0,1,.65.038,3.873,3.873,0,0,1,.533.091v.775q-.633-.068-.941-.068a2.322,2.322,0,0,0-.867.11.589.589,0,0,0-.312.463,11.314,11.314,0,0,0,0,2.531.591.591,0,0,0,.312.464,2.343,2.343,0,0,0,.867.11,6.821,6.821,0,0,0,.966-.068V73.3A4.4,4.4,0,0,1,115.754,73.386Z" transform="translate(-10 -10)"/><path class="cls-7" d="M105.269,81.594h3.825v1.265h-5.388v-1a10.9,10.9,0,0,1,.075-1.5,1.632,1.632,0,0,1,.331-.8,2.086,2.086,0,0,1,.844-.553l1.037-.445c.158-.061.4-.159.713-.3a2.448,2.448,0,0,0,.513-.274.629.629,0,0,0,.219-.308,1.843,1.843,0,0,0,.055-.513,1.184,1.184,0,0,0-.138-.655.672.672,0,0,0-.443-.262,5.312,5.312,0,0,0-.969-.063q-.786,0-2.1.137V75.153a10.567,10.567,0,0,1,1.224-.165q.726-.063,1.35-.063a6,6,0,0,1,1.426.142,1.579,1.579,0,0,1,.906.61,2.317,2.317,0,0,1,.344,1.38,3.588,3.588,0,0,1-.138,1.1,1.569,1.569,0,0,1-.413.673,2.313,2.313,0,0,1-.75.439l-1.938.809a2.246,2.246,0,0,0-.287.142.543.543,0,0,0-.162.154.893.893,0,0,0-.106.325,4.08,4.08,0,0,0-.031.587Z" transform="translate(-10 -10)"/><path class="cls-7" d="M111.318,82.614a1.562,1.562,0,0,1-.762-1.111,14,14,0,0,1-.163-2.565,14,14,0,0,1,.163-2.565,1.564,1.564,0,0,1,.762-1.112,6.156,6.156,0,0,1,4.012,0,1.546,1.546,0,0,1,.757,1.106,14.735,14.735,0,0,1,.156,2.571,14.713,14.713,0,0,1-.156,2.57,1.546,1.546,0,0,1-.757,1.106,6.139,6.139,0,0,1-4.012,0Zm2.956-1.054a.818.818,0,0,0,.313-.644,28.8,28.8,0,0,0,0-3.956.818.818,0,0,0-.313-.644,3.383,3.383,0,0,0-1.906,0,.815.815,0,0,0-.319.649,28.228,28.228,0,0,0,0,3.945.816.816,0,0,0,.319.65,3.383,3.383,0,0,0,1.906,0Z" transform="translate(-10 -10)"/><path class="cls-10" d="M67.385,131.454V120.446h2.032v9.184H73.3v1.824Z" transform="translate(-10 -10)"/><path class="cls-10" d="M74.616,121.39v-1.824h1.968v1.824Zm.017,10.064v-8.16h1.936v8.16Z" transform="translate(-10 -10)"/><path class="cls-10" d="M83.032,127.054a10.078,10.078,0,0,0-.072-1.488.706.706,0,0,0-.312-.544,1.918,1.918,0,0,0-.832-.128,1.468,1.468,0,0,0-.888.216,1.078,1.078,0,0,0-.368.689,8.57,8.57,0,0,0-.088,1.431v4.224h-1.92v-8.16h1.792l.064,1.024h.112a1.715,1.715,0,0,1,.8-.872,3.045,3.045,0,0,1,1.392-.28,2.528,2.528,0,0,1,1.424.328,1.624,1.624,0,0,1,.648.976,7.352,7.352,0,0,1,.168,1.768v5.216h-1.92Z" transform="translate(-10 -10)"/><path class="cls-10" d="M93.08,128H88.616a5.785,5.785,0,0,0,.1,1.336.721.721,0,0,0,.5.511,4.687,4.687,0,0,0,1.368.137,21.258,21.258,0,0,0,2.239-.128v1.488a8.39,8.39,0,0,1-1.215.176q-.752.063-1.456.064a4.942,4.942,0,0,1-2.312-.408,1.915,1.915,0,0,1-.944-1.248,14.807,14.807,0,0,1,0-5.04,2.023,2.023,0,0,1,.92-1.288,4.309,4.309,0,0,1,2.192-.432,4.027,4.027,0,0,1,2.1.416,1.813,1.813,0,0,1,.808,1.24,14.783,14.783,0,0,1,.16,2.568Zm-4-3.1a.745.745,0,0,0-.36.528,6.9,6.9,0,0,0-.1,1.264h2.64a5.63,5.63,0,0,0-.1-1.28.754.754,0,0,0-.368-.528,1.944,1.944,0,0,0-.808-.128A2.053,2.053,0,0,0,89.08,124.894Z" transform="translate(-10 -10)"/><path class="cls-10" d="M94.951,131.006a2.7,2.7,0,0,1-.528-1.856,4.267,4.267,0,0,1,.208-1.5,1.413,1.413,0,0,1,.713-.784,3.228,3.228,0,0,1,1.4-.248q.722,0,2.129.064v-.352a2.944,2.944,0,0,0-.136-1.064.681.681,0,0,0-.5-.4A5.947,5.947,0,0,0,97,124.782c-.277,0-.634.014-1.071.04s-.79.056-1.057.088v-1.5a16.087,16.087,0,0,1,2.737-.24,5,5,0,0,1,2.04.32,1.67,1.67,0,0,1,.912,1,6.331,6.331,0,0,1,.232,1.944v5.024H99l-.064-.992h-.112a2.166,2.166,0,0,1-2.224,1.12A2.14,2.14,0,0,1,94.951,131.006Zm3.241-1.128a.861.861,0,0,0,.44-.344,2.478,2.478,0,0,0,.24-1.28v-.32h-1.6a1.94,1.94,0,0,0-.616.072.457.457,0,0,0-.281.288,2.152,2.152,0,0,0-.08.68,1.739,1.739,0,0,0,.088.64.489.489,0,0,0,.328.28,2.936,2.936,0,0,0,.769.072A2.346,2.346,0,0,0,98.192,129.878Z" transform="translate(-10 -10)"/><path class="cls-10" d="M102.777,123.294h1.792l.063,1.408h.128a1.986,1.986,0,0,1,.809-1.2,2.822,2.822,0,0,1,1.479-.336V125.1a3.025,3.025,0,0,0-1.416.272,1.533,1.533,0,0,0-.72.88,5.2,5.2,0,0,0-.215,1.68v3.52h-1.92Z" transform="translate(-10 -10)"/><path class="cls-10" d="M113.992,131.454l-2.927-11.008h2.095l2.241,8.8h.095l2.208-8.8h2.064l-2.944,11.008Z" transform="translate(-10 -10)"/><path class="cls-10" d="M121.336,131.221a1.69,1.69,0,0,1-.88-1.183,18.689,18.689,0,0,1,0-5.344,1.671,1.671,0,0,1,.88-1.176,7.354,7.354,0,0,1,4.5,0,1.669,1.669,0,0,1,.879,1.184,13.066,13.066,0,0,1,.194,2.672,12.935,12.935,0,0,1-.194,2.664,1.686,1.686,0,0,1-.879,1.183,7.18,7.18,0,0,1-4.5,0Zm3.233-1.416a.813.813,0,0,0,.336-.639,25.232,25.232,0,0,0,0-3.592.821.821,0,0,0-.329-.632,2.087,2.087,0,0,0-.984-.16,2.146,2.146,0,0,0-.992.16.8.8,0,0,0-.336.632,24.845,24.845,0,0,0,0,3.592.808.808,0,0,0,.336.639,2.117,2.117,0,0,0,.992.161A2.078,2.078,0,0,0,124.569,129.805Z" transform="translate(-10 -10)"/><path class="cls-10" d="M129.192,131.454V124.91h-1.328v-1.616h1.328v-2.367h1.92v2.367h1.6v1.616h-1.6v6.544Z" transform="translate(-10 -10)"/><path class="cls-10" d="M134.007,121.39v-1.824h1.969v1.824Zm.017,10.064v-8.16h1.935v8.16Z" transform="translate(-10 -10)"/><path class="cls-10" d="M142.423,127.054a10.266,10.266,0,0,0-.071-1.488.709.709,0,0,0-.313-.544,1.921,1.921,0,0,0-.832-.128,1.462,1.462,0,0,0-.887.216,1.078,1.078,0,0,0-.369.689,8.594,8.594,0,0,0-.087,1.431v4.224h-1.92v-8.16h1.792l.063,1.024h.112a1.715,1.715,0,0,1,.8-.872,3.044,3.044,0,0,1,1.393-.28,2.532,2.532,0,0,1,1.424.328,1.618,1.618,0,0,1,.647.976,7.352,7.352,0,0,1,.168,1.768v5.216h-1.92Z" transform="translate(-10 -10)"/><path class="cls-10" d="M147.759,134.654a10.488,10.488,0,0,1-1.144-.128v-1.488q1.12.048,2.064.048a4.334,4.334,0,0,0,1.376-.152.82.82,0,0,0,.52-.576,5.943,5.943,0,0,0,.121-1.448v-.464h-.113a1.53,1.53,0,0,1-.767.792,3.078,3.078,0,0,1-1.265.231,2.581,2.581,0,0,1-1.488-.367,2.1,2.1,0,0,1-.76-1.248,13.63,13.63,0,0,1,.008-5.04,2.171,2.171,0,0,1,.776-1.272,2.551,2.551,0,0,1,1.481-.376,2.024,2.024,0,0,1,2.079,1.152h.112l.064-1.024h1.792v7.168a11.07,11.07,0,0,1-.215,2.528,2,2,0,0,1-.952,1.28,4.775,4.775,0,0,1-2.321.432Q148.472,134.7,147.759,134.654Zm2.353-5a.842.842,0,0,0,.391-.473,2.537,2.537,0,0,0,.153-.7c.026-.288.04-.667.04-1.135a5.7,5.7,0,0,0-.177-1.761.917.917,0,0,0-.392-.536,1.547,1.547,0,0,0-.76-.152,2.075,2.075,0,0,0-.919.144.833.833,0,0,0-.353.624,10.745,10.745,0,0,0-.088,1.681,10.586,10.586,0,0,0,.088,1.663.853.853,0,0,0,.353.631,1.967,1.967,0,0,0,.919.153A1.657,1.657,0,0,0,150.112,129.654Z" transform="translate(-10 -10)"/><path class="cls-10" d="M53.259,137.8a2.976,2.976,0,0,1,1.95.606,3.072,3.072,0,0,1,1.014,1.578l-1.02.2a2.394,2.394,0,0,0-.75-1.122,1.838,1.838,0,0,0-1.194-.414,1.922,1.922,0,0,0-1.572.792,3.475,3.475,0,0,0-.624,2.2,4.071,4.071,0,0,0,.558,2.262,1.834,1.834,0,0,0,1.638.852,2.036,2.036,0,0,0,1.422-.474,1.612,1.612,0,0,0,.522-1.254h1.02a2.356,2.356,0,0,1-.81,1.884,3.29,3.29,0,0,1-2.22.7,2.784,2.784,0,0,1-2.28-1.08,4.476,4.476,0,0,1-.87-2.892,4.112,4.112,0,0,1,.9-2.826A2.955,2.955,0,0,1,53.259,137.8Z" transform="translate(-10 -10)"/><path class="cls-10" d="M60.063,139.6a2.545,2.545,0,0,1,1.938.78,3.726,3.726,0,0,1,0,4.452,2.8,2.8,0,0,1-3.876,0,3.726,3.726,0,0,1,0-4.452A2.545,2.545,0,0,1,60.063,139.6Zm1.716,3.006A2.648,2.648,0,0,0,61.347,141a1.478,1.478,0,0,0-1.266-.582A1.511,1.511,0,0,0,58.8,141a2.6,2.6,0,0,0-.444,1.608,2.709,2.709,0,0,0,.42,1.609,1.448,1.448,0,0,0,1.254.582,1.547,1.547,0,0,0,1.29-.582A2.551,2.551,0,0,0,61.779,142.608Z" transform="translate(-10 -10)"/><path class="cls-10" d="M65.463,140.85A1.967,1.967,0,0,1,67.4,139.6a1.968,1.968,0,0,1,1.98,1.38,1.99,1.99,0,0,1,2-1.38,1.969,1.969,0,0,1,1.6.672,2.773,2.773,0,0,1,.564,1.836v3.372H72.6V142.11a1.779,1.779,0,0,0-.39-1.248,1.459,1.459,0,0,0-1.122-.42,1.286,1.286,0,0,0-1.134.6,2.947,2.947,0,0,0-.4,1.656v2.784h-.936V142.11a1.775,1.775,0,0,0-.389-1.248,1.442,1.442,0,0,0-1.111-.42,1.389,1.389,0,0,0-1.163.588,2.759,2.759,0,0,0-.468,1.633v2.819h-.948v-5.736h.816Z" transform="translate(-10 -10)"/><path class="cls-10" d="M76.659,140.622a1.816,1.816,0,0,1,1.686-1.02,2.421,2.421,0,0,1,1.872.828,3.128,3.128,0,0,1,.75,2.184,3.091,3.091,0,0,1-.756,2.178,2.425,2.425,0,0,1-1.86.822,1.8,1.8,0,0,1-1.632-.828V148.3h-.948v-8.556h.78Zm1.644,4.152a1.54,1.54,0,0,0,1.182-.576A2.3,2.3,0,0,0,80,142.62a2.42,2.42,0,0,0-.486-1.59,1.482,1.482,0,0,0-1.182-.588,1.555,1.555,0,0,0-1.14.438,1.665,1.665,0,0,0-.468,1.182v1.092a1.522,1.522,0,0,0,1.584,1.62Z" transform="translate(-10 -10)"/><path class="cls-10" d="M84.963,139.6a2.546,2.546,0,0,1,1.938.78,3.726,3.726,0,0,1,0,4.452,2.8,2.8,0,0,1-3.876,0,3.726,3.726,0,0,1,0-4.452A2.545,2.545,0,0,1,84.963,139.6Zm1.716,3.006A2.648,2.648,0,0,0,86.247,141a1.478,1.478,0,0,0-1.266-.582A1.511,1.511,0,0,0,83.7,141a2.589,2.589,0,0,0-.444,1.608,2.709,2.709,0,0,0,.42,1.609,1.448,1.448,0,0,0,1.254.582,1.547,1.547,0,0,0,1.29-.582A2.551,2.551,0,0,0,86.679,142.608Z" transform="translate(-10 -10)"/><path class="cls-10" d="M93.351,144.343a1.98,1.98,0,0,1-1.908,1.248,2.243,2.243,0,0,1-1.566-.54,2.15,2.15,0,0,1-.595-1.669v-3.648h.949v3.576q0,1.452,1.343,1.452a1.553,1.553,0,0,0,1.267-.6,2.478,2.478,0,0,0,.51-1.536v-2.892H94.3v5.748h-.948Z" transform="translate(-10 -10)"/><path class="cls-10" d="M97.635,140.85a2.157,2.157,0,0,1,3.521-.576,2.748,2.748,0,0,1,.57,1.836v3.372h-.936V142.11a1.779,1.779,0,0,0-.389-1.248,1.444,1.444,0,0,0-1.111-.42,1.389,1.389,0,0,0-1.163.588,2.766,2.766,0,0,0-.469,1.633v2.819h-.947v-5.736h.816Z" transform="translate(-10 -10)"/><path class="cls-10" d="M107.714,140.6V137.31h.936v8.172h-.768l-.12-.96a1.981,1.981,0,0,1-.731.817,1.9,1.9,0,0,1-1,.275,2.337,2.337,0,0,1-1.83-.84,3.2,3.2,0,0,1-.738-2.19,3.138,3.138,0,0,1,.726-2.166,2.352,2.352,0,0,1,1.837-.816A1.839,1.839,0,0,1,107.714,140.6Zm-1.632-.156a1.449,1.449,0,0,0-1.17.588,2.839,2.839,0,0,0,.006,3.15,1.439,1.439,0,0,0,1.153.594,1.6,1.6,0,0,0,1.145-.45,1.662,1.662,0,0,0,.5-1.206v-.936a1.719,1.719,0,0,0-.468-1.272A1.58,1.58,0,0,0,106.082,140.442Z" transform="translate(-10 -10)"/><path class="cls-10" d="M113.942,137.934h2.82a2.686,2.686,0,0,1,1.83.564,1.806,1.806,0,0,1,.642,1.416,1.857,1.857,0,0,1-.354,1.128,1.775,1.775,0,0,1-1.074.648,1.856,1.856,0,0,1,1.134.612,1.661,1.661,0,0,1,.426,1.117,1.859,1.859,0,0,1-1.356,1.883,3.675,3.675,0,0,1-1.236.18h-2.832Zm.948,3.372h1.848a1.691,1.691,0,0,0,1.11-.342,1.285,1.285,0,0,0,.012-1.878,1.7,1.7,0,0,0-1.122-.336H114.89Zm1.86,3.348a1.783,1.783,0,0,0,1.236-.348,1.205,1.205,0,0,0,.372-.924,1.138,1.138,0,0,0-.408-.918,1.827,1.827,0,0,0-1.2-.342h-1.86v2.532Z" transform="translate(-10 -10)"/><path class="cls-10" d="M123.746,140.55q-1.356,0-1.4,2.136v2.8h-.948v-5.748h.948v1.1a1.558,1.558,0,0,1,1.523-1.2,2,2,0,0,1,.661.109l-.047.924A2.307,2.307,0,0,0,123.746,140.55Z" transform="translate(-10 -10)"/><path class="cls-10" d="M129.53,141.761a1.575,1.575,0,0,0-.324-1.115,1.249,1.249,0,0,0-.942-.336,1.8,1.8,0,0,0-1,.246.857.857,0,0,0-.378.774h-1.044a1.564,1.564,0,0,1,1.416-1.632,4.312,4.312,0,0,1,.936-.1,2.4,2.4,0,0,1,1.667.54,2.1,2.1,0,0,1,.6,1.644v3.7h-.816l-.1-.96a1.932,1.932,0,0,1-1.908,1.092,2.1,2.1,0,0,1-1.482-.516,1.676,1.676,0,0,1-.558-1.284,1.383,1.383,0,0,1,.618-1.2,2.627,2.627,0,0,1,1.542-.432,5.025,5.025,0,0,1,1.764.312Zm0,1.333a5.6,5.6,0,0,0-1.488-.24,2.041,2.041,0,0,0-1.032.229.768.768,0,0,0-.4.719q0,1.08,1.224,1.081a1.626,1.626,0,0,0,1.193-.5A1.746,1.746,0,0,0,129.53,143.094Z" transform="translate(-10 -10)"/><path class="cls-10" d="M132.77,139.746l1.727,4.74,1.741-4.74h1.068l-2.28,5.736h-1.044l-2.281-5.736Z" transform="translate(-10 -10)"/><path class="cls-10" d="M140.8,139.6a2.546,2.546,0,0,1,1.938.78,3.726,3.726,0,0,1,0,4.452,2.8,2.8,0,0,1-3.876,0,3.722,3.722,0,0,1,0-4.452A2.543,2.543,0,0,1,140.8,139.6Zm1.716,3.006a2.648,2.648,0,0,0-.433-1.608,1.476,1.476,0,0,0-1.265-.582,1.513,1.513,0,0,0-1.279.582,2.6,2.6,0,0,0-.443,1.608,2.709,2.709,0,0,0,.42,1.609,1.446,1.446,0,0,0,1.254.582,1.549,1.549,0,0,0,1.29-.582A2.551,2.551,0,0,0,142.514,142.608Z" transform="translate(-10 -10)"/><path class="cls-10" d="M148.13,139.746l1.392,4.572,1.368-4.3h.792l1.356,4.344,1.4-4.62h.936l-1.872,5.736h-.924l-1.32-4.02-1.3,4.02h-.912l-1.908-5.736Z" transform="translate(-10 -10)"/><path class="cls-10" d="M157.369,138.39a.61.61,0,0,1-.45-.162.657.657,0,0,1,0-.864.61.61,0,0,1,.45-.162.651.651,0,0,1,.462.162.623.623,0,0,1,0,.864A.651.651,0,0,1,157.369,138.39Zm-.467,1.344h.947v5.748H156.9Z" transform="translate(-10 -10)"/><path class="cls-10" d="M163.429,145.314a2.529,2.529,0,0,1-1.884.2,1.33,1.33,0,0,1-.864-.8,1.789,1.789,0,0,1-.132-.721v-3.528h-.924v-.72h.924v-1.6h.936v1.6h1.8v.72h-1.8v3.516q0,.876.816.876a2.768,2.768,0,0,0,1-.216Z" transform="translate(-10 -10)"/><path class="cls-10" d="M165.89,140.8a2.157,2.157,0,0,1,3.5-.528,2.748,2.748,0,0,1,.569,1.836v3.372h-.935V142.11a1.775,1.775,0,0,0-.39-1.248,1.459,1.459,0,0,0-1.122-.42,1.382,1.382,0,0,0-1.177.618,2.886,2.886,0,0,0-.443,1.71v2.712h-.948V137.31h.948Z" transform="translate(-10 -10)"/><path class="cls-10" d="M67.226,149.8a3.044,3.044,0,0,1,2.37,1,5.14,5.14,0,0,1,.006,5.82,3.057,3.057,0,0,1-2.376.99,3.021,3.021,0,0,1-2.37-1,5.164,5.164,0,0,1,0-5.808A3.021,3.021,0,0,1,67.226,149.8Zm0,.852a2,2,0,0,0-1.668.792,3.668,3.668,0,0,0-.611,2.28,3.559,3.559,0,0,0,.611,2.256,2.2,2.2,0,0,0,3.342,0,3.533,3.533,0,0,0,.618-2.256,3.642,3.642,0,0,0-.618-2.28A2.011,2.011,0,0,0,67.226,150.654Z" transform="translate(-10 -10)"/><path class="cls-10" d="M71.978,156.631l4.356-5.8-4.356-.035v-.865h5.544v.852l-4.356,5.8,4.356.036v.864H71.978Z" transform="translate(-10 -10)"/><path class="cls-10" d="M82.274,149.934l2.16,6.348,2.172-6.348h1l-2.676,7.548h-.984l-2.664-7.548Z" transform="translate(-10 -10)"/><path class="cls-10" d="M90.7,151.6a2.54,2.54,0,0,1,1.938.781,3.725,3.725,0,0,1,0,4.451,2.8,2.8,0,0,1-3.876,0,3.725,3.725,0,0,1,0-4.451A2.542,2.542,0,0,1,90.7,151.6Zm1.716,3.006A2.65,2.65,0,0,0,91.983,153a1.479,1.479,0,0,0-1.267-.582,1.511,1.511,0,0,0-1.278.582,2.6,2.6,0,0,0-.444,1.608,2.709,2.709,0,0,0,.42,1.609,1.448,1.448,0,0,0,1.254.582,1.545,1.545,0,0,0,1.29-.582A2.551,2.551,0,0,0,92.414,154.608Z" transform="translate(-10 -10)"/><path class="cls-10" d="M98.186,157.314a2.528,2.528,0,0,1-1.884.2,1.33,1.33,0,0,1-.864-.8,1.789,1.789,0,0,1-.132-.721v-3.527h-.924v-.721h.924v-1.6h.936v1.6h1.8v.721h-1.8v3.515q0,.876.816.876a2.768,2.768,0,0,0,1-.216Z" transform="translate(-10 -10)"/><path class="cls-10" d="M100.226,150.39a.607.607,0,0,1-.45-.162.657.657,0,0,1,0-.864.611.611,0,0,1,.45-.162.655.655,0,0,1,.462.162.623.623,0,0,1,0,.864A.651.651,0,0,1,100.226,150.39Zm-.468,1.344h.948v5.748h-.948Z" transform="translate(-10 -10)"/><path class="cls-10" d="M104.2,152.85a2.158,2.158,0,0,1,3.522-.576,2.75,2.75,0,0,1,.569,1.836v3.372h-.935V154.11a1.775,1.775,0,0,0-.39-1.248,1.443,1.443,0,0,0-1.11-.42,1.389,1.389,0,0,0-1.164.588,2.77,2.77,0,0,0-.468,1.632v2.82h-.948v-5.736h.816Z" transform="translate(-10 -10)"/><path class="cls-10" d="M110.762,157.3a1.129,1.129,0,0,1-.721-1.068.9.9,0,0,1,.282-.654,1.414,1.414,0,0,1,.7-.378,1.927,1.927,0,0,1-.649-1.512,1.906,1.906,0,0,1,.666-1.512,2.338,2.338,0,0,1,1.578-.576,2.688,2.688,0,0,1,1.548.432,1.535,1.535,0,0,1,1.633-1.4l-.084.935q-1.056,0-1.1.888a1.9,1.9,0,0,1,.419,1.236,1.94,1.94,0,0,1-.666,1.518,2.4,2.4,0,0,1-1.662.594,2.569,2.569,0,0,1-1.212-.276.9.9,0,0,0-.431.222.608.608,0,0,0-.193.474q0,.636,1.057.636h2.231a2.117,2.117,0,0,1,1.273.342,1.117,1.117,0,0,1,.468.954,1.969,1.969,0,0,1-.918,1.6,3.784,3.784,0,0,1-2.323.684,4.03,4.03,0,0,1-2.208-.522,1.533,1.533,0,0,1-.8-1.314,1.169,1.169,0,0,1,.3-.839A1.665,1.665,0,0,1,110.762,157.3Zm-.181,1.26a.942.942,0,0,0,.5.786,2.773,2.773,0,0,0,1.513.33,3.054,3.054,0,0,0,1.691-.438,1.235,1.235,0,0,0,.678-1.025.646.646,0,0,0-.2-.475.827.827,0,0,0-.607-.2h-2.315a1.522,1.522,0,0,0-.936.294A.9.9,0,0,0,110.581,158.562Zm3.529-4.878a1.4,1.4,0,0,0-.372-1.007,1.542,1.542,0,0,0-2.052,0,1.4,1.4,0,0,0-.372,1.013,1.442,1.442,0,0,0,.378,1.027,1.342,1.342,0,0,0,1.026.4,1.311,1.311,0,0,0,1.02-.408A1.465,1.465,0,0,0,114.11,153.684Z" transform="translate(-10 -10)"/><path class="cls-10" d="M119.017,149.934h5.869v.816h-2.461v6.732h-.947V150.75h-2.461Z" transform="translate(-10 -10)"/><path class="cls-10" d="M127.286,151.6a2.542,2.542,0,0,1,1.938.781,3.725,3.725,0,0,1,0,4.451,2.8,2.8,0,0,1-3.876,0,3.725,3.725,0,0,1,0-4.451A2.542,2.542,0,0,1,127.286,151.6ZM129,154.608A2.65,2.65,0,0,0,128.57,153a1.478,1.478,0,0,0-1.266-.582,1.511,1.511,0,0,0-1.278.582,2.6,2.6,0,0,0-.444,1.608,2.709,2.709,0,0,0,.42,1.609,1.446,1.446,0,0,0,1.254.582,1.548,1.548,0,0,0,1.29-.582A2.551,2.551,0,0,0,129,154.608Z" transform="translate(-10 -10)"/><path class="cls-10" d="M133.49,154.446l-.768.624v2.412h-.948V149.31h.948v4.752l2.771-2.316h1.321l-2.64,2.148,2.772,3.588h-1.165Z" transform="translate(-10 -10)"/><path class="cls-10" d="M140.522,156.846a1.189,1.189,0,0,0,1.355-1.044h.972a1.969,1.969,0,0,1-.762,1.338,2.521,2.521,0,0,1-1.565.474,2.366,2.366,0,0,1-1.872-.822,3.2,3.2,0,0,1-.721-2.19,3.162,3.162,0,0,1,.727-2.184,2.455,2.455,0,0,1,1.931-.816,1.987,1.987,0,0,1,1.8.936,3.313,3.313,0,0,1,.414,2.28h-3.924a2.347,2.347,0,0,0,.433,1.458A1.431,1.431,0,0,0,140.522,156.846Zm.7-4.344a1.61,1.61,0,0,0-1.83.354,2.195,2.195,0,0,0-.5,1.242h3.06A1.648,1.648,0,0,0,141.217,152.5Z" transform="translate(-10 -10)"/><path class="cls-10" d="M145.633,152.85a2.159,2.159,0,0,1,3.523-.576,2.76,2.76,0,0,1,.569,1.836v3.372h-.936V154.11a1.779,1.779,0,0,0-.39-1.248,1.44,1.44,0,0,0-1.11-.42,1.391,1.391,0,0,0-1.164.588,2.77,2.77,0,0,0-.468,1.632v2.82h-.948v-5.736h.816Z" transform="translate(-10 -10)"/><path class="cls-10" d="M152.263,152.022a2.832,2.832,0,0,1,1.639-.42,2.658,2.658,0,0,1,1.613.432,1.371,1.371,0,0,1,.606,1.092H155.2q-.109-.78-1.321-.78a1.384,1.384,0,0,0-.906.264.745.745,0,0,0-.317.57.658.658,0,0,0,.24.516,2.034,2.034,0,0,0,.767.366l1.153.384a3,3,0,0,1,1.122.582,1.247,1.247,0,0,1,.389.972,1.415,1.415,0,0,1-.635,1.116,2.822,2.822,0,0,1-1.777.5,2.773,2.773,0,0,1-1.776-.51,1.717,1.717,0,0,1-.672-1.314h.912a.955.955,0,0,0,.439.81,2.138,2.138,0,0,0,2.069.006.753.753,0,0,0,.408-.63.674.674,0,0,0-.24-.558,2.207,2.207,0,0,0-.779-.336l-1.117-.372q-1.5-.444-1.5-1.56A1.309,1.309,0,0,1,152.263,152.022Z" transform="translate(-10 -10)"/></g></svg>