<svg id="Layer_2" data-name="Layer 2" xmlns="http://www.w3.org/2000/svg" xmlns:xlink="http://www.w3.org/1999/xlink" viewBox="0 0 93.37 86.62"><defs><style>.logo-1{fill:none;}.logo-2{fill:#fff;}.logo-3{fill:#969899;}.logo-4{clip-path:url(#clip-path);}.logo-5{clip-path:url(#clip-path-2);}</style><clipPath id="clip-path" transform="translate(-40.81 -40.76)"><path class="logo-1" d="M133.94,60.38c-12,1.18-22.21,10.45-24.54,17.17h-4.91c-2.33-6.72-12.55-16-24.54-17.17,0,0,12.27-7.36,27-7.36S133.94,60.38,133.94,60.38Z"/></clipPath><clipPath id="clip-path-2" transform="translate(-40.81 -40.76)"><path class="logo-1" d="M112.6,88.59s-9.49-.27-15.94,7.36H94.21c-6.45-7.63-15.95-7.36-15.95-7.36,4.21-3.2,12.09-4.91,17.17-4.91S108.39,85.38,112.6,88.59Z"/></clipPath></defs><g id="Abbreviation_White" data-name="Abbreviation White"><path class="logo-2" d="M115.11,73l-.08.09a34,34,0,0,1,1.19,4.31A12.46,12.46,0,0,0,115.11,73Zm6,13c0-.39,0-.78-.1-1.17l-.17-1.16c.06.28.18,1,.26,1.42a42.76,42.76,0,0,0-.59-5.87,41.53,41.53,0,0,0-1.45-5.71c-.38-1.09-.8-2.17-1.26-3.2A29.92,29.92,0,0,0,115.11,73l-.08.1a4.47,4.47,0,0,0-.35.41,32.84,32.84,0,0,1,1.78,6.4c.18,1,.32,2,.44,2.9a35.25,35.25,0,0,0-.56-4.81,9.67,9.67,0,0,1,.38,1.15,15.3,15.3,0,0,1,.17,2,17.44,17.44,0,0,0,.26,2.16c-.05,0-.1,0-.15-.16a6.8,6.8,0,0,1,.09,1.1v.08c.09.61.17,1.16.27,1.6-.18.84-.38,1.78-.53,2.79a32.46,32.46,0,0,1-1.6,7.36c0,.23.15.09.23.09-.21.53-.47,1-.7,1.54s-.53,1-.79,1.49a30.82,30.82,0,0,1-3.1,5.25c-.22.43-.48.84-.7,1.28a8.57,8.57,0,0,0-.82.64c-.25.29-.49.59-.75.86s-.54.54-.8.84a38.45,38.45,0,0,1-7.57,6.06,2.22,2.22,0,0,1-.54.43c-.49.27-1,.53-1.48.75a14.66,14.66,0,0,1-1.46.64c-.83.39-1.66.69-2.46,1s-1.6.53-2.33.75a37.36,37.36,0,0,1-3.73.88c-1.12.29.1.46,1.6.56s3.23.24,3,.46c-1.15.92-3,1.23-5.34,1.6a46.63,46.63,0,0,1-8.68.28c-.93-.09-.61,0,0,.16s1.39.28,1.41.4a5.15,5.15,0,0,1-1,.17l.27,0h-.36a35.41,35.41,0,0,1-4.49-.16,35.47,35.47,0,0,0,15.47.79,36.29,36.29,0,0,0,14.41-5.81,33.84,33.84,0,0,1-5.14,2.67A32.88,32.88,0,0,1,94,121.42,37.58,37.58,0,0,0,111.3,111.1a38.47,38.47,0,0,0,9.26-19.51,11.29,11.29,0,0,1-.14,2.1A40.46,40.46,0,0,0,121.13,86ZM87.86,122.14l-.89.09L88.1,122c.37-.07.74-.18,1.11-.26A13.34,13.34,0,0,1,87.86,122.14ZM107.6,114l-.82.75-.12.06,1-.91Zm-44.72,3.44c-.53-.3-1-.6-1.53-.91A28.11,28.11,0,0,0,68,120.54a40.89,40.89,0,0,0,7.4,2.45,38.58,38.58,0,0,1-12.48-5.6Zm54-34.63v.07h0s0,0,0-.07Zm.2,1.56c-.06-.44-.12-.92-.19-1.42h0v0c0,.46,0,.92,0,1.38v1.37a.45.45,0,0,1,.29-.21,8,8,0,0,1-.13-1.08Zm-12.58,26.45c.32-.19.65-.34.94-.5.32-.45.75-.85.91-1.07,1.31-1.17,2.39-2.21,3.44-3.3a5.55,5.55,0,0,1,.58-1.26c.35-.47.65-1,1-1.41s.57-1,.84-1.43a34.14,34.14,0,0,1-7.66,9Zm4,2.27a22.67,22.67,0,0,0,2.25-2.35c-.71.78-1.45,1.59-2.24,2.35ZM123,80.71a42.94,42.94,0,0,0-3-9.52,16.85,16.85,0,0,1-1.7-.7,59.44,59.44,0,0,1,2.23,7,28.2,28.2,0,0,1,.87,7.37c0,1.11-.13.83-.22.26V86c.07.9.1,1.81.09,2.71a24.9,24.9,0,0,1-.24,2.74,34.91,34.91,0,0,1-1.46,6c-.1.39-.25.76-.37,1.14l.18-.58A40.91,40.91,0,0,1,104.43,117a37.07,37.07,0,0,0,6.5-5.28,41.84,41.84,0,0,0,5.23-6.56,32.75,32.75,0,0,1-7.3,9.36,37.16,37.16,0,0,0,5.52-5.9c.66-.79,1.26-1.64,1.83-2.41s1.07-1.49,1.47-2.09a63.46,63.46,0,0,1-3.82,5.87,39.4,39.4,0,0,0,6.87-12.13,43.15,43.15,0,0,1-3.2,7.27,29.15,29.15,0,0,1-4.76,6.34c.38-.48.72-1,1.07-1.48a39,39,0,0,1-20.27,13,22.93,22.93,0,0,0,7.27-2.47,73.47,73.47,0,0,0,7-4.27A36.89,36.89,0,0,1,96,122.79a39.67,39.67,0,0,1-13.68,1.94,40.63,40.63,0,0,1-13.54-2.86,43.94,43.94,0,0,1-11.06-6.4v0a42.82,42.82,0,0,0,15.88,8.84c-1.17-.36-2.52-.73-3.83-1.18a39.27,39.27,0,0,0,12.9,2.52h0a43.26,43.26,0,0,0,15.22-2.33,41,41,0,0,0,13.29-7.61,12.36,12.36,0,0,1-2,2,14.74,14.74,0,0,1-2,1.34c-1.31.74-2.56,1.27-3.8,2a38.39,38.39,0,0,1-10.82,4.26,44.36,44.36,0,0,1-5.62.87,41.89,41.89,0,0,1-5.49.09,41.89,41.89,0,0,0,6.81-.25,34.52,34.52,0,0,1-10.44-.4c.65,0,1.68.09,2.63.17a7.6,7.6,0,0,0,2.13-.08,45.64,45.64,0,0,1-17-3.85c-.79-.38-1.44-.67-2-.91s-.77-.37-1.17-.53c-.56-.19-.71-.13-.58.1a4.8,4.8,0,0,0,1.07,1,11.62,11.62,0,0,0,1.86,1.17c13.14,6.61,28.39,6.13,40.1-1.29a47.66,47.66,0,0,0,7.44-6.22,44.56,44.56,0,0,0,5.87-7.67,40,40,0,0,0,2.89-5.25c.39-.92.77-1.79,1-2.59.14-.38.26-.75.37-1.09s.17-.63.23-.89a42,42,0,0,0,.25-17Zm-35-33.08A43,43,0,0,0,71.85,49a49,49,0,0,0-13.51,6.11c1.68-.94,4-2.36,6.45-3.46a33.46,33.46,0,0,1,3.64-1.42,19.78,19.78,0,0,1,3.2-.74c-.38.2-.76.41-1.12.63a19,19,0,0,0,2.24-.36c1-.17,2-.34,2.67-.39a7.81,7.81,0,0,1-1.86.4l1.28-.16c-1.28.33-2.86.75-4.45,1.3a36.37,36.37,0,0,0-4.61,1.91c-2.78,1.42-4.61,2.89-3.93,3s2.86-1.22,5.82-2.46a43.52,43.52,0,0,1,4.85-1.7,32.37,32.37,0,0,1,5.06-1,68.85,68.85,0,0,0-8.29,2.76,30.1,30.1,0,0,0-7.59,4.49c1.17-.65,1.92-.85,3.57-1.78a33.26,33.26,0,0,1,6.56-2.79,30.43,30.43,0,0,1,3.24-1,10.44,10.44,0,0,1,3.2-.32l.61-.06a8.77,8.77,0,0,1,1.2-.3l1.17,0,.92.05h1a12.5,12.5,0,0,0,1.28-.05c0,.05-.05.09-.18.13a5.24,5.24,0,0,1,1.12,0,7.88,7.88,0,0,0,1.19,0,.51.51,0,0,0,.19.32,32.68,32.68,0,0,1,3.66.67A65.84,65.84,0,0,1,100,50.94,39.6,39.6,0,0,0,88,47.62ZM99.1,114.4a32.56,32.56,0,0,1-15.19,3.79c.5.06,1,.09,1.44.13l1.32.16c1.32-.42,3.49-.8,5.82-1.44a29.22,29.22,0,0,0,6.63-2.64Zm17.79-31.53h0v0a.14.14,0,0,1,0-.06ZM77.27,122c-.72-.13-1.44-.23-2.16-.39a3.82,3.82,0,0,0,.56.14,24.71,24.71,0,0,0,3.42.49h.09L77.29,122Z" transform="translate(-40.81 -40.76)"/><polygon class="logo-2" points="28 26.98 28 63.77 23.26 63.77 23.26 47.16 4.74 47.16 4.74 63.77 0 63.77 0 26.98 4.74 26.98 4.74 43.18 23.26 43.18 23.26 26.98 28 26.98"/><g id="Main_Edited" data-name="Main Edited"><path class="logo-2" d="M109.66,111.22a2.31,2.31,0,0,1-1.53,2.21,5.48,5.48,0,0,1-2.19.42,4,4,0,0,1-2.61-.76,1,1,0,0,1-.28-1.14c4.27-10.92,2.23-31.71,1.22-34.31a.27.27,0,0,1,0-.23.21.21,0,0,1,.19-.11h4.91a.23.23,0,0,1,.2.11.24.24,0,0,1,0,.23c-1,2.56-.37,21.73-.07,31Z" transform="translate(-40.81 -40.76)"/><path class="logo-3" d="M133.94,60.38c-12,1.18-22.21,10.45-24.54,17.17h-4.91c-2.33-6.72-12.55-16-24.54-17.17,0,0,12.27-7.36,27-7.36S133.94,60.38,133.94,60.38Z" transform="translate(-40.81 -40.76)"/><g class="logo-4"><path class="logo-2" d="M104.27,77.63c-2.13-6.18-12-15.79-24.31-17l0-.5c12.49,1.24,22.56,11,24.74,17.34Zm1-.16c-1.85-5.34-10-20.27-19.83-21.26l-.05.49c9.5.94,17.67,15.88,19.42,20.93Zm.49,0c-.12-.33-.26-.76-.43-1.27-2.14-6.36-7.73-23.24-14.5-23.91l-.05.49c6.45.63,12.2,17.9,14.08,23.57l.44,1.28Zm.49,0c-.2-.57-.56-2.32-1-4.54-1.77-8.45-5.07-24.18-9-24.57l0,.49c3.57.35,6.94,16.45,8.54,24.19.49,2.31.84,4,1.07,4.59Zm.49,0c-.12-.34-.39-3.2-.7-6.55-1.57-16.65-2.79-26.32-4.41-26.48l0,.49c.22,0,1,.76,2.19,9.39.72,5.34,1.33,11.88,1.78,16.65.39,4.11.59,6.28.73,6.66Zm.5-36.71h-.49V77.55h.49Z" transform="translate(-40.81 -40.76)"/><path class="logo-2" d="M109.64,77.63l-.46-.16c2.18-6.3,12.24-16.1,24.73-17.34l.05.5C121.67,61.84,111.78,71.45,109.64,77.63ZM128.57,56.7l0-.49c-9.86,1-18,15.92-19.83,21.26l.46.16C110.9,72.58,119.06,57.64,128.57,56.7ZM109.09,76.35c1.89-5.67,7.63-22.94,14.08-23.57l0-.49c-6.76.67-12.38,17.55-14.5,23.91-.17.53-.31.94-.42,1.27l.46.16Zm.13-3.31c1.6-7.74,5-23.84,8.53-24.19l0-.49c-3.92.39-7.21,16.12-9,24.57-.46,2.22-.82,4-1,4.54l.47.16c.23-.6.58-2.28,1.07-4.59ZM108.4,71c.45-4.77,1.07-11.3,1.79-16.65,1.15-8.63,2-9.37,2.19-9.39l0-.49c-1.6.16-2.85,9.83-4.41,26.48-.32,3.33-.58,6.21-.71,6.55l.47.16c.13-.38.34-2.52.72-6.66Zm-1.2-30.21h-.49V77.55h.49Z" transform="translate(-40.81 -40.76)"/></g><path class="logo-2" d="M109.41,77.78H104.5a.26.26,0,0,1-.23-.17C103,74,99.64,69.94,95.2,66.7A31.35,31.35,0,0,0,80,60.61a.25.25,0,0,1-.22-.27.23.23,0,0,1,.12-.18c.12-.08,12.5-7.4,27.1-7.4s27,7.34,27.11,7.41a.24.24,0,0,1,.08.34.26.26,0,0,1-.18.12c-12.27,1.21-22.18,10.82-24.32,17A.25.25,0,0,1,109.41,77.78Zm-4.73-.49h4.56c2.25-6.17,11.88-15.55,23.92-17.08-2.74-1.48-13.64-6.93-26.2-6.93s-23.48,5.47-26.2,6.93a32.26,32.26,0,0,1,14.74,6.1c4.44,3.26,7.86,7.36,9.18,11Z" transform="translate(-40.81 -40.76)"/><path class="logo-2" d="M134.19,60.38c0,2.22-4.65,9.32-10.06,9.32a12.8,12.8,0,0,1-6.74-2.18c-16.31-9.84-31.43-8.06-36-7.2a32.21,32.21,0,0,1,14.08,6,.25.25,0,0,1,.09.27c0,.13-.2.17-.34.17C90,66.76,83.51,65.6,80.92,63a3.62,3.62,0,0,1-1.18-2.56.06.06,0,0,1,0-.06,0,0,0,0,1,0,0c.16-2.52,12.69-7.56,27.21-7.56C122,52.78,134.19,56.19,134.19,60.38Z" transform="translate(-40.81 -40.76)"/></g><g id="Secondary"><path class="logo-2" d="M113.46,88.26c0,2.64-11.67,4.27-18,4.27s-18-1.6-18-4.27c0-4.41,8-9.73,18-9.73S113.46,83.85,113.46,88.26Z" transform="translate(-40.81 -40.76)"/><path class="logo-3" d="M112.6,88.59s-9.49-.27-15.94,7.36H94.21c-6.45-7.63-15.95-7.36-15.95-7.36,4.21-3.2,12.09-4.91,17.17-4.91S108.39,85.38,112.6,88.59Z" transform="translate(-40.81 -40.76)"/><g class="logo-5"><path class="logo-2" d="M94.21,96.19a.25.25,0,0,1-.2-.09c-6.3-7.44-15.65-7.27-15.74-7.27a.25.25,0,1,1,0-.49c.1,0,9.69-.18,16.14,7.45a.24.24,0,0,1,0,.34h0A.27.27,0,0,1,94.21,96.19Zm.36-.06a.25.25,0,0,0,0-.34,37.33,37.33,0,0,0-13.39-9.47.24.24,0,0,0-.31.13h0a.24.24,0,0,0,.14.32A37.19,37.19,0,0,1,94.2,96.1a.21.21,0,0,0,.18.09.25.25,0,0,0,.2-.06Zm.2,0a.23.23,0,0,0,0-.34c-4.27-5-10.57-11.4-10.64-11.46a.24.24,0,0,0-.34,0,.25.25,0,0,0,0,.35h0c.06.07,6.37,6.41,10.61,11.43a.22.22,0,0,0,.19.09.21.21,0,0,0,.18-.06Zm.2,0a.24.24,0,0,0,0-.34h0c-3.17-3.74-7.89-13.34-7.94-13.44a.24.24,0,0,0-.33-.12.25.25,0,0,0-.12.34c0,.09,4.81,9.74,8,13.53a.21.21,0,0,0,.18.09.23.23,0,0,0,.16-.06Zm.21,0a.23.23,0,0,0,0-.34C93.09,93.32,90,80.48,89.92,80.35a.25.25,0,0,0-.48.12c.13.53,3.2,13.08,5.37,15.63a.23.23,0,0,0,.19.09.21.21,0,0,0,.18-.06Zm.21,0a.25.25,0,0,0,0-.34c-.76-.89-2-10.92-2.6-17.45a.26.26,0,0,0-.27-.21.24.24,0,0,0-.22.26h0c.16,1.68,1.6,16.42,2.71,17.71a.25.25,0,0,0,.19.09.23.23,0,0,0,.19-.06Zm.28-.18V76.32a.24.24,0,0,0-.24-.24h0a.25.25,0,0,0-.25.24V96a.25.25,0,0,0,.25.24.24.24,0,0,0,.24-.24Z" transform="translate(-40.81 -40.76)"/><path class="logo-2" d="M96.66,96.19a.23.23,0,0,1-.16-.06.24.24,0,0,1,0-.34h0c6.45-7.63,16-7.45,16.13-7.45a.24.24,0,0,1,.24.24h0a.25.25,0,0,1-.25.24c-.09,0-9.45-.16-15.75,7.27A.21.21,0,0,1,96.66,96.19Zm0-.09a37.1,37.1,0,0,1,13.18-9.33.24.24,0,0,0,.14-.32.25.25,0,0,0-.31-.14h0a37.69,37.69,0,0,0-13.38,9.47.24.24,0,0,0,0,.34h0a.23.23,0,0,0,.16.06.22.22,0,0,0,.17-.09Zm-.21,0c4.24-5,10.55-11.36,10.62-11.43a.25.25,0,0,0,0-.34.25.25,0,0,0-.35,0v0c-.07.06-6.4,6.42-10.64,11.46a.23.23,0,0,0,0,.34h0a.23.23,0,0,0,.16.06.26.26,0,0,0,.17-.09Zm-.21,0c3.21-3.79,8-13.44,8-13.53a.26.26,0,0,0-.11-.34.25.25,0,0,0-.33.11h0c0,.09-4.77,9.69-7.94,13.44a.23.23,0,0,0,0,.34h0a.23.23,0,0,0,.33,0Zm-.2,0c2.14-2.55,5.24-15.1,5.37-15.63a.26.26,0,0,0-.18-.3.25.25,0,0,0-.3.18c0,.13-3.2,13-5.26,15.44a.25.25,0,0,0,0,.34.23.23,0,0,0,.16.06.27.27,0,0,0,.2-.09Zm-.2,0c1.07-1.29,2.55-16,2.71-17.71a.24.24,0,0,0-.21-.26h0a.25.25,0,0,0-.27.21c-.63,6.53-1.84,16.54-2.59,17.45a.23.23,0,0,0,0,.34.23.23,0,0,0,.16.06.23.23,0,0,0,.19-.09ZM95.69,96V76.32a.25.25,0,0,0-.25-.24h0a.24.24,0,0,0-.24.24V96a.24.24,0,1,0,.47,0Z" transform="translate(-40.81 -40.76)"/></g><path class="logo-2" d="M96.66,96.19H94.21a.25.25,0,0,1-.2-.09c-6.3-7.44-15.65-7.27-15.74-7.27a.25.25,0,0,1-.24-.16.27.27,0,0,1,.08-.28c4.23-3.2,12.08-5,17.32-5s13.09,1.74,17.32,5a.24.24,0,0,1,0,.34.23.23,0,0,1-.21.1c-.09,0-9.45-.16-15.75,7.27A.21.21,0,0,1,96.66,96.19Zm-2.34-.49h2.22c5.4-6.31,12.95-7.21,15.32-7.34-4.27-2.88-11.51-4.43-16.43-4.43S83.25,85.48,79,88.36C81.37,88.49,88.92,89.39,94.32,95.7Z" transform="translate(-40.81 -40.76)"/><path class="logo-2" d="M97.82,112.87c.14,1.89.25,3.53.31,4.74v.06c0,.44-.22,1-1.22,1.42a7.33,7.33,0,0,1-2.5.41,4.27,4.27,0,0,1-2.8-.71.63.63,0,0,1-.07-.74c4.16-7.31,3.13-21.69,1.26-23.27a.22.22,0,0,1-.08-.27.25.25,0,0,1,.23-.16h5a.25.25,0,0,1,.25.25.24.24,0,0,1-.09.18C96.62,96,97.37,106.59,97.82,112.87Z" transform="translate(-40.81 -40.76)"/></g><g id="Tertiary"><path class="logo-2" d="M102.36,112.65c.08,1.23.15,2.29.18,3.07v0a1.13,1.13,0,0,1-.83,1,4.15,4.15,0,0,1-1.48.25,2.66,2.66,0,0,1-1.75-.47.47.47,0,0,1-.07-.59c2.48-4.73,1.88-14,.76-15a.25.25,0,0,1-.06-.27.25.25,0,0,1,.23-.16h3a.24.24,0,0,1,.23.16.25.25,0,0,1-.06.27C101.63,101.74,102.09,108.56,102.36,112.65Z" transform="translate(-40.81 -40.76)"/><path class="logo-2" d="M110.88,102.55a.61.61,0,0,1-.21.47,1.91,1.91,0,0,1-1.23.28,26.37,26.37,0,0,1-3.56-.39,25.26,25.26,0,0,0-10.1,0c-2.67.4-4.23.6-4.8.11a.58.58,0,0,1-.21-.47c0-2.67,4.3-5.62,10-5.62S110.88,99.89,110.88,102.55Z" transform="translate(-40.81 -40.76)"/></g></g></svg>