<svg id="Layer_2" data-name="Layer 2" xmlns="http://www.w3.org/2000/svg" xmlns:xlink="http://www.w3.org/1999/xlink" viewBox="0 0 92.49 32.48"><defs><style>.colored-logo-1{fill:#e5c5f6;}.colored-logo-2{fill:#2d3032;}.colored-logo-3{fill:url(#linear-gradient);}.colored-logo-4{clip-path:url(#clip-path);}.colored-logo-5{fill:#9615db;}.colored-logo-6{clip-path:url(#clip-path-2);}.colored-logo-7{fill:url(#linear-gradient-2);}.colored-logo-8{fill:url(#linear-gradient-3);}</style><linearGradient id="linear-gradient" x1="535.8" y1="409.92" x2="535.8" y2="396.22" gradientUnits="userSpaceOnUse"><stop offset="0" stop-color="#2d3032"/><stop offset="0.15" stop-color="#382d44"/><stop offset="0.45" stop-color="#562574"/><stop offset="0.87" stop-color="#8619c1"/><stop offset="1" stop-color="#9615db"/></linearGradient><clipPath id="clip-path" transform="translate(-453.75 -382.52)"><path class="colored-logo-1" d="M546.15,389.88c-4.49.44-8.32,3.92-9.19,6.43h-1.84c-.87-2.51-4.7-6-9.19-6.43a19.9,19.9,0,0,1,20.22,0Z"/></clipPath><clipPath id="clip-path-2" transform="translate(-453.75 -382.52)"><path class="colored-logo-1" d="M538.15,400.45a8.15,8.15,0,0,0-6,2.76h-.92a8.17,8.17,0,0,0-6-2.76,12.17,12.17,0,0,1,12.87,0Z"/></clipPath><linearGradient id="linear-gradient-2" x1="531.48" y1="412.04" x2="531.48" y2="402.61" xlink:href="#linear-gradient"/><linearGradient id="linear-gradient-3" x1="533.6" y1="411.12" x2="533.6" y2="404.93" xlink:href="#linear-gradient"/></defs><path class="colored-logo-2" d="M539.1,394.6l0,0a11,11,0,0,1,.45,1.61A4.82,4.82,0,0,0,539.1,394.6Zm2.25,4.88c0-.14,0-.29,0-.44l-.06-.43c0,.1.07.35.1.53a16.38,16.38,0,0,0-.22-2.21,15.48,15.48,0,0,0-.55-2.13c-.14-.41-.3-.82-.47-1.21a9.62,9.62,0,0,0-1,1l0,0-.13.15a12,12,0,0,1,.67,2.39c.07.38.12.75.17,1.09a13.59,13.59,0,0,0-.21-1.8,3.09,3.09,0,0,1,.14.43,4.73,4.73,0,0,1,.06.76,7,7,0,0,0,.1.81s0,0-.06-.06a2.37,2.37,0,0,1,0,.41v0c0,.23.06.44.1.61s-.14.66-.2,1a11.94,11.94,0,0,1-.6,2.76c0,.09.06,0,.09,0-.08.2-.18.39-.26.58l-.3.56a11.84,11.84,0,0,1-1.16,2c-.09.16-.18.31-.26.48a2.63,2.63,0,0,0-.31.24l-.28.32-.3.31a14.76,14.76,0,0,1-2.84,2.28.76.76,0,0,1-.2.16c-.19.1-.37.2-.55.28l-.55.24c-.31.15-.63.26-.92.38s-.6.21-.88.28a13.15,13.15,0,0,1-1.39.33c-.42.11,0,.17.6.21s1.21.09,1.13.17a4.3,4.3,0,0,1-2,.6,18.29,18.29,0,0,1-3.25.1c-.35,0-.23,0,0,.06a2.67,2.67,0,0,1,.53.15,2.53,2.53,0,0,1-.39.07h0a13.69,13.69,0,0,1-1.68-.06,13.16,13.16,0,0,0,5.79.29,13.51,13.51,0,0,0,5.39-2.17,12.53,12.53,0,0,1-1.92,1,11.52,11.52,0,0,1-2,.62,14,14,0,0,0,6.48-3.87,14.44,14.44,0,0,0,3.48-7.31,4.61,4.61,0,0,1-.06.79A15.41,15.41,0,0,0,541.35,399.48ZM528.88,413l-.33,0L529,413l.42-.09Zm7.4-3.07-.3.28-.05,0,.38-.34Zm-16.76,1.29-.57-.34a10.38,10.38,0,0,0,2.48,1.52,15.69,15.69,0,0,0,2.76.92A14.43,14.43,0,0,1,519.52,411.25Zm20.25-13v0h0Zm.07.58c0-.16,0-.34-.07-.53h0v0c0,.17,0,.35,0,.52s0,.34,0,.51a.21.21,0,0,1,.11-.08C539.86,399.13,539.85,399,539.84,398.85Zm-4.71,9.92.35-.19c.12-.17.28-.32.34-.4.49-.44.9-.83,1.29-1.24a1.7,1.7,0,0,1,.22-.47c.13-.18.24-.36.36-.53s.21-.36.31-.54A12.7,12.7,0,0,1,535.13,408.77Zm1.52.85a10,10,0,0,0,.84-.88C537.22,409,536.94,409.33,536.65,409.62Zm5.4-12.12a16.66,16.66,0,0,0-1.14-3.57,6.62,6.62,0,0,1-.64-.26,21.32,21.32,0,0,1,.84,2.61,10.65,10.65,0,0,1,.32,2.76c0,.42,0,.32-.08.1v.34c0,.34,0,.68,0,1a9.15,9.15,0,0,1-.09,1,13,13,0,0,1-.55,2.23c0,.15-.09.29-.14.43l.07-.22a13.81,13.81,0,0,1-3,4.9,14.1,14.1,0,0,1-2.56,2.25,14,14,0,0,0,2.44-2,15.91,15.91,0,0,0,2-2.46,12.31,12.31,0,0,1-2.74,3.51,14.46,14.46,0,0,0,2.07-2.21c.25-.3.47-.62.69-.91l.55-.78a24.56,24.56,0,0,1-1.44,2.19,14.75,14.75,0,0,0,2.58-4.54,15.22,15.22,0,0,1-1.2,2.72,11,11,0,0,1-1.78,2.38c.14-.18.27-.37.4-.56a14.67,14.67,0,0,1-3.44,3,14.87,14.87,0,0,1-4.15,1.81,8.66,8.66,0,0,0,2.72-.92,28.17,28.17,0,0,0,2.63-1.6,13.69,13.69,0,0,1-4.45,2.45,14.62,14.62,0,0,1-5.14.73,15.12,15.12,0,0,1-5.07-1.07,16.59,16.59,0,0,1-4.15-2.4s0,0,0,0a16.06,16.06,0,0,0,5.95,3.31c-.43-.13-.94-.27-1.43-.44a13.42,13.42,0,0,0,2.36.67,14,14,0,0,0,2.48.28h0a16.25,16.25,0,0,0,5.7-.87,15.31,15.31,0,0,0,5-2.86,4.75,4.75,0,0,1-.73.75,7.51,7.51,0,0,1-.75.5c-.49.28-1,.47-1.42.74a14.53,14.53,0,0,1-4.06,1.59,17.11,17.11,0,0,1-2.11.33,15.64,15.64,0,0,1-2,0,15.54,15.54,0,0,0,2.55-.09,15.07,15.07,0,0,1-1.63.08,14.33,14.33,0,0,1-2.29-.23c.25,0,.63,0,1,.06a2.71,2.71,0,0,0,.81,0,17.2,17.2,0,0,1-6.37-1.44c-.3-.15-.54-.25-.73-.34a3.84,3.84,0,0,0-.44-.19c-.21-.08-.27,0-.22,0a1.72,1.72,0,0,0,.41.39,4,4,0,0,0,.7.44,15.28,15.28,0,0,0,15-.48,18.84,18.84,0,0,0,2.79-2.33,17.56,17.56,0,0,0,2.2-2.88,15.26,15.26,0,0,0,1.08-2c.15-.34.29-.67.39-1,0-.14.09-.28.13-.41a2.77,2.77,0,0,0,.09-.33A15.79,15.79,0,0,0,542.05,397.5Zm-13.14-12.41a16.13,16.13,0,0,0-6,.5,18.29,18.29,0,0,0-5.06,2.29,26.85,26.85,0,0,1,2.42-1.3,12.26,12.26,0,0,1,1.36-.53,7,7,0,0,1,1.2-.28l-.42.24a6.2,6.2,0,0,0,.84-.14c.36-.06.74-.12,1-.14a3.5,3.5,0,0,1-.69.15l.48-.06c-.48.12-1.07.28-1.67.48a13.6,13.6,0,0,0-1.73.72c-1,.53-1.73,1.08-1.47,1.11a14.42,14.42,0,0,0,2.18-.92,16.11,16.11,0,0,1,1.82-.64,12.41,12.41,0,0,1,1.89-.38,24,24,0,0,0-3.1,1,11,11,0,0,0-2.85,1.68c.44-.25.72-.32,1.34-.67a12.88,12.88,0,0,1,2.45-1,10.61,10.61,0,0,1,1.22-.38,3.68,3.68,0,0,1,1.19-.12l.23,0c.16,0,.3-.09.45-.11h.44l.35,0h.35a4.36,4.36,0,0,0,.48,0s0,0-.06.05a2.92,2.92,0,0,1,.42,0h.44a.19.19,0,0,0,.07.12,12.69,12.69,0,0,1,1.37.25,24.23,24.23,0,0,1,3.62-.63A14.77,14.77,0,0,0,528.91,385.09Zm4.19,25a11.68,11.68,0,0,1-2.77,1.07,12,12,0,0,1-2.92.36l.54.05.49.06c.49-.16,1.31-.3,2.18-.54a11.35,11.35,0,0,0,2.49-1Zm6.67-11.82h0v0ZM524.92,413l-.81-.15.21.05a10.44,10.44,0,0,0,1.28.19h0Z" transform="translate(-453.75 -382.52)"/><path class="colored-logo-2" d="M464.25,392.64v13.79h-1.78V400.2h-6.94v6.23h-1.78V392.64h1.78v6.07h6.94v-6.07Zm11.83,0L472.2,399l-3.8-6.33h-2.11l5,8.13v5.66h1.8v-5.66l5.07-8.13Zm13.43,4.25a4,4,0,0,1-1.22,3.08,5.1,5.1,0,0,1-3.56,1.13h-2.79v5.33h-1.78V392.64h4.57a5,5,0,0,1,3.56,1.15A4,4,0,0,1,489.51,396.89Zm-1.82,0a2.76,2.76,0,0,0-.75-2,3,3,0,0,0-2.21-.75h-2.79v5.48h2.79a3.08,3.08,0,0,0,2.21-.72A2.65,2.65,0,0,0,487.69,396.9Zm13.23-4.26v6.07H494v-6.07H492.2v13.79H494V400.2h6.95v6.23h1.78V392.64Zm15.92,13.79H515l-.46-1.36h-7.11l-.48,1.36h-1.86l4.85-13.79h2.16Zm-2.77-2.72-.74-2.15h0l-2.34-6.8-2.36,6.8h0l-.47,1.36h0l-.27.79Zm6.94,1.21V392.64h-1.77v13.79h8.07v-1.51Z" transform="translate(-453.75 -382.52)"/><g id="Main_Edited" data-name="Main Edited"><path class="colored-logo-3" d="M537.05,408.93a.86.86,0,0,1-.57.83,2,2,0,0,1-.82.16,1.55,1.55,0,0,1-1-.28.4.4,0,0,1-.11-.43c1.6-4.09.84-11.89.46-12.86a.1.1,0,0,1,0-.09.08.08,0,0,1,.07,0H537a.08.08,0,0,1,.07,0,.1.1,0,0,1,0,.09c-.37,1-.14,8.14,0,11.59Z" transform="translate(-453.75 -382.52)"/><path class="colored-logo-1" d="M546.15,389.88c-4.49.44-8.32,3.92-9.19,6.43h-1.84c-.87-2.51-4.7-6-9.19-6.43a19.9,19.9,0,0,1,20.22,0Z" transform="translate(-453.75 -382.52)"/><g class="colored-logo-4"><path class="colored-logo-5" d="M535,396.34c-.8-2.31-4.51-5.92-9.11-6.37l0-.18c4.68.46,8.45,4.13,9.27,6.49Zm.36-.06c-.69-2-3.74-7.6-7.43-8l0,.18c3.56.35,6.62,5.95,7.28,7.84Zm.19,0c-.05-.12-.1-.28-.17-.47-.79-2.39-2.89-8.71-5.43-9l0,.19c2.42.24,4.57,6.71,5.28,8.84.07.19.12.35.16.47Zm.18,0c-.08-.21-.21-.87-.39-1.7-.66-3.16-1.9-9.06-3.37-9.21v.19c1.33.13,2.6,6.16,3.2,9.06.19.87.32,1.5.4,1.72Zm.18,0c0-.12-.14-1.2-.26-2.45-.59-6.24-1-9.87-1.65-9.93l0,.19c.08,0,.39.28.82,3.52.27,2,.5,4.45.67,6.24.14,1.54.22,2.35.27,2.49Zm.19-13.76H536v13.79h.18Z" transform="translate(-453.75 -382.52)"/><path class="colored-5" d="M537.05,396.34l-.18-.06c.82-2.36,4.59-6,9.27-6.49l0,.18C541.56,390.42,537.85,394,537.05,396.34Zm7.09-7.84,0-.18c-3.69.36-6.74,6-7.43,8l.17.06C537.52,394.45,540.58,388.85,544.14,388.5Zm-7.3,7.37c.71-2.13,2.86-8.6,5.28-8.84l0-.19c-2.54.26-4.64,6.58-5.44,9-.06.19-.11.35-.16.47l.18.06C536.72,396.22,536.77,396.06,536.84,395.87Zm0-1.25c.6-2.9,1.87-8.93,3.2-9.06v-.19c-1.47.15-2.71,6.05-3.37,9.21-.18.83-.31,1.49-.39,1.7l.17.06C536.57,396.12,536.7,395.49,536.89,394.62Zm-.31-.77c.17-1.79.4-4.24.67-6.24.43-3.24.74-3.52.82-3.52l0-.19c-.6.06-1.06,3.69-1.65,9.93-.12,1.25-.22,2.33-.26,2.45l.17.06C536.36,396.2,536.44,395.39,536.58,393.85Zm-.45-11.33H536v13.79h.18Z" transform="translate(-453.75 -382.52)"/></g><path class="colored-5" d="M537,396.41h-1.84a.11.11,0,0,1-.09-.07,9.51,9.51,0,0,0-3.39-4.09,11.75,11.75,0,0,0-5.72-2.28.08.08,0,0,1-.08-.07.1.1,0,0,1,0-.1,20,20,0,0,1,20.32,0,.1.1,0,0,1,0,.1.08.08,0,0,1-.08.07c-4.6.45-8.31,4.06-9.11,6.37A.11.11,0,0,1,537,396.41Zm-1.77-.19h1.7c.85-2.31,4.46-5.83,9-6.4a19.78,19.78,0,0,0-19.64,0,12.14,12.14,0,0,1,5.53,2.28A9.91,9.91,0,0,1,535.19,396.22Z" transform="translate(-453.75 -382.52)"/><path class="colored-5" d="M546.25,389.88c0,.83-1.74,3.49-3.77,3.49a4.76,4.76,0,0,1-2.53-.82,19.68,19.68,0,0,0-13.48-2.7,12.19,12.19,0,0,1,5.27,2.25.09.09,0,0,1,0,.1.12.12,0,0,1-.13.07c-2,0-4.39-.44-5.37-1.41a1.34,1.34,0,0,1-.44-1v0c.06-.94,4.75-2.83,10.2-2.83C541.67,387,546.25,388.31,546.25,389.88Z" transform="translate(-453.75 -382.52)"/></g><g id="Secondary"><path class="colored-5" d="M538.48,400.33c0,1-4.38,1.59-6.76,1.59s-6.76-.6-6.76-1.59c0-1.65,3-3.65,6.76-3.65S538.48,398.68,538.48,400.33Z" transform="translate(-453.75 -382.52)"/><path class="colored-logo-1" d="M538.15,400.45a8.15,8.15,0,0,0-6,2.76h-.92a8.17,8.17,0,0,0-6-2.76,12.17,12.17,0,0,1,12.87,0Z" transform="translate(-453.75 -382.52)"/><g class="colored-logo-6"><path class="colored-5" d="M531.26,403.3a.09.09,0,0,1-.07,0,8.15,8.15,0,0,0-5.9-2.73.09.09,0,0,1-.1-.09.09.09,0,0,1,.09-.09,8.32,8.32,0,0,1,6.05,2.79.09.09,0,0,1,0,.13Zm.14,0a.1.1,0,0,0,0-.13,14.15,14.15,0,0,0-5-3.55.09.09,0,0,0-.12,0,.1.1,0,0,0,.05.12,13.88,13.88,0,0,1,4.95,3.5.08.08,0,0,0,.07,0Zm.07,0a.09.09,0,0,0,0-.13c-1.59-1.89-4-4.27-4-4.3a.09.09,0,1,0-.13.13s2.39,2.41,4,4.29a.11.11,0,0,0,.07,0Zm.08,0a.09.09,0,0,0,0-.13,34.49,34.49,0,0,1-3-5,.09.09,0,0,0-.12,0,.09.09,0,0,0,0,.12,35.07,35.07,0,0,0,3,5.08.09.09,0,0,0,.07,0Zm.08,0a.1.1,0,0,0,0-.13c-.79-.92-2-5.74-2-5.79a.09.09,0,0,0-.11-.06.09.09,0,0,0-.07.11c0,.2,1.2,4.9,2,5.86a.08.08,0,0,0,.07,0Zm.07,0a.09.09,0,0,0,0-.13c-.28-.33-.73-4.09-1-6.54a.11.11,0,0,0-.1-.08.1.1,0,0,0-.09.1c.07.63.61,6.15,1,6.64a.11.11,0,0,0,.07,0Zm.11-.07v-7.36a.09.09,0,1,0-.18,0v7.36a.09.09,0,0,0,.18,0Z" transform="translate(-453.75 -382.52)"/><path class="colored-5" d="M532.18,403.3l-.06,0a.09.09,0,0,1,0-.13,8.32,8.32,0,0,1,6-2.79.09.09,0,0,1,.09.09.11.11,0,0,1-.1.09,8.15,8.15,0,0,0-5.9,2.73A.11.11,0,0,1,532.18,403.3Zm0,0a14,14,0,0,1,4.94-3.5.09.09,0,0,0,.06-.12.09.09,0,0,0-.12,0,14.15,14.15,0,0,0-5,3.55.09.09,0,0,0,0,.13l.06,0A.09.09,0,0,0,532.17,403.27Zm-.07,0c1.59-1.88,3.95-4.26,4-4.29a.09.09,0,0,0,0-.13.1.1,0,0,0-.13,0s-2.39,2.41-4,4.3a.09.09,0,0,0,0,.13.08.08,0,0,0,.06,0A.11.11,0,0,0,532.1,403.27Zm-.08,0a35.07,35.07,0,0,0,3-5.08.1.1,0,0,0,0-.12.11.11,0,0,0-.13,0,33.24,33.24,0,0,1-3,5,.09.09,0,0,0,0,.13l.06,0A.11.11,0,0,0,532,403.27Zm-.08,0c.81-1,2-5.66,2-5.86a.08.08,0,0,0-.06-.11.11.11,0,0,0-.12.06c0,.05-1.19,4.86-2,5.79a.09.09,0,0,0,0,.13l.06,0A.09.09,0,0,0,531.94,403.27Zm-.07,0c.41-.49,1-6,1-6.64a.08.08,0,0,0-.08-.1.09.09,0,0,0-.1.08c-.24,2.45-.69,6.21-1,6.54a.09.09,0,0,0,0,.13.08.08,0,0,0,.06,0A.11.11,0,0,0,531.87,403.27Zm-.06-.06v-7.36a.09.09,0,1,0-.18,0v7.36a.09.09,0,0,0,.18,0Z" transform="translate(-453.75 -382.52)"/></g><path class="colored-5" d="M532.18,403.3h-.92a.09.09,0,0,1-.07,0,8.15,8.15,0,0,0-5.9-2.73.08.08,0,0,1-.09-.06.08.08,0,0,1,0-.1,12.25,12.25,0,0,1,13,0,.09.09,0,0,1,0,.1.09.09,0,0,1-.09.06,8.15,8.15,0,0,0-5.9,2.73A.09.09,0,0,1,532.18,403.3Zm-.88-.18h.84a8.23,8.23,0,0,1,5.74-2.75,12.2,12.2,0,0,0-12.32,0A8.23,8.23,0,0,1,531.3,403.12Z" transform="translate(-453.75 -382.52)"/><path class="colored-logo-7" d="M532.61,409.55c.06.71.1,1.33.12,1.78v0c0,.17-.08.39-.46.53a2.49,2.49,0,0,1-.93.16,1.62,1.62,0,0,1-1.05-.27.23.23,0,0,1,0-.27c1.56-2.75,1.17-8.14.47-8.73a.09.09,0,0,1,0-.1.11.11,0,0,1,.09-.06h1.86a.09.09,0,0,1,.08.06.08.08,0,0,1,0,.1C532.16,403.24,532.45,407.19,532.61,409.55Z" transform="translate(-453.75 -382.52)"/></g><g id="Tertiary"><path class="colored-logo-8" d="M534.32,409.47c0,.46,0,.86.06,1.15v0a.43.43,0,0,1-.31.38,1.38,1.38,0,0,1-.55.1,1,1,0,0,1-.66-.18.18.18,0,0,1,0-.22c.94-1.77.71-5.25.29-5.63a.08.08,0,0,1,0-.1.08.08,0,0,1,.08-.06h1.12a.08.08,0,0,1,.08.06.08.08,0,0,1,0,.1C534,405.38,534.22,407.94,534.32,409.47Z" transform="translate(-453.75 -382.52)"/><path class="colored-5" d="M537.51,405.68a.23.23,0,0,1-.08.18.69.69,0,0,1-.46.11,10.14,10.14,0,0,1-1.34-.15,13.91,13.91,0,0,0-1.89-.19,14.23,14.23,0,0,0-1.89.19c-1,.15-1.59.22-1.8,0a.23.23,0,0,1-.08-.18c0-1,1.61-2.1,3.77-2.1S537.51,404.69,537.51,405.68Z" transform="translate(-453.75 -382.52)"/></g></svg>