<svg xmlns="http://www.w3.org/2000/svg" viewBox="0 0 150 30"><defs></defs><g id="Horizontal"><path fill="2d2032" d="M197.455,237H182.481a15.028,15.028,0,0,1,12.974-.964h0Zm-17.684,2a14.893,14.893,0,0,0-1.8,2H184.8a12.017,12.017,0,0,1,1.81-2Zm-3.073,4a14.636,14.636,0,0,0-.878,2h7.1a11.817,11.817,0,0,1,.712-2Zm5.887,4h-7.319a14.94,14.94,0,0,0-.266,2h7.585c-.028-.33-.042-.664-.042-1S182.557,247.33,182.585,247Zm.336,4H175a14.94,14.94,0,0,0,.266,2h8.367A11.817,11.817,0,0,1,182.921,251Zm1.874,4H175.82a14.636,14.636,0,0,0,.878,2h9.907A12.017,12.017,0,0,1,184.8,255Zm-6.829,4a14.893,14.893,0,0,0,1.8,2h11.2v-2Zm4.515,4a1.33,1.33,0,0,0,.116.066c.072.042.146.082.22.122.106.058.214.116.322.17A14.924,14.924,0,0,0,189.968,265c.332,0,.662-.01.988-.034a.013.013,0,0,0,.012,0V263Zm16.648-11.61a8.508,8.508,0,0,1-7.745,6.1,10.02,10.02,0,0,1-5.7-4.846l6.141-2.258a6.074,6.074,0,0,1-1.79-1.474l-5.1,1.876a9.939,9.939,0,0,1-.4-2.788c0-.306.014-.61.042-.91l.388-.226a17.058,17.058,0,0,1,5.7-1.808.324.324,0,0,0,0,.044,4,4,0,0,0,7.511,1.914,4.5,4.5,0,0,0,.95,4.376Zm-2.494-5.922,0,.006c-.008.042-.016.084-.028.126,0,.02-.01.04-.016.06-.012.044-.026.086-.042.128l-.012.032c-.014.038-.03.072-.046.108s-.02.044-.032.066-.034.066-.052.1a.318.318,0,0,1-.026.044,1.3,1.3,0,0,1-.072.11c-.012.018-.024.034-.036.05-.024.034-.05.066-.076.1-.038.046-.08.09-.122.132s-.078.074-.12.108l-.052.042a1.964,1.964,0,0,1-.928.4c-.026.006-.054.008-.082.012a2,2,0,0,1-2.223-1.988c0-.062,0-.124.008-.184A13.765,13.765,0,0,1,196.635,245.468Zm7.109-1.412a14.494,14.494,0,0,0-.776-1.546,15.149,15.149,0,0,0-2.8-3.51h-9.981a10.007,10.007,0,0,0-3.252,2.518,9.9,9.9,0,0,0-1.773,3.02,19.236,19.236,0,0,1,6.141-1.594,15.765,15.765,0,0,1,6.279.714c.31.1.624.216.936.342a14.968,14.968,0,0,1,1.416.66,4.5,4.5,0,0,1,3.8-.6l0-.006S203.74,244.056,203.744,244.056Zm-.274,1.794a3.5,3.5,0,0,0-3.4,2.666c.132-.012.266-.016.4-.016.088,0,.176,0,.264.008a5.5,5.5,0,0,1,4.9,3.592,5.139,5.139,0,0,1,.25.926,5.819,5.819,0,0,0,.53-1.782,6.851,6.851,0,0,0,.058-.894C206.47,247.864,205.126,245.85,203.47,245.85Z" transform="translate(-175 -235)"/><path fill="2d2032" d="M214.373,260.374q-1.659-.126-2.923-.321v-2.936q3.147.307,5,.307a10.588,10.588,0,0,0,1.967-.14,2.156,2.156,0,0,0,1.04-.447,1.206,1.206,0,0,0,.422-.727,7.445,7.445,0,0,0,.084-1.287,6.028,6.028,0,0,0-.127-1.481,1.053,1.053,0,0,0-.491-.658,3.948,3.948,0,0,0-1.237-.349l-3.57-.5a3.479,3.479,0,0,1-2.782-1.552,7.563,7.563,0,0,1-.759-3.761,6.855,6.855,0,0,1,.773-3.594,3.8,3.8,0,0,1,2.136-1.677,11.665,11.665,0,0,1,3.471-.434,27.784,27.784,0,0,1,2.9.154,21.582,21.582,0,0,1,2.446.378v2.88a27.391,27.391,0,0,0-4.469-.336A13.406,13.406,0,0,0,216.3,244a2.669,2.669,0,0,0-1.082.363,1.127,1.127,0,0,0-.506.686,5.572,5.572,0,0,0-.112,1.3,5.883,5.883,0,0,0,.112,1.37.864.864,0,0,0,.45.587,4.044,4.044,0,0,0,1.152.28l3.6.475a5.24,5.24,0,0,1,1.953.629,3.119,3.119,0,0,1,1.223,1.5,9.063,9.063,0,0,1,.478,3.3,8.248,8.248,0,0,1-.717,3.859,3.476,3.476,0,0,1-2,1.734,11.062,11.062,0,0,1-3.358.419Q216.031,260.5,214.373,260.374Zm22.991-6.138h-7.842a10.008,10.008,0,0,0,.183,2.335,1.272,1.272,0,0,0,.871.895,8.293,8.293,0,0,0,2.4.238,37.193,37.193,0,0,0,3.935-.224v2.6a14.986,14.986,0,0,1-2.136.307q-1.321.111-2.558.112a8.723,8.723,0,0,1-4.061-.713,3.343,3.343,0,0,1-1.658-2.181,25.709,25.709,0,0,1,0-8.808,3.54,3.54,0,0,1,1.616-2.251,7.6,7.6,0,0,1,3.851-.755,7.113,7.113,0,0,1,3.7.727,3.169,3.169,0,0,1,1.42,2.167,25.8,25.8,0,0,1,.281,4.488Zm-7.027-5.424a1.3,1.3,0,0,0-.632.922,12.034,12.034,0,0,0-.183,2.209h4.638a9.749,9.749,0,0,0-.183-2.237,1.314,1.314,0,0,0-.646-.922,3.428,3.428,0,0,0-1.42-.224A3.6,3.6,0,0,0,230.337,248.812Zm17.96,11.464-3.373-5.732H243.8v5.732h-3.373V239.5H243.8v12.248h1.124l3.43-5.733h3.6l-4.3,6.851,4.356,7.41Zm16.443-6.04H256.9a10.008,10.008,0,0,0,.183,2.335,1.272,1.272,0,0,0,.871.895,8.293,8.293,0,0,0,2.4.238,37.193,37.193,0,0,0,3.935-.224v2.6a14.986,14.986,0,0,1-2.136.307q-1.321.111-2.558.112a8.723,8.723,0,0,1-4.061-.713,3.34,3.34,0,0,1-1.658-2.181,25.709,25.709,0,0,1,0-8.808,3.537,3.537,0,0,1,1.616-2.251,7.6,7.6,0,0,1,3.85-.755,7.115,7.115,0,0,1,3.7.727,3.169,3.169,0,0,1,1.42,2.167,25.8,25.8,0,0,1,.281,4.488Zm-7.027-5.424a1.3,1.3,0,0,0-.632.922,11.944,11.944,0,0,0-.183,2.209h4.638a9.749,9.749,0,0,0-.183-2.237,1.312,1.312,0,0,0-.647-.922,3.422,3.422,0,0,0-1.419-.224A3.592,3.592,0,0,0,257.713,248.812Zm10.091-2.8h3.148l.112,2.461h.225a3.469,3.469,0,0,1,1.419-2.1,4.987,4.987,0,0,1,2.6-.587v3.383a5.333,5.333,0,0,0-2.488.476,2.688,2.688,0,0,0-1.264,1.537,9.041,9.041,0,0,0-.38,2.936v6.152H267.8Zm10.09-4.977h5.818a11.643,11.643,0,0,1,5.073.8,3.636,3.636,0,0,1,1.883,2.628,50.671,50.671,0,0,1,0,12.388,3.634,3.634,0,0,1-1.883,2.628,11.628,11.628,0,0,1-5.073.8h-5.818Zm5.649,16.162a8.173,8.173,0,0,0,2.769-.307,1.856,1.856,0,0,0,.927-1.538,52.407,52.407,0,0,0,0-9.4,1.857,1.857,0,0,0-.927-1.538,8.2,8.2,0,0,0-2.769-.307h-2.08V257.2Zm21.67,3.076-1.18-4.306h-6.324l-1.153,4.306h-3.6l5.48-19.238h4.975l5.481,19.238Zm-4.272-15.855H300.8l-2.276,8.473h4.665Zm12.086,15.254a3.787,3.787,0,0,1-1.842-2.726,52.418,52.418,0,0,1,0-12.584,3.791,3.791,0,0,1,1.842-2.726,14.78,14.78,0,0,1,9.738,0,3.781,3.781,0,0,1,1.856,2.726,52.418,52.418,0,0,1,0,12.584,3.777,3.777,0,0,1-1.856,2.726,14.78,14.78,0,0,1-9.738,0Zm7.349-2.586a1.982,1.982,0,0,0,.843-1.608,63.673,63.673,0,0,0,0-9.648,1.98,1.98,0,0,0-.843-1.607,6.189,6.189,0,0,0-2.487-.336,6.078,6.078,0,0,0-2.473.336,1.981,1.981,0,0,0-.83,1.594,64.381,64.381,0,0,0,0,9.675,1.982,1.982,0,0,0,.83,1.594,6.1,6.1,0,0,0,2.473.335A6.212,6.212,0,0,0,320.376,257.089Z" transform="translate(-175 -235)"/></g></svg>
