<svg id="Layer_2" data-name="Layer 2" xmlns="http://www.w3.org/2000/svg" xmlns:xlink="http://www.w3.org/1999/xlink" viewBox="0 0 92.49 30"><defs><style>.logo-1{fill:#2d3032;}.logo-2{fill:url(#linear-gradient);}.logo-3{fill:#9615db;}.logo-4{fill:url(#linear-gradient-2);}.logo-5{fill:url(#linear-gradient-3);}</style><linearGradient id="linear-gradient" x1="535.799" y1="409.921" x2="535.799" y2="400.492" gradientUnits="userSpaceOnUse"><stop offset="0.15" stop-color="#2d3032"/><stop offset="0.309" stop-color="#47295c"/><stop offset="0.542" stop-color="#692192"/><stop offset="0.743" stop-color="#811aba"/><stop offset="0.902" stop-color="#9016d2"/><stop offset="1" stop-color="#9615db"/></linearGradient><linearGradient id="linear-gradient-2" x1="531.483" y1="412.037" x2="531.483" y2="402.612" gradientUnits="userSpaceOnUse"><stop offset="0" stop-color="#2d3032"/><stop offset="0.148" stop-color="#382d44"/><stop offset="0.447" stop-color="#562574"/><stop offset="0.866" stop-color="#8619c1"/><stop offset="1" stop-color="#9615db"/></linearGradient><linearGradient id="linear-gradient-3" x1="533.6" y1="411.116" x2="533.6" y2="404.929" xlink:href="#linear-gradient-2"/></defs><g id="Standard"><path class="logo-1" d="M539.1,394.6l-.031.035a12.65,12.65,0,0,1,.445,1.617A4.669,4.669,0,0,0,539.1,394.6Zm2.256,4.882c-.013-.147-.02-.292-.038-.437l-.061-.434c.022.1.064.353.1.529a16.4,16.4,0,0,0-.222-2.206,15.6,15.6,0,0,0-.546-2.137c-.14-.41-.3-.813-.473-1.206A10.972,10.972,0,0,0,539.1,394.6l-.031.035c-.046.052-.09.1-.131.153a12.171,12.171,0,0,1,.666,2.394c.07.381.121.75.165,1.087a12.976,12.976,0,0,0-.209-1.8,3.792,3.792,0,0,1,.145.429,5.472,5.472,0,0,1,.062.761,6.129,6.129,0,0,0,.1.813c-.02.009-.039-.019-.057-.061a2.44,2.44,0,0,1,.035.41.156.156,0,0,0,0,.03c.031.229.062.434.1.605-.068.316-.142.665-.206,1.044a12.246,12.246,0,0,1-.594,2.762c0,.084.057.031.086.031-.079.195-.174.386-.261.577s-.2.374-.3.561a11.7,11.7,0,0,1-1.162,1.966c-.084.162-.18.316-.263.482a2.838,2.838,0,0,0-.307.241c-.1.106-.186.218-.283.321s-.2.208-.3.313a14.374,14.374,0,0,1-2.837,2.273.81.81,0,0,1-.2.16c-.185.1-.367.2-.555.283s-.366.171-.55.237c-.307.147-.621.263-.919.381-.305.1-.6.207-.874.281-.553.165-1.04.261-1.39.331-.417.107.037.171.6.21s1.212.088,1.136.171a4.355,4.355,0,0,1-2,.6,17.352,17.352,0,0,1-3.254.1c-.35-.031-.228.006-.015.061a2.221,2.221,0,0,1,.528.149,1.972,1.972,0,0,1-.385.064c.033,0,.067.008.1.009-.045,0-.089,0-.135-.007a12.894,12.894,0,0,1-1.684-.059,13.234,13.234,0,0,0,5.8.294,13.575,13.575,0,0,0,5.391-2.175,12.751,12.751,0,0,1-1.923,1,12.012,12.012,0,0,1-2,.618,14.061,14.061,0,0,0,6.482-3.867,14.453,14.453,0,0,0,3.473-7.313,4.546,4.546,0,0,1-.053.787A15.143,15.143,0,0,0,541.352,399.482ZM528.88,413.029l-.333.035.423-.08c.14-.027.277-.066.415-.1C529.286,412.916,529.049,412.99,528.88,413.029Zm7.4-3.069c-.1.093-.207.187-.308.279l-.045.026c.125-.114.25-.23.379-.342Zm-16.762,1.289c-.2-.114-.388-.225-.575-.342a10.664,10.664,0,0,0,2.48,1.522,15.7,15.7,0,0,0,2.764.92A14.516,14.516,0,0,1,519.522,411.249Zm20.243-12.98a.106.106,0,0,1,0,.025l0,.01Zm.076.583c-.022-.166-.044-.344-.068-.532v0l-.006-.016c.013.173.013.344.013.517s0,.342-.007.514a.166.166,0,0,1,.11-.079A3.164,3.164,0,0,1,539.841,398.852Zm-4.713,9.914c.119-.07.243-.127.351-.187.121-.169.28-.317.34-.4.493-.438.9-.828,1.289-1.238a2.151,2.151,0,0,1,.221-.472c.127-.175.243-.353.36-.528s.214-.358.315-.537A12.655,12.655,0,0,1,535.128,408.766Zm1.519.85a8.462,8.462,0,0,0,.838-.879C537.219,409.029,536.941,409.333,536.647,409.616Zm5.4-12.116a16.2,16.2,0,0,0-1.14-3.571,6.018,6.018,0,0,1-.636-.261,22.073,22.073,0,0,1,.833,2.613,10.469,10.469,0,0,1,.327,2.762c-.013.417-.05.312-.083.1,0,.114,0,.227,0,.342.035.335.031.673.033,1.015a8.707,8.707,0,0,1-.086,1.028,13.223,13.223,0,0,1-.548,2.24c-.039.143-.1.281-.142.423l.068-.214a15.37,15.37,0,0,1-5.575,7.144,14.051,14.051,0,0,0,2.437-1.98,15.548,15.548,0,0,0,1.958-2.461,12.271,12.271,0,0,1-2.736,3.511,14.042,14.042,0,0,0,2.068-2.212c.249-.3.473-.615.688-.9.2-.3.4-.563.552-.786a24.686,24.686,0,0,1-1.435,2.2,14.885,14.885,0,0,0,2.578-4.549,16.143,16.143,0,0,1-1.2,2.725,10.974,10.974,0,0,1-1.783,2.377c.14-.178.268-.365.4-.553a14.649,14.649,0,0,1-7.6,4.858,8.678,8.678,0,0,0,2.725-.927,28.087,28.087,0,0,0,2.625-1.594,13.88,13.88,0,0,1-4.444,2.449,14.812,14.812,0,0,1-5.141.73,15.194,15.194,0,0,1-5.073-1.072,16.438,16.438,0,0,1-4.147-2.4.083.083,0,0,1-.007.018,15.98,15.98,0,0,0,5.948,3.313c-.435-.132-.943-.272-1.434-.439a14.531,14.531,0,0,0,2.357.669,14.33,14.33,0,0,0,2.481.272.07.07,0,0,1-.02.008,16.228,16.228,0,0,0,5.7-.874,15.3,15.3,0,0,0,4.989-2.861,4.859,4.859,0,0,1-.735.75,6,6,0,0,1-.745.5c-.493.277-.96.476-1.425.737a14.318,14.318,0,0,1-4.058,1.6,16.441,16.441,0,0,1-2.1.325,15.615,15.615,0,0,1-2.058.033,15.31,15.31,0,0,0,2.551-.093,13.37,13.37,0,0,1-1.624.081,12.8,12.8,0,0,1-2.291-.232c.246,0,.631.035.986.064a2.9,2.9,0,0,0,.809-.027,17.163,17.163,0,0,1-6.366-1.446c-.3-.143-.541-.251-.734-.34a4.41,4.41,0,0,0-.439-.191c-.212-.072-.265-.048-.217.039a1.881,1.881,0,0,0,.4.388,4.7,4.7,0,0,0,.7.439,15.278,15.278,0,0,0,15.032-.485,17.641,17.641,0,0,0,2.787-2.332,16.484,16.484,0,0,0,2.2-2.874,15.054,15.054,0,0,0,1.083-1.967c.146-.344.287-.672.385-.969.051-.148.1-.285.138-.41s.064-.24.088-.335A15.739,15.739,0,0,0,542.049,397.5Zm-13.134-12.406a16.1,16.1,0,0,0-6.031.493,18.448,18.448,0,0,0-5.063,2.291c.631-.353,1.5-.885,2.417-1.3a12.951,12.951,0,0,1,1.366-.532,7.421,7.421,0,0,1,1.2-.277c-.144.075-.285.152-.423.235a7.231,7.231,0,0,0,.842-.132c.355-.067.737-.127,1-.148a2.966,2.966,0,0,1-.7.149c.217-.025.232-.027.478-.058-.478.123-1.068.279-1.668.485a13.454,13.454,0,0,0-1.726.719c-1.043.531-1.729,1.083-1.475,1.107a13.5,13.5,0,0,0,2.183-.919,15.337,15.337,0,0,1,1.818-.639,12.428,12.428,0,0,1,1.9-.38,25.693,25.693,0,0,0-3.109,1.037,11.32,11.32,0,0,0-2.847,1.682c.44-.244.723-.32,1.339-.669a12.767,12.767,0,0,1,2.454-1.042,10.852,10.852,0,0,1,1.214-.379,3.986,3.986,0,0,1,1.2-.123l.23-.023a3.29,3.29,0,0,1,.448-.11c.175-.009.317-.011.44-.011l.344.018c.11.006.222.006.355,0a4.649,4.649,0,0,0,.48-.02c.007.02-.021.037-.067.05a2.12,2.12,0,0,1,.421,0,2.73,2.73,0,0,0,.445,0,.184.184,0,0,0,.07.118,12.263,12.263,0,0,1,1.372.253,25.071,25.071,0,0,1,3.619-.636A14.853,14.853,0,0,0,528.915,385.094Zm4.187,25.027a12.163,12.163,0,0,1-5.7,1.427c.188.022.368.032.541.05s.336.04.494.061c.493-.158,1.309-.3,2.181-.543a10.929,10.929,0,0,0,2.486-.987Zm6.669-11.817,0-.01v.008l.006.016Zm-14.854,14.664c-.268-.05-.54-.087-.809-.147.07.018.138.04.21.053a9.708,9.708,0,0,0,1.281.184.206.206,0,0,1,.035,0C525.393,413.034,525.156,413,524.917,412.968Z" transform="translate(-453.755 -385)"/><path class="logo-1" d="M464.25,392.637v13.79h-1.777V400.2h-6.942v6.228h-1.776v-13.79h1.776v6.073h6.942v-6.073Zm11.833,0-3.886,6.335-3.8-6.335h-2.113l5.012,8.133v5.657h1.8V400.77l5.078-8.133Zm13.43,4.253a3.981,3.981,0,0,1-1.224,3.08,5.074,5.074,0,0,1-3.564,1.129H481.94v5.328h-1.777v-13.79h4.562a5.027,5.027,0,0,1,3.564,1.149A4.064,4.064,0,0,1,489.513,396.89Zm-1.82.011a2.739,2.739,0,0,0-.752-2.017,3,3,0,0,0-2.216-.756H481.94v5.481h2.785a3.09,3.09,0,0,0,2.216-.722A2.633,2.633,0,0,0,487.693,396.9Zm13.226-4.264v6.073h-6.945v-6.073H492.2v13.79h1.776V400.2h6.945v6.228H502.7v-13.79Zm15.924,13.79H515l-.466-1.358h-7.108l-.473,1.358h-1.866l4.854-13.79H512.1Zm-2.776-2.719-.738-2.15h.009l-2.338-6.8-2.36,6.8h0l-.471,1.361h0l-.274.789Zm6.945,1.208V392.637h-1.774v13.79h8.068v-1.511Z" transform="translate(-453.755 -385)"/><g id="Main_Edited" data-name="Main Edited"><path class="logo-2" d="M536.846,400.492a8.812,8.812,0,0,0-1.323.348,23.4,23.4,0,0,1-.949,8.369.378.378,0,0,0,.105.427,1.506,1.506,0,0,0,.98.285,2.065,2.065,0,0,0,.819-.156.865.865,0,0,0,.573-.831l-.031-.991C536.958,406.038,536.86,403,536.846,400.492Z" transform="translate(-453.755 -385)"/><path class="logo-3" d="M535.441,399.284a11.246,11.246,0,0,1,1.4.518,16.537,16.537,0,0,1,.2-3.455.093.093,0,0,0-.011-.084.088.088,0,0,0-.076-.041h-1.838a.088.088,0,0,0-.076.041.093.093,0,0,0-.011.084A15.227,15.227,0,0,1,535.441,399.284Z" transform="translate(-453.755 -385)"/><path class="logo-3" d="M546.2,389.8a19.874,19.874,0,0,0-2.57-1.214c-.094-.038-.192-.076-.29-.114a23.814,23.814,0,0,0-2.472-.792l-.212-.054c-.58-.146-1.192-.274-1.826-.372-.058-.01-.118-.02-.176-.028q-.651-.1-1.33-.148c-.06-.006-.122-.01-.182-.014-.332-.022-.67-.034-1.01-.036h-.184c-.34,0-.678.014-1.01.036-.06,0-.122.008-.182.014q-.678.051-1.33.148c-.058.008-.118.018-.176.028-.634.1-1.246.226-1.826.372l-.212.054a23.814,23.814,0,0,0-2.472.792c-.1.038-.2.076-.29.114a19.874,19.874,0,0,0-2.57,1.214.091.091,0,0,0,.038.17c.3.03.584.07.866.122l.174.036a.687.687,0,0,1,.088.018q.108.021.216.048c.256.06.5.128.744.2.066.02.132.042.2.064s.132.044.2.068c.192.066.38.138.562.214q.108.042.21.09c.128.054.254.11.374.17.136.062.266.128.392.194.11.056.22.114.324.174l.006,0c.292.164.576.338.85.518a.075.075,0,0,1,.02.012c.108.072.214.146.318.22s.194.14.29.212a10.6,10.6,0,0,1,3.042,3.43c.042.082.08.164.114.244q.027.057.048.114c.032.074.058.148.084.22a.09.09,0,0,0,.086.062h1.84a.09.09,0,0,0,.086-.062c.8-2.316,4.51-5.92,9.116-6.374a.092.092,0,0,0,.038-.17Zm-14.454,2.3a13.108,13.108,0,0,0-1.856-1.136c-.08-.04-.162-.08-.242-.118l-.29-.134c-.084-.038-.168-.074-.254-.11a.677.677,0,0,0-.088-.036c-.06-.026-.122-.05-.184-.074-.028-.012-.056-.024-.086-.034l-.154-.056c-.054-.022-.11-.042-.166-.06-.092-.034-.184-.064-.278-.094-.226-.072-.454-.138-.686-.2-.12-.03-.244-.06-.368-.086-.026-.006-.052-.012-.078-.016-.072-.016-.142-.03-.214-.042s-.142-.026-.214-.038c-.122-.02-.244-.038-.368-.054a21.6,21.6,0,0,1,2.524-1.15c2.866.906,5.294,4.92,6.21,7.014A10.579,10.579,0,0,0,531.746,392.1Zm-2.73-3.538a23.41,23.41,0,0,1,2.352-.734c1.812,1.844,3.306,6.332,3.872,8.036.012.034.022.066.032.1C534.486,393.97,532.048,389.672,529.016,388.564Zm6.4,7.244c-.618-1.862-2.04-6.132-3.84-8.03.556-.136,1.14-.256,1.744-.35a52.718,52.718,0,0,1,1.876,7.194c.144.682.256,1.216.334,1.524C535.5,396.048,535.458,395.934,535.414,395.808Zm-.04-1.224A51.634,51.634,0,0,0,533.5,387.4c.418-.06.848-.108,1.284-.14q.024.168.048.348c.268,2,.5,4.452.666,6.24.122,1.294.2,2.072.248,2.374h0C535.662,395.96,535.534,395.346,535.374,394.584Zm.574,1.638h-.02c-.05-.274-.142-1.264-.248-2.392-.254-2.716-.486-4.934-.716-6.58q.486-.036.984-.036Zm.184,0v-9.008q.5,0,.984.036c-.23,1.646-.462,3.864-.716,6.58-.106,1.128-.2,2.118-.25,2.392Zm.206,0c.048-.3.124-1.08.244-2.374.168-1.788.4-4.236.668-6.24q.024-.18.048-.348c.436.032.866.08,1.284.14a51.634,51.634,0,0,0-1.876,7.184c-.16.762-.288,1.376-.366,1.638Zm.214-.076c.078-.308.19-.842.334-1.524a52.718,52.718,0,0,1,1.876-7.194c.6.094,1.188.214,1.744.35-1.8,1.9-3.222,6.168-3.842,8.03C536.622,395.934,536.584,396.048,536.552,396.146Zm.256-.184c.01-.03.02-.062.032-.1.566-1.7,2.06-6.192,3.872-8.036a23.41,23.41,0,0,1,2.352.734C540.032,389.672,537.594,393.97,536.808,395.962Zm8.632-6.08c-.07.012-.14.024-.208.038a11.464,11.464,0,0,0-3.148,1.1c-.06.03-.122.062-.182.1-.18.1-.358.2-.532.3s-.346.212-.512.324c-.1.068-.2.138-.3.208-.06.042-.122.086-.182.132-.106.078-.21.156-.312.236-.052.04-.1.08-.152.12s-.1.08-.148.12q-.147.123-.288.246a11.548,11.548,0,0,0-1.662,1.784l-.136.19q-.144.2-.264.4c-.026.04-.05.08-.074.12s-.062.11-.092.162-.044.082-.066.122l-.036.07c-.016.028-.03.058-.044.086.894-2.074,3.342-6.164,6.238-7.078a21.684,21.684,0,0,1,2.522,1.15c-.07.01-.14.018-.208.03Z" transform="translate(-453.755 -385)"/><path class="logo-3" d="M546.245,389.878c0,.832-1.739,3.494-3.769,3.494a4.778,4.778,0,0,1-2.525-.818,19.636,19.636,0,0,0-13.484-2.7,12.109,12.109,0,0,1,5.278,2.248.089.089,0,0,1,.034.1c-.018.052-.075.065-.128.065-1.979,0-4.395-.434-5.371-1.407a1.353,1.353,0,0,1-.443-.961.09.09,0,0,1,0-.023.052.052,0,0,1,0-.018c.058-.943,4.756-2.832,10.2-2.832C541.667,387.028,546.245,388.306,546.245,389.878Z" transform="translate(-453.755 -385)"/></g><g id="Secondary"><path class="logo-3" d="M531.719,396.682c-3.744,0-6.758,2-6.758,3.646,0,.767,2.627,1.3,4.918,1.505a8.532,8.532,0,0,0-4.319-1.463,12.2,12.2,0,0,1,12.32,0,8.538,8.538,0,0,0-4.319,1.462c2.291-.2,4.915-.738,4.915-1.5C538.476,398.677,535.463,396.682,531.719,396.682Z" transform="translate(-453.755 -385)"/><path class="logo-3" d="M538.22,400.39a.01.01,0,0,0-.01-.01,6.769,6.769,0,0,0-1.06-.64,2,2,0,0,1-.21-.1,10.08,10.08,0,0,0-1.1-.42c-.06-.02-.13-.04-.2-.07-.32-.1-.65-.19-.98-.26a1.163,1.163,0,0,0-.18-.04c-.29-.07-.58-.12-.86-.17a1.366,1.366,0,0,0-.19-.02c-.26-.04-.52-.07-.76-.09a1.114,1.114,0,0,0-.17-.02q-.36-.03-.69-.03h-.18q-.33,0-.69.03a1.1,1.1,0,0,0-.18.02c-.25.02-.51.05-.77.09a.68.68,0,0,0-.19.03c-.28.04-.56.09-.85.16a1.163,1.163,0,0,0-.18.04c-.32.07-.66.16-.98.26-.07.03-.14.05-.2.07a8.8,8.8,0,0,0-1.09.42c-.07.03-.14.07-.21.1a6.336,6.336,0,0,0-1.06.64.01.01,0,0,0-.01.01.06.06,0,0,0-.03.06.037.037,0,0,0,.01.03.08.08,0,0,0,.09.06,8.149,8.149,0,0,1,5.9,2.73.091.091,0,0,0,.07.03h.92a.091.091,0,0,0,.07-.03,8.149,8.149,0,0,1,5.9-2.73.087.087,0,0,0,.09-.06v-.01A.078.078,0,0,0,538.22,400.39Zm-9.02,1.02c-.11-.06-.23-.12-.35-.18s-.24-.11-.35-.16c-.16-.07-.31-.13-.47-.19a8.267,8.267,0,0,0-1.36-.37,5.347,5.347,0,0,0-.6-.1c-.2-.02-.37-.03-.5-.04a7.381,7.381,0,0,1,.92-.53,14.381,14.381,0,0,1,2.82,1.64A.413.413,0,0,0,529.2,401.41Zm-2.48-1.67a8.212,8.212,0,0,1,1.02-.37c.49.5,1.4,1.44,2.31,2.44A15.375,15.375,0,0,0,526.72,399.74Zm1.21-.44c.3-.09.62-.17.93-.25.43.83,1.12,2.11,1.78,3.14C529.63,401.05,528.53,399.91,527.93,399.3Zm1.11-.29q.4-.09.81-.15a30.544,30.544,0,0,0,1.2,3.61A35.882,35.882,0,0,1,529.04,399.01Zm1-.18c.25-.03.5-.06.74-.08.16,1.38.38,3.08.59,3.96A25.743,25.743,0,0,1,530.04,398.83Zm1.59,4.13a33.244,33.244,0,0,1-.67-4.23c.23-.02.46-.03.67-.03Zm.18-4.26c.21,0,.44.01.67.03a33.244,33.244,0,0,1-.67,4.23Zm.26,4.01c.21-.88.43-2.58.58-3.96.24.02.49.05.74.08A26.134,26.134,0,0,1,532.07,402.71Zm.31-.22a30.876,30.876,0,0,0,1.19-3.63c.28.04.55.1.83.15A35.089,35.089,0,0,1,532.38,402.49Zm2.2-3.43c.31.07.62.15.92.24-.59.61-1.69,1.75-2.7,2.89C533.46,401.17,534.15,399.89,534.58,399.06Zm1.11.31a8.363,8.363,0,0,1,1.03.37,15.375,15.375,0,0,0-3.33,2.07C534.3,400.82,535.2,399.88,535.69,399.37Zm1.68,1.04a5.347,5.347,0,0,0-.6.1,8.267,8.267,0,0,0-1.36.37c-.16.06-.31.12-.47.19-.11.05-.23.1-.35.16s-.24.12-.35.18a.413.413,0,0,0-.11.07,14.966,14.966,0,0,1,2.81-1.64,6.854,6.854,0,0,1,.93.53C537.74,400.38,537.57,400.39,537.37,400.41Z" transform="translate(-453.755 -385)"/><path class="logo-4" d="M532.614,409.553c.052.712.1,1.324.116,1.777v.022c0,.165-.083.384-.458.533a2.637,2.637,0,0,1-.934.152,1.611,1.611,0,0,1-1.05-.264.228.228,0,0,1-.027-.276c1.559-2.744,1.171-8.133.47-8.723a.088.088,0,0,1-.027-.1.091.091,0,0,1,.086-.061h1.857a.092.092,0,0,1,.061.162C532.164,403.237,532.447,407.192,532.614,409.553Z" transform="translate(-453.755 -385)"/></g><g id="Tertiary"><path class="logo-5" d="M534.317,409.471c.029.461.055.858.068,1.152v.017a.427.427,0,0,1-.311.382,1.514,1.514,0,0,1-.559.094.977.977,0,0,1-.652-.174.185.185,0,0,1-.03-.221c.932-1.774.706-5.253.289-5.632a.093.093,0,0,1-.024-.1.094.094,0,0,1,.086-.059H534.3a.094.094,0,0,1,.086.059.093.093,0,0,1-.024.1C534.045,405.379,534.216,407.941,534.317,409.471Z" transform="translate(-453.755 -385)"/><path class="logo-3" d="M537.511,405.685a.227.227,0,0,1-.081.176.722.722,0,0,1-.46.107,10.647,10.647,0,0,1-1.336-.147,9.375,9.375,0,0,0-3.785,0c-1,.149-1.585.222-1.8.04a.227.227,0,0,1-.081-.176c0-1,1.613-2.108,3.769-2.108S537.511,404.69,537.511,405.685Z" transform="translate(-453.755 -385)"/></g></g></svg>