<svg id="Layer_2" data-name="Layer 2" xmlns="http://www.w3.org/2000/svg" viewBox="0 0 93.333 80"><defs><style>.logo-white-1{fill:#fff;}</style></defs><g id="Footer"><path class="logo-white-1" d="M527.6,385.6l-.083.093a33.822,33.822,0,0,1,1.186,4.31A12.394,12.394,0,0,0,527.6,385.6Zm6.017,13.019c-.035-.393-.054-.78-.1-1.167l-.162-1.158c.059.275.171.942.26,1.413a43.618,43.618,0,0,0-.594-5.885,41.43,41.43,0,0,0-1.456-5.7q-.559-1.641-1.26-3.217a29.237,29.237,0,0,0-2.7,2.692l-.083.093c-.123.138-.24.275-.348.407a32.492,32.492,0,0,1,1.775,6.384c.186,1.015.323,2,.441,2.9a34.462,34.462,0,0,0-.559-4.795,9.761,9.761,0,0,1,.387,1.142,14.993,14.993,0,0,1,.167,2.03,16.251,16.251,0,0,0,.26,2.168c-.054.024-.1-.049-.152-.162a6.443,6.443,0,0,1,.093,1.093.42.42,0,0,0,0,.079c.083.613.167,1.157.27,1.613-.182.843-.378,1.775-.549,2.785a32.68,32.68,0,0,1-1.584,7.365c0,.226.152.083.23.083-.211.52-.466,1.03-.7,1.54-.255.5-.53,1-.79,1.5a31.106,31.106,0,0,1-3.1,5.242c-.226.432-.481.844-.7,1.285a7.866,7.866,0,0,0-.819.642c-.255.285-.5.584-.755.858s-.529.554-.8.834a38.308,38.308,0,0,1-7.566,6.061,2.128,2.128,0,0,1-.529.426c-.5.27-.981.535-1.481.755s-.976.456-1.466.633c-.819.392-1.658.7-2.452,1.015-.814.269-1.589.554-2.329.75-1.476.441-2.775.7-3.707.883-1.113.284.1.456,1.589.559s3.231.235,3.03.456c-1.143.917-2.976,1.235-5.345,1.588a46.347,46.347,0,0,1-8.679.28c-.931-.084-.608.015-.039.162a5.818,5.818,0,0,1,1.407.4,5.163,5.163,0,0,1-1.025.171c.089.01.177.02.265.025-.117,0-.235-.01-.358-.02a34.032,34.032,0,0,1-4.491-.157,35.275,35.275,0,0,0,15.455.785,36.244,36.244,0,0,0,14.377-5.8,34.018,34.018,0,0,1-5.129,2.673,31.923,31.923,0,0,1-5.325,1.647,37.469,37.469,0,0,0,17.284-10.312,38.526,38.526,0,0,0,9.263-19.5,12.008,12.008,0,0,1-.142,2.1A40.409,40.409,0,0,0,533.619,398.62Zm-33.26,36.123c-.294.034-.593.064-.888.093l1.128-.211c.373-.073.741-.176,1.108-.265C501.443,434.444,500.81,434.64,500.359,434.743Zm19.746-8.184c-.28.25-.554.5-.824.745-.039.025-.073.045-.118.069.334-.3.667-.613,1.01-.912ZM475.406,430c-.52-.3-1.035-.6-1.535-.912a28.366,28.366,0,0,0,6.614,4.06,41.756,41.756,0,0,0,7.37,2.452A38.662,38.662,0,0,1,475.406,430Zm53.981-34.613a.321.321,0,0,1,.005.069s0,.015.01.025C529.4,395.447,529.392,395.418,529.387,395.383Zm.2,1.555c-.059-.442-.118-.917-.181-1.417v0l-.015-.044c.034.461.034.917.034,1.377s.01.912-.019,1.373a.441.441,0,0,1,.294-.21A8.663,8.663,0,0,1,529.588,396.938Zm-12.567,26.439c.318-.187.647-.339.936-.5.324-.451.745-.844.907-1.069,1.314-1.167,2.393-2.207,3.438-3.3a5.668,5.668,0,0,1,.588-1.26c.338-.466.647-.942.961-1.408.284-.485.569-.956.839-1.431A33.82,33.82,0,0,1,517.021,423.377Zm4.05,2.265a22.341,22.341,0,0,0,2.236-2.344C522.6,424.078,521.855,424.887,521.071,425.642Zm14.406-32.308a43.261,43.261,0,0,0-3.04-9.523,16.44,16.44,0,0,1-1.7-.7,58.384,58.384,0,0,1,2.222,6.968,27.934,27.934,0,0,1,.872,7.365c-.034,1.113-.132.833-.22.26,0,.3,0,.6,0,.912.093.892.083,1.794.088,2.706a23.548,23.548,0,0,1-.231,2.741,34.981,34.981,0,0,1-1.461,5.973c-.1.382-.255.75-.377,1.127l.181-.568a41.03,41.03,0,0,1-14.867,19.049,37.287,37.287,0,0,0,6.5-5.281,41.54,41.54,0,0,0,5.222-6.56,32.687,32.687,0,0,1-7.3,9.36,37.416,37.416,0,0,0,5.516-5.9c.662-.794,1.26-1.637,1.834-2.4.534-.79,1.064-1.5,1.471-2.094a65.764,65.764,0,0,1-3.825,5.855,39.7,39.7,0,0,0,6.875-12.131,43.186,43.186,0,0,1-3.2,7.266,29.292,29.292,0,0,1-4.756,6.341c.372-.476.716-.976,1.078-1.476a39.083,39.083,0,0,1-20.26,12.954,23.126,23.126,0,0,0,7.266-2.471,74.794,74.794,0,0,0,7-4.251,37.022,37.022,0,0,1-11.851,6.531,39.506,39.506,0,0,1-13.71,1.947,40.556,40.556,0,0,1-13.528-2.859,43.867,43.867,0,0,1-11.058-6.394.165.165,0,0,1-.019.049,42.634,42.634,0,0,0,15.862,8.836c-1.162-.353-2.515-.726-3.824-1.172a39.448,39.448,0,0,0,12.9,2.511.215.215,0,0,1-.054.019A43.254,43.254,0,0,0,510.313,436a40.848,40.848,0,0,0,13.3-7.63,12.883,12.883,0,0,1-1.962,2,15.58,15.58,0,0,1-1.986,1.334c-1.314.74-2.559,1.27-3.8,1.966a38.157,38.157,0,0,1-10.821,4.256,43.957,43.957,0,0,1-5.61.868,42.09,42.09,0,0,1-5.487.088,40.882,40.882,0,0,0,6.8-.25,34.966,34.966,0,0,1-4.33.216,34.1,34.1,0,0,1-6.109-.618c.657.01,1.682.093,2.628.172a7.766,7.766,0,0,0,2.158-.074,45.773,45.773,0,0,1-16.976-3.854c-.789-.382-1.442-.672-1.956-.907a11.918,11.918,0,0,0-1.172-.51c-.564-.191-.706-.127-.579.1a4.947,4.947,0,0,0,1.079,1.035,12.536,12.536,0,0,0,1.868,1.172c13.131,6.6,28.371,6.129,40.085-1.295a47.053,47.053,0,0,0,7.434-6.217,44.049,44.049,0,0,0,5.874-7.664,40.439,40.439,0,0,0,2.888-5.247c.387-.917.765-1.79,1.025-2.584.137-.392.265-.76.368-1.094s.171-.637.235-.892A41.948,41.948,0,0,0,535.477,393.334Zm-35.025-33.083a42.987,42.987,0,0,0-16.083,1.314,49.185,49.185,0,0,0-13.5,6.109c1.682-.941,3.991-2.358,6.443-3.461a34.625,34.625,0,0,1,3.643-1.418,19.87,19.87,0,0,1,3.2-.74c-.382.2-.76.407-1.128.628a19.218,19.218,0,0,0,2.246-.353c.947-.177,1.966-.339,2.673-.393a7.975,7.975,0,0,1-1.859.4c.579-.069.618-.074,1.275-.157-1.275.328-2.849.745-4.447,1.294a35.987,35.987,0,0,0-4.605,1.917c-2.78,1.417-4.609,2.888-3.932,2.952.677.088,2.863-1.216,5.82-2.452a41.118,41.118,0,0,1,4.85-1.7,32.92,32.92,0,0,1,5.06-1.015,68.879,68.879,0,0,0-8.292,2.765,30.155,30.155,0,0,0-7.59,4.487c1.172-.652,1.927-.853,3.569-1.785a34.082,34.082,0,0,1,6.547-2.78,29.366,29.366,0,0,1,3.236-1.01,10.708,10.708,0,0,1,3.2-.329l.613-.058a8.455,8.455,0,0,1,1.2-.3c.466-.024.844-.029,1.172-.029.333.02.618.034.917.049s.593.015.946,0,.765-.01,1.28-.054c.02.054-.054.1-.176.132a5.772,5.772,0,0,1,1.122,0,7.18,7.18,0,0,0,1.187-.01.471.471,0,0,0,.186.314,33.151,33.151,0,0,1,3.658.677,66.968,66.968,0,0,1,9.65-1.7A39.65,39.65,0,0,0,500.452,360.251Zm11.165,66.74a32.458,32.458,0,0,1-15.191,3.805c.5.058.981.083,1.442.132s.9.108,1.319.162c1.314-.422,3.491-.809,5.815-1.447a29.193,29.193,0,0,0,6.63-2.633ZM529.4,395.477c0-.01,0-.02-.01-.025v.02l.015.044A.1.1,0,0,1,529.4,395.477Zm-39.61,39.1c-.716-.132-1.441-.23-2.157-.392.186.049.367.108.559.142a25.623,25.623,0,0,0,3.417.49.586.586,0,0,1,.093-.005C491.062,434.758,490.43,434.655,489.792,434.581Z" transform="translate(-453.333 -360)"/><polygon class="logo-white-1" points="27.986 20.364 27.986 57.14 23.249 57.14 23.249 40.532 4.737 40.532 4.737 57.14 0 57.14 0 20.364 4.737 20.364 4.737 36.56 23.249 36.56 23.249 20.364 27.986 20.364"/><g id="Main_Edited" data-name="Main Edited"><path class="logo-white-1" d="M521.6,401.311a23.687,23.687,0,0,0-3.529.93c.246,7.311-.191,16.308-2.529,22.318a1,1,0,0,0,.279,1.137,4.024,4.024,0,0,0,2.614.76,5.452,5.452,0,0,0,2.182-.417,2.306,2.306,0,0,0,1.53-2.216l-.084-2.643C521.9,416.1,521.64,407.991,521.6,401.311Z" transform="translate(-453.333 -360)"/><path class="logo-white-1" d="M517.856,398.09a29.936,29.936,0,0,1,3.744,1.381c.006-4.574.144-8.2.535-9.212a.247.247,0,0,0-.029-.225.235.235,0,0,0-.2-.108H517a.234.234,0,0,0-.2.108.244.244,0,0,0-.029.225A40.529,40.529,0,0,1,517.856,398.09Z" transform="translate(-453.333 -360)"/><path class="logo-white-1" d="M546.547,372.8a53.04,53.04,0,0,0-6.854-3.237c-.25-.1-.512-.2-.773-.3a63.4,63.4,0,0,0-6.592-2.112l-.565-.144c-1.547-.39-3.179-.731-4.87-.992-.155-.027-.314-.054-.469-.075q-1.737-.257-3.547-.395c-.16-.016-.325-.026-.485-.037-.886-.059-1.787-.091-2.694-.1h-.49c-.907,0-1.808.037-2.693.1-.16.011-.326.021-.486.037q-1.808.137-3.546.395c-.155.021-.315.048-.47.075-1.69.261-3.322.6-4.869.992l-.565.144a63.241,63.241,0,0,0-6.592,2.112c-.262.1-.523.2-.774.3a53.062,53.062,0,0,0-6.853,3.237.243.243,0,0,0,.1.453c.79.08,1.558.187,2.309.326l.464.1a1.606,1.606,0,0,1,.235.048q.288.055.576.128c.683.16,1.344.341,1.984.538.176.054.352.112.523.171s.352.117.528.181c.512.176,1.013.368,1.5.571.191.075.378.155.559.24.342.144.678.293,1,.453.362.166.709.342,1.045.518.294.149.587.3.864.464.006,0,.011,0,.016.01.779.438,1.536.9,2.267,1.382a.186.186,0,0,1,.053.032c.288.192.571.389.848.586s.518.374.773.566a28.259,28.259,0,0,1,8.113,9.146c.112.219.213.438.3.651.047.1.09.2.128.3.085.2.154.4.223.587a.24.24,0,0,0,.23.165h4.906a.24.24,0,0,0,.23-.165c2.139-6.176,12.027-15.787,24.309-17a.245.245,0,0,0,.1-.453ZM508,378.939a34.911,34.911,0,0,0-4.949-3.03c-.213-.106-.432-.213-.645-.314l-.774-.358c-.223-.1-.447-.2-.677-.293a1.915,1.915,0,0,0-.234-.1c-.16-.069-.326-.133-.491-.2-.075-.032-.149-.064-.23-.091-.133-.048-.272-.1-.41-.149s-.294-.112-.443-.16c-.245-.091-.49-.171-.741-.251-.6-.192-1.211-.368-1.829-.523-.32-.08-.651-.16-.982-.229-.069-.016-.138-.032-.208-.043-.192-.042-.378-.08-.57-.112s-.379-.069-.571-.1c-.325-.053-.651-.1-.982-.144A57.79,57.79,0,0,1,500,369.781c7.643,2.416,14.118,13.12,16.56,18.7A28.2,28.2,0,0,0,508,378.939Zm-7.279-9.435A62.257,62.257,0,0,1,507,367.547c4.832,4.917,8.816,16.885,10.325,21.429.032.091.059.176.085.256C515.309,383.92,508.808,372.459,500.723,369.5Zm17.061,19.317c-1.648-4.965-5.44-16.352-10.24-21.413,1.483-.363,3.04-.683,4.651-.933,2.128,5.461,3.941,14.117,5,19.184.384,1.818.683,3.242.891,4.064C518,389.461,517.9,389.157,517.784,388.821Zm-.107-3.264c-1.13-5.381-2.875-13.717-5-19.157,1.114-.16,2.261-.288,3.423-.373.043.3.086.608.129.928.714,5.344,1.328,11.872,1.775,16.64.326,3.45.528,5.525.662,6.33h-.011C518.445,389.227,518.1,387.589,517.677,385.557Zm1.531,4.368h-.053c-.134-.73-.379-3.37-.662-6.378-.677-7.243-1.3-13.158-1.909-17.547q1.3-.1,2.624-.1Zm.49,0V365.9q1.329,0,2.625.1c-.614,4.389-1.232,10.3-1.91,17.547-.283,3.008-.528,5.648-.666,6.378Zm.55,0c.128-.805.331-2.88.65-6.33.449-4.768,1.067-11.3,1.782-16.64.043-.32.085-.63.128-.928,1.162.085,2.309.213,3.424.373-2.128,5.44-3.872,13.776-5,19.157-.427,2.032-.768,3.67-.976,4.368Zm.571-.2c.208-.822.506-2.246.89-4.064,1.061-5.067,2.875-13.723,5-19.184,1.611.25,3.168.57,4.651.933-4.8,5.061-8.593,16.448-10.246,21.413C521.005,389.157,520.9,389.461,520.819,389.723Zm.682-.491c.027-.08.054-.165.086-.256,1.509-4.544,5.493-16.512,10.325-21.429a62.257,62.257,0,0,1,6.272,1.957C530.1,372.459,523.6,383.92,521.5,389.232Zm23.019-16.213c-.187.032-.373.064-.555.1a30.561,30.561,0,0,0-8.395,2.944c-.159.08-.325.165-.485.256-.48.256-.955.528-1.419.811s-.922.565-1.365.864c-.272.181-.544.368-.81.554-.161.112-.326.23-.486.352-.282.208-.56.416-.832.63-.139.106-.272.213-.4.32s-.267.213-.395.32q-.392.327-.768.656a30.811,30.811,0,0,0-4.432,4.757c-.122.171-.245.341-.362.507q-.384.543-.705,1.072c-.069.106-.133.213-.2.32-.085.144-.165.293-.245.432-.064.106-.117.218-.176.325-.032.064-.064.123-.1.187s-.08.154-.117.229c2.384-5.531,8.912-16.437,16.634-18.875a57.8,57.8,0,0,1,6.725,3.067c-.186.027-.373.048-.554.08S544.706,372.987,544.52,373.019Z" transform="translate(-453.333 -360)"/><path class="logo-white-1" d="M546.667,373.009c0,2.217-4.639,9.317-10.052,9.317a12.739,12.739,0,0,1-6.733-2.182c-16.308-9.837-31.421-8.052-35.956-7.2a32.282,32.282,0,0,1,14.073,6,.244.244,0,0,1,.093.27c-.049.137-.2.172-.344.172-5.276,0-11.719-1.158-14.322-3.752a3.619,3.619,0,0,1-1.182-2.564.235.235,0,0,1-.005-.059.151.151,0,0,1,.005-.049c.157-2.515,12.685-7.551,27.209-7.551C534.457,365.409,546.667,368.817,546.667,373.009Z" transform="translate(-453.333 -360)"/></g><g id="Secondary"><path class="logo-white-1" d="M507.93,391.152c-9.983,0-18.02,5.32-18.02,9.723,0,2.044,7,3.472,13.114,4.012a22.76,22.76,0,0,0-11.518-3.9c4.241-2.88,11.494-4.454,16.427-4.454,4.907,0,12.16,1.574,16.427,4.454a22.761,22.761,0,0,0-11.516,3.9c6.108-.54,13.106-1.968,13.106-4.011C525.95,396.472,517.913,391.152,507.93,391.152Z" transform="translate(-453.333 -360)"/><path class="logo-white-1" d="M525.266,401.04a.026.026,0,0,0-.026-.027,18.044,18.044,0,0,0-2.827-1.706,5.362,5.362,0,0,1-.56-.267,26.9,26.9,0,0,0-2.933-1.12c-.16-.053-.347-.107-.533-.187-.854-.266-1.734-.506-2.614-.693a3.181,3.181,0,0,0-.48-.107c-.773-.186-1.546-.32-2.293-.453a3.6,3.6,0,0,0-.507-.053c-.693-.107-1.387-.187-2.027-.24a2.935,2.935,0,0,0-.453-.054q-.96-.079-1.84-.08h-.48q-.88,0-1.84.08a2.9,2.9,0,0,0-.48.054c-.666.053-1.36.133-2.053.24a1.792,1.792,0,0,0-.507.08c-.746.106-1.493.24-2.266.426a3.181,3.181,0,0,0-.48.107c-.854.187-1.761.427-2.614.693-.187.08-.373.134-.533.187a23.471,23.471,0,0,0-2.907,1.12c-.187.08-.373.187-.56.267a16.916,16.916,0,0,0-2.827,1.706.026.026,0,0,0-.026.027.162.162,0,0,0-.08.16.1.1,0,0,0,.027.08.213.213,0,0,0,.239.16c.081,0,9.441-.16,15.734,7.28a.242.242,0,0,0,.187.08h2.453a.245.245,0,0,0,.187-.08c6.293-7.44,15.653-7.28,15.733-7.28a.233.233,0,0,0,.24-.16v-.027A.2.2,0,0,0,525.266,401.04Zm-24.053,2.72c-.293-.16-.613-.32-.933-.48s-.64-.293-.933-.427c-.427-.186-.827-.346-1.254-.506a22.067,22.067,0,0,0-3.627-.987,14.457,14.457,0,0,0-1.6-.267c-.534-.053-.987-.08-1.334-.106a19.7,19.7,0,0,1,2.453-1.414,38.3,38.3,0,0,1,7.52,4.374A1.071,1.071,0,0,0,501.213,403.76Zm-6.613-4.453a21.847,21.847,0,0,1,2.72-.987c1.306,1.333,3.733,3.84,6.16,6.507A40.962,40.962,0,0,0,494.6,399.307Zm3.226-1.174c.8-.24,1.654-.453,2.48-.666,1.147,2.213,2.987,5.626,4.747,8.373C502.36,402.8,499.427,399.76,497.826,398.133Zm2.96-.773q1.08-.24,2.16-.4a81.66,81.66,0,0,0,3.2,9.627A96.009,96.009,0,0,1,500.786,397.36Zm2.667-.48c.667-.08,1.333-.16,1.974-.213.426,3.68,1.013,8.213,1.573,10.56A68.7,68.7,0,0,1,503.453,396.88Zm4.24,11.013a88.538,88.538,0,0,1-1.786-11.28c.613-.053,1.226-.08,1.786-.08Zm.48-11.36c.56,0,1.174.027,1.787.08a88.49,88.49,0,0,1-1.787,11.28Zm.694,10.694c.56-2.347,1.146-6.88,1.546-10.56.64.053,1.307.133,1.974.213A69.8,69.8,0,0,1,508.867,407.227Zm.826-.587a82.3,82.3,0,0,0,3.174-9.68c.746.107,1.466.267,2.213.4A93.641,93.641,0,0,1,509.693,406.64Zm5.867-9.147c.827.187,1.653.4,2.453.64-1.573,1.627-4.507,4.667-7.2,7.707C512.573,403.12,514.413,399.707,515.56,397.493Zm2.96.827a22.18,22.18,0,0,1,2.746.987,40.938,40.938,0,0,0-8.879,5.52C514.813,402.187,517.213,399.68,518.52,398.32Zm4.48,2.773a14.472,14.472,0,0,0-1.6.267,22.067,22.067,0,0,0-3.627.987c-.426.16-.827.32-1.253.506-.293.134-.613.267-.933.427s-.641.32-.934.48a1.1,1.1,0,0,0-.293.187,39.907,39.907,0,0,1,7.493-4.374,18.218,18.218,0,0,1,2.48,1.414C523.986,401.013,523.533,401.04,523,401.093Z" transform="translate(-453.333 -360)"/><path class="logo-white-1" d="M510.318,425.475c.137,1.9.255,3.531.309,4.737v.059c0,.441-.221,1.025-1.221,1.422a7.036,7.036,0,0,1-2.491.407,4.29,4.29,0,0,1-2.8-.706.607.607,0,0,1-.073-.736c4.158-7.316,3.123-21.687,1.255-23.261a.236.236,0,0,1-.074-.27.245.245,0,0,1,.231-.162h4.952a.247.247,0,0,1,.162.432C509.117,408.632,509.872,419.179,510.318,425.475Z" transform="translate(-453.333 -360)"/></g><g id="Tertiary"><path class="logo-white-1" d="M514.858,425.255c.079,1.231.147,2.29.182,3.074v.044a1.144,1.144,0,0,1-.829,1.02,4.072,4.072,0,0,1-1.49.25,2.613,2.613,0,0,1-1.741-.465.492.492,0,0,1-.079-.589c2.486-4.732,1.883-14.009.77-15.019a.245.245,0,0,1,.167-.427h2.971a.245.245,0,0,1,.167.427C514.133,414.345,514.589,421.175,514.858,425.255Z" transform="translate(-453.333 -360)"/><path class="logo-white-1" d="M523.376,415.159a.6.6,0,0,1-.216.47,1.921,1.921,0,0,1-1.226.285,28.316,28.316,0,0,1-3.565-.392,24.973,24.973,0,0,0-10.091,0c-2.682.4-4.227.593-4.791.107a.6.6,0,0,1-.215-.47c0-2.653,4.3-5.62,10.052-5.62S523.376,412.506,523.376,415.159Z" transform="translate(-453.333 -360)"/></g></g></svg>