<svg id="Layer_1" data-name="Layer 1" xmlns="http://www.w3.org/2000/svg" viewBox="0 0 25.19 20"><defs><style>.medium-grayscale-1{fill:#cbcbcc;}</style></defs><path id="Medium_Icon-2" data-name="Medium Icon-2" class="medium-grayscale-1" d="M40.39,44.08a1,1,0,0,0-.32-.82l-2.35-2.84V40H45l5.65,12.38,5-12.38h7v.42l-2,1.93a.61.61,0,0,0-.22.57V57.08a.61.61,0,0,0,.22.57l2,1.93V60H52.67v-.42l2-2c.2-.2.2-.26.2-.56V45.59L49.25,60h-.77L41.9,45.59v9.63a1.33,1.33,0,0,0,.36,1.1l2.64,3.21V60H37.4v-.42l2.65-3.21a1.27,1.27,0,0,0,.34-1.1Z" transform="translate(-37.4 -40)"/></svg>