<svg id="ERC-20_Linear_Voting_Simple_Membership_Exit" data-name="ERC-20 Linear Voting Simple Membership Exit" xmlns="http://www.w3.org/2000/svg" xmlns:xlink="http://www.w3.org/1999/xlink" viewBox="0 0 160 160"><defs><style>.cls-1{fill:url(#linear-gradient);}.cls-2{fill:#e5c5f6;}.cls-3,.cls-4,.cls-5,.cls-6{fill:none;}.cls-3{stroke:#9615db;}.cls-3,.cls-4,.cls-6{stroke-miterlimit:10;}.cls-4{stroke:#48cfae;}.cls-5,.cls-6{stroke:#b050e4;}.cls-5{stroke-linecap:round;stroke-linejoin:round;}</style><linearGradient id="linear-gradient" x1="1.46" y1="158.54" x2="158.54" y2="1.46" gradientUnits="userSpaceOnUse"><stop offset="0" stop-color="#2d3032"/><stop offset="0.26" stop-color="#2f3035"/><stop offset="0.41" stop-color="#342e3d"/><stop offset="0.54" stop-color="#3d2c4b"/><stop offset="0.66" stop-color="#492960"/><stop offset="0.76" stop-color="#5a257a"/><stop offset="0.86" stop-color="#6e1f9a"/><stop offset="0.94" stop-color="#8519c0"/><stop offset="1" stop-color="#9615db"/></linearGradient></defs><rect class="cls-1" width="160" height="160" rx="5"/><path class="cls-2" d="M40.93,31.25H31.47a.24.24,0,0,0-.22.22v9.46a.24.24,0,0,0,.22.22h9.46a.24.24,0,0,0,.22-.22V31.47A.24.24,0,0,0,40.93,31.25Zm-1.58,5.62a.24.24,0,0,1-.22.23h-2v2a.24.24,0,0,1-.23.22H35.53a.24.24,0,0,1-.23-.22v-2h-2a.24.24,0,0,1-.22-.23V35.53a.24.24,0,0,1,.22-.23h2v-2a.24.24,0,0,1,.23-.22h1.34a.24.24,0,0,1,.23.22v2h2a.24.24,0,0,1,.22.23Zm1.58,7H31.47a.24.24,0,0,0-.22.22v9.46a.24.24,0,0,0,.22.22h9.46a.24.24,0,0,0,.22-.22V44.07A.24.24,0,0,0,40.93,43.85Zm-2,6.39a.21.21,0,0,1,0,.31l-.95,1a.21.21,0,0,1-.31,0L36.2,50.06,34.76,51.5a.21.21,0,0,1-.31,0l-1-1a.21.21,0,0,1,0-.31l1.44-1.44L33.5,47.36a.21.21,0,0,1,0-.31l1-.95a.21.21,0,0,1,.31,0l1.44,1.44,1.44-1.44a.21.21,0,0,1,.31,0l.95.95a.21.21,0,0,1,0,.31L37.46,48.8Zm14.63-19H44.07a.24.24,0,0,0-.22.22v9.46a.24.24,0,0,0,.22.22h9.46a.24.24,0,0,0,.22-.22V31.47A.24.24,0,0,0,53.53,31.25ZM52,36.87a.24.24,0,0,1-.22.23H45.87a.24.24,0,0,1-.22-.23V35.53a.24.24,0,0,1,.22-.23h5.86a.24.24,0,0,1,.22.23Zm1.58,7H44.07a.24.24,0,0,0-.22.22v9.46a.24.24,0,0,0,.22.22h9.46a.24.24,0,0,0,.22-.22V44.07A.24.24,0,0,0,53.53,43.85ZM52,51.27a.24.24,0,0,1-.22.23H45.87a.24.24,0,0,1-.22-.23V49.93a.24.24,0,0,1,.22-.23h5.86a.24.24,0,0,1,.22.23Zm0-3.6a.24.24,0,0,1-.22.23H45.87a.24.24,0,0,1-.22-.23V46.33a.24.24,0,0,1,.22-.23h5.86a.24.24,0,0,1,.22.23Z" transform="translate(-7.5 -7.5)"/><circle class="cls-3" cx="35" cy="35" r="20"/><path class="cls-2" d="M45.55,132.5a3,3,0,1,1-3-3.05A3,3,0,0,1,45.55,132.5Zm-7.91-9.63a4.11,4.11,0,0,0-1.91,1.4,1.48,1.48,0,0,0-.16.69h0a2.09,2.09,0,0,0,.15.76,2.09,2.09,0,0,0-.76-.15h0a1.48,1.48,0,0,0-.69.16,4.19,4.19,0,0,0-1.4,1.91l-1.37-.72.16-.3.15-.26a1.65,1.65,0,0,1,.15-.25,14720875853515,14720875853515,0,0,1,.32-.5l.17-.25.17-.24c.12-.15.24-.31.37-.46l.19-.23.2-.22.2-.22.2-.21.22-.21.21-.2.22-.19.23-.19a4,4,0,0,1,.47-.37l.23-.17.25-.17.25-.17.25-.16.26-.15.25-.14.31-.16ZM53.5,138.08l-.16.3-.15.26a1.65,1.65,0,0,1-.15.25,14720875853515.7,14720875853515.7,0,0,1-.32.5l-.17.25-.17.24c-.12.15-.24.31-.37.46l-.19.23-.2.22-.2.22-.2.21-.22.21-.21.2-.22.19-.23.19a4,4,0,0,1-.47.37l-.23.17-.25.17-.25.17-.25.16-.26.15-.25.14-.31.16-.71-1.37a4.11,4.11,0,0,0,1.91-1.4,1.48,1.48,0,0,0,.16-.69h0a2.09,2.09,0,0,0-.15-.76,2.09,2.09,0,0,0,.76.15h0a1.48,1.48,0,0,0,.69-.16,4.19,4.19,0,0,0,1.4-1.91Zm0-11.16-1.37.72a4.19,4.19,0,0,0-1.4-1.91,1.48,1.48,0,0,0-.69-.16h0a2.09,2.09,0,0,0-.76.15,2.09,2.09,0,0,0,.15-.76h0a1.48,1.48,0,0,0-.16-.69,4.11,4.11,0,0,0-1.91-1.4l.71-1.37.31.16.25.14.26.15.25.16.25.17.25.17.23.17a4,4,0,0,1,.47.37l.23.19.22.19.21.2.22.21.2.21.2.22.2.22.19.23c.13.15.25.31.37.46l.17.24.17.25a14720875853515.7,14720875853515.7,0,0,1,.32.5,1.65,1.65,0,0,1,.15.25l.15.26ZM37.64,142.13l-.71,1.37-.31-.16-.25-.14-.26-.15-.25-.16-.25-.17-.25-.17-.23-.17a4,4,0,0,1-.47-.37l-.23-.19-.22-.19-.21-.2-.22-.21-.2-.21-.2-.22-.2-.22-.19-.23c-.13-.15-.25-.31-.37-.46l-.17-.24-.17-.25a14720875853515.7,14720875853515.7,0,0,1-.32-.5,1.65,1.65,0,0,1-.15-.25l-.15-.26-.16-.3,1.37-.72a4.19,4.19,0,0,0,1.4,1.91,1.48,1.48,0,0,0,.69.16h0a2.09,2.09,0,0,0,.76-.15,2.09,2.09,0,0,0-.15.76h0a1.48,1.48,0,0,0,.16.69A4.11,4.11,0,0,0,37.64,142.13Zm8.7-21.35h0l-.47,1.47a4.17,4.17,0,0,0-2.34-.36,1.47,1.47,0,0,0-.6.38,2.2,2.2,0,0,0-.34.45,1.66,1.66,0,0,0-.09.19,1.66,1.66,0,0,0-.09-.19,2.2,2.2,0,0,0-.34-.45,1.47,1.47,0,0,0-.6-.38,4.17,4.17,0,0,0-2.34.36l-.47-1.47h0l.06,0,.05,0,.16,0a3.45,3.45,0,0,1,.43-.12l.27-.07c.13,0,.26-.06.39-.09h0l.47-.08.27,0,.2,0,.26,0,.29,0,.32,0,.31,0h.64l.31,0,.32,0,.29,0,.26,0,.2,0,.27,0,.47.08h0c.13,0,.26,0,.39.09l.27.07a3.45,3.45,0,0,1,.43.12l.16,0,.05,0Zm0,23.44h0l-.06,0-.05,0-.16,0a3.45,3.45,0,0,1-.43.12l-.27.07-.39.09h0l-.47.08-.27.05-.2,0-.26,0-.29,0-.32,0-.31,0h-.64l-.31,0-.32,0-.29,0-.26,0-.2,0-.27-.05-.47-.08h0l-.39-.09-.27-.07a3.45,3.45,0,0,1-.43-.12l-.16,0-.05,0-.06,0h0l.47-1.47s.22.1.55.21h0a3.29,3.29,0,0,0,1.76.14,1.47,1.47,0,0,0,.6-.38,2.2,2.2,0,0,0,.34-.45,1.66,1.66,0,0,0,.09-.19,1.66,1.66,0,0,0,.09.19,2.2,2.2,0,0,0,.34.45,1.47,1.47,0,0,0,.6.38,3.29,3.29,0,0,0,1.76-.14h0c.33-.11.55-.21.55-.21Zm-7.52-4.45-.69,1.31A4.36,4.36,0,0,0,36.42,140a2,2,0,0,0-.85,0h0a3.27,3.27,0,0,0-1,.42,3.38,3.38,0,0,0,.41-1h0a2,2,0,0,0,0-.85,4.29,4.29,0,0,0-1-1.7l1.31-.7s.46,1,1.13,1.28,1.59-.41,1.59-.41-.65.93-.41,1.59S38.82,139.77,38.82,139.77Zm12.26-11.65-1.31.7s-.46-1-1.13-1.28-1.59.41-1.59.41.65-.93.41-1.59-1.28-1.13-1.28-1.13l.69-1.31a4.36,4.36,0,0,0,1.71,1,2,2,0,0,0,.85,0h0a3.27,3.27,0,0,0,1-.42,3.38,3.38,0,0,0-.41,1h0a2,2,0,0,0,0,.85A4.29,4.29,0,0,0,51.08,128.12Zm-16.51,5.53a3.19,3.19,0,0,0,.19,1.39l-1.42.43a4.34,4.34,0,0,0-.47-1.95,2.8,2.8,0,0,0-1.62-1,2.8,2.8,0,0,0,1.62-1,4.34,4.34,0,0,0,.47-1.95l1.42.43a3.19,3.19,0,0,0-.19,1.39h0a.9.9,0,0,0,.09.32c.28.63,1.41.83,1.41.83s-1.13.2-1.41.83a.9.9,0,0,0-.09.32Zm19.18-1.15a2.8,2.8,0,0,0-1.62,1,4.34,4.34,0,0,0-.47,1.95L50.24,135a3.19,3.19,0,0,0,.19-1.39h0a.9.9,0,0,0-.09-.32c-.28-.63-1.41-.83-1.41-.83s1.13-.2,1.41-.83a.9.9,0,0,0,.09-.32h0a3.19,3.19,0,0,0-.19-1.39l1.42-.43a4.34,4.34,0,0,0,.47,1.95A2.8,2.8,0,0,0,53.75,132.5ZM50,139.43a3.38,3.38,0,0,0,.41,1,3.27,3.27,0,0,0-1-.42h0a2,2,0,0,0-.85,0,4.36,4.36,0,0,0-1.71,1.05l-.69-1.31s1-.46,1.28-1.13-.41-1.59-.41-1.59.93.66,1.59.41,1.13-1.28,1.13-1.28l1.31.7a4.29,4.29,0,0,0-1,1.7,2,2,0,0,0,0,.85ZM38,128s-.93-.66-1.59-.41-1.13,1.28-1.13,1.28l-1.31-.7a4.29,4.29,0,0,0,1-1.7,2,2,0,0,0,0-.85h0a3.38,3.38,0,0,0-.41-1,3.27,3.27,0,0,0,1,.42h0a2,2,0,0,0,.85,0,4.36,4.36,0,0,0,1.71-1l.69,1.31s-1,.46-1.28,1.13S38,128,38,128Zm7.52,13.71-.39,0-.24,0a3.29,3.29,0,0,0-1.32.42,2.1,2.1,0,0,0-.59.6,3.45,3.45,0,0,0-.43,1,3.45,3.45,0,0,0-.43-1,2.1,2.1,0,0,0-.59-.6,3.29,3.29,0,0,0-1.32-.42l-.24,0-.39,0,.37-1.2.07-.22a3.23,3.23,0,0,0,1.38.2h0l.12,0,.2-.07c.63-.28.83-1.41.83-1.41s.2,1.13.83,1.41l.2.07.12,0h0a3.23,3.23,0,0,0,1.38-.2l.07.22Zm0-18.32L45,124.76a3.23,3.23,0,0,0-1.38-.2h0a1.19,1.19,0,0,0-.32.1c-.63.28-.83,1.41-.83,1.41s-.2-1.13-.83-1.41a1.19,1.19,0,0,0-.32-.1h0a3.23,3.23,0,0,0-1.38.2l-.44-1.42a4.34,4.34,0,0,0,1.95-.47,2.1,2.1,0,0,0,.59-.6,3.45,3.45,0,0,0,.43-1,3.45,3.45,0,0,0,.43,1,2.1,2.1,0,0,0,.59.6A4.34,4.34,0,0,0,45.47,123.34Zm8.28,9.16a10.34,10.34,0,0,0-2.73.36,1.19,1.19,0,0,0-.59.79h0v0a1.13,1.13,0,0,0-.59-.81,10.34,10.34,0,0,0-2.73-.36,10.34,10.34,0,0,0,2.73-.36,1.13,1.13,0,0,0,.59-.81v0h0a1.19,1.19,0,0,0,.59.79A10.34,10.34,0,0,0,53.75,132.5Zm-15.86,0a10.34,10.34,0,0,0-2.73.36,1.13,1.13,0,0,0-.59.81v0h0a1.19,1.19,0,0,0-.59-.79,10.34,10.34,0,0,0-2.73-.36,10.34,10.34,0,0,0,2.73-.36,1.19,1.19,0,0,0,.59-.79h0v0a1.13,1.13,0,0,0,.59.81A10.34,10.34,0,0,0,37.89,132.5ZM45.32,143c0,.19.07.33.08.39s0-.19-.11-.38-.27-.82-.45-1.26a4,4,0,0,0-.48-.89,1.11,1.11,0,0,0-.81-.36l.1,0h0l-.13,0a1.07,1.07,0,0,0,.51-.72,10.05,10.05,0,0,0-.35-2.7,10.06,10.06,0,0,0,1,2.52,1.14,1.14,0,0,0,.94.36,1.22,1.22,0,0,0-.59.6.78.78,0,0,0-.05.18,3.75,3.75,0,0,0,0,1A12.9,12.9,0,0,0,45.32,143Zm-4-2.52.1,0a1.11,1.11,0,0,0-.81.36,4,4,0,0,0-.48.89c-.18.44-.34.93-.45,1.26s-.1.32-.11.38,0-.2.08-.39a12.9,12.9,0,0,0,.24-1.28,3.75,3.75,0,0,0,0-1,.78.78,0,0,0-.05-.18,1.22,1.22,0,0,0-.59-.6,1.14,1.14,0,0,0,.94-.36,10.06,10.06,0,0,0,1-2.52,10.05,10.05,0,0,0-.35,2.7,1.07,1.07,0,0,0,.51.72l-.13,0Zm2.32-15.87a1.13,1.13,0,0,0-.81.59,10.34,10.34,0,0,0-.36,2.73,10.34,10.34,0,0,0-.36-2.73,1.13,1.13,0,0,0-.81-.59h0a1.13,1.13,0,0,0,.79-.58,4.5,4.5,0,0,0,.27-1.26c.08-.74.09-1.47.09-1.47s0,.73.09,1.47a4.5,4.5,0,0,0,.27,1.26,1.13,1.13,0,0,0,.79.58h0Zm-.12,15.89a1.13,1.13,0,0,0-.69.56,4.5,4.5,0,0,0-.27,1.26c-.08.74-.09,1.47-.09,1.47s0-.73-.09-1.47a4.5,4.5,0,0,0-.27-1.26,1.13,1.13,0,0,0-.69-.56h.13l-.11-.06h0a1.11,1.11,0,0,0,.68-.56,10.34,10.34,0,0,0,.36-2.73,10.34,10.34,0,0,0,.36,2.73,1.11,1.11,0,0,0,.68.56h0l-.11.06Z" transform="translate(-7.5 -7.5)"/><circle class="cls-3" cx="35" cy="125" r="20"/><path class="cls-3" d="M66,46.25A23.8,23.8,0,0,1,46.25,66" transform="translate(-7.5 -7.5)"/><circle class="cls-3" cx="125" cy="125" r="20"/><path class="cls-2" d="M123.32,39.25V31.34h5.07v1.27h-3.47v2h3v1.27h-3V38h3.47v1.27Z" transform="translate(-7.5 -7.5)"/><path class="cls-2" d="M134.22,39.25l-1.08-2.89h-1.66v2.89h-1.6V31.34h3.47a3.15,3.15,0,0,1,1.54.3,1.45,1.45,0,0,1,.7.82,4.73,4.73,0,0,1,.17,1.39,4,4,0,0,1-.22,1.4,1.42,1.42,0,0,1-.86.87l1.25,3.13ZM133.71,35a.58.58,0,0,0,.36-.36,3,3,0,0,0,.08-.79,3,3,0,0,0-.08-.8.56.56,0,0,0-.35-.34,2.66,2.66,0,0,0-.88-.1h-1.36V35.1h1.35A2.74,2.74,0,0,0,133.71,35Z" transform="translate(-7.5 -7.5)"/><path class="cls-2" d="M141.18,39.29c-.34,0-.67.05-1,.05a4.78,4.78,0,0,1-2.05-.34,1.8,1.8,0,0,1-.87-1.18,11,11,0,0,1-.22-2.52,11,11,0,0,1,.22-2.53,1.76,1.76,0,0,1,.88-1.17,4.58,4.58,0,0,1,2-.35,8.18,8.18,0,0,1,1,.06,5.1,5.1,0,0,1,.81.14v1.17c-.64-.07-1.11-.11-1.42-.11a3.52,3.52,0,0,0-1.31.17.89.89,0,0,0-.48.7,11.88,11.88,0,0,0-.1,1.92,11.81,11.81,0,0,0,.1,1.91.88.88,0,0,0,.48.7,3.52,3.52,0,0,0,1.31.17A10.36,10.36,0,0,0,142,38v1.19C141.81,39.21,141.53,39.25,141.18,39.29Z" transform="translate(-7.5 -7.5)"/><path class="cls-2" d="M125.33,51.7h5.78v1.91H123V52.09a15.51,15.51,0,0,1,.12-2.27,2.38,2.38,0,0,1,.5-1.21,3.11,3.11,0,0,1,1.27-.84l1.57-.67,1.08-.45a3.43,3.43,0,0,0,.77-.42.9.9,0,0,0,.34-.46,3,3,0,0,0,.08-.78,1.78,1.78,0,0,0-.21-1,1,1,0,0,0-.67-.39,7.4,7.4,0,0,0-1.46-.1,31.64,31.64,0,0,0-3.18.21V42a16.37,16.37,0,0,1,1.85-.25q1.1-.09,2-.09a9.27,9.27,0,0,1,2.16.21,2.36,2.36,0,0,1,1.37.92,3.48,3.48,0,0,1,.52,2.09,5.37,5.37,0,0,1-.21,1.66,2.48,2.48,0,0,1-.62,1,3.43,3.43,0,0,1-1.14.66l-2.93,1.23a3.48,3.48,0,0,0-.43.21.92.92,0,0,0-.25.23,1.55,1.55,0,0,0-.16.5,6.54,6.54,0,0,0,0,.88Z" transform="translate(-7.5 -7.5)"/><path class="cls-2" d="M134.47,53.24a2.37,2.37,0,0,1-1.15-1.68,21.49,21.49,0,0,1-.25-3.88,21.65,21.65,0,0,1,.25-3.88,2.37,2.37,0,0,1,1.15-1.68,9.46,9.46,0,0,1,6.07,0,2.3,2.3,0,0,1,1.14,1.68,21.66,21.66,0,0,1,.24,3.88,21.79,21.79,0,0,1-.24,3.89,2.28,2.28,0,0,1-1.14,1.67,9.29,9.29,0,0,1-6.07,0Zm4.47-1.59a1.23,1.23,0,0,0,.48-1c.06-.51.1-1.5.1-3s0-2.48-.1-3a1.23,1.23,0,0,0-.48-1,3.25,3.25,0,0,0-1.44-.21,3.31,3.31,0,0,0-1.44.21,1.23,1.23,0,0,0-.48,1,26.65,26.65,0,0,0-.11,3,26.87,26.87,0,0,0,.11,3,1.25,1.25,0,0,0,.48,1,3.52,3.52,0,0,0,1.44.2A3.46,3.46,0,0,0,138.94,51.65Z" transform="translate(-7.5 -7.5)"/><circle class="cls-3" cx="125" cy="35" r="20"/><path class="cls-2" d="M124.72,123.5h-3.34a.13.13,0,0,1-.13-.13v-1.55a.13.13,0,0,1,.13-.12h3.34a.13.13,0,0,1,.13.12v1.55A.13.13,0,0,1,124.72,123.5Zm-.32,15.17V126.32a.13.13,0,0,0-.12-.12h-2.45a.13.13,0,0,0-.13.12v12.35a.13.13,0,0,0,.13.13h2.45A.13.13,0,0,0,124.4,138.67Zm18.9,0V126.32a.13.13,0,0,0-.13-.12h-2.45a.13.13,0,0,0-.12.12v12.35a.13.13,0,0,0,.12.13h2.45A.13.13,0,0,0,143.3,138.67Zm-18.45,4.51v-1.55a.13.13,0,0,0-.13-.13h-3.34a.13.13,0,0,0-.13.13v1.55a.13.13,0,0,0,.13.12h3.34A.13.13,0,0,0,124.85,143.18Zm18.9-19.81v-1.55a.13.13,0,0,0-.13-.12h-3.34a.13.13,0,0,0-.13.12v1.55a.13.13,0,0,0,.13.13h3.34A.13.13,0,0,0,143.75,123.37Zm0,19.81v-1.55a.13.13,0,0,0-.13-.13h-3.34a.13.13,0,0,0-.13.13v1.55a.13.13,0,0,0,.13.12h3.34A.13.13,0,0,0,143.75,143.18Zm-11-19.67a5,5,0,0,0-5.21,4.94v14.62a.23.23,0,0,0,.23.23h9.45a.22.22,0,0,0,.22-.22V128.73A5.13,5.13,0,0,0,132.76,123.51Z" transform="translate(-7.5 -7.5)"/><rect class="cls-3" x="7.5" y="7.5" width="145" height="145"/><line class="cls-3" x1="35" y1="105" x2="35" y2="55"/><line class="cls-3" x1="105" y1="125" x2="55" y2="125"/><line class="cls-3" x1="125" y1="55" x2="125" y2="105"/><line class="cls-3" x1="55" y1="35" x2="105" y2="35"/><path class="cls-4" d="M85.22,56.69" transform="translate(-7.5 -7.5)"/><path class="cls-4" d="M94.55,59.19" transform="translate(-7.5 -7.5)"/><path class="cls-4" d="M74.32,74.32" transform="translate(-7.5 -7.5)"/><path class="cls-4" d="M81.61,81.61" transform="translate(-7.5 -7.5)"/><line class="cls-5" x1="77.72" y1="49.19" x2="57.11" y2="43.67"/><line class="cls-5" x1="66.77" y1="54.93" x2="62.44" y2="52.43"/><line class="cls-5" x1="59.18" y1="50.54" x2="54.85" y2="48.04"/><line class="cls-5" x1="66.82" y1="66.82" x2="51.79" y2="51.79"/><line class="cls-5" x1="54.93" y1="66.77" x2="52.43" y2="62.44"/><line class="cls-5" x1="50.54" y1="59.18" x2="48.04" y2="54.85"/><line class="cls-5" x1="49.19" y1="77.72" x2="43.67" y2="57.12"/><line class="cls-5" x1="82.28" y1="110.81" x2="102.89" y2="116.33"/><line class="cls-5" x1="93.23" y1="105.07" x2="97.56" y2="107.57"/><line class="cls-5" x1="100.82" y1="109.46" x2="105.15" y2="111.96"/><line class="cls-5" x1="93.18" y1="93.18" x2="108.21" y2="108.21"/><line class="cls-5" x1="105.07" y1="93.23" x2="107.57" y2="97.56"/><line class="cls-5" x1="109.46" y1="100.82" x2="111.96" y2="105.15"/><line class="cls-5" x1="110.81" y1="82.28" x2="116.33" y2="102.88"/><line class="cls-5" x1="49.19" y1="82.28" x2="43.67" y2="102.89"/><line class="cls-5" x1="54.93" y1="93.23" x2="52.43" y2="97.56"/><line class="cls-5" x1="50.54" y1="100.82" x2="48.04" y2="105.15"/><line class="cls-5" x1="66.82" y1="93.18" x2="51.79" y2="108.21"/><line class="cls-5" x1="66.77" y1="105.07" x2="62.44" y2="107.57"/><line class="cls-5" x1="59.18" y1="109.46" x2="54.85" y2="111.96"/><line class="cls-5" x1="77.72" y1="110.81" x2="57.12" y2="116.33"/><path class="cls-6" d="M66,128.75a23.75,23.75,0,0,0-19.7-19.7V66A23.75,23.75,0,0,0,66,46.25h43.1A23.75,23.75,0,0,0,128.75,66v43.1a23.75,23.75,0,0,0-19.7,19.7Z" transform="translate(-7.5 -7.5)"/><line class="cls-5" x1="110.81" y1="77.72" x2="116.33" y2="57.11"/><line class="cls-5" x1="105.07" y1="66.77" x2="107.57" y2="62.44"/><line class="cls-5" x1="109.46" y1="59.18" x2="111.96" y2="54.85"/><line class="cls-5" x1="93.18" y1="66.82" x2="108.21" y2="51.79"/><line class="cls-5" x1="93.23" y1="54.93" x2="97.56" y2="52.43"/><line class="cls-5" x1="100.82" y1="50.54" x2="105.15" y2="48.04"/><line class="cls-5" x1="82.28" y1="49.19" x2="102.88" y2="43.67"/><path class="cls-4" d="M56.69,85.22" transform="translate(-7.5 -7.5)"/><path class="cls-4" d="M59.19,94.55" transform="translate(-7.5 -7.5)"/><path class="cls-5" d="M146.25,69.7v35.6m1.87-37.47a1.87,1.87,0,1,0-1.87,1.87A1.87,1.87,0,0,0,148.12,67.83Zm0,39.34a1.87,1.87,0,1,0-1.87,1.88A1.87,1.87,0,0,0,148.12,107.17Z" transform="translate(-7.5 -7.5)"/><path class="cls-5" d="M28.75,69.7v35.6m1.87-37.47a1.87,1.87,0,1,0-1.87,1.87A1.87,1.87,0,0,0,30.62,67.83Zm0,39.34a1.87,1.87,0,1,0-1.87,1.88A1.87,1.87,0,0,0,30.62,107.17Z" transform="translate(-7.5 -7.5)"/><path class="cls-2" d="M90.25,146l-2.75,1.5L84.75,146l2.75-4.75Zm-2.75,3-2.75-1.5,2.75,3.75,2.75-3.75Z" transform="translate(-7.5 -7.5)"/><path class="cls-5" d="M69.7,146.25h8.8m-10.67-1.87a1.87,1.87,0,1,0,1.87,1.87A1.87,1.87,0,0,0,67.83,144.38Z" transform="translate(-7.5 -7.5)"/><path class="cls-5" d="M96.5,146.25h8.8m1.87-1.87a1.87,1.87,0,1,0,1.88,1.87A1.87,1.87,0,0,0,107.17,144.38Z" transform="translate(-7.5 -7.5)"/><path class="cls-2" d="M90.25,28.5,87.5,30l-2.75-1.5,2.75-4.75Zm-2.75,3L84.75,30l2.75,3.75L90.25,30Z" transform="translate(-7.5 -7.5)"/><path class="cls-5" d="M69.7,28.75h8.8M67.83,26.88a1.87,1.87,0,1,0,1.87,1.87A1.87,1.87,0,0,0,67.83,26.88Z" transform="translate(-7.5 -7.5)"/><path class="cls-5" d="M96.5,28.75h8.8m1.87-1.87a1.87,1.87,0,1,0,1.88,1.87A1.87,1.87,0,0,0,107.17,26.88Z" transform="translate(-7.5 -7.5)"/></svg>