<svg id="ERC-20_Single_Voting_No_Membership" data-name="ERC-20 Single Voting No Membership" xmlns="http://www.w3.org/2000/svg" xmlns:xlink="http://www.w3.org/1999/xlink" viewBox="0 0 160 160"><defs><style>.cls-1{fill:url(#linear-gradient);}.cls-2{fill:#e5c5f6;}.cls-3,.cls-4,.cls-5,.cls-6{fill:none;}.cls-3{stroke:#9615db;}.cls-3,.cls-4,.cls-6{stroke-miterlimit:10;}.cls-4{stroke:#48cfae;}.cls-5,.cls-6{stroke:#b050e4;}.cls-5{stroke-linecap:round;stroke-linejoin:round;}</style><linearGradient id="linear-gradient" x1="1.46" y1="158.54" x2="158.54" y2="1.46" gradientUnits="userSpaceOnUse"><stop offset="0" stop-color="#2d3032"/><stop offset="0.26" stop-color="#2f3035"/><stop offset="0.41" stop-color="#342e3d"/><stop offset="0.54" stop-color="#3d2c4b"/><stop offset="0.66" stop-color="#492960"/><stop offset="0.76" stop-color="#5a257a"/><stop offset="0.86" stop-color="#6e1f9a"/><stop offset="0.94" stop-color="#8519c0"/><stop offset="1" stop-color="#9615db"/></linearGradient></defs><rect class="cls-1" width="160" height="160" rx="5"/><path class="cls-2" d="M53.53,51.25h-22a.23.23,0,0,1-.23-.23V43.83a.23.23,0,0,1,.23-.23H53.53a.22.22,0,0,1,.22.23V51A.22.22,0,0,1,53.53,51.25Zm-7.88-16V29a.23.23,0,0,0-.23-.23H39.58a.23.23,0,0,0-.23.23v6.29a.23.23,0,0,0,.23.23h5.84A.23.23,0,0,0,45.65,35.27Zm8,5.31L51.11,35a.23.23,0,0,0-.21-.13H48.58a.22.22,0,0,0-.23.22V38a.22.22,0,0,1-.22.22H36.88a.22.22,0,0,1-.23-.22V35.05a.22.22,0,0,0-.22-.22H34.1a.23.23,0,0,0-.21.13l-2.5,5.62a.23.23,0,0,0,.21.32H53.4A.23.23,0,0,0,53.61,40.58Z" transform="translate(-7.5 -7.5)"/><circle class="cls-3" cx="35" cy="35" r="20"/><path class="cls-3" d="M66,46.25A23.8,23.8,0,0,1,46.25,66" transform="translate(-7.5 -7.5)"/><path class="cls-2" d="M123.32,129.25v-7.91h5.07v1.27h-3.47v2h3v1.27h-3V128h3.47v1.27Z" transform="translate(-7.5 -7.5)"/><path class="cls-2" d="M134.22,129.25l-1.08-2.89h-1.66v2.89h-1.6v-7.91h3.47a3.15,3.15,0,0,1,1.54.3,1.45,1.45,0,0,1,.7.82,4.73,4.73,0,0,1,.17,1.39,4,4,0,0,1-.22,1.4,1.42,1.42,0,0,1-.86.87l1.25,3.13Zm-.51-4.25a.58.58,0,0,0,.36-.36,3,3,0,0,0,.08-.79,3,3,0,0,0-.08-.8.56.56,0,0,0-.35-.34,2.66,2.66,0,0,0-.88-.1h-1.36v2.49h1.35A2.74,2.74,0,0,0,133.71,125Z" transform="translate(-7.5 -7.5)"/><path class="cls-2" d="M141.18,129.29c-.34,0-.67.05-1,.05a4.78,4.78,0,0,1-2.05-.34,1.8,1.8,0,0,1-.87-1.18,14.6,14.6,0,0,1,0-5,1.76,1.76,0,0,1,.88-1.17,4.58,4.58,0,0,1,2-.35,8.18,8.18,0,0,1,1,.06,5.1,5.1,0,0,1,.81.14v1.17c-.64-.07-1.11-.11-1.42-.11a3.52,3.52,0,0,0-1.31.17.89.89,0,0,0-.48.7,18.39,18.39,0,0,0,0,3.83.88.88,0,0,0,.48.7,3.52,3.52,0,0,0,1.31.17A10.36,10.36,0,0,0,142,128v1.19C141.81,129.21,141.53,129.25,141.18,129.29Z" transform="translate(-7.5 -7.5)"/><path class="cls-2" d="M125.33,141.7h5.78v1.91H123v-1.52a15.51,15.51,0,0,1,.12-2.27,2.38,2.38,0,0,1,.5-1.21,3.11,3.11,0,0,1,1.27-.84l1.57-.67q.36-.14,1.08-.45a3.43,3.43,0,0,0,.77-.42.9.9,0,0,0,.34-.46,3,3,0,0,0,.08-.78,1.78,1.78,0,0,0-.21-1,1,1,0,0,0-.67-.39,7.4,7.4,0,0,0-1.46-.1,31.64,31.64,0,0,0-3.18.21V132a16.37,16.37,0,0,1,1.85-.25q1.1-.09,2-.09a9.27,9.27,0,0,1,2.16.21,2.36,2.36,0,0,1,1.37.92,3.48,3.48,0,0,1,.52,2.09,5.37,5.37,0,0,1-.21,1.66,2.48,2.48,0,0,1-.62,1,3.43,3.43,0,0,1-1.14.66l-2.93,1.23a3.48,3.48,0,0,0-.43.21.92.92,0,0,0-.25.23,1.55,1.55,0,0,0-.16.5,6.54,6.54,0,0,0,0,.88Z" transform="translate(-7.5 -7.5)"/><path class="cls-2" d="M134.47,143.24a2.37,2.37,0,0,1-1.15-1.68,30.23,30.23,0,0,1,0-7.76,2.37,2.37,0,0,1,1.15-1.68,9.46,9.46,0,0,1,6.07,0,2.3,2.3,0,0,1,1.14,1.68,31.56,31.56,0,0,1,0,7.77,2.28,2.28,0,0,1-1.14,1.67,9.29,9.29,0,0,1-6.07,0Zm4.47-1.59a1.23,1.23,0,0,0,.48-1c.06-.51.1-1.5.1-3s0-2.48-.1-3a1.23,1.23,0,0,0-.48-1,3.25,3.25,0,0,0-1.44-.21,3.31,3.31,0,0,0-1.44.21,1.23,1.23,0,0,0-.48,1,40.56,40.56,0,0,0,0,6,1.25,1.25,0,0,0,.48,1,3.52,3.52,0,0,0,1.44.2A3.46,3.46,0,0,0,138.94,141.65Z" transform="translate(-7.5 -7.5)"/><circle class="cls-3" cx="125" cy="125" r="20"/><rect class="cls-3" x="7.5" y="7.5" width="145" height="145"/><polyline class="cls-3" points="105 125 35 125 35 55"/><polyline class="cls-3" points="55 35 125 35 125 105"/><path class="cls-4" d="M85.22,56.69" transform="translate(-7.5 -7.5)"/><path class="cls-4" d="M94.55,59.19" transform="translate(-7.5 -7.5)"/><path class="cls-4" d="M74.32,74.32" transform="translate(-7.5 -7.5)"/><path class="cls-4" d="M81.61,81.61" transform="translate(-7.5 -7.5)"/><line class="cls-5" x1="77.72" y1="49.19" x2="57.11" y2="43.67"/><line class="cls-5" x1="66.77" y1="54.93" x2="62.44" y2="52.43"/><line class="cls-5" x1="59.18" y1="50.54" x2="54.85" y2="48.04"/><line class="cls-5" x1="66.82" y1="66.82" x2="51.79" y2="51.79"/><line class="cls-5" x1="54.93" y1="66.77" x2="52.43" y2="62.44"/><line class="cls-5" x1="50.54" y1="59.18" x2="48.04" y2="54.85"/><line class="cls-5" x1="49.19" y1="77.72" x2="43.67" y2="57.12"/><path class="cls-6" d="M46.25,128.75V66A23.75,23.75,0,0,0,66,46.25h62.8v62.8a23.75,23.75,0,0,0-19.7,19.7Z" transform="translate(-7.5 -7.5)"/><line class="cls-5" x1="82.28" y1="110.81" x2="102.89" y2="116.33"/><line class="cls-5" x1="93.23" y1="105.07" x2="97.56" y2="107.57"/><line class="cls-5" x1="100.82" y1="109.46" x2="105.15" y2="111.96"/><line class="cls-5" x1="93.18" y1="93.18" x2="108.21" y2="108.21"/><line class="cls-5" x1="105.07" y1="93.23" x2="107.57" y2="97.56"/><line class="cls-5" x1="109.46" y1="100.82" x2="111.96" y2="105.15"/><line class="cls-5" x1="110.81" y1="82.28" x2="116.33" y2="102.88"/><path class="cls-4" d="M56.69,85.22" transform="translate(-7.5 -7.5)"/><path class="cls-4" d="M59.19,94.55" transform="translate(-7.5 -7.5)"/><path class="cls-2" d="M149,28.5,146.25,30l-2.75-1.5,2.75-4.75Zm-2.75,3L143.5,30l2.75,3.75L149,30Z" transform="translate(-7.5 -7.5)"/><path class="cls-2" d="M32,146l-2.75,1.5L26.5,146l2.75-4.75Zm-2.75,3-2.75-1.5,2.75,3.75L32,147.5Z" transform="translate(-7.5 -7.5)"/><path class="cls-5" d="M69.7,28.75h59.05M67.83,26.88a1.87,1.87,0,1,0,1.87,1.87A1.87,1.87,0,0,0,67.83,26.88Zm62.79,0a1.87,1.87,0,1,0,1.88,1.87A1.87,1.87,0,0,0,130.62,26.88Z" transform="translate(-7.5 -7.5)"/><path class="cls-5" d="M146.25,46.25V105.3m1.87-60.92a1.87,1.87,0,1,0-1.87,1.87A1.87,1.87,0,0,0,148.12,44.38Zm0,62.79a1.87,1.87,0,1,0-1.87,1.88A1.87,1.87,0,0,0,148.12,107.17Z" transform="translate(-7.5 -7.5)"/><path class="cls-5" d="M28.75,69.7v59.05m1.87-60.92a1.87,1.87,0,1,0-1.87,1.87A1.87,1.87,0,0,0,30.62,67.83Zm0,62.79a1.87,1.87,0,1,0-1.87,1.88A1.87,1.87,0,0,0,30.62,130.62Z" transform="translate(-7.5 -7.5)"/><path class="cls-5" d="M46.25,146.25H105.3m-60.92-1.87a1.87,1.87,0,1,0,1.87,1.87A1.87,1.87,0,0,0,44.38,144.38Zm62.79,0a1.87,1.87,0,1,0,1.88,1.87A1.87,1.87,0,0,0,107.17,144.38Z" transform="translate(-7.5 -7.5)"/></svg>