<svg id="Layer_1" data-name="Layer 1" xmlns="http://www.w3.org/2000/svg" viewBox="0 0 226 226"><defs><style>.modules-gnosis-safe-1{fill:none;stroke:#cbcbcc;stroke-miterlimit:10;}.modules-gnosis-safe-2{fill:#cbcbcc;}</style></defs><circle id="Ellipse_9" data-name="Ellipse 9" class="modules-gnosis-safe-1" cx="113" cy="113" r="112.5"/><path id="Path_61" data-name="Path 61" class="modules-gnosis-safe-2" d="M150,100a50,50,0,1,0,50,50h0v0a50,50,0,0,0-50-50m36.59,52.73H163.39a14.12,14.12,0,1,1,.11-4.92h23.1a2.46,2.46,0,0,1,0,4.92h0Z" transform="translate(-37 -37)"/><path id="Path_62" data-name="Path 62" class="modules-gnosis-safe-2" d="M195.24,217.34a1.76,1.76,0,0,1,1.76,1.54h-3.61a1.81,1.81,0,0,1,1.85-1.54m4.76,2.45a4.64,4.64,0,0,0-4.38-4.89h-.34a5,5,0,0,0,.08,10h0a5.21,5.21,0,0,0,4.34-1.74l-1.77-1.82a3.09,3.09,0,0,1-2.25,1,2.12,2.12,0,0,1-2.31-1.68h6.57c0-.2.06-.65.06-.93m-14.86,4.94h3.1v-7.16h1.83v-2.49h-1.83v-1.4c0-.77.35-1,.9-1a3.26,3.26,0,0,1,1.21.36l.57-2.23a4.71,4.71,0,0,0-2.6-.75c-1.94,0-3.18,1.16-3.18,3.55v1.52h-.93v2.49h.93Zm-7-2.54a2.08,2.08,0,0,1-2.09-2.06c0-.07,0-.14,0-.22a2.11,2.11,0,0,1,1.9-2.28h.18a2.11,2.11,0,0,1,2,2.2v.08a2.11,2.11,0,0,1-1.92,2.27h-.11m-.65,2.72a3.16,3.16,0,0,0,2.66-1.2l0,0v1h2.94v-9.66H180v1l0,0a3.46,3.46,0,0,0-2.67-1.21c-2.49,0-4.39,2.06-4.39,5s1.91,5,4.56,5m-10.45,0c2.33,0,5.15-1.18,5.15-4.48,0-2.7-1.89-3.33-4.36-4.28-1.52-.59-2-.95-2-1.62s.49-1.09,1.3-1.09a4.82,4.82,0,0,1,2.86,1.33l1.86-2.41a7.2,7.2,0,0,0-4.86-1.82c-2.6,0-4.6,1.8-4.6,4.12,0,2.77,2.14,3.77,4.27,4.5,1.58.54,2.07.87,2.07,1.64s-.47,1.19-1.58,1.19a4.75,4.75,0,0,1-3.32-1.66l-1.93,2.35A7.16,7.16,0,0,0,167,224.9m-13.76,0c2.65,0,3.93-1.3,3.93-3.1s-1.16-2.45-3.3-3.18c-1-.34-1.32-.55-1.32-.85s.41-.53.77-.53a3.28,3.28,0,0,1,2.15,1l1.46-2.15a5.67,5.67,0,0,0-3.65-1.2c-2,0-3.62,1.12-3.62,3.08s1.43,2.64,3,3.14c1.21.37,1.5.57,1.5.88s-.31.58-.92.58a3.71,3.71,0,0,1-2.53-1.09l-1.44,2a5.71,5.71,0,0,0,3.93,1.42m-8.1-.17h3.08v-9.66h-3.08Zm1.54-10.86a1.81,1.81,0,1,0-.07,0h.07m-6.75,11c2.65,0,3.93-1.3,3.93-3.1s-1.16-2.45-3.3-3.18c-1-.33-1.32-.55-1.32-.85s.41-.53.77-.53a3.25,3.25,0,0,1,2.15,1l1.46-2.15a5.68,5.68,0,0,0-3.65-1.21c-2,0-3.62,1.13-3.62,3.08s1.42,2.64,3,3.14c1.21.37,1.5.57,1.5.89s-.31.57-.92.57a3.7,3.7,0,0,1-2.53-1.08l-1.44,2A5.74,5.74,0,0,0,140,224.9m-9.65-2.72a2.14,2.14,0,0,1-2.11-2.17v-.11a2.11,2.11,0,0,1,4.2-.31,1.61,1.61,0,0,1,0,.31,2.14,2.14,0,0,1-2,2.27h-.09m0,2.72a5,5,0,1,0-5.23-5,4.89,4.89,0,0,0,4.77,5h.46m-15.85-.18h3.08v-4.85c0-1.5.71-2.23,1.77-2.23s1.54.45,1.54,2.05v5h3.08v-5.79c0-3.06-1.46-4.05-3.45-4.05a3.78,3.78,0,0,0-2.9,1.3h0v-1.12h-3.08Zm-7.23.16a9.62,9.62,0,0,0,5.59-1.72v-6.3H107v2.73h2.72v1.65a4.77,4.77,0,0,1-2.42.62c-2.39,0-3.79-1.86-3.79-4.13,0-2.6,1.66-4.13,3.65-4.13a4.73,4.73,0,0,1,3.35,1.39l2.33-2a7.63,7.63,0,0,0-5.68-2.5c-4.48,0-7.11,3.16-7.11,7.22,0,4.56,3.2,7.15,7.24,7.15" transform="translate(-37 -37)"/></svg>