<svg id="Layer_1" data-name="Layer 1" xmlns="http://www.w3.org/2000/svg" xmlns:xlink="http://www.w3.org/1999/xlink" viewBox="0 0 180 240"><defs><style>.cls-1{fill:#626465;}.cls-2{fill:#969899;}.cls-3{fill:url(#linear-gradient);}.cls-4,.cls-5,.cls-6{fill:none;}.cls-4,.cls-5,.cls-9{stroke:#9615db;}.cls-4,.cls-9{stroke-miterlimit:10;}.cls-5,.cls-6{stroke-linecap:round;stroke-linejoin:round;}.cls-6{stroke:#b050e4;}.cls-7{fill:#e5c5f6;}.cls-8{fill:#9615db;opacity:0.5;}.cls-9{fill:#2d3032;}.cls-10{fill:#fff;}</style><linearGradient id="linear-gradient" x1="6.464" y1="223.536" x2="193.536" y2="36.464" gradientUnits="userSpaceOnUse"><stop offset="0" stop-color="#2d3032"/><stop offset="0.258" stop-color="#2f3035"/><stop offset="0.414" stop-color="#342e3d"/><stop offset="0.542" stop-color="#3d2c4b"/><stop offset="0.656" stop-color="#492960"/><stop offset="0.759" stop-color="#5a257a"/><stop offset="0.856" stop-color="#6e1f9a"/><stop offset="0.945" stop-color="#8519c0"/><stop offset="1" stop-color="#9615db"/></linearGradient></defs><g id="ERC-20_Quadratic_Voting_Simple_Membership" data-name="ERC-20 Quadratic Voting + Simple Membership"><rect class="cls-1" width="160" height="220" rx="5"/><rect class="cls-2" x="10" y="10" width="160" height="220" rx="5"/><rect class="cls-3" x="20" y="20" width="160" height="220" rx="5"/><rect class="cls-4" x="25" y="25" width="150" height="210"/><path class="cls-5" d="M158.75,50H61.25M50,111.25v-50m0,157.5v-50m120-57.5v-50m0,157.5v-50M158.75,230H61.25M50,38.75A11.25,11.25,0,1,0,61.25,50,11.25,11.25,0,0,0,50,38.75Zm120,0A11.25,11.25,0,1,0,181.25,50,11.25,11.25,0,0,0,170,38.75Zm-120,180A11.25,11.25,0,1,0,61.25,230,11.25,11.25,0,0,0,50,218.75Zm120,0A11.25,11.25,0,1,0,181.25,230,11.25,11.25,0,0,0,170,218.75Z" transform="translate(-10 -10)"/><path class="cls-6" d="M155.47,53.75H64.53M53.75,103.9V64.53m0,150.94V176.1m112.5-72.2V64.53m0,150.94V176.131M155.47,226.25H64.53M53.75,64.53a15.023,15.023,0,0,0,2.63-.96,13.906,13.906,0,0,0,2.27-1.33,14.808,14.808,0,0,0,3.59-3.59,13.906,13.906,0,0,0,1.33-2.27,15.023,15.023,0,0,0,.96-2.63M60.22,77.9,56.38,63.57m7.37,7.5-1.5-2.6m-2.1-3.634-1.5-2.6m12.78,9.19L60.6,60.6m10.47,3.15-2.6-1.5m-3.634-2.1-2.6-1.5M77.9,60.22,63.57,56.38m91.9-2.63a15.023,15.023,0,0,0,.96,2.63,13.906,13.906,0,0,0,1.33,2.27,14.808,14.808,0,0,0,3.59,3.59,13.906,13.906,0,0,0,2.27,1.33,15.023,15.023,0,0,0,2.63.96m-9.82-8.15L142.1,60.22m15.66-1.57-2.6,1.5m-3.634,2.1-2.6,1.5M159.4,60.6,148.57,71.43m12.78-9.19-1.5,2.6m-2.1,3.634-1.5,2.6m7.37-7.5L159.78,77.9M64.53,226.25a15.023,15.023,0,0,0-.96-2.63,13.906,13.906,0,0,0-1.33-2.27,14.808,14.808,0,0,0-3.59-3.59,13.906,13.906,0,0,0-2.27-1.33,15.023,15.023,0,0,0-2.63-.96m2.63.96,3.84-14.33m-1.57,15.66,1.5-2.6m2.1-3.634,1.5-2.6M60.6,219.4l10.83-10.83m-9.19,12.78,2.6-1.5m3.634-2.1,2.6-1.5m-7.5,7.37,14.33-3.84m88.35-4.31a15.023,15.023,0,0,0-2.63.96,13.906,13.906,0,0,0-2.27,1.33,14.808,14.808,0,0,0-3.59,3.59,13.906,13.906,0,0,0-1.33,2.27,15.023,15.023,0,0,0-.96,2.63m4.31-24.15,3.84,14.33m-7.37-7.5,1.5,2.6m2.1,3.634,1.5,2.6m-12.78-9.19L159.4,219.4m-10.47-3.15,2.6,1.5m3.634,2.1,2.6,1.5m-15.66-1.57,14.33,3.84" transform="translate(-10 -10)"/><path class="cls-7" d="M112.75,42.25,110,43.75l-2.75-1.5L110,37.5Zm-2.75,3-2.75-1.5L110,47.5l2.75-3.75Z" transform="translate(-10 -10)"/><path class="cls-6" d="M120.25,42.5h31.47m-33.345-1.875A1.875,1.875,0,1,0,120.25,42.5,1.874,1.874,0,0,0,118.375,40.625Zm35.22,0A1.875,1.875,0,1,0,155.47,42.5,1.874,1.874,0,0,0,153.6,40.625Z" transform="translate(-10 -10)"/><path class="cls-6" d="M68.28,42.5H99.75M66.405,40.625A1.875,1.875,0,1,0,68.28,42.5,1.874,1.874,0,0,0,66.405,40.625Zm35.22,0A1.875,1.875,0,1,0,103.5,42.5,1.874,1.874,0,0,0,101.625,40.625Z" transform="translate(-10 -10)"/><path class="cls-6" d="M42.5,99.75V68.28m-1.875,33.345A1.875,1.875,0,1,0,42.5,99.75,1.874,1.874,0,0,0,40.625,101.625Zm0-35.22A1.875,1.875,0,1,0,42.5,64.53,1.874,1.874,0,0,0,40.625,66.405ZM177.5,99.75V68.28m-1.875,33.345A1.875,1.875,0,1,0,177.5,99.75,1.874,1.874,0,0,0,175.625,101.625Zm0-35.22A1.875,1.875,0,1,0,177.5,64.53,1.874,1.874,0,0,0,175.625,66.405ZM42.5,211.72V180.25M40.625,213.6A1.875,1.875,0,1,0,42.5,211.72,1.874,1.874,0,0,0,40.625,213.6Zm0-35.22A1.875,1.875,0,1,0,42.5,176.5,1.874,1.874,0,0,0,40.625,178.375ZM177.5,211.72V180.25M175.625,213.6a1.875,1.875,0,1,0,1.875-1.875A1.874,1.874,0,0,0,175.625,213.6Zm0-35.22A1.875,1.875,0,1,0,177.5,176.5,1.874,1.874,0,0,0,175.625,178.375Z" transform="translate(-10 -10)"/><path class="cls-7" d="M112.75,237.25l-2.75,1.5-2.75-1.5L110,232.5Zm-2.75,3-2.75-1.5L110,242.5l2.75-3.75Z" transform="translate(-10 -10)"/><path class="cls-6" d="M120.25,237.5h31.47m-33.345-1.875a1.875,1.875,0,1,0,1.875,1.875A1.874,1.874,0,0,0,118.375,235.625Zm35.22,0a1.875,1.875,0,1,0,1.875,1.875A1.874,1.874,0,0,0,153.6,235.625Z" transform="translate(-10 -10)"/><path class="cls-6" d="M68.28,237.5H99.75m-33.345-1.875A1.875,1.875,0,1,0,68.28,237.5,1.874,1.874,0,0,0,66.405,235.625Zm35.22,0A1.875,1.875,0,1,0,103.5,237.5,1.874,1.874,0,0,0,101.625,235.625Z" transform="translate(-10 -10)"/><path class="cls-7" d="M50.73,51.71A13.71,13.71,0,0,1,43.9,55.468a.124.124,0,0,1-.145-.124V43.875a.125.125,0,0,1,.125-.125H55.294a.124.124,0,0,1,.12.163A21.337,21.337,0,0,1,50.73,51.71Zm5.282-5.25a20.4,20.4,0,0,1-4.242,6.33,17.1,17.1,0,0,1-4.692,3.224.124.124,0,0,0,.055.236h8.992a.125.125,0,0,0,.125-.125V46.512A.124.124,0,0,0,56.012,46.46Z" transform="translate(-10 -10)"/><path class="cls-7" d="M170.73,231.71a13.71,13.71,0,0,1-6.835,3.758.124.124,0,0,1-.145-.124V223.875a.125.125,0,0,1,.125-.125h11.419a.124.124,0,0,1,.12.163A21.337,21.337,0,0,1,170.73,231.71Zm5.282-5.25a20.4,20.4,0,0,1-4.242,6.33,17.1,17.1,0,0,1-4.692,3.224.124.124,0,0,0,.055.236h8.992a.125.125,0,0,0,.125-.125v-9.613A.124.124,0,0,0,176.012,226.46Z" transform="translate(-10 -10)"/><path class="cls-7" d="M165.625,45h-1.75a.125.125,0,0,1-.125-.125v-.75a.125.125,0,0,1,.125-.125h1.75a.125.125,0,0,1,.125.125v.75A.125.125,0,0,1,165.625,45Zm-.125,8.375v-6.75a.125.125,0,0,0-.125-.125h-1.25a.125.125,0,0,0-.125.125v6.75a.125.125,0,0,0,.125.125h1.25A.125.125,0,0,0,165.5,53.375Zm10.5,0v-6.75a.125.125,0,0,0-.125-.125h-1.25a.125.125,0,0,0-.125.125v6.75a.125.125,0,0,0,.125.125h1.25A.125.125,0,0,0,176,53.375Zm-10.25,2.5v-.75a.125.125,0,0,0-.125-.125h-1.75a.125.125,0,0,0-.125.125v.75a.125.125,0,0,0,.125.125h1.75A.125.125,0,0,0,165.75,55.875Zm10.5-11v-.75a.125.125,0,0,0-.125-.125h-1.75a.125.125,0,0,0-.125.125v.75a.125.125,0,0,0,.125.125h1.75A.125.125,0,0,0,176.25,44.875Zm0,11v-.75a.125.125,0,0,0-.125-.125h-1.75a.125.125,0,0,0-.125.125v.75a.125.125,0,0,0,.125.125h1.75A.125.125,0,0,0,176.25,55.875ZM170.146,45a2.748,2.748,0,0,0-2.9,2.746v8.125a.125.125,0,0,0,.125.125h5.25a.125.125,0,0,0,.125-.125V47.9A2.853,2.853,0,0,0,170.146,45Z" transform="translate(-10 -10)"/><path class="cls-7" d="M45.625,225h-1.75a.125.125,0,0,1-.125-.125v-.75a.125.125,0,0,1,.125-.125h1.75a.125.125,0,0,1,.125.125v.75A.125.125,0,0,1,45.625,225Zm-.125,8.375v-6.75a.125.125,0,0,0-.125-.125h-1.25a.125.125,0,0,0-.125.125v6.75a.125.125,0,0,0,.125.125h1.25A.125.125,0,0,0,45.5,233.375Zm10.5,0v-6.75a.125.125,0,0,0-.125-.125h-1.25a.125.125,0,0,0-.125.125v6.75a.125.125,0,0,0,.125.125h1.25A.125.125,0,0,0,56,233.375Zm-10.25,2.5v-.75a.125.125,0,0,0-.125-.125h-1.75a.125.125,0,0,0-.125.125v.75a.125.125,0,0,0,.125.125h1.75A.125.125,0,0,0,45.75,235.875Zm10.5-11v-.75a.125.125,0,0,0-.125-.125h-1.75a.125.125,0,0,0-.125.125v.75a.125.125,0,0,0,.125.125h1.75A.125.125,0,0,0,56.25,224.875Zm0,11v-.75a.125.125,0,0,0-.125-.125h-1.75a.125.125,0,0,0-.125.125v.75a.125.125,0,0,0,.125.125h1.75A.125.125,0,0,0,56.25,235.875ZM50.146,225a2.748,2.748,0,0,0-2.9,2.746v8.125a.125.125,0,0,0,.125.125h5.25a.125.125,0,0,0,.125-.125V227.9A2.853,2.853,0,0,0,50.146,225Z" transform="translate(-10 -10)"/><path class="cls-8" d="M107.62,210.96l.46.3L168,172.51v-.59Zm-2.16-1.4.46.3L168,169.72v-.59Zm58.81-40.81L103.3,208.17l.46.3,61.43-39.72Zm-4.31,0-58.81,38.03.46.29,59.27-38.32Zm-4.32,0L98.99,205.38l.46.3,57.12-36.93Zm-4.31,0-54.5,35.24.47.3,54.96-35.54Zm-4.32,0L94.67,202.59l.47.3,52.8-34.14Zm-4.3,0L92.52,201.2l.46.3,50.65-32.75Zm-4.32,0L90.36,199.8l.46.3,48.5-31.35Zm-4.31,0L88.21,198.41l.46.3L135,168.75Zm-4.31,0L86.05,197.02l.46.29,44.18-28.56Zm-4.32,0L83.89,195.62l.47.3,42.02-27.17Zm-4.3,0L81.74,194.23l.46.29,39.86-25.77Zm-4.32,0L79.58,192.83l.46.3,37.71-24.38Zm-4.31,0-35.1,22.69.46.3,35.56-22.99Zm-4.32,0L75.27,190.04l.46.3,33.39-21.59Zm-4.31,0-30.78,19.9.46.3,31.24-20.2Zm-4.32,0-28.62,18.5.46.3,29.08-18.8Zm-4.31,0L68.79,185.86l.46.3,26.93-17.41Zm-4.31,0L66.64,184.47l.46.29,24.76-16.01Zm-4.32,0L64.48,183.07l.46.3,22.61-14.62Zm-4.3,0-20,12.93.46.3,20.46-13.23ZM60.17,180.28l.46.3,18.3-11.83H78Zm102.46-69.03h.92l4.45-2.88v-.59ZM58.02,178.89l.46.3,16.14-10.44H73.7Zm100.31-67.64h.9l8.77-5.67V105ZM55.86,177.49l.46.3,13.98-9.04h-.92ZM165.84,103.6l-11.83,7.65h.92l11.37-7.35ZM53.7,176.1l.47.3L66,168.75h-.93Zm109.98-73.89-13.98,9.04h.91l13.53-8.75ZM52,174.41V175l9.67-6.25h-.92Zm109.52-73.6-16.15,10.44h.94l15.68-10.14ZM52,171.62v.6l5.37-3.47h-.93Zm107.37-72.2-18.3,11.83h.92l17.84-11.53Zm-2.16-1.39-20.45,13.22h.91l20-12.93Zm-2.15-1.4-22.61,14.62h.92l22.15-14.32Zm-2.16-1.39-24.76,16.01h.91l24.31-15.72Zm-2.15-1.39-26.91,17.4h.9l26.47-17.11Zm-2.17-1.4-29.07,18.8h.91l28.62-18.51Zm-2.15-1.39L115.2,111.25h.92l30.77-19.9Zm-2.16-1.4-33.4,21.59h.93l32.93-21.29Zm-2.15-1.39-35.55,22.98h.92l35.09-22.69Zm-2.16-1.4-37.71,24.38h.92l37.25-24.08Zm-2.15-1.39L97.95,111.25h.91l39.41-25.48Zm-2.16-1.4L93.62,111.25h.93l41.56-26.87Zm-2.16-1.39L89.32,111.25h.91l43.72-28.27Zm-2.16-1.4L85,111.25h.92l45.87-29.66Zm-2.15-1.39L80.69,111.25h.93L129.64,80.2Zm-2.16-1.4L76.37,111.25h.93L127.48,78.8Zm-2.16-1.39-52.8,34.14h.93l52.33-33.84Zm-2.15-1.39L67.75,111.25h.92l54.5-35.24Zm-2.16-1.4L63.43,111.25h.93l56.65-36.63Zm-2.15-1.39L59.12,111.25h.92l58.81-38.02Zm-2.16-1.4L54.81,111.25h.92L116.7,71.83Zm-2.16-1.39L52,110.28v.59l62.54-40.43Zm-2.15-1.39L52,107.5v.59l60.38-39.05Z" transform="translate(-10 -10)"/><path class="cls-5" d="M52,111.25V105l58-37.5.23.15,1.7,1.1.45.29,1.7,1.1.46.3,1.7,1.09.46.3,1.7,1.1.45.3,1.7,1.09.46.3,1.7,1.1.46.29,1.69,1.1.46.3,1.7,1.09.46.3,1.7,1.1.46.3,1.69,1.09.46.3,1.7,1.1.46.29,1.7,1.1.46.3,1.7,1.1.46.29,1.69,1.1.46.3,1.7,1.1.46.29,1.69,1.1.46.3,1.7,1.1.46.29,1.69,1.1.46.29,1.71,1.11.46.29,1.69,1.1.46.29,1.7,1.1.46.3,1.69,1.1.46.29,1.7,1.1.46.3,1.69,1.09.47.3,1.69,1.1.46.29,1.7,1.1.46.3L168,105v6.25M52,168.75V175l1.7,1.1.47.3,1.69,1.09.46.3,1.7,1.1.46.3,1.69,1.09.46.3,1.7,1.1.46.3,1.69,1.09.46.3,1.7,1.1.46.29,1.69,1.1.46.3,1.7,1.09.46.3,1.7,1.1.46.3,1.7,1.09.46.3,1.69,1.1.46.3,1.7,1.09.46.3,1.7,1.1.46.29,1.69,1.1.47.3,1.69,1.1.46.29,1.7,1.1.46.3,1.69,1.09.46.3,1.7,1.1.46.3,1.69,1.09.47.3,1.69,1.1.47.3,1.69,1.09.46.3,1.7,1.1.46.29,1.69,1.1.46.3,1.7,1.09.46.3,1.7,1.1.46.3,1.69,1.09.23.15L168,175v-6.25" transform="translate(-10 -10)"/><polygon class="cls-9" points="87.5 59.5 87.5 71.5 100 79.75 112.5 71.5 112.5 59.5 100 51.25 87.5 59.5"/><path class="cls-7" d="M103.945,73.359V68.13H107.3v.837H105V70.3h1.975v.844H105v1.383H107.3v.836Z" transform="translate(-10 -10)"/><path class="cls-7" d="M111.153,73.359l-.716-1.907h-1.1v1.907h-1.059V68.13h2.3a2.118,2.118,0,0,1,1.013.194.966.966,0,0,1,.463.544,3,3,0,0,1,.116.92,2.71,2.71,0,0,1-.146.93.961.961,0,0,1-.571.574l.825,2.067Zm-.341-2.812a.367.367,0,0,0,.238-.235,1.856,1.856,0,0,0,.054-.524,1.8,1.8,0,0,0-.054-.525.369.369,0,0,0-.23-.228,1.752,1.752,0,0,0-.583-.068h-.9v1.649h.892A1.8,1.8,0,0,0,110.812,70.547Z" transform="translate(-10 -10)"/><path class="cls-7" d="M115.754,73.386a6.424,6.424,0,0,1-.642.034,3.025,3.025,0,0,1-1.354-.228,1.164,1.164,0,0,1-.575-.775,9.624,9.624,0,0,1,0-3.34,1.169,1.169,0,0,1,.579-.775,2.981,2.981,0,0,1,1.35-.232,5.829,5.829,0,0,1,.65.038,3.873,3.873,0,0,1,.533.091v.775q-.633-.068-.941-.068a2.322,2.322,0,0,0-.867.11.589.589,0,0,0-.312.463,11.314,11.314,0,0,0,0,2.531.591.591,0,0,0,.312.464,2.343,2.343,0,0,0,.867.11,6.821,6.821,0,0,0,.966-.068V73.3A4.4,4.4,0,0,1,115.754,73.386Z" transform="translate(-10 -10)"/><path class="cls-7" d="M105.269,81.594h3.825v1.265h-5.388v-1a10.9,10.9,0,0,1,.075-1.5,1.632,1.632,0,0,1,.331-.8,2.086,2.086,0,0,1,.844-.553l1.037-.445c.158-.061.4-.159.713-.3a2.448,2.448,0,0,0,.513-.274.629.629,0,0,0,.219-.308,1.843,1.843,0,0,0,.055-.513,1.184,1.184,0,0,0-.138-.655.672.672,0,0,0-.443-.262,5.312,5.312,0,0,0-.969-.063q-.786,0-2.1.137V75.153a10.567,10.567,0,0,1,1.224-.165q.726-.063,1.35-.063a6,6,0,0,1,1.426.142,1.579,1.579,0,0,1,.906.61,2.317,2.317,0,0,1,.344,1.38,3.588,3.588,0,0,1-.138,1.1,1.569,1.569,0,0,1-.413.673,2.313,2.313,0,0,1-.75.439l-1.938.809a2.246,2.246,0,0,0-.287.142.543.543,0,0,0-.162.154.893.893,0,0,0-.106.325,4.08,4.08,0,0,0-.031.587Z" transform="translate(-10 -10)"/><path class="cls-7" d="M111.318,82.614a1.562,1.562,0,0,1-.762-1.111,14,14,0,0,1-.163-2.565,14,14,0,0,1,.163-2.565,1.564,1.564,0,0,1,.762-1.112,6.156,6.156,0,0,1,4.012,0,1.546,1.546,0,0,1,.757,1.106,14.735,14.735,0,0,1,.156,2.571,14.713,14.713,0,0,1-.156,2.57,1.546,1.546,0,0,1-.757,1.106,6.139,6.139,0,0,1-4.012,0Zm2.956-1.054a.818.818,0,0,0,.313-.644,28.8,28.8,0,0,0,0-3.956.818.818,0,0,0-.313-.644,3.383,3.383,0,0,0-1.906,0,.815.815,0,0,0-.319.649,28.228,28.228,0,0,0,0,3.945.816.816,0,0,0,.319.65,3.383,3.383,0,0,0,1.906,0Z" transform="translate(-10 -10)"/><path class="cls-10" d="M64.529,139.3v.063H62.3L61.2,137.6c-.33.032-.714.047-1.151.047a5.957,5.957,0,0,1-2.768-.471,2.169,2.169,0,0,1-1.048-1.561,29.962,29.962,0,0,1,0-7.2,2.171,2.171,0,0,1,1.048-1.561,5.957,5.957,0,0,1,2.768-.471,6.01,6.01,0,0,1,2.775.471,2.164,2.164,0,0,1,1.057,1.561,20.858,20.858,0,0,1,.215,3.6q0,1.583-.064,2.488a5.645,5.645,0,0,1-.295,1.535,2.066,2.066,0,0,1-.712.984Zm-4.4-3.408-1.168-1.856h2.08l.8,1.215a4.15,4.15,0,0,0,.168-1.063q.039-.7.04-2.168a23.637,23.637,0,0,0-.1-2.76,1.138,1.138,0,0,0-.48-.92,3.515,3.515,0,0,0-1.416-.192,3.455,3.455,0,0,0-1.409.192,1.136,1.136,0,0,0-.471.912,36.888,36.888,0,0,0,0,5.536,1.134,1.134,0,0,0,.471.911,3.451,3.451,0,0,0,1.409.193Z" transform="translate(-10 -10)"/><path class="cls-10" d="M70.5,136.5h-.112a1.7,1.7,0,0,1-.8.872,3.032,3.032,0,0,1-1.392.28,2.528,2.528,0,0,1-1.424-.328,1.617,1.617,0,0,1-.648-.975,7.358,7.358,0,0,1-.168-1.768v-5.217h1.92v4.4a10.188,10.188,0,0,0,.072,1.487.708.708,0,0,0,.312.545,1.921,1.921,0,0,0,.832.128,1.453,1.453,0,0,0,.888-.217,1.074,1.074,0,0,0,.367-.687,8.452,8.452,0,0,0,.089-1.432v-4.225h1.92v8.161H70.561Z" transform="translate(-10 -10)"/><path class="cls-10" d="M74.465,137.071a2.694,2.694,0,0,1-.529-1.855,4.29,4.29,0,0,1,.208-1.5,1.41,1.41,0,0,1,.713-.784,3.23,3.23,0,0,1,1.4-.248q.72,0,2.128.064V132.4a2.91,2.91,0,0,0-.137-1.063.681.681,0,0,0-.5-.4,5.947,5.947,0,0,0-1.241-.088q-.416,0-1.071.04t-1.056.088v-1.5a16.066,16.066,0,0,1,2.735-.241,5,5,0,0,1,2.04.321,1.671,1.671,0,0,1,.913,1A6.332,6.332,0,0,1,80.3,132.5v5.024H78.512l-.064-.993h-.111a2.166,2.166,0,0,1-2.224,1.12A2.133,2.133,0,0,1,74.465,137.071Zm3.239-1.128a.846.846,0,0,0,.44-.343,2.48,2.48,0,0,0,.241-1.281V134h-1.6a1.947,1.947,0,0,0-.615.071.462.462,0,0,0-.281.288,2.129,2.129,0,0,0-.08.681,1.761,1.761,0,0,0,.088.64.492.492,0,0,0,.328.28,2.947,2.947,0,0,0,.768.071A2.306,2.306,0,0,0,77.7,135.943Z" transform="translate(-10 -10)"/><path class="cls-10" d="M83.041,137.279a2.15,2.15,0,0,1-.768-1.271,10.468,10.468,0,0,1-.241-2.552,10.767,10.767,0,0,1,.232-2.536,2.263,2.263,0,0,1,.753-1.3,2.353,2.353,0,0,1,1.448-.393,3.115,3.115,0,0,1,1.28.233,1.669,1.669,0,0,1,.8.792h.111v-4.624h1.92V137.52H86.784l-.064-1.008h-.111a2.007,2.007,0,0,1-2.1,1.135A2.545,2.545,0,0,1,83.041,137.279Zm3.048-1.487a.887.887,0,0,0,.392-.48,3.258,3.258,0,0,0,.135-.728c.027-.294.04-.675.04-1.145,0-.436-.007-.786-.023-1.047a2.5,2.5,0,0,0-.121-.664.962.962,0,0,0-.383-.592,1.49,1.49,0,0,0-.8-.176,2.011,2.011,0,0,0-.921.151.876.876,0,0,0-.352.641,11.066,11.066,0,0,0-.087,1.687,11.238,11.238,0,0,0,.087,1.705.865.865,0,0,0,.352.639,1.979,1.979,0,0,0,.921.153A1.618,1.618,0,0,0,86.089,135.792Z" transform="translate(-10 -10)"/><path class="cls-10" d="M90.577,129.359h1.791l.065,1.409h.128a1.987,1.987,0,0,1,.807-1.2,2.844,2.844,0,0,1,1.481-.336v1.937a3.036,3.036,0,0,0-1.416.271,1.545,1.545,0,0,0-.721.88A5.237,5.237,0,0,0,92.5,134v3.52H90.577Z" transform="translate(-10 -10)"/><path class="cls-10" d="M96.128,137.071a2.7,2.7,0,0,1-.528-1.855,4.267,4.267,0,0,1,.208-1.5,1.41,1.41,0,0,1,.713-.784,3.228,3.228,0,0,1,1.4-.248q.721,0,2.129.064V132.4a2.91,2.91,0,0,0-.137-1.063.679.679,0,0,0-.5-.4,5.941,5.941,0,0,0-1.241-.088c-.277,0-.635.013-1.071.04s-.79.055-1.057.088v-1.5a16.087,16.087,0,0,1,2.736-.241,5,5,0,0,1,2.04.321,1.671,1.671,0,0,1,.913,1,6.327,6.327,0,0,1,.232,1.944v5.024h-1.792l-.064-.993H100a2.165,2.165,0,0,1-2.224,1.12A2.137,2.137,0,0,1,96.128,137.071Zm3.24-1.128a.848.848,0,0,0,.441-.343,2.482,2.482,0,0,0,.24-1.281V134h-1.6a1.955,1.955,0,0,0-.616.071.461.461,0,0,0-.28.288,2.129,2.129,0,0,0-.08.681,1.739,1.739,0,0,0,.088.64.49.49,0,0,0,.328.28,2.942,2.942,0,0,0,.768.071A2.306,2.306,0,0,0,99.368,135.943Z" transform="translate(-10 -10)"/><path class="cls-10" d="M104.513,137.52v-6.544h-1.327v-1.617h1.327v-2.367h1.92v2.367h1.6v1.617h-1.6v6.544Z" transform="translate(-10 -10)"/><path class="cls-10" d="M109.329,127.456v-1.824H111.3v1.824Zm.016,10.064v-8.161h1.936v8.161Z" transform="translate(-10 -10)"/><path class="cls-10" d="M117.169,137.584a10.035,10.035,0,0,1-1.088.063,3.65,3.65,0,0,1-2.032-.448,2.053,2.053,0,0,1-.848-1.3,11.939,11.939,0,0,1-.192-2.457,10.784,10.784,0,0,1,.216-2.447,2.132,2.132,0,0,1,.864-1.32,3.52,3.52,0,0,1,1.96-.441,9.869,9.869,0,0,1,1.112.065,4.97,4.97,0,0,1,.92.176v1.5a8.371,8.371,0,0,0-1.52-.128,2.33,2.33,0,0,0-1.08.184.965.965,0,0,0-.432.7,9.794,9.794,0,0,0-.1,1.7,9.232,9.232,0,0,0,.112,1.72.958.958,0,0,0,.44.7,2.415,2.415,0,0,0,1.08.176,10.521,10.521,0,0,0,1.568-.111v1.487A6.23,6.23,0,0,1,117.169,137.584Z" transform="translate(-10 -10)"/><path class="cls-10" d="M125.361,137.52l-2.928-11.008h2.1l2.24,8.8h.1l2.208-8.8h2.065l-2.945,11.008Z" transform="translate(-10 -10)"/><path class="cls-10" d="M132.7,137.287a1.694,1.694,0,0,1-.88-1.183,18.785,18.785,0,0,1,0-5.344,1.672,1.672,0,0,1,.88-1.176,5.3,5.3,0,0,1,2.257-.353,5.236,5.236,0,0,1,2.239.353,1.671,1.671,0,0,1,.88,1.184,18.537,18.537,0,0,1,0,5.336,1.692,1.692,0,0,1-.88,1.183,5.125,5.125,0,0,1-2.239.36A5.184,5.184,0,0,1,132.7,137.287Zm3.233-1.416a.814.814,0,0,0,.336-.64,25.218,25.218,0,0,0,0-3.591.82.82,0,0,0-.328-.632,2.08,2.08,0,0,0-.984-.16,2.133,2.133,0,0,0-.992.16.8.8,0,0,0-.336.632,25.218,25.218,0,0,0,0,3.591.808.808,0,0,0,.336.64,2.12,2.12,0,0,0,.992.16A2.076,2.076,0,0,0,135.937,135.871Z" transform="translate(-10 -10)"/><path class="cls-10" d="M140.56,137.52v-6.544h-1.328v-1.617h1.328v-2.367h1.92v2.367h1.6v1.617h-1.6v6.544Z" transform="translate(-10 -10)"/><path class="cls-10" d="M145.375,127.456v-1.824h1.969v1.824Zm.017,10.064v-8.161h1.935v8.161Z" transform="translate(-10 -10)"/><path class="cls-10" d="M153.791,133.12a10.247,10.247,0,0,0-.071-1.488.7.7,0,0,0-.313-.544,1.921,1.921,0,0,0-.832-.128,1.455,1.455,0,0,0-.887.216,1.07,1.07,0,0,0-.368.688,8.475,8.475,0,0,0-.088,1.432v4.224h-1.92v-8.161H151.1l.063,1.025h.113a1.7,1.7,0,0,1,.8-.872,3.033,3.033,0,0,1,1.393-.281,2.532,2.532,0,0,1,1.424.329,1.615,1.615,0,0,1,.647.976,7.3,7.3,0,0,1,.168,1.768v5.216h-1.92Z" transform="translate(-10 -10)"/><path class="cls-10" d="M159.127,140.72a10.465,10.465,0,0,1-1.143-.128V139.1q1.119.048,2.063.047a4.337,4.337,0,0,0,1.376-.151.824.824,0,0,0,.521-.576,6.014,6.014,0,0,0,.12-1.448v-.464h-.113a1.527,1.527,0,0,1-.767.792,3.078,3.078,0,0,1-1.265.231,2.583,2.583,0,0,1-1.488-.367,2.1,2.1,0,0,1-.76-1.248,13.63,13.63,0,0,1,.008-5.04,2.17,2.17,0,0,1,.776-1.273,2.551,2.551,0,0,1,1.481-.376,2.023,2.023,0,0,1,2.079,1.153h.112l.065-1.025h1.792v7.168a11.074,11.074,0,0,1-.216,2.529,2,2,0,0,1-.952,1.28,4.775,4.775,0,0,1-2.321.432Q159.84,140.768,159.127,140.72Zm2.353-5a.838.838,0,0,0,.391-.473,2.509,2.509,0,0,0,.153-.7c.026-.288.04-.667.04-1.136a5.7,5.7,0,0,0-.177-1.761.923.923,0,0,0-.392-.536,1.555,1.555,0,0,0-.759-.151,2.077,2.077,0,0,0-.92.144.829.829,0,0,0-.353.624,10.858,10.858,0,0,0-.088,1.68,10.7,10.7,0,0,0,.088,1.663.853.853,0,0,0,.353.632,1.972,1.972,0,0,0,.92.152A1.656,1.656,0,0,0,161.48,135.72Z" transform="translate(-10 -10)"/><path class="cls-10" d="M59.577,145.836q-.2-1.1-1.62-1.105a1.809,1.809,0,0,0-1.164.331.988.988,0,0,0-.408.792.924.924,0,0,0,.252.7,2.147,2.147,0,0,0,.816.42l1.572.54a3.25,3.25,0,0,1,1.278.755,1.843,1.843,0,0,1,.474,1.351,1.809,1.809,0,0,1-.744,1.464,3.108,3.108,0,0,1-1.992.594A3.2,3.2,0,0,1,56,151.05a2.19,2.19,0,0,1-.822-1.771H56.1a1.345,1.345,0,0,0,.522,1.141,2.162,2.162,0,0,0,1.344.4,2.1,2.1,0,0,0,1.3-.365,1.067,1.067,0,0,0,.48-.864,1.05,1.05,0,0,0-.294-.786,2.234,2.234,0,0,0-.87-.481l-1.332-.492a4,4,0,0,1-1.416-.743,1.617,1.617,0,0,1-.48-1.267,1.737,1.737,0,0,1,.672-1.391,2.868,2.868,0,0,1,1.884-.559,2.836,2.836,0,0,1,1.854.534,2.075,2.075,0,0,1,.738,1.435Z" transform="translate(-10 -10)"/><path class="cls-10" d="M63.345,144.456a.612.612,0,0,1-.45-.162.657.657,0,0,1,0-.864.6.6,0,0,1,.45-.162.646.646,0,0,1,.462.162.623.623,0,0,1,0,.864A.655.655,0,0,1,63.345,144.456Zm-.468,1.344h.948v5.748h-.948Z" transform="translate(-10 -10)"/><path class="cls-10" d="M67.317,146.916a1.967,1.967,0,0,1,1.932-1.248,1.964,1.964,0,0,1,1.98,1.38,1.99,1.99,0,0,1,2-1.38,1.968,1.968,0,0,1,1.6.672,2.766,2.766,0,0,1,.564,1.836v3.372h-.936v-3.372a1.775,1.775,0,0,0-.39-1.248,1.452,1.452,0,0,0-1.122-.42,1.289,1.289,0,0,0-1.134.6,2.953,2.953,0,0,0-.4,1.657v2.784h-.936v-3.372a1.775,1.775,0,0,0-.39-1.248,1.436,1.436,0,0,0-1.11-.42,1.391,1.391,0,0,0-1.164.588,2.762,2.762,0,0,0-.468,1.633v2.819h-.948v-5.736h.816Z" transform="translate(-10 -10)"/><path class="cls-10" d="M78.513,146.688a1.816,1.816,0,0,1,1.686-1.02,2.418,2.418,0,0,1,1.872.828,3.127,3.127,0,0,1,.75,2.184,3.087,3.087,0,0,1-.756,2.177,2.426,2.426,0,0,1-1.86.823,1.8,1.8,0,0,1-1.632-.828v3.516h-.948v-8.556h.78Zm1.644,4.152a1.543,1.543,0,0,0,1.182-.576,2.3,2.3,0,0,0,.51-1.578,2.418,2.418,0,0,0-.486-1.59,1.482,1.482,0,0,0-1.182-.588,1.554,1.554,0,0,0-1.14.437,1.667,1.667,0,0,0-.468,1.183v1.092a1.558,1.558,0,0,0,.456,1.188A1.577,1.577,0,0,0,80.157,150.84Z" transform="translate(-10 -10)"/><path class="cls-10" d="M84.753,143.376H85.7v8.172h-.948Z" transform="translate(-10 -10)"/><path class="cls-10" d="M90.093,150.912a1.189,1.189,0,0,0,1.355-1.044h.973a1.972,1.972,0,0,1-.763,1.338,2.528,2.528,0,0,1-1.565.474,2.37,2.37,0,0,1-1.873-.823,3.2,3.2,0,0,1-.719-2.189,3.163,3.163,0,0,1,.726-2.185,2.457,2.457,0,0,1,1.931-.815,1.987,1.987,0,0,1,1.8.936,3.322,3.322,0,0,1,.414,2.28H88.448a2.345,2.345,0,0,0,.433,1.458A1.433,1.433,0,0,0,90.093,150.912Zm.7-4.345a1.614,1.614,0,0,0-1.83.355,2.181,2.181,0,0,0-.5,1.242H91.52A1.65,1.65,0,0,0,90.789,146.567Z" transform="translate(-10 -10)"/><path class="cls-10" d="M98.5,144l2.544,5.111,2.52-5.111H104.9v7.548h-.948v-6.2L101.36,150.6h-.636L98.1,145.26v6.288h-.948V144Z" transform="translate(-10 -10)"/><path class="cls-10" d="M109.3,150.912a1.191,1.191,0,0,0,1.357-1.044h.972a1.971,1.971,0,0,1-.762,1.338,2.534,2.534,0,0,1-1.567.474,2.372,2.372,0,0,1-1.872-.823,3.2,3.2,0,0,1-.719-2.189,3.168,3.168,0,0,1,.726-2.185,2.458,2.458,0,0,1,1.932-.815,1.985,1.985,0,0,1,1.8.936,3.311,3.311,0,0,1,.414,2.28H107.66a2.339,2.339,0,0,0,.432,1.458A1.432,1.432,0,0,0,109.3,150.912Zm.7-4.345a1.614,1.614,0,0,0-1.83.355,2.167,2.167,0,0,0-.5,1.242h3.06A1.648,1.648,0,0,0,110,146.567Z" transform="translate(-10 -10)"/><path class="cls-10" d="M114.416,146.916a1.967,1.967,0,0,1,1.932-1.248,1.964,1.964,0,0,1,1.98,1.38,1.99,1.99,0,0,1,2-1.38,1.968,1.968,0,0,1,1.6.672,2.771,2.771,0,0,1,.564,1.836v3.372h-.936v-3.372a1.775,1.775,0,0,0-.39-1.248,1.452,1.452,0,0,0-1.122-.42,1.288,1.288,0,0,0-1.134.6,2.953,2.953,0,0,0-.4,1.657v2.784h-.936v-3.372a1.775,1.775,0,0,0-.39-1.248,1.436,1.436,0,0,0-1.11-.42,1.391,1.391,0,0,0-1.164.588,2.762,2.762,0,0,0-.468,1.633v2.819h-.948v-5.736h.816Z" transform="translate(-10 -10)"/><path class="cls-10" d="M125.672,146.664a1.832,1.832,0,0,1,1.679-1,2.353,2.353,0,0,1,1.836.821,3.582,3.582,0,0,1-.011,4.357,2.342,2.342,0,0,1-1.813.834,1.878,1.878,0,0,1-1.764-1.14l-.215,1.008h-.661v-8.172h.949Zm1.62-.156a1.584,1.584,0,0,0-1.141.437,1.683,1.683,0,0,0-.479,1.219v.936a1.714,1.714,0,0,0,.473,1.266,1.565,1.565,0,0,0,1.147.474,1.473,1.473,0,0,0,1.164-.594,2.786,2.786,0,0,0,.006-3.15A1.472,1.472,0,0,0,127.292,146.508Z" transform="translate(-10 -10)"/><path class="cls-10" d="M133.712,150.912a1.189,1.189,0,0,0,1.355-1.044h.972a1.971,1.971,0,0,1-.762,1.338,2.528,2.528,0,0,1-1.565.474,2.366,2.366,0,0,1-1.872-.823,3.667,3.667,0,0,1,0-4.374,2.458,2.458,0,0,1,1.932-.815,1.985,1.985,0,0,1,1.8.936,3.311,3.311,0,0,1,.414,2.28h-3.924a2.345,2.345,0,0,0,.433,1.458A1.431,1.431,0,0,0,133.712,150.912Zm.7-4.345a1.614,1.614,0,0,0-1.83.355,2.195,2.195,0,0,0-.5,1.242h3.06A1.648,1.648,0,0,0,134.407,146.567Z" transform="translate(-10 -10)"/><path class="cls-10" d="M140.252,146.615q-1.358,0-1.4,2.137v2.8H137.9V145.8h.948v1.1a1.558,1.558,0,0,1,1.524-1.2,1.978,1.978,0,0,1,.66.109l-.048.923A2.3,2.3,0,0,0,140.252,146.615Z" transform="translate(-10 -10)"/><path class="cls-10" d="M142.789,146.088a2.831,2.831,0,0,1,1.638-.42,2.659,2.659,0,0,1,1.614.432,1.374,1.374,0,0,1,.606,1.091h-.924q-.108-.779-1.32-.78a1.382,1.382,0,0,0-.906.265.746.746,0,0,0-.318.57.662.662,0,0,0,.241.516,2.1,2.1,0,0,0,.767.366l1.153.384a2.974,2.974,0,0,1,1.122.582,1.249,1.249,0,0,1,.389.971,1.418,1.418,0,0,1-.635,1.117,2.822,2.822,0,0,1-1.777.5,2.771,2.771,0,0,1-1.776-.51,1.714,1.714,0,0,1-.672-1.315h.912a.957.957,0,0,0,.439.811,2.138,2.138,0,0,0,2.069.006.753.753,0,0,0,.408-.63.672.672,0,0,0-.24-.558,2.171,2.171,0,0,0-.779-.336l-1.117-.373q-1.5-.444-1.5-1.559A1.307,1.307,0,0,1,142.789,146.088Z" transform="translate(-10 -10)"/><path class="cls-10" d="M149.744,146.867a2.158,2.158,0,0,1,3.5-.527,2.746,2.746,0,0,1,.569,1.836v3.372h-.935v-3.372a1.775,1.775,0,0,0-.39-1.248,1.455,1.455,0,0,0-1.122-.42,1.382,1.382,0,0,0-1.177.618,2.884,2.884,0,0,0-.443,1.71v2.712H148.8v-8.172h.948Z" transform="translate(-10 -10)"/><path class="cls-10" d="M156.571,144.456a.612.612,0,0,1-.45-.162.657.657,0,0,1,0-.864.6.6,0,0,1,.45-.162.648.648,0,0,1,.462.162.623.623,0,0,1,0,.864A.657.657,0,0,1,156.571,144.456ZM156.1,145.8h.948v5.748H156.1Z" transform="translate(-10 -10)"/><path class="cls-10" d="M160.518,146.688a1.818,1.818,0,0,1,1.687-1.02,2.418,2.418,0,0,1,1.872.828,3.127,3.127,0,0,1,.75,2.184,3.087,3.087,0,0,1-.756,2.177,2.426,2.426,0,0,1-1.86.823,1.8,1.8,0,0,1-1.632-.828v3.516h-.948v-8.556h.78Zm1.645,4.152a1.539,1.539,0,0,0,1.181-.576,2.3,2.3,0,0,0,.51-1.578,2.418,2.418,0,0,0-.485-1.59,1.484,1.484,0,0,0-1.183-.588,1.552,1.552,0,0,0-1.139.437,1.663,1.663,0,0,0-.468,1.183v1.092a1.554,1.554,0,0,0,.456,1.188A1.577,1.577,0,0,0,162.163,150.84Z" transform="translate(-10 -10)"/></g></svg>