<svg id="Ethereum" xmlns="http://www.w3.org/2000/svg" viewBox="0 0 120 120"><defs><style>.cls-1{fill:#627eea;}.cls-2{fill:#c1ccf6;}.cls-3{fill:#fff;}.cls-4{fill:#8198ee;}</style></defs><circle class="cls-1" cx="60" cy="60" r="60"/><polygon class="cls-2" points="59.99 10 59.49 11.71 59.49 61.3 59.99 61.8 83.01 48.2 59.99 10"/><polygon class="cls-3" points="59.99 10 36.98 48.2 59.99 61.8 59.99 37.73 59.99 10"/><polygon class="cls-2" points="59.99 66.16 59.71 66.51 59.71 84.17 59.99 85 83.03 52.56 59.99 66.16"/><polygon class="cls-3" points="59.99 85 59.99 66.16 36.98 52.56 59.99 85"/><polygon class="cls-4" points="59.99 61.8 83.01 48.2 59.99 37.73 59.99 61.8"/><polygon class="cls-2" points="36.98 48.2 59.99 61.8 59.99 37.73 36.98 48.2"/><path class="cls-3" d="M50.2,107.12h4.64v.82h-3.7v2.53h3.48v.81H51.14v2.56h3.7v.83H50.2Z" transform="translate(-15 -15)"/><path class="cls-3" d="M59.65,114.5a2.55,2.55,0,0,1-1.88.21,1.35,1.35,0,0,1-.87-.81,1.93,1.93,0,0,1-.13-.72v-3.52h-.92v-.72h.92v-1.6h.94v1.6h1.8v.72h-1.8v3.51c0,.59.27.88.81.88a2.67,2.67,0,0,0,1-.22Z" transform="translate(-15 -15)"/><path class="cls-3" d="M61.81,110a2,2,0,0,1,1.91-1.2,2,2,0,0,1,1.59.67,2.76,2.76,0,0,1,.57,1.84v3.37h-.94V111.3a1.78,1.78,0,0,0-.39-1.25,1.45,1.45,0,0,0-1.12-.42,1.37,1.37,0,0,0-1.17.62,2.85,2.85,0,0,0-.45,1.71v2.71h-1V106.5h1Z" transform="translate(-15 -15)"/><path class="cls-3" d="M69.79,114A1.2,1.2,0,0,0,71.15,113h1a2,2,0,0,1-.76,1.34,2.5,2.5,0,0,1-1.57.47,2.36,2.36,0,0,1-1.87-.82,3.21,3.21,0,0,1-.72-2.19,3.12,3.12,0,0,1,.73-2.18,2.42,2.42,0,0,1,1.93-.82,2,2,0,0,1,1.8.94,3.34,3.34,0,0,1,.41,2.28H68.15a2.34,2.34,0,0,0,.43,1.46A1.43,1.43,0,0,0,69.79,114Zm.7-4.35a1.54,1.54,0,0,0-.67-.14,1.42,1.42,0,0,0-1.16.5,2.13,2.13,0,0,0-.5,1.24h3.06A1.65,1.65,0,0,0,70.49,109.69Z" transform="translate(-15 -15)"/><path class="cls-3" d="M76,109.74c-.9,0-1.37.71-1.4,2.14v2.79h-.95v-5.75h.95V110a1.55,1.55,0,0,1,1.52-1.2,1.83,1.83,0,0,1,.66.11l0,.92A2.28,2.28,0,0,0,76,109.74Z" transform="translate(-15 -15)"/><path class="cls-3" d="M79.94,114A1.19,1.19,0,0,0,81.3,113h1a2,2,0,0,1-.76,1.34,2.5,2.5,0,0,1-1.57.47,2.37,2.37,0,0,1-1.87-.82,3.21,3.21,0,0,1-.72-2.19,3.12,3.12,0,0,1,.73-2.18,2.44,2.44,0,0,1,1.93-.82,2,2,0,0,1,1.8.94,3.28,3.28,0,0,1,.41,2.28H78.3a2.34,2.34,0,0,0,.43,1.46A1.43,1.43,0,0,0,79.94,114Zm.7-4.35a1.51,1.51,0,0,0-.67-.14,1.42,1.42,0,0,0-1.16.5,2.2,2.2,0,0,0-.5,1.24h3.06A1.65,1.65,0,0,0,80.64,109.69Z" transform="translate(-15 -15)"/><path class="cls-3" d="M87.74,113.53a2,2,0,0,1-1.9,1.25,2.25,2.25,0,0,1-1.57-.54,2.14,2.14,0,0,1-.59-1.67v-3.65h.94v3.58c0,1,.45,1.45,1.35,1.45a1.54,1.54,0,0,0,1.26-.6,2.39,2.39,0,0,0,.51-1.53v-2.9h1v5.75h-1Z" transform="translate(-15 -15)"/><path class="cls-3" d="M91.73,110a2,2,0,0,1,1.93-1.25,2,2,0,0,1,1.25.37,2.06,2.06,0,0,1,.73,1,2.18,2.18,0,0,1,3.6-.71,2.75,2.75,0,0,1,.56,1.84v3.37h-.93V111.3a1.78,1.78,0,0,0-.39-1.25,1.46,1.46,0,0,0-1.12-.42,1.3,1.3,0,0,0-1.14.6,2.93,2.93,0,0,0-.4,1.66v2.78h-.94V111.3a1.78,1.78,0,0,0-.39-1.25,1.44,1.44,0,0,0-1.11-.42,1.4,1.4,0,0,0-1.16.59,2.77,2.77,0,0,0-.47,1.63v2.82h-1v-5.73h.82Z" transform="translate(-15 -15)"/></svg>