<svg id="Sokol_Testnet" data-name="Sokol Testnet" xmlns="http://www.w3.org/2000/svg" viewBox="0 0 120 120"><defs><style>.cls-1{fill:#2d3032;}.cls-2{fill:#5c3d96;}.cls-3{fill:#fff;}</style></defs><circle class="cls-1" cx="60" cy="60" r="60"/><path class="cls-2" d="M93.21,95V71.07H81V82.92H69.09V71.06H56.8V95H45V59.13H69V35H80.91V59H105V95ZM45,46.7H56.68V35H45Zm60,0V35H93.3V46.72Z" transform="translate(-15 -15)"/><path class="cls-3" d="M45.07,109c-.13-.74-.67-1.1-1.62-1.1a1.8,1.8,0,0,0-1.16.33,1,1,0,0,0-.41.79.91.91,0,0,0,.25.7,2.14,2.14,0,0,0,.82.42l1.57.54a3.21,3.21,0,0,1,1.28.76,1.86,1.86,0,0,1,.47,1.35,1.82,1.82,0,0,1-.74,1.46,3.08,3.08,0,0,1-2,.59,3.19,3.19,0,0,1-2-.63,2.18,2.18,0,0,1-.82-1.77h.92a1.35,1.35,0,0,0,.52,1.14,2.15,2.15,0,0,0,1.35.4,2.05,2.05,0,0,0,1.3-.37,1.06,1.06,0,0,0,.48-.86,1.1,1.1,0,0,0-.29-.79,2.36,2.36,0,0,0-.87-.48L42.74,111a4,4,0,0,1-1.41-.74,1.62,1.62,0,0,1-.48-1.27,1.73,1.73,0,0,1,.67-1.39A2.89,2.89,0,0,1,43.4,107a2.83,2.83,0,0,1,1.86.54A2.07,2.07,0,0,1,46,109Z" transform="translate(-15 -15)"/><path class="cls-3" d="M50.08,108.79a2.52,2.52,0,0,1,1.93.78A3.72,3.72,0,0,1,52,114a2.79,2.79,0,0,1-3.87,0,3.72,3.72,0,0,1,0-4.45A2.55,2.55,0,0,1,50.08,108.79Zm1.71,3a2.63,2.63,0,0,0-.43-1.61,1.68,1.68,0,0,0-2.54,0,2.57,2.57,0,0,0-.45,1.61,2.72,2.72,0,0,0,.42,1.61,1.47,1.47,0,0,0,1.26.58,1.58,1.58,0,0,0,1.29-.58A2.59,2.59,0,0,0,51.79,111.8Z" transform="translate(-15 -15)"/><path class="cls-3" d="M56,111.64l-.77.62v2.41h-1V106.5h1v4.75L58,108.94H59.3l-2.64,2.14,2.78,3.59H58.27Z" transform="translate(-15 -15)"/><path class="cls-3" d="M62.8,108.79a2.52,2.52,0,0,1,1.93.78,3.72,3.72,0,0,1,0,4.45,2.79,2.79,0,0,1-3.87,0,3.72,3.72,0,0,1,0-4.45A2.55,2.55,0,0,1,62.8,108.79Zm1.71,3a2.63,2.63,0,0,0-.43-1.61,1.68,1.68,0,0,0-2.54,0,2.57,2.57,0,0,0-.45,1.61,2.72,2.72,0,0,0,.42,1.61,1.47,1.47,0,0,0,1.26.58,1.58,1.58,0,0,0,1.29-.58A2.59,2.59,0,0,0,64.51,111.8Z" transform="translate(-15 -15)"/><path class="cls-3" d="M67,106.5h1v8.17H67Z" transform="translate(-15 -15)"/><path class="cls-3" d="M71.46,107.12h5.87v.82H74.87v6.73h-1v-6.73H71.46Z" transform="translate(-15 -15)"/><path class="cls-3" d="M79.39,114A1.2,1.2,0,0,0,80.75,113h1a2,2,0,0,1-.76,1.34,2.5,2.5,0,0,1-1.57.47,2.36,2.36,0,0,1-1.87-.82,3.21,3.21,0,0,1-.72-2.19,3.12,3.12,0,0,1,.73-2.18,2.42,2.42,0,0,1,1.93-.82,2,2,0,0,1,1.8.94,3.34,3.34,0,0,1,.41,2.28H77.75a2.34,2.34,0,0,0,.43,1.46A1.43,1.43,0,0,0,79.39,114Zm.7-4.35a1.54,1.54,0,0,0-.67-.14,1.42,1.42,0,0,0-1.16.5,2.13,2.13,0,0,0-.5,1.24h3.06A1.65,1.65,0,0,0,80.09,109.69Z" transform="translate(-15 -15)"/><path class="cls-3" d="M83.6,109.21a2.82,2.82,0,0,1,1.64-.42,2.72,2.72,0,0,1,1.61.43,1.4,1.4,0,0,1,.61,1.1h-.93q-.11-.78-1.32-.78a1.34,1.34,0,0,0-.9.26.74.74,0,0,0-.32.57.67.67,0,0,0,.24.52,2,2,0,0,0,.77.36l1.15.39a2.86,2.86,0,0,1,1.12.58,1.24,1.24,0,0,1,.39,1,1.43,1.43,0,0,1-.64,1.12,3.4,3.4,0,0,1-3.55,0A1.7,1.7,0,0,1,82.8,113h.91a1,1,0,0,0,.44.81,1.87,1.87,0,0,0,1,.27,1.92,1.92,0,0,0,1-.26.77.77,0,0,0,.41-.63.67.67,0,0,0-.24-.56,2.22,2.22,0,0,0-.78-.34l-1.12-.37q-1.5-.45-1.5-1.56A1.3,1.3,0,0,1,83.6,109.21Z" transform="translate(-15 -15)"/><path class="cls-3" d="M92.3,114.5a2.55,2.55,0,0,1-1.88.21,1.31,1.31,0,0,1-.86-.81,1.74,1.74,0,0,1-.14-.72v-3.52H88.5v-.72h.92v-1.6h.94v1.6h1.8v.72h-1.8v3.51c0,.59.27.88.82.88a2.66,2.66,0,0,0,1-.22Z" transform="translate(-15 -15)"/><path class="cls-3" d="M94.43,110a2,2,0,0,1,1.93-1.25,2,2,0,0,1,1.59.67,2.76,2.76,0,0,1,.57,1.84v3.37h-.94V111.3a1.78,1.78,0,0,0-.39-1.25,1.44,1.44,0,0,0-1.11-.42,1.4,1.4,0,0,0-1.16.59,2.77,2.77,0,0,0-.47,1.63v2.82h-1v-5.73h.82Z" transform="translate(-15 -15)"/><path class="cls-3" d="M102.43,114a1.2,1.2,0,0,0,1.36-1.05h1a2,2,0,0,1-.76,1.34,2.5,2.5,0,0,1-1.57.47,2.36,2.36,0,0,1-1.87-.82,3.21,3.21,0,0,1-.72-2.19,3.12,3.12,0,0,1,.73-2.18,2.42,2.42,0,0,1,1.93-.82,2,2,0,0,1,1.8.94,3.34,3.34,0,0,1,.41,2.28h-3.92a2.34,2.34,0,0,0,.43,1.46A1.43,1.43,0,0,0,102.43,114Zm.7-4.35a1.54,1.54,0,0,0-.67-.14,1.42,1.42,0,0,0-1.16.5,2.13,2.13,0,0,0-.5,1.24h3.06A1.65,1.65,0,0,0,103.13,109.69Z" transform="translate(-15 -15)"/><path class="cls-3" d="M109.33,114.5a2.55,2.55,0,0,1-1.88.21,1.35,1.35,0,0,1-.87-.81,1.93,1.93,0,0,1-.13-.72v-3.52h-.92v-.72h.92v-1.6h.94v1.6h1.8v.72h-1.8v3.51c0,.59.27.88.81.88a2.67,2.67,0,0,0,1-.22Z" transform="translate(-15 -15)"/></svg>