<svg id="Gnosis_Chain" data-name="Gnosis Chain" xmlns="http://www.w3.org/2000/svg" viewBox="0 0 120 120"><defs><style>.cls-1{fill:#fff;}.cls-2{fill:#04795b;}</style></defs><circle class="cls-1" cx="60" cy="60" r="60"/><path class="cls-2" d="M50.33,83.29A15.46,15.46,0,0,0,59.88,80L38,58.17a15.28,15.28,0,0,0-3.27,9.55A15.53,15.53,0,0,0,50.33,83.29Z" transform="translate(-15 -15)"/><path class="cls-2" d="M115.38,67.67a15.49,15.49,0,0,0-3.26-9.55L90.25,80a15.3,15.3,0,0,0,9.56,3.26,15.52,15.52,0,0,0,15.57-15.57Z" transform="translate(-15 -15)"/><path class="cls-2" d="M126.41,43.93l-9.7,9.69a22,22,0,0,1-31,31.05L75.05,95.28,64.43,84.67A22,22,0,0,1,33.38,53.62l-5-5-4.73-4.73A60,60,0,1,0,135,75a58.61,58.61,0,0,0-8.59-31.09Z" transform="translate(-15 -15)"/><path class="cls-2" d="M118.46,33.6a60,60,0,0,0-86.83,0c-1.47,1.56-2.89,3.21-4.23,4.91L75,86.09l47.59-47.62A39,39,0,0,0,118.46,33.6ZM75.05,22.81A51.47,51.47,0,0,1,111.94,38.1L75.05,75,38.15,38.1a51.56,51.56,0,0,1,36.9-15.29Z" transform="translate(-15 -15)"/><path class="cls-1" d="M46.36,113.48a1.91,1.91,0,0,1-2,1.43,3.05,3.05,0,0,1-2.39-1,4.18,4.18,0,0,1-.93-2.85,3.91,3.91,0,0,1,1-2.84,3.33,3.33,0,0,1,2.52-1.06,3.24,3.24,0,0,1,1.56.36,3.14,3.14,0,0,1,1.14,1.15l-.91.32a2.28,2.28,0,0,0-1.82-1,2.23,2.23,0,0,0-1.77.86A3.24,3.24,0,0,0,42.1,111a3.52,3.52,0,0,0,.63,2.19,2,2,0,0,0,1.68.83,1.78,1.78,0,0,0,1.39-.58,2.44,2.44,0,0,0,.53-1.7v0l-1.9-.07v-.62h2.82v3.73h-.77Z" transform="translate(-15 -15)"/><path class="cls-1" d="M50.05,110.15a2.16,2.16,0,0,1,3.52-.58,2.76,2.76,0,0,1,.57,1.84v3.37H53.2v-3.37a1.78,1.78,0,0,0-.39-1.25,1.44,1.44,0,0,0-1.11-.42,1.38,1.38,0,0,0-1.16.59,2.74,2.74,0,0,0-.47,1.63v2.82h-1V109h.82Z" transform="translate(-15 -15)"/><path class="cls-1" d="M58.13,108.9a2.55,2.55,0,0,1,1.94.78,3.72,3.72,0,0,1,0,4.45,2.79,2.79,0,0,1-3.87,0,3.72,3.72,0,0,1,0-4.45A2.52,2.52,0,0,1,58.13,108.9Zm1.72,3a2.63,2.63,0,0,0-.43-1.61,1.68,1.68,0,0,0-2.54,0,2.57,2.57,0,0,0-.45,1.61,2.67,2.67,0,0,0,.42,1.6,1.45,1.45,0,0,0,1.25.59,1.53,1.53,0,0,0,1.29-.59A2.48,2.48,0,0,0,59.85,111.91Z" transform="translate(-15 -15)"/><path class="cls-1" d="M62.63,109.32a2.82,2.82,0,0,1,1.64-.42,2.65,2.65,0,0,1,1.61.43,1.39,1.39,0,0,1,.61,1.09h-.93q-.11-.78-1.32-.78a1.34,1.34,0,0,0-.9.27.74.74,0,0,0-.32.57.65.65,0,0,0,.24.51,2,2,0,0,0,.77.37l1.15.38a3,3,0,0,1,1.12.59,1.24,1.24,0,0,1,.39,1,1.4,1.4,0,0,1-.64,1.11,2.74,2.74,0,0,1-1.77.5,2.79,2.79,0,0,1-1.78-.51,1.71,1.71,0,0,1-.67-1.31h.91a1,1,0,0,0,.44.81,1.87,1.87,0,0,0,1,.27,1.84,1.84,0,0,0,1-.27.74.74,0,0,0,.41-.63.65.65,0,0,0-.24-.55,2.22,2.22,0,0,0-.78-.34L63.52,112q-1.5-.45-1.5-1.56A1.3,1.3,0,0,1,62.63,109.32Z" transform="translate(-15 -15)"/><path class="cls-1" d="M68.86,107.69a.65.65,0,0,1-.45-.16.6.6,0,0,1-.16-.44.57.57,0,0,1,.16-.43.61.61,0,0,1,.45-.16.63.63,0,0,1,.46.16.55.55,0,0,1,.18.43.57.57,0,0,1-.18.44A.67.67,0,0,1,68.86,107.69ZM68.39,109h1v5.75h-1Z" transform="translate(-15 -15)"/><path class="cls-1" d="M71.93,109.32a2.82,2.82,0,0,1,1.64-.42,2.65,2.65,0,0,1,1.61.43,1.39,1.39,0,0,1,.61,1.09h-.93q-.1-.78-1.32-.78a1.34,1.34,0,0,0-.9.27.71.71,0,0,0-.32.57.65.65,0,0,0,.24.51,2,2,0,0,0,.77.37l1.15.38a3,3,0,0,1,1.12.59,1.24,1.24,0,0,1,.39,1,1.4,1.4,0,0,1-.64,1.11,2.74,2.74,0,0,1-1.77.5,2.79,2.79,0,0,1-1.78-.51,1.71,1.71,0,0,1-.67-1.31H72a1,1,0,0,0,.44.81,1.87,1.87,0,0,0,1,.27,1.84,1.84,0,0,0,1-.27.74.74,0,0,0,.41-.63.65.65,0,0,0-.24-.55,2.22,2.22,0,0,0-.78-.34L72.82,112q-1.5-.45-1.5-1.56A1.3,1.3,0,0,1,71.93,109.32Z" transform="translate(-15 -15)"/><path class="cls-1" d="M82.81,107.1a3,3,0,0,1,2,.61,3,3,0,0,1,1,1.57l-1,.21a2.37,2.37,0,0,0-.75-1.12,1.82,1.82,0,0,0-1.19-.42,2,2,0,0,0-1.58.79,3.54,3.54,0,0,0-.62,2.21,4.09,4.09,0,0,0,.56,2.26,1.83,1.83,0,0,0,1.64.85,2.06,2.06,0,0,0,1.42-.47,1.62,1.62,0,0,0,.52-1.26h1a2.38,2.38,0,0,1-.81,1.89,3.31,3.31,0,0,1-2.22.69,2.79,2.79,0,0,1-2.28-1.08,4.47,4.47,0,0,1-.87-2.89,4.13,4.13,0,0,1,.9-2.83A3,3,0,0,1,82.81,107.1Z" transform="translate(-15 -15)"/><path class="cls-1" d="M88.19,110.1a2.16,2.16,0,0,1,3.5-.53,2.76,2.76,0,0,1,.57,1.84v3.37h-.93v-3.37a1.78,1.78,0,0,0-.39-1.25,1.47,1.47,0,0,0-1.13-.42,1.38,1.38,0,0,0-1.17.62,2.85,2.85,0,0,0-.45,1.71v2.71h-.94v-8.17h.94Z" transform="translate(-15 -15)"/><path class="cls-1" d="M97.75,111.06a1.58,1.58,0,0,0-.33-1.12,1.25,1.25,0,0,0-.94-.33,1.87,1.87,0,0,0-1,.24.88.88,0,0,0-.37.78h-1A1.56,1.56,0,0,1,95.48,109a4,4,0,0,1,.93-.1,2.4,2.4,0,0,1,1.67.54,2.1,2.1,0,0,1,.6,1.64v3.7h-.81l-.1-1a1.93,1.93,0,0,1-1.91,1.09,2.11,2.11,0,0,1-1.48-.51,1.71,1.71,0,0,1-.56-1.29,1.39,1.39,0,0,1,.62-1.2,2.61,2.61,0,0,1,1.54-.43,5,5,0,0,1,1.77.31Zm0,1.33a5.64,5.64,0,0,0-1.49-.24,2,2,0,0,0-1,.23.76.76,0,0,0-.4.72c0,.72.41,1.08,1.22,1.08a1.64,1.64,0,0,0,1.2-.5A1.75,1.75,0,0,0,97.75,112.39Z" transform="translate(-15 -15)"/><path class="cls-1" d="M101.14,107.69a.65.65,0,0,1-.45-.16.6.6,0,0,1-.16-.44.57.57,0,0,1,.16-.43.61.61,0,0,1,.45-.16.63.63,0,0,1,.46.16.55.55,0,0,1,.18.43.57.57,0,0,1-.18.44A.67.67,0,0,1,101.14,107.69Zm-.47,1.34h1v5.75h-1Z" transform="translate(-15 -15)"/><path class="cls-1" d="M104.81,110.15a2.17,2.17,0,0,1,3.53-.58,2.76,2.76,0,0,1,.57,1.84v3.37H108v-3.37a1.78,1.78,0,0,0-.39-1.25,1.44,1.44,0,0,0-1.11-.42,1.38,1.38,0,0,0-1.16.59,2.68,2.68,0,0,0-.47,1.63v2.82h-1V109h.82Z" transform="translate(-15 -15)"/></svg>