<svg id="Kovan_Testnet" data-name="Kovan Testnet" xmlns="http://www.w3.org/2000/svg" viewBox="0 0 120 120"><defs><style>.cls-1{fill:#2d3032;}.cls-2{fill:#d1335b;}.cls-3{fill:#fff;}</style></defs><circle class="cls-1" cx="60" cy="60" r="60"/><path class="cls-2" d="M56.88,83.07H45v-36H56.86V35H68.79V46.86H81.06V35H93V46.93h12V83.07H93.1l.05.07V59H80.9v11.8H69V59H56.83V83.14Zm36.27.07H56.83l.05-.07V95H93.1V83.07Z" transform="translate(-15 -15)"/><path class="cls-3" d="M40.14,106.5V110l3.37-3.49h1.31l-3.3,3.4,3.5,4.15H43.8l-2.92-3.49-.74.76v2.73h-1V106.5Z" transform="translate(-15 -15)"/><path class="cls-3" d="M48.25,108.17a2.55,2.55,0,0,1,1.94.78,3.72,3.72,0,0,1,0,4.45,2.8,2.8,0,0,1-3.88,0,3.76,3.76,0,0,1,0-4.45A2.56,2.56,0,0,1,48.25,108.17Zm1.72,3a2.67,2.67,0,0,0-.43-1.6,1.48,1.48,0,0,0-1.27-.59,1.52,1.52,0,0,0-1.28.59,2.6,2.6,0,0,0-.44,1.6,2.7,2.7,0,0,0,.42,1.61,1.44,1.44,0,0,0,1.25.58,1.53,1.53,0,0,0,1.29-.58A2.51,2.51,0,0,0,50,111.17Z" transform="translate(-15 -15)"/><path class="cls-3" d="M52.51,108.31l1.73,4.74L56,108.31h1.07l-2.28,5.74H53.72l-2.28-5.74Z" transform="translate(-15 -15)"/><path class="cls-3" d="M61.73,110.33a1.58,1.58,0,0,0-.33-1.12,1.25,1.25,0,0,0-.94-.33,1.81,1.81,0,0,0-1,.24.85.85,0,0,0-.38.78H58a1.58,1.58,0,0,1,1.42-1.64,4.62,4.62,0,0,1,.94-.09,2.39,2.39,0,0,1,1.66.54,2.1,2.1,0,0,1,.6,1.64v3.7h-.81l-.1-1a1.93,1.93,0,0,1-1.91,1.09,2.07,2.07,0,0,1-1.48-.52,1.67,1.67,0,0,1-.56-1.28,1.39,1.39,0,0,1,.62-1.2,2.61,2.61,0,0,1,1.54-.43,5,5,0,0,1,1.77.31Zm0,1.33a5.64,5.64,0,0,0-1.49-.24,2.07,2.07,0,0,0-1,.23.76.76,0,0,0-.4.72q0,1.08,1.23,1.08a1.63,1.63,0,0,0,1.19-.5A1.75,1.75,0,0,0,61.73,111.66Z" transform="translate(-15 -15)"/><path class="cls-3" d="M65.51,109.42a2.16,2.16,0,0,1,3.52-.58,2.76,2.76,0,0,1,.57,1.84v3.37h-.94v-3.37a1.77,1.77,0,0,0-.39-1.25,1.44,1.44,0,0,0-1.11-.42,1.37,1.37,0,0,0-1.16.59,2.74,2.74,0,0,0-.47,1.63v2.82h-1v-5.74h.82Z" transform="translate(-15 -15)"/><path class="cls-3" d="M73,106.5h5.87v.82H76.36v6.73h-1v-6.73H73Z" transform="translate(-15 -15)"/><path class="cls-3" d="M80.88,113.41a1.2,1.2,0,0,0,1.36-1h1a2,2,0,0,1-.76,1.34,2.59,2.59,0,0,1-1.57.47,2.36,2.36,0,0,1-1.87-.82A3.69,3.69,0,0,1,79,109a2.48,2.48,0,0,1,1.94-.81,2,2,0,0,1,1.8.93,3.36,3.36,0,0,1,.41,2.28H79.24a2.32,2.32,0,0,0,.43,1.46A1.43,1.43,0,0,0,80.88,113.41Zm.7-4.34a1.42,1.42,0,0,0-.68-.15,1.44,1.44,0,0,0-1.15.5,2.16,2.16,0,0,0-.5,1.24h3.06A1.65,1.65,0,0,0,81.58,109.07Z" transform="translate(-15 -15)"/><path class="cls-3" d="M85.09,108.59a2.81,2.81,0,0,1,1.63-.42,2.66,2.66,0,0,1,1.62.43,1.35,1.35,0,0,1,.6,1.09H88q-.1-.78-1.32-.78a1.39,1.39,0,0,0-.91.27.72.72,0,0,0-.31.57.65.65,0,0,0,.24.51,2.14,2.14,0,0,0,.76.37l1.16.38a3.08,3.08,0,0,1,1.12.58,1.26,1.26,0,0,1,.39,1,1.4,1.4,0,0,1-.64,1.11,2.8,2.8,0,0,1-1.77.5,2.77,2.77,0,0,1-1.78-.51,1.71,1.71,0,0,1-.67-1.31h.91a1,1,0,0,0,.44.81,2.12,2.12,0,0,0,2.07,0,.74.74,0,0,0,.41-.63.68.68,0,0,0-.24-.56,2.23,2.23,0,0,0-.78-.33L86,111.28q-1.5-.45-1.5-1.56A1.29,1.29,0,0,1,85.09,108.59Z" transform="translate(-15 -15)"/><path class="cls-3" d="M93.79,113.88a2.5,2.5,0,0,1-1.88.2,1.31,1.31,0,0,1-.87-.8,1.93,1.93,0,0,1-.13-.72V109H90v-.72h.92v-1.59h.94v1.59h1.8V109h-1.8v3.52q0,.87.81.87a2.85,2.85,0,0,0,1-.21Z" transform="translate(-15 -15)"/><path class="cls-3" d="M95.92,109.42a1.94,1.94,0,0,1,1.93-1.25,2,2,0,0,1,1.59.67,2.76,2.76,0,0,1,.57,1.84v3.37h-.94v-3.37a1.77,1.77,0,0,0-.39-1.25,1.44,1.44,0,0,0-1.11-.42,1.36,1.36,0,0,0-1.16.59,2.74,2.74,0,0,0-.47,1.63v2.82H95v-5.74h.82Z" transform="translate(-15 -15)"/><path class="cls-3" d="M103.92,113.41a1.2,1.2,0,0,0,1.36-1h1a2,2,0,0,1-.76,1.34,2.59,2.59,0,0,1-1.57.47,2.36,2.36,0,0,1-1.87-.82,3.69,3.69,0,0,1,0-4.38,2.48,2.48,0,0,1,1.94-.81,2,2,0,0,1,1.8.93,3.36,3.36,0,0,1,.41,2.28h-3.92a2.32,2.32,0,0,0,.43,1.46A1.43,1.43,0,0,0,103.92,113.41Zm.7-4.34a1.42,1.42,0,0,0-.68-.15,1.44,1.44,0,0,0-1.15.5,2.16,2.16,0,0,0-.5,1.24h3.06A1.65,1.65,0,0,0,104.62,109.07Z" transform="translate(-15 -15)"/><path class="cls-3" d="M110.82,113.88a2.5,2.5,0,0,1-1.88.2,1.31,1.31,0,0,1-.87-.8,1.75,1.75,0,0,1-.13-.72V109H107v-.72h.92v-1.59h.94v1.59h1.8V109h-1.8v3.52q0,.87.81.87a2.85,2.85,0,0,0,1-.21Z" transform="translate(-15 -15)"/></svg>