<svg id="Usul_Inactive" data-name="Usul Inactive" xmlns="http://www.w3.org/2000/svg" xmlns:xlink="http://www.w3.org/1999/xlink" viewBox="0 0 100 100"><defs><style>.cls-1,.cls-11,.cls-5{fill:none;}.cls-2{fill:#2d3032;}.cls-11,.cls-3{opacity:0.33;}.cls-4{fill:url(#linear-gradient);}.cls-5{stroke:#2f3d68;stroke-width:0.25px;}.cls-11,.cls-5{stroke-miterlimit:10;}.cls-6{clip-path:url(#clip-path);}.cls-7{fill:#584974;}.cls-8{fill:#ee3030;}.cls-9{fill:#eeca7f;}.cls-10{fill:#8aa1a5;}.cls-11{stroke:#969899;}</style><linearGradient id="linear-gradient" x1="21.72" y1="78.28" x2="78.28" y2="21.72" gradientUnits="userSpaceOnUse"><stop offset="0" stop-color="#0f1215"/><stop offset="1" stop-color="#2f3d68"/></linearGradient><clipPath id="clip-path" transform="translate(-25 -25)"><path class="cls-1" d="M35,75A40,40,0,1,0,75,35,40,40,0,0,0,35,75"/></clipPath></defs><circle class="cls-2" cx="50" cy="50" r="50"/><g id="Group_104" data-name="Group 104" class="cls-3"><circle class="cls-4" cx="50" cy="50" r="40"/><path id="Path_64" data-name="Path 64" d="M85,75A10,10,0,1,1,75,65h0A10,10,0,0,1,85,75Z" transform="translate(-25 -25)"/><path id="Path_66" data-name="Path 66" class="cls-5" d="M85,75A10,10,0,1,1,75,65h0A10,10,0,0,1,85,75Z" transform="translate(-25 -25)"/><g class="cls-6"><g id="Group_47" data-name="Group 47"><path id="Path_67" data-name="Path 67" class="cls-7" d="M87.45,113l-1.51-4.78s-4.66,2.12-7.6,1.17a6.07,6.07,0,0,1-3.34-3.3,6.07,6.07,0,0,1-3.34,3.3c-2.93,1-7.6-1.17-7.6-1.17L62.56,113a40.1,40.1,0,0,0,24.89,0" transform="translate(-25 -25)"/><path id="Path_68" data-name="Path 68" class="cls-7" d="M35.85,66.77l4.89,1.08s.5-5.1,2.79-7.16a6,6,0,0,1,4.53-1.25,6.06,6.06,0,0,1-1.19-4.54c.64-3,4.81-6,4.81-6l-3.39-3.69A40.12,40.12,0,0,0,35.85,66.77" transform="translate(-25 -25)"/><path id="Path_69" data-name="Path 69" class="cls-7" d="M101.71,45.21,98.32,48.9s4.17,3,4.81,6a6,6,0,0,1-1.19,4.54,6,6,0,0,1,4.53,1.25c2.29,2.06,2.79,7.16,2.79,7.16l4.89-1.08a40.18,40.18,0,0,0-12.44-21.56" transform="translate(-25 -25)"/><path id="Path_70" data-name="Path 70" class="cls-8" d="M75,54.14s.64-3.67,2.71-4.59,5.52.33,5.52.33l1.42-4.6s-4,0-6.33-1.51C75.76,42.14,75,38.5,75,38.5s-.76,3.64-3.32,5.27c-2.38,1.51-6.33,1.51-6.33,1.51l1.42,4.6s3.38-1.29,5.52-.33S75,54.14,75,54.14" transform="translate(-25 -25)"/><path id="Path_71" data-name="Path 71" class="cls-8" d="M93.06,85.42s2.86,2.39,2.63,4.65-3,4.61-3,4.61l3.27,3.53s2-3.42,4.48-4.73c2.68-1.4,6.22-.23,6.22-.23s-2.77-2.49-2.9-5.51c-.12-2.83,1.85-6.24,1.85-6.24l-4.69-1.06S100.3,84,98.4,85.38s-5.34.05-5.34.05" transform="translate(-25 -25)"/><path id="Path_72" data-name="Path 72" class="cls-8" d="M56.94,85.42s-3.5,1.28-5.33,0-2.48-4.95-2.48-4.95L44.44,81.5s2,3.42,1.86,6.24c-.13,3-2.9,5.51-2.9,5.51s3.53-1.16,6.22.24c2.5,1.31,4.48,4.72,4.48,4.72l3.26-3.53s-2.8-2.27-3-4.61,2.62-4.64,2.62-4.64" transform="translate(-25 -25)"/><path id="Path_73" data-name="Path 73" class="cls-9" d="M77.6,58.07c.47.07,1,.34,1.16,1.51C79,61,78,65.44,78,65.44l6.28-19.83s-3.06,7.64-4.35,9.17c-1,1.15-1.42,1.51-2,1.42s-.91-.58-1.5-2C75.62,52.39,75,44.19,75,44.19L75,65s.39-4.58,1-5.81c.55-1.06,1.09-1.17,1.56-1.1" transform="translate(-25 -25)"/><path id="Path_74" data-name="Path 74" class="cls-9" d="M72.4,58.07c.46-.07,1,0,1.55,1.1.64,1.24,1,5.81,1,5.81l0-20.79s-.62,8.2-1.4,10.05c-.59,1.39-.9,1.87-1.5,2s-1-.27-2-1.42c-1.3-1.52-4.36-9.16-4.36-9.16L72,65.44s-1-4.48-.76-5.85c.2-1.18.69-1.45,1.16-1.52" transform="translate(-25 -25)"/><path id="Path_75" data-name="Path 75" class="cls-9" d="M72.4,91.93c.46.07,1,0,1.55-1.1.64-1.24,1-5.81,1-5.81l0,20.79s-.62-8.2-1.4-10c-.59-1.39-.9-1.87-1.5-2s-1,.27-2,1.42c-1.3,1.52-4.36,9.16-4.36,9.16L72,84.56s-1,4.48-.76,5.86c.2,1.17.69,1.44,1.15,1.51" transform="translate(-25 -25)"/><path id="Path_76" data-name="Path 76" class="cls-9" d="M77.6,91.93c.47-.07,1-.34,1.16-1.52C79,89,78,84.56,78,84.56l6.28,19.82s-3.06-7.63-4.35-9.16c-1-1.15-1.42-1.51-2-1.42s-.91.57-1.5,2c-.77,1.85-1.4,10-1.4,10L75,85s.39,4.57,1,5.81c.55,1.06,1.09,1.17,1.56,1.1" transform="translate(-25 -25)"/><path id="Path_77" data-name="Path 77" class="cls-9" d="M88.36,85.72c-.3.37-.77.66-1.89.24-1.31-.48-4.69-3.58-4.69-3.58l14,15.34s-5.08-6.47-5.76-8.35c-.5-1.42-.6-2-.21-2.46s1-.51,2.44-.32c2,.24,9.4,3.81,9.4,3.81L83.67,80s3.77,2.63,4.52,3.8c.64,1,.46,1.52.17,1.9" transform="translate(-25 -25)"/><path id="Path_78" data-name="Path 78" class="cls-9" d="M91,81.21c-.17.44-.53.85-1.72.8-1.39-.07-5.55-2-5.55-2l18,10.41s-6.79-4.64-8-6.23c-.91-1.2-1.17-1.71-.94-2.29s.75-.77,2.23-1c2-.36,10.12.81,10.12.81l-20.3-4.47s4.38,1.37,5.45,2.26.9,1.32.73,1.76" transform="translate(-25 -25)"/><path id="Path_79" data-name="Path 79" class="cls-9" d="M61.64,64.28c-.3.37-.47.89.17,1.9.75,1.17,4.52,3.8,4.52,3.8l-18-10.38s7.42,3.56,9.4,3.81c1.5.19,2.07.16,2.45-.32s.29-1-.21-2.46c-.68-1.89-5.76-8.35-5.76-8.35l14,15.34s-3.39-3.1-4.69-3.58c-1.12-.42-1.6-.13-1.89.24" transform="translate(-25 -25)"/><path id="Path_80" data-name="Path 80" class="cls-9" d="M59,68.79c-.17.44-.19,1,.73,1.76s5.45,2.27,5.45,2.27l-20.3-4.48s8.14,1.17,10.12.81c1.48-.27,2-.48,2.23-1.05s0-1.08-.94-2.28c-1.21-1.6-8-6.23-8-6.23L66.31,70s-4.16-1.94-5.55-2c-1.19,0-1.55.36-1.72.8" transform="translate(-25 -25)"/><path id="Path_81" data-name="Path 81" class="cls-9" d="M59,81.21c-.17-.44-.19-1,.73-1.76s5.45-2.27,5.45-2.27l-20.3,4.48s8.14-1.17,10.12-.81c1.48.27,2,.47,2.23,1s0,1.09-.94,2.28c-1.21,1.6-8,6.24-8,6.24L66.31,80s-4.16,1.94-5.55,2c-1.19,0-1.55-.36-1.72-.8" transform="translate(-25 -25)"/><path id="Path_82" data-name="Path 82" class="cls-9" d="M61.64,85.72c-.3-.37-.47-.89.17-1.9.75-1.17,4.52-3.8,4.52-3.8l-18,10.38s7.42-3.57,9.4-3.81c1.5-.19,2.07-.16,2.45.32s.29,1-.21,2.46c-.68,1.89-5.76,8.35-5.76,8.35l14-15.34s-3.39,3.1-4.69,3.58c-1.12.42-1.6.13-1.89-.24" transform="translate(-25 -25)"/><path id="Path_83" data-name="Path 83" class="cls-9" d="M91,68.79c-.17-.44-.53-.85-1.72-.8-1.39.07-5.55,2-5.55,2l18-10.41s-6.79,4.64-8,6.23c-.91,1.2-1.17,1.71-.94,2.29s.75.77,2.23,1c2,.36,10.12-.81,10.12-.81l-20.3,4.47s4.37-1.37,5.44-2.26c.92-.77.9-1.32.73-1.76" transform="translate(-25 -25)"/><path id="Path_84" data-name="Path 84" class="cls-9" d="M88.36,64.28c-.3-.37-.77-.66-1.89-.24-1.31.48-4.69,3.58-4.69,3.58l14-15.34s-5.08,6.46-5.76,8.35c-.5,1.42-.6,2-.21,2.46s1,.51,2.44.32c2-.25,9.4-3.81,9.4-3.81L83.67,70s3.77-2.62,4.52-3.8c.64-1,.46-1.52.17-1.9" transform="translate(-25 -25)"/><path id="Path_85" data-name="Path 85" class="cls-10" d="M79.22,50a3.73,3.73,0,0,0,3.16-1.11c1.77-2,4.05-8.6,4.05-8.6S84.32,47,84.58,49.65a3.7,3.7,0,0,0,1.87,2.77,3.72,3.72,0,0,0-3.15,1.11c-1.77,2-4,8.59-4,8.59s2.1-6.68,1.85-9.32A3.71,3.71,0,0,0,79.22,50" transform="translate(-25 -25)"/><path id="Path_86" data-name="Path 86" class="cls-10" d="M63.55,52.42a3.7,3.7,0,0,0,1.87-2.77c.26-2.63-1.85-9.32-1.85-9.32s2.28,6.63,4.06,8.6A3.7,3.7,0,0,0,70.78,50,3.71,3.71,0,0,0,68.9,52.8c-.25,2.64,1.86,9.32,1.86,9.32s-2.29-6.62-4.06-8.59a3.71,3.71,0,0,0-3.15-1.11" transform="translate(-25 -25)"/><path id="Path_87" data-name="Path 87" class="cls-10" d="M55.23,59.19a3.71,3.71,0,0,1-3.09,1.27c-2.63-.29-8.75-3.71-8.75-3.71s6,3.58,7.59,5.72a3.71,3.71,0,0,1,.44,3.31,3.71,3.71,0,0,1,3.09-1.27c2.63.29,8.75,3.71,8.75,3.71s-6-3.58-7.59-5.72a3.71,3.71,0,0,1-.44-3.31" transform="translate(-25 -25)"/><path id="Path_88" data-name="Path 88" class="cls-10" d="M98.58,65.78A3.71,3.71,0,0,1,99,62.47c1.57-2.14,7.59-5.72,7.59-5.72s-6.11,3.42-8.74,3.71a3.7,3.7,0,0,1-3.09-1.27,3.71,3.71,0,0,1-.45,3.31c-1.56,2.14-7.59,5.72-7.59,5.72s6.12-3.42,8.75-3.71a3.7,3.7,0,0,1,3.09,1.27" transform="translate(-25 -25)"/><path id="Path_89" data-name="Path 89" class="cls-10" d="M71.19,100a3.71,3.71,0,0,1,2.65,2c1.07,2.42,1.16,9.43,1.16,9.43s.09-7,1.16-9.43a3.71,3.71,0,0,1,2.65-2,3.71,3.71,0,0,1-2.65-2C75.09,95.57,75,88.56,75,88.56s-.09,7-1.16,9.43a3.71,3.71,0,0,1-2.65,2" transform="translate(-25 -25)"/><path id="Path_90" data-name="Path 90" class="cls-10" d="M94.51,91.14a3.68,3.68,0,0,0-.62,3.28c.82,2.52,5.42,7.81,5.42,7.81S94.57,97.07,92.16,96a3.66,3.66,0,0,0-3.33.24,3.72,3.72,0,0,0,.61-3.29C88.63,90.41,84,85.11,84,85.11s4.74,5.17,7.15,6.27a3.73,3.73,0,0,0,3.33-.24" transform="translate(-25 -25)"/><path id="Path_91" data-name="Path 91" class="cls-10" d="M100.28,76.37a3.7,3.7,0,0,0,1.46,3c2.16,1.53,9,3.05,9,3.05s-6.88-1.33-9.47-.78a3.74,3.74,0,0,0-2.54,2.17,3.7,3.7,0,0,0-1.45-3c-2.16-1.54-9-3.06-9-3.06s6.88,1.34,9.47.79a3.69,3.69,0,0,0,2.53-2.18" transform="translate(-25 -25)"/><path id="Path_92" data-name="Path 92" class="cls-10" d="M51.27,83.82a3.7,3.7,0,0,0-2.54-2.17c-2.58-.55-9.47.78-9.47.78s6.85-1.51,9-3.05a3.7,3.7,0,0,0,1.46-3,3.71,3.71,0,0,0,2.54,2.18c2.59.55,9.47-.79,9.47-.79s-6.84,1.52-9,3.06a3.69,3.69,0,0,0-1.46,3" transform="translate(-25 -25)"/><path id="Path_93" data-name="Path 93" class="cls-10" d="M61.18,96.21A3.68,3.68,0,0,0,57.84,96c-2.41,1.1-7.14,6.26-7.14,6.26s4.6-5.29,5.41-7.81a3.7,3.7,0,0,0-.61-3.28,3.73,3.73,0,0,0,3.33.24c2.41-1.1,7.14-6.27,7.14-6.27s-4.6,5.3-5.41,7.81a3.7,3.7,0,0,0,.62,3.29" transform="translate(-25 -25)"/></g></g></g><circle class="cls-11" cx="50" cy="50" r="45"/></svg>