<svg id="Usul_About_" data-name="Usul (About)" xmlns="http://www.w3.org/2000/svg" xmlns:xlink="http://www.w3.org/1999/xlink" viewBox="0 0 60 60"><defs><style>.cls-1,.cls-10,.cls-4{fill:none;}.cls-2{fill:#2d3032;}.cls-3{fill:url(#linear-gradient);}.cls-4{stroke:#2f3d68;stroke-width:0.25px;}.cls-10,.cls-4{stroke-miterlimit:10;}.cls-5{clip-path:url(#clip-path);}.cls-6{fill:#584974;}.cls-7{fill:#ee3030;}.cls-8{fill:#eeca7f;}.cls-9{fill:#8aa1a5;}.cls-10{stroke:#969899;}</style><linearGradient id="linear-gradient" x1="13.03" y1="46.97" x2="46.97" y2="13.03" gradientUnits="userSpaceOnUse"><stop offset="0" stop-color="#0f1215"/><stop offset="1" stop-color="#2f3d68"/></linearGradient><clipPath id="clip-path" transform="translate(-45 -45)"><path class="cls-1" d="M51,75A24,24,0,1,0,75,51,24,24,0,0,0,51,75"/></clipPath></defs><circle class="cls-2" cx="30" cy="30" r="30"/><g id="Group_104" data-name="Group 104"><circle class="cls-3" cx="30" cy="30" r="24"/><path id="Path_64" data-name="Path 64" d="M81,75a6,6,0,1,1-6-6h0a6,6,0,0,1,6,6Z" transform="translate(-45 -45)"/><path id="Path_66" data-name="Path 66" class="cls-4" d="M81,75a6,6,0,1,1-6-6h0A6,6,0,0,1,81,75Z" transform="translate(-45 -45)"/><g class="cls-5"><g id="Group_47" data-name="Group 47"><path id="Path_67" data-name="Path 67" class="cls-6" d="M82.47,97.81,81.56,95s-2.79,1.27-4.56.7a3.66,3.66,0,0,1-2-2,3.66,3.66,0,0,1-2,2c-1.76.57-4.56-.7-4.56-.7l-.91,2.86a24,24,0,0,0,14.94,0" transform="translate(-45 -45)"/><path id="Path_68" data-name="Path 68" class="cls-6" d="M51.51,70.06l2.93.65s.3-3.06,1.68-4.3a3.63,3.63,0,0,1,2.71-.74,3.66,3.66,0,0,1-.71-2.73c.39-1.81,2.89-3.6,2.89-3.6l-2-2.21a24.08,24.08,0,0,0-7.46,12.93" transform="translate(-45 -45)"/><path id="Path_69" data-name="Path 69" class="cls-6" d="M91,57.13l-2,2.21s2.5,1.79,2.89,3.6a3.66,3.66,0,0,1-.71,2.73,3.63,3.63,0,0,1,2.71.74c1.38,1.24,1.68,4.3,1.68,4.3l2.93-.65A24.09,24.09,0,0,0,91,57.13" transform="translate(-45 -45)"/><path id="Path_70" data-name="Path 70" class="cls-7" d="M75,62.49s.38-2.21,1.62-2.76,3.32.2,3.32.2l.85-2.76a8.47,8.47,0,0,1-3.8-.91,5.51,5.51,0,0,1-2-3.16,5.51,5.51,0,0,1-2,3.16,8.47,8.47,0,0,1-3.8.91l.85,2.76s2-.78,3.32-.2S75,62.49,75,62.49" transform="translate(-45 -45)"/><path id="Path_71" data-name="Path 71" class="cls-7" d="M85.84,81.25s1.71,1.44,1.57,2.79-1.82,2.77-1.82,2.77l2,2.11a8.51,8.51,0,0,1,2.68-2.83A5.53,5.53,0,0,1,94,86a5.48,5.48,0,0,1-1.74-3.31,8.51,8.51,0,0,1,1.11-3.74l-2.82-.64s-.34,2.14-1.48,3-3.2,0-3.2,0" transform="translate(-45 -45)"/><path id="Path_72" data-name="Path 72" class="cls-7" d="M64.16,81.25s-2.1.77-3.2,0-1.48-3-1.48-3l-2.81.64a8.51,8.51,0,0,1,1.11,3.74A5.53,5.53,0,0,1,56,86a5.49,5.49,0,0,1,3.73.14,8.58,8.58,0,0,1,2.69,2.84l2-2.12S62.73,85.44,62.59,84s1.58-2.78,1.58-2.78" transform="translate(-45 -45)"/><path id="Path_73" data-name="Path 73" class="cls-8" d="M76.56,64.84c.28,0,.57.2.69.91a16.08,16.08,0,0,1-.45,3.51l3.76-11.89A39.06,39.06,0,0,1,78,62.87c-.59.69-.85.9-1.21.85s-.55-.35-.9-1.18c-.47-1.11-.84-6-.84-6V69a16.68,16.68,0,0,1,.62-3.49c.33-.64.65-.7.93-.66" transform="translate(-45 -45)"/><path id="Path_74" data-name="Path 74" class="cls-8" d="M73.44,64.84c.28,0,.6,0,.93.66A16.68,16.68,0,0,1,75,69V56.52s-.37,4.92-.84,6c-.35.83-.54,1.12-.9,1.17s-.62-.16-1.21-.85a39.06,39.06,0,0,1-2.61-5.5L73.2,69.26a16.59,16.59,0,0,1-.46-3.51c.12-.7.42-.86.7-.91" transform="translate(-45 -45)"/><path id="Path_75" data-name="Path 75" class="cls-8" d="M73.44,85.16c.28,0,.6,0,.93-.66A16.68,16.68,0,0,0,75,81V93.48s-.37-4.92-.84-6c-.35-.83-.54-1.11-.9-1.17s-.62.16-1.21.85a39.06,39.06,0,0,0-2.61,5.5L73.2,80.74a16.59,16.59,0,0,0-.46,3.51c.12.71.42.86.7.91" transform="translate(-45 -45)"/><path id="Path_76" data-name="Path 76" class="cls-8" d="M76.56,85.16c.28,0,.57-.2.69-.91a16.08,16.08,0,0,0-.45-3.51l3.76,11.89A39.06,39.06,0,0,0,78,87.13c-.59-.69-.85-.9-1.21-.85s-.55.34-.9,1.18c-.47,1.11-.84,6-.84,6V81a16.68,16.68,0,0,0,.62,3.49c.33.64.65.7.93.66" transform="translate(-45 -45)"/><path id="Path_77" data-name="Path 77" class="cls-8" d="M83,81.43c-.18.22-.46.4-1.14.15a16.69,16.69,0,0,1-2.81-2.15l8.42,9.2a39.77,39.77,0,0,1-3.46-5c-.3-.85-.36-1.19-.13-1.48s.57-.3,1.47-.19A39.26,39.26,0,0,1,91,84.24L80.2,78a16.06,16.06,0,0,1,2.71,2.28c.39.6.28.91.11,1.14" transform="translate(-45 -45)"/><path id="Path_78" data-name="Path 78" class="cls-8" d="M84.58,78.72c-.1.27-.32.52-1,.48A16.08,16.08,0,0,1,80.21,78L91,84.25a39.47,39.47,0,0,1-4.8-3.74c-.55-.72-.7-1-.57-1.37s.46-.47,1.34-.63a39.74,39.74,0,0,1,6.07.49L80.87,76.31a16.73,16.73,0,0,1,3.27,1.36c.55.46.54.79.44,1.06" transform="translate(-45 -45)"/><path id="Path_79" data-name="Path 79" class="cls-8" d="M67,68.57c-.18.22-.29.53.1,1.14A16.57,16.57,0,0,0,69.8,72L59,65.76a39.26,39.26,0,0,0,5.64,2.29c.89.11,1.24.09,1.47-.19s.17-.63-.13-1.48a39.77,39.77,0,0,0-3.46-5l8.42,9.2a16.69,16.69,0,0,0-2.81-2.15c-.68-.25-1-.07-1.14.15" transform="translate(-45 -45)"/><path id="Path_80" data-name="Path 80" class="cls-8" d="M65.42,71.28c-.1.26-.11.59.44,1a16.73,16.73,0,0,0,3.27,1.36L57,71a39.86,39.86,0,0,0,6.07.49c.89-.16,1.21-.29,1.34-.63s0-.65-.56-1.37A39.23,39.23,0,0,0,59,65.75L69.79,72a16.08,16.08,0,0,0-3.33-1.2c-.72,0-.94.21-1,.48" transform="translate(-45 -45)"/><path id="Path_81" data-name="Path 81" class="cls-8" d="M65.42,78.72c-.1-.26-.11-.59.44-1a16.73,16.73,0,0,1,3.27-1.36L57,79s4.89-.71,6.07-.49c.89.16,1.21.28,1.34.63s0,.65-.56,1.36A39.5,39.5,0,0,1,59,84.25L69.79,78a16.08,16.08,0,0,1-3.33,1.2c-.72,0-.94-.21-1-.48" transform="translate(-45 -45)"/><path id="Path_82" data-name="Path 82" class="cls-8" d="M67,81.43c-.18-.22-.29-.53.1-1.14A16.57,16.57,0,0,1,69.8,78L59,84.24A39.26,39.26,0,0,1,64.63,82c.89-.11,1.24-.09,1.47.19s.17.63-.13,1.48a39.77,39.77,0,0,1-3.46,5l8.42-9.2a16.69,16.69,0,0,1-2.81,2.15c-.68.25-1,.07-1.14-.15" transform="translate(-45 -45)"/><path id="Path_83" data-name="Path 83" class="cls-8" d="M84.58,71.28c-.1-.27-.32-.52-1-.48A16.08,16.08,0,0,0,80.21,72L91,65.75a39.47,39.47,0,0,0-4.8,3.74c-.55.72-.7,1-.57,1.37s.46.47,1.34.63c1.19.22,6.07-.49,6.07-.49L80.87,73.69a16.73,16.73,0,0,0,3.27-1.36c.55-.46.54-.79.44-1" transform="translate(-45 -45)"/><path id="Path_84" data-name="Path 84" class="cls-8" d="M83,68.57c-.18-.22-.46-.4-1.14-.15a16.69,16.69,0,0,0-2.81,2.15l8.42-9.2a39.77,39.77,0,0,0-3.46,5c-.3.85-.36,1.19-.13,1.48s.57.3,1.47.19A39.26,39.26,0,0,0,91,65.76L80.2,72a16.06,16.06,0,0,0,2.71-2.28c.39-.6.28-.91.11-1.14" transform="translate(-45 -45)"/><path id="Path_85" data-name="Path 85" class="cls-9" d="M77.53,60a2.24,2.24,0,0,0,1.9-.66c1.06-1.18,2.43-5.16,2.43-5.16s-1.27,4-1.11,5.59a2.21,2.21,0,0,0,1.12,1.66,2.23,2.23,0,0,0-1.89.67c-1.06,1.18-2.43,5.15-2.43,5.15s1.26-4,1.11-5.59A2.22,2.22,0,0,0,77.53,60" transform="translate(-45 -45)"/><path id="Path_86" data-name="Path 86" class="cls-9" d="M68.13,61.45a2.21,2.21,0,0,0,1.12-1.66c.16-1.58-1.11-5.59-1.11-5.59s1.37,4,2.44,5.16a2.21,2.21,0,0,0,1.89.66,2.24,2.24,0,0,0-1.13,1.66c-.15,1.58,1.11,5.59,1.11,5.59s-1.37-4-2.43-5.15a2.23,2.23,0,0,0-1.89-.67" transform="translate(-45 -45)"/><path id="Path_87" data-name="Path 87" class="cls-9" d="M63.14,65.51a2.24,2.24,0,0,1-1.86.77C59.7,66.1,56,64.05,56,64.05s3.62,2.15,4.56,3.43a2.2,2.2,0,0,1,.26,2,2.19,2.19,0,0,1,1.86-.76c1.58.17,5.25,2.22,5.25,2.22s-3.62-2.15-4.56-3.43a2.2,2.2,0,0,1-.26-2" transform="translate(-45 -45)"/><path id="Path_88" data-name="Path 88" class="cls-9" d="M89.15,69.47a2.23,2.23,0,0,1,.26-2C90.35,66.2,94,64.05,94,64.05s-3.67,2-5.25,2.23a2.22,2.22,0,0,1-1.85-.77,2.23,2.23,0,0,1-.27,2c-.94,1.28-4.55,3.43-4.55,3.43s3.67-2.05,5.24-2.22a2.19,2.19,0,0,1,1.86.76" transform="translate(-45 -45)"/><path id="Path_89" data-name="Path 89" class="cls-9" d="M72.72,90a2.19,2.19,0,0,1,1.58,1.22c.64,1.46.7,5.66.7,5.66s.06-4.2.7-5.66A2.19,2.19,0,0,1,77.28,90a2.2,2.2,0,0,1-1.58-1.23c-.64-1.45-.7-5.66-.7-5.66s-.06,4.21-.7,5.66A2.2,2.2,0,0,1,72.72,90" transform="translate(-45 -45)"/><path id="Path_90" data-name="Path 90" class="cls-9" d="M86.7,84.68a2.25,2.25,0,0,0-.37,2c.49,1.51,3.25,4.69,3.25,4.69s-2.84-3.1-4.28-3.76a2.21,2.21,0,0,0-2,.15,2.27,2.27,0,0,0,.37-2c-.49-1.51-3.25-4.68-3.25-4.68s2.84,3.1,4.29,3.76a2.21,2.21,0,0,0,2-.15" transform="translate(-45 -45)"/><path id="Path_91" data-name="Path 91" class="cls-9" d="M90.17,75.82A2.24,2.24,0,0,0,91,77.63c1.3.92,5.4,1.83,5.4,1.83s-4.12-.8-5.68-.47a2.23,2.23,0,0,0-1.52,1.3,2.23,2.23,0,0,0-.87-1.8c-1.3-.92-5.4-1.83-5.4-1.83s4.12.8,5.68.47a2.24,2.24,0,0,0,1.52-1.31" transform="translate(-45 -45)"/><path id="Path_92" data-name="Path 92" class="cls-9" d="M60.76,80.29A2.21,2.21,0,0,0,59.24,79c-1.55-.33-5.68.47-5.68.47s4.1-.91,5.4-1.83a2.21,2.21,0,0,0,.87-1.81,2.24,2.24,0,0,0,1.53,1.31c1.55.33,5.68-.47,5.68-.47s-4.11.91-5.4,1.83a2.24,2.24,0,0,0-.88,1.8" transform="translate(-45 -45)"/><path id="Path_93" data-name="Path 93" class="cls-9" d="M66.71,87.73a2.21,2.21,0,0,0-2-.15c-1.45.66-4.29,3.76-4.29,3.76s2.76-3.17,3.25-4.69a2.25,2.25,0,0,0-.37-2,2.21,2.21,0,0,0,2,.15c1.44-.66,4.28-3.76,4.28-3.76s-2.76,3.17-3.24,4.68a2.23,2.23,0,0,0,.37,2" transform="translate(-45 -45)"/></g></g></g><circle class="cls-10" cx="30" cy="30" r="27"/></svg>