<svg id="Layer_1" data-name="Layer 1" xmlns="http://www.w3.org/2000/svg" xmlns:xlink="http://www.w3.org/1999/xlink" viewBox="0 0 180 240"><defs><style>.cls-1{fill:#626465;}.cls-2{fill:#969899;}.cls-3{fill:url(#linear-gradient);}.cls-4,.cls-5,.cls-6{fill:none;}.cls-4,.cls-5,.cls-9{stroke:#9615db;}.cls-4,.cls-9{stroke-miterlimit:10;}.cls-5,.cls-6{stroke-linecap:round;stroke-linejoin:round;}.cls-6{stroke:#b050e4;}.cls-7{fill:#e5c5f6;}.cls-8{fill:#9615db;opacity:0.5;}.cls-9{fill:#2d3032;}.cls-10{fill:#fff;}</style><linearGradient id="linear-gradient" x1="6.464" y1="223.536" x2="193.536" y2="36.464" gradientUnits="userSpaceOnUse"><stop offset="0" stop-color="#2d3032"/><stop offset="0.258" stop-color="#2f3035"/><stop offset="0.414" stop-color="#342e3d"/><stop offset="0.542" stop-color="#3d2c4b"/><stop offset="0.656" stop-color="#492960"/><stop offset="0.759" stop-color="#5a257a"/><stop offset="0.856" stop-color="#6e1f9a"/><stop offset="0.945" stop-color="#8519c0"/><stop offset="1" stop-color="#9615db"/></linearGradient></defs><g id="ERC-20_Single_Voting" data-name="ERC-20 Single Voting"><rect class="cls-1" width="160" height="220" rx="5"/><rect class="cls-2" x="10" y="10" width="160" height="220" rx="5"/><rect class="cls-3" x="20" y="20" width="160" height="220" rx="5"/><rect class="cls-4" x="25" y="25" width="150" height="210"/><path class="cls-5" d="M158.75,50H61.25M50,111.25v-50m0,157.5v-50m120-57.5v-50m0,157.5v-50M158.75,230H61.25M50,38.75A11.25,11.25,0,1,0,61.25,50,11.25,11.25,0,0,0,50,38.75Zm120,0A11.25,11.25,0,1,0,181.25,50,11.25,11.25,0,0,0,170,38.75Zm-120,180A11.25,11.25,0,1,0,61.25,230,11.25,11.25,0,0,0,50,218.75Zm120,0A11.25,11.25,0,1,0,181.25,230,11.25,11.25,0,0,0,170,218.75Z" transform="translate(-10 -10)"/><path class="cls-6" d="M155.47,53.75H64.53M53.75,103.9V64.53m0,150.94V176.1m112.5-72.2V64.53m0,150.94V176.131M155.47,226.25H64.53M53.75,64.53a15.023,15.023,0,0,0,2.63-.96,13.906,13.906,0,0,0,2.27-1.33,14.808,14.808,0,0,0,3.59-3.59,13.906,13.906,0,0,0,1.33-2.27,15.023,15.023,0,0,0,.96-2.63M60.22,77.9,56.38,63.57m7.37,7.5-1.5-2.6m-2.1-3.634-1.5-2.6m12.78,9.19L60.6,60.6m10.47,3.15-2.6-1.5m-3.634-2.1-2.6-1.5M77.9,60.22,63.57,56.38m91.9-2.63a15.023,15.023,0,0,0,.96,2.63,13.906,13.906,0,0,0,1.33,2.27,14.808,14.808,0,0,0,3.59,3.59,13.906,13.906,0,0,0,2.27,1.33,15.023,15.023,0,0,0,2.63.96m-9.82-8.15L142.1,60.22m15.66-1.57-2.6,1.5m-3.634,2.1-2.6,1.5M159.4,60.6,148.57,71.43m12.78-9.19-1.5,2.6m-2.1,3.634-1.5,2.6m7.37-7.5L159.78,77.9M64.53,226.25a15.023,15.023,0,0,0-.96-2.63,13.906,13.906,0,0,0-1.33-2.27,14.808,14.808,0,0,0-3.59-3.59,13.906,13.906,0,0,0-2.27-1.33,15.023,15.023,0,0,0-2.63-.96m2.63.96,3.84-14.33m-1.57,15.66,1.5-2.6m2.1-3.634,1.5-2.6M60.6,219.4l10.83-10.83m-9.19,12.78,2.6-1.5m3.634-2.1,2.6-1.5m-7.5,7.37,14.33-3.84m88.35-4.31a15.023,15.023,0,0,0-2.63.96,13.906,13.906,0,0,0-2.27,1.33,14.808,14.808,0,0,0-3.59,3.59,13.906,13.906,0,0,0-1.33,2.27,15.023,15.023,0,0,0-.96,2.63m4.31-24.15,3.84,14.33m-7.37-7.5,1.5,2.6m2.1,3.634,1.5,2.6m-12.78-9.19L159.4,219.4m-10.47-3.15,2.6,1.5m3.634,2.1,2.6,1.5m-15.66-1.57,14.33,3.84" transform="translate(-10 -10)"/><path class="cls-7" d="M112.75,42.25,110,43.75l-2.75-1.5L110,37.5Zm-2.75,3-2.75-1.5L110,47.5l2.75-3.75Z" transform="translate(-10 -10)"/><path class="cls-6" d="M120.25,42.5h31.47m-33.345-1.875A1.875,1.875,0,1,0,120.25,42.5,1.874,1.874,0,0,0,118.375,40.625Zm35.22,0A1.875,1.875,0,1,0,155.47,42.5,1.874,1.874,0,0,0,153.6,40.625Z" transform="translate(-10 -10)"/><path class="cls-6" d="M68.28,42.5H99.75M66.405,40.625A1.875,1.875,0,1,0,68.28,42.5,1.874,1.874,0,0,0,66.405,40.625Zm35.22,0A1.875,1.875,0,1,0,103.5,42.5,1.874,1.874,0,0,0,101.625,40.625Z" transform="translate(-10 -10)"/><path class="cls-6" d="M42.5,99.75V68.28m-1.875,33.345A1.875,1.875,0,1,0,42.5,99.75,1.874,1.874,0,0,0,40.625,101.625Zm0-35.22A1.875,1.875,0,1,0,42.5,64.53,1.874,1.874,0,0,0,40.625,66.405ZM177.5,99.75V68.28m-1.875,33.345A1.875,1.875,0,1,0,177.5,99.75,1.874,1.874,0,0,0,175.625,101.625Zm0-35.22A1.875,1.875,0,1,0,177.5,64.53,1.874,1.874,0,0,0,175.625,66.405ZM42.5,211.72V180.25M40.625,213.6A1.875,1.875,0,1,0,42.5,211.72,1.874,1.874,0,0,0,40.625,213.6Zm0-35.22A1.875,1.875,0,1,0,42.5,176.5,1.874,1.874,0,0,0,40.625,178.375ZM177.5,211.72V180.25M175.625,213.6a1.875,1.875,0,1,0,1.875-1.875A1.874,1.874,0,0,0,175.625,213.6Zm0-35.22A1.875,1.875,0,1,0,177.5,176.5,1.874,1.874,0,0,0,175.625,178.375Z" transform="translate(-10 -10)"/><path class="cls-7" d="M112.75,237.25l-2.75,1.5-2.75-1.5L110,232.5Zm-2.75,3-2.75-1.5L110,242.5l2.75-3.75Z" transform="translate(-10 -10)"/><path class="cls-6" d="M120.25,237.5h31.47m-33.345-1.875a1.875,1.875,0,1,0,1.875,1.875A1.874,1.874,0,0,0,118.375,235.625Zm35.22,0a1.875,1.875,0,1,0,1.875,1.875A1.874,1.874,0,0,0,153.6,235.625Z" transform="translate(-10 -10)"/><path class="cls-6" d="M68.28,237.5H99.75m-33.345-1.875A1.875,1.875,0,1,0,68.28,237.5,1.874,1.874,0,0,0,66.405,235.625Zm35.22,0A1.875,1.875,0,1,0,103.5,237.5,1.874,1.874,0,0,0,101.625,235.625Z" transform="translate(-10 -10)"/><path class="cls-7" d="M56.125,55.25H43.875a.125.125,0,0,1-.125-.125v-4A.125.125,0,0,1,43.875,51h12.25a.125.125,0,0,1,.125.125v4A.125.125,0,0,1,56.125,55.25ZM51.75,46.375v-3.5a.125.125,0,0,0-.125-.125h-3.25a.125.125,0,0,0-.125.125v3.5a.125.125,0,0,0,.125.125h3.25A.125.125,0,0,0,51.75,46.375Zm4.422,2.949L54.783,46.2a.125.125,0,0,0-.114-.074H53.375a.125.125,0,0,0-.125.125v1.625a.125.125,0,0,1-.125.125h-6.25a.125.125,0,0,1-.125-.125V46.25a.125.125,0,0,0-.125-.125H45.331a.125.125,0,0,0-.114.074l-1.389,3.125a.125.125,0,0,0,.114.176H56.058A.125.125,0,0,0,56.172,49.324Z" transform="translate(-10 -10)"/><path class="cls-7" d="M176.125,235.25h-12.25a.125.125,0,0,1-.125-.125v-4a.125.125,0,0,1,.125-.125h12.25a.125.125,0,0,1,.125.125v4A.125.125,0,0,1,176.125,235.25Zm-4.375-8.875v-3.5a.125.125,0,0,0-.125-.125h-3.25a.125.125,0,0,0-.125.125v3.5a.125.125,0,0,0,.125.125h3.25A.125.125,0,0,0,171.75,226.375Zm4.422,2.949-1.389-3.125a.125.125,0,0,0-.114-.074h-1.294a.125.125,0,0,0-.125.125v1.625a.125.125,0,0,1-.125.125h-6.25a.125.125,0,0,1-.125-.125V226.25a.125.125,0,0,0-.125-.125h-1.294a.125.125,0,0,0-.114.074l-1.389,3.125a.125.125,0,0,0,.114.176h12.116A.125.125,0,0,0,176.172,229.324Z" transform="translate(-10 -10)"/><path class="cls-8" d="M107.62,210.96l.46.3L168,172.51v-.59Zm-2.16-1.4.46.3L168,169.72v-.59Zm58.81-40.81L103.3,208.17l.46.3,61.43-39.72Zm-4.31,0-58.81,38.03.46.29,59.27-38.32Zm-4.32,0L98.99,205.38l.46.3,57.12-36.93Zm-4.31,0-54.5,35.24.47.3,54.96-35.54Zm-4.32,0L94.67,202.59l.47.3,52.8-34.14Zm-4.3,0L92.52,201.2l.46.3,50.65-32.75Zm-4.32,0L90.36,199.8l.46.3,48.5-31.35Zm-4.31,0L88.21,198.41l.46.3L135,168.75Zm-4.31,0L86.05,197.02l.46.29,44.18-28.56Zm-4.32,0L83.89,195.62l.47.3,42.02-27.17Zm-4.3,0L81.74,194.23l.46.29,39.86-25.77Zm-4.32,0L79.58,192.83l.46.3,37.71-24.38Zm-4.31,0-35.1,22.69.46.3,35.56-22.99Zm-4.32,0L75.27,190.04l.46.3,33.39-21.59Zm-4.31,0-30.78,19.9.46.3,31.24-20.2Zm-4.32,0-28.62,18.5.46.3,29.08-18.8Zm-4.31,0L68.79,185.86l.46.3,26.93-17.41Zm-4.31,0L66.64,184.47l.46.29,24.76-16.01Zm-4.32,0L64.48,183.07l.46.3,22.61-14.62Zm-4.3,0-20,12.93.46.3,20.46-13.23ZM60.17,180.28l.46.3,18.3-11.83H78Zm102.46-69.03h.92l4.45-2.88v-.59ZM58.02,178.89l.46.3,16.14-10.44H73.7Zm100.31-67.64h.9l8.77-5.67V105ZM55.86,177.49l.46.3,13.98-9.04h-.92ZM165.84,103.6l-11.83,7.65h.92l11.37-7.35ZM53.7,176.1l.47.3L66,168.75h-.93Zm109.98-73.89-13.98,9.04h.91l13.53-8.75ZM52,174.41V175l9.67-6.25h-.92Zm109.52-73.6-16.15,10.44h.94l15.68-10.14ZM52,171.62v.6l5.37-3.47h-.93Zm107.37-72.2-18.3,11.83h.92l17.84-11.53Zm-2.16-1.39-20.45,13.22h.91l20-12.93Zm-2.15-1.4-22.61,14.62h.92l22.15-14.32Zm-2.16-1.39-24.76,16.01h.91l24.31-15.72Zm-2.15-1.39-26.91,17.4h.9l26.47-17.11Zm-2.17-1.4-29.07,18.8h.91l28.62-18.51Zm-2.15-1.39L115.2,111.25h.92l30.77-19.9Zm-2.16-1.4-33.4,21.59h.93l32.93-21.29Zm-2.15-1.39-35.55,22.98h.92l35.09-22.69Zm-2.16-1.4-37.71,24.38h.92l37.25-24.08Zm-2.15-1.39L97.95,111.25h.91l39.41-25.48Zm-2.16-1.4L93.62,111.25h.93l41.56-26.87Zm-2.16-1.39L89.32,111.25h.91l43.72-28.27Zm-2.16-1.4L85,111.25h.92l45.87-29.66Zm-2.15-1.39L80.69,111.25h.93L129.64,80.2Zm-2.16-1.4L76.37,111.25h.93L127.48,78.8Zm-2.16-1.39-52.8,34.14h.93l52.33-33.84Zm-2.15-1.39L67.75,111.25h.92l54.5-35.24Zm-2.16-1.4L63.43,111.25h.93l56.65-36.63Zm-2.15-1.39L59.12,111.25h.92l58.81-38.02Zm-2.16-1.4L54.81,111.25h.92L116.7,71.83Zm-2.16-1.39L52,110.28v.59l62.54-40.43Zm-2.15-1.39L52,107.5v.59l60.38-39.05Z" transform="translate(-10 -10)"/><path class="cls-5" d="M52,111.25V105l58-37.5.23.15,1.7,1.1.45.29,1.7,1.1.46.3,1.7,1.09.46.3,1.7,1.1.45.3,1.7,1.09.46.3,1.7,1.1.46.29,1.69,1.1.46.3,1.7,1.09.46.3,1.7,1.1.46.3,1.69,1.09.46.3,1.7,1.1.46.29,1.7,1.1.46.3,1.7,1.1.46.29,1.69,1.1.46.3,1.7,1.1.46.29,1.69,1.1.46.3,1.7,1.1.46.29,1.69,1.1.46.29,1.71,1.11.46.29,1.69,1.1.46.29,1.7,1.1.46.3,1.69,1.1.46.29,1.7,1.1.46.3,1.69,1.09.47.3,1.69,1.1.46.29,1.7,1.1.46.3L168,105v6.25M52,168.75V175l1.7,1.1.47.3,1.69,1.09.46.3,1.7,1.1.46.3,1.69,1.09.46.3,1.7,1.1.46.3,1.69,1.09.46.3,1.7,1.1.46.29,1.69,1.1.46.3,1.7,1.09.46.3,1.7,1.1.46.3,1.7,1.09.46.3,1.69,1.1.46.3,1.7,1.09.46.3,1.7,1.1.46.29,1.69,1.1.47.3,1.69,1.1.46.29,1.7,1.1.46.3,1.69,1.09.46.3,1.7,1.1.46.3,1.69,1.09.47.3,1.69,1.1.47.3,1.69,1.09.46.3,1.7,1.1.46.29,1.69,1.1.46.3,1.7,1.09.46.3,1.7,1.1.46.3,1.69,1.09.23.15L168,175v-6.25" transform="translate(-10 -10)"/><polygon class="cls-9" points="87.5 59.5 87.5 71.5 100 79.75 112.5 71.5 112.5 59.5 100 51.25 87.5 59.5"/><path class="cls-7" d="M103.945,73.359V68.13H107.3v.837H105V70.3h1.975v.844H105v1.383H107.3v.836Z" transform="translate(-10 -10)"/><path class="cls-7" d="M111.153,73.359l-.716-1.907h-1.1v1.907h-1.059V68.13h2.3a2.118,2.118,0,0,1,1.013.194.966.966,0,0,1,.463.544,3,3,0,0,1,.116.92,2.71,2.71,0,0,1-.146.93.961.961,0,0,1-.571.574l.825,2.067Zm-.341-2.812a.367.367,0,0,0,.238-.235,1.856,1.856,0,0,0,.054-.524,1.8,1.8,0,0,0-.054-.525.369.369,0,0,0-.23-.228,1.752,1.752,0,0,0-.583-.068h-.9v1.649h.892A1.8,1.8,0,0,0,110.812,70.547Z" transform="translate(-10 -10)"/><path class="cls-7" d="M115.754,73.386a6.424,6.424,0,0,1-.642.034,3.025,3.025,0,0,1-1.354-.228,1.164,1.164,0,0,1-.575-.775,9.624,9.624,0,0,1,0-3.34,1.169,1.169,0,0,1,.579-.775,2.981,2.981,0,0,1,1.35-.232,5.829,5.829,0,0,1,.65.038,3.873,3.873,0,0,1,.533.091v.775q-.633-.068-.941-.068a2.322,2.322,0,0,0-.867.11.589.589,0,0,0-.312.463,11.314,11.314,0,0,0,0,2.531.591.591,0,0,0,.312.464,2.343,2.343,0,0,0,.867.11,6.821,6.821,0,0,0,.966-.068V73.3A4.4,4.4,0,0,1,115.754,73.386Z" transform="translate(-10 -10)"/><path class="cls-7" d="M105.269,81.594h3.825v1.265h-5.388v-1a10.9,10.9,0,0,1,.075-1.5,1.632,1.632,0,0,1,.331-.8,2.086,2.086,0,0,1,.844-.553l1.037-.445c.158-.061.4-.159.713-.3a2.448,2.448,0,0,0,.513-.274.629.629,0,0,0,.219-.308,1.843,1.843,0,0,0,.055-.513,1.184,1.184,0,0,0-.138-.655.672.672,0,0,0-.443-.262,5.312,5.312,0,0,0-.969-.063q-.786,0-2.1.137V75.153a10.567,10.567,0,0,1,1.224-.165q.726-.063,1.35-.063a6,6,0,0,1,1.426.142,1.579,1.579,0,0,1,.906.61,2.317,2.317,0,0,1,.344,1.38,3.588,3.588,0,0,1-.138,1.1,1.569,1.569,0,0,1-.413.673,2.313,2.313,0,0,1-.75.439l-1.938.809a2.246,2.246,0,0,0-.287.142.543.543,0,0,0-.162.154.893.893,0,0,0-.106.325,4.08,4.08,0,0,0-.031.587Z" transform="translate(-10 -10)"/><path class="cls-7" d="M111.318,82.614a1.562,1.562,0,0,1-.762-1.111,14,14,0,0,1-.163-2.565,14,14,0,0,1,.163-2.565,1.564,1.564,0,0,1,.762-1.112,6.156,6.156,0,0,1,4.012,0,1.546,1.546,0,0,1,.757,1.106,14.735,14.735,0,0,1,.156,2.571,14.713,14.713,0,0,1-.156,2.57,1.546,1.546,0,0,1-.757,1.106,6.139,6.139,0,0,1-4.012,0Zm2.956-1.054a.818.818,0,0,0,.313-.644,28.8,28.8,0,0,0,0-3.956.818.818,0,0,0-.313-.644,3.383,3.383,0,0,0-1.906,0,.815.815,0,0,0-.319.649,28.228,28.228,0,0,0,0,3.945.816.816,0,0,0,.319.65,3.383,3.383,0,0,0,1.906,0Z" transform="translate(-10 -10)"/><path class="cls-10" d="M69.168,144.376q-.944-.072-1.664-.184v-1.679q1.791.175,2.848.175a5.983,5.983,0,0,0,1.12-.08,1.226,1.226,0,0,0,.592-.255.7.7,0,0,0,.24-.416,4.272,4.272,0,0,0,.048-.737,3.479,3.479,0,0,0-.072-.847.6.6,0,0,0-.28-.377,2.225,2.225,0,0,0-.7-.2l-2.032-.288a1.979,1.979,0,0,1-1.584-.888,4.345,4.345,0,0,1-.432-2.152,3.945,3.945,0,0,1,.44-2.056,2.17,2.17,0,0,1,1.216-.96,6.619,6.619,0,0,1,1.976-.248,15.846,15.846,0,0,1,1.648.088,12.056,12.056,0,0,1,1.392.216v1.648a15.529,15.529,0,0,0-2.544-.192,7.634,7.634,0,0,0-1.112.064,1.513,1.513,0,0,0-.616.208.642.642,0,0,0-.288.392,3.186,3.186,0,0,0-.064.745,3.357,3.357,0,0,0,.064.783.493.493,0,0,0,.256.336,2.284,2.284,0,0,0,.656.16l2.048.272a2.965,2.965,0,0,1,1.112.36,1.784,1.784,0,0,1,.7.856,5.207,5.207,0,0,1,.272,1.888,4.748,4.748,0,0,1-.408,2.209,1.981,1.981,0,0,1-1.136.991,6.258,6.258,0,0,1-1.912.24Q70.111,144.448,69.168,144.376Z" transform="translate(-10 -10)"/><path class="cls-10" d="M76.1,134.256v-1.824h1.968v1.824Zm.016,10.064v-8.16h1.936v8.16Z" transform="translate(-10 -10)"/><path class="cls-10" d="M84.512,139.92a10.223,10.223,0,0,0-.072-1.488.708.708,0,0,0-.312-.544,1.924,1.924,0,0,0-.832-.128,1.461,1.461,0,0,0-.888.216,1.08,1.08,0,0,0-.368.688,8.475,8.475,0,0,0-.088,1.432v4.224h-1.92v-8.16h1.792l.064,1.024H82a1.711,1.711,0,0,1,.8-.872,3.042,3.042,0,0,1,1.392-.28,2.538,2.538,0,0,1,1.424.328,1.624,1.624,0,0,1,.648.976,7.352,7.352,0,0,1,.168,1.768v5.216h-1.92Z" transform="translate(-10 -10)"/><path class="cls-10" d="M89.848,147.521a10.981,10.981,0,0,1-1.144-.128V145.9q1.119.05,2.064.048a4.379,4.379,0,0,0,1.377-.151.825.825,0,0,0,.519-.576,6.023,6.023,0,0,0,.12-1.449v-.464h-.112a1.525,1.525,0,0,1-.768.792,3.056,3.056,0,0,1-1.264.232,2.581,2.581,0,0,1-1.488-.367,2.1,2.1,0,0,1-.76-1.248,13.579,13.579,0,0,1,.008-5.041,2.166,2.166,0,0,1,.776-1.272,2.538,2.538,0,0,1,1.48-.376,2.024,2.024,0,0,1,2.08,1.152h.112l.064-1.024H94.7v7.168a11,11,0,0,1-.216,2.528,2,2,0,0,1-.952,1.281,4.769,4.769,0,0,1-2.32.431Q90.559,147.568,89.848,147.521Zm2.352-5a.839.839,0,0,0,.392-.473,2.443,2.443,0,0,0,.152-.7c.027-.288.04-.666.04-1.136a5.671,5.671,0,0,0-.176-1.76.924.924,0,0,0-.392-.536,1.549,1.549,0,0,0-.76-.152,2.083,2.083,0,0,0-.92.144.829.829,0,0,0-.352.624,10.738,10.738,0,0,0-.088,1.68,10.583,10.583,0,0,0,.088,1.664.857.857,0,0,0,.352.632,1.99,1.99,0,0,0,.92.152A1.664,1.664,0,0,0,92.2,142.521Z" transform="translate(-10 -10)"/><path class="cls-10" d="M96.688,144.32V132.432h1.936V144.32Z" transform="translate(-10 -10)"/><path class="cls-10" d="M106.752,140.864h-4.464a5.722,5.722,0,0,0,.1,1.336.724.724,0,0,0,.5.512,4.687,4.687,0,0,0,1.368.137,21.291,21.291,0,0,0,2.24-.128v1.487a8.387,8.387,0,0,1-1.216.177q-.753.063-1.456.063a4.942,4.942,0,0,1-2.312-.408,1.907,1.907,0,0,1-.944-1.248,14.807,14.807,0,0,1,0-5.04,2.029,2.029,0,0,1,.92-1.288,4.309,4.309,0,0,1,2.192-.432,4.039,4.039,0,0,1,2.1.416,1.815,1.815,0,0,1,.808,1.24,14.885,14.885,0,0,1,.16,2.568Zm-4-3.1a.74.74,0,0,0-.36.528,6.909,6.909,0,0,0-.1,1.264h2.64a5.578,5.578,0,0,0-.1-1.28.751.751,0,0,0-.368-.528,1.944,1.944,0,0,0-.808-.128A2.041,2.041,0,0,0,102.752,137.76Z" transform="translate(-10 -10)"/><path class="cls-10" d="M114.128,144.32,111.2,133.312h2.1l2.24,8.8h.1l2.208-8.8H119.9L116.96,144.32Z" transform="translate(-10 -10)"/><path class="cls-10" d="M121.472,144.088a1.691,1.691,0,0,1-.88-1.184,18.586,18.586,0,0,1,0-5.343,1.671,1.671,0,0,1,.88-1.177,5.283,5.283,0,0,1,2.257-.352,5.223,5.223,0,0,1,2.239.352,1.675,1.675,0,0,1,.88,1.184,13.181,13.181,0,0,1,.192,2.672,13.036,13.036,0,0,1-.192,2.664,1.691,1.691,0,0,1-.88,1.184,5.125,5.125,0,0,1-2.239.36A5.184,5.184,0,0,1,121.472,144.088Zm3.232-1.416a.813.813,0,0,0,.336-.64,25.232,25.232,0,0,0,0-3.592.82.82,0,0,0-.328-.632,2.078,2.078,0,0,0-.983-.16,2.143,2.143,0,0,0-.994.16.813.813,0,0,0-.336.632,25.632,25.632,0,0,0,0,3.592.818.818,0,0,0,.336.64,2.143,2.143,0,0,0,.994.16A2.086,2.086,0,0,0,124.7,142.672Z" transform="translate(-10 -10)"/><path class="cls-10" d="M129.328,144.32v-6.544H128V136.16h1.328v-2.368h1.92v2.368h1.6v1.616h-1.6v6.544Z" transform="translate(-10 -10)"/><path class="cls-10" d="M134.144,134.256v-1.824h1.968v1.824Zm.016,10.064v-8.16H136.1v8.16Z" transform="translate(-10 -10)"/><path class="cls-10" d="M142.56,139.92a10.223,10.223,0,0,0-.072-1.488.71.71,0,0,0-.312-.544,1.924,1.924,0,0,0-.832-.128,1.459,1.459,0,0,0-.888.216,1.08,1.08,0,0,0-.368.688A8.475,8.475,0,0,0,140,140.1v4.224h-1.92v-8.16h1.792l.064,1.024h.112a1.711,1.711,0,0,1,.8-.872,3.042,3.042,0,0,1,1.392-.28,2.538,2.538,0,0,1,1.424.328,1.624,1.624,0,0,1,.648.976,7.36,7.36,0,0,1,.167,1.768v5.216H142.56Z" transform="translate(-10 -10)"/><path class="cls-10" d="M147.9,147.521a10.981,10.981,0,0,1-1.144-.128V145.9c.746.033,1.435.048,2.063.048a4.363,4.363,0,0,0,1.376-.151.824.824,0,0,0,.521-.576,6.023,6.023,0,0,0,.12-1.449v-.464h-.112a1.525,1.525,0,0,1-.768.792,3.059,3.059,0,0,1-1.264.232,2.586,2.586,0,0,1-1.489-.367,2.114,2.114,0,0,1-.76-1.248,13.635,13.635,0,0,1,.008-5.041,2.167,2.167,0,0,1,.777-1.272,2.538,2.538,0,0,1,1.48-.376,2.021,2.021,0,0,1,2.079,1.152h.113l.064-1.024h1.792v7.168a11,11,0,0,1-.216,2.528,2,2,0,0,1-.952,1.281,4.772,4.772,0,0,1-2.32.431Q148.607,147.568,147.9,147.521Zm2.352-5a.843.843,0,0,0,.392-.473,2.512,2.512,0,0,0,.152-.7c.026-.288.04-.666.04-1.136a5.694,5.694,0,0,0-.177-1.76.923.923,0,0,0-.391-.536,1.549,1.549,0,0,0-.76-.152,2.08,2.08,0,0,0-.92.144.829.829,0,0,0-.353.624,10.9,10.9,0,0,0-.087,1.68,10.746,10.746,0,0,0,.087,1.664.857.857,0,0,0,.353.632,1.988,1.988,0,0,0,.92.152A1.67,1.67,0,0,0,150.248,142.521Z" transform="translate(-10 -10)"/></g></svg>