<svg id="Layer_1" data-name="Layer 1" xmlns="http://www.w3.org/2000/svg" viewBox="0 0 24 20"><defs><style>.telegram-grayscale-1{fill:#cbcbcc;fill-rule:evenodd;}</style></defs><path id="Telegram_Icon" data-name="Telegram Icon" class="telegram-grayscale-1" d="M56.38,59.78a1.19,1.19,0,0,0,1.11.14,1.15,1.15,0,0,0,.73-.84C59.08,55,61.19,44.66,62,41a.79.79,0,0,0-.26-.76.8.8,0,0,0-.8-.14c-4.19,1.55-17.1,6.4-22.38,8.35a.82.82,0,0,0-.49,1.05.81.81,0,0,0,.54.51c2.37.71,5.48,1.7,5.48,1.7s1.45,4.38,2.21,6.61a.87.87,0,0,0,.6.58.9.9,0,0,0,.81-.21l3.1-2.92s3.57,2.62,5.6,4.06m-11-8.68,1.68,5.54.38-3.51L57.61,44a.28.28,0,0,0-.34-.44L45.37,51.1" transform="translate(-38 -40)"/></svg>