<svg id="Layer_1" data-name="Layer 1" xmlns="http://www.w3.org/2000/svg" viewBox="0 0 24.68 20"><defs><style>.twitter-1{fill:#9615db;}</style></defs><path id="Twitter_Icon" data-name="Twitter Icon" class="twitter-1" d="M24.62,2.36a9.76,9.76,0,0,1-2.9.79A5.09,5.09,0,0,0,23.94.36a10.27,10.27,0,0,1-3.21,1.23,5.05,5.05,0,0,0-8.6,4.6A14.35,14.35,0,0,1,1.72.92,5,5,0,0,0,3.31,7.66,5.13,5.13,0,0,1,1,7a5,5,0,0,0,4,5,4.88,4.88,0,0,1-2.28.09A5.06,5.06,0,0,0,7.43,15.6,10.17,10.17,0,0,1,0,17.69,14.36,14.36,0,0,0,22.11,5.8V5a10.42,10.42,0,0,0,2.52-2.61" transform="translate(0.05 0)"/></svg>