<svg id="Layer_1" data-name="Layer 1" xmlns="http://www.w3.org/2000/svg" xmlns:xlink="http://www.w3.org/1999/xlink" viewBox="0 0 98.36 98.36"><defs><style>.usul-small1,.usul-small3,.usul-small8{fill:none;}.usul-small2{fill:#2d3032;}.usul-small3{stroke:#b050e4;}.usul-small3,.usul-small8{stroke-miterlimit:10;}.usul-small4{clip-path:url(#usul-small-clip-path);}.usul-small5{fill:url(#linear-gradient);}.usul-small6{opacity:0.33;}.usul-small7{clip-path:url(#usul-small-clip-path-2);}.usul-small8{stroke:#2f3d68;}.usul-small9{fill:#584974;}.usul-small10{fill:#ee3030;}.usul-small11{fill:#eeca7f;}.usul-small12{fill:#8aa1a5;}</style><clipPath id="usul-small-clip-path" transform="translate(-2.38 -0.82)"><path class="usul-small1" d="M27,50A24.59,24.59,0,1,0,51.56,25.41,24.59,24.59,0,0,0,27,50h0"/></clipPath><linearGradient id="linear-gradient" x1="0.98" y1="600.08" x2="1" y2="600.08" gradientTransform="matrix(49.18, -49.18, -49.18, -49.18, 29493.81, 29631.35)" gradientUnits="userSpaceOnUse"><stop offset="0" stop-color="#0f1215"/><stop offset="0.19" stop-color="#11141a"/><stop offset="0.44" stop-color="#171c29"/><stop offset="0.7" stop-color="#202943"/><stop offset="0.99" stop-color="#2e3c66"/><stop offset="1" stop-color="#2f3d68"/></linearGradient><clipPath id="usul-small-clip-path-2" transform="translate(-2.38 -0.82)"><rect class="usul-small1" x="44.98" y="43.42" width="13.16" height="13.16"/></clipPath></defs><g id="Group_31" data-name="Group 31"><g id="Group_20" data-name="Group 20"><path id="Path_29" data-name="Path 29" class="usul-small2" d="M81.07,50A29.51,29.51,0,1,1,51.56,20.49h0A29.51,29.51,0,0,1,81.07,50" transform="translate(-2.38 -0.82)"/><circle id="Ellipse_5" data-name="Ellipse 5" class="usul-small3" cx="49.18" cy="49.18" r="29.51"/></g><g class="usul-small4"><g id="Group_22" data-name="Group 22"><path id="Path_60" data-name="Path 60" class="usul-small5" d="M2.38,50,51.56.82,100.74,50,51.56,99.18Z" transform="translate(-2.38 -0.82)"/><path id="Path_30" data-name="Path 30" d="M57.65,50a6.09,6.09,0,1,1-6.09-6.09A6.09,6.09,0,0,1,57.65,50h0" transform="translate(-2.38 -0.82)"/></g></g><g id="Group_27" data-name="Group 27"><g id="Group_26" data-name="Group 26" class="usul-small6"><g id="Group_25" data-name="Group 25"><g class="usul-small7"><g id="Group_24" data-name="Group 24"><circle id="Ellipse_6" data-name="Ellipse 6" class="usul-small8" cx="49.18" cy="49.18" r="6.09"/></g></g></g></g><path id="Path_32" data-name="Path 32" class="usul-small9" d="M59.21,73.38l-.92-2.94s-2.87,1.3-4.68.71a3.68,3.68,0,0,1-2-2,3.68,3.68,0,0,1-2.05,2c-1.8.59-4.68-.71-4.68-.71l-.92,2.94a24.69,24.69,0,0,0,15.3,0" transform="translate(-2.38 -0.82)"/><path id="Path_33" data-name="Path 33" class="usul-small9" d="M27.49,44.94l3,.67s.3-3.14,1.71-4.4A3.72,3.72,0,0,1,35,40.44a3.72,3.72,0,0,1-.73-2.79c.4-1.86,3-3.69,3-3.69l-2.08-2.27a24.63,24.63,0,0,0-7.65,13.25" transform="translate(-2.38 -0.82)"/><path id="Path_34" data-name="Path 34" class="usul-small9" d="M68,31.69,65.89,34s2.56,1.83,3,3.69a3.73,3.73,0,0,1-.73,2.79,3.7,3.7,0,0,1,2.78.76c1.41,1.27,1.72,4.4,1.72,4.4l3-.67A24.83,24.83,0,0,0,68,31.68" transform="translate(-2.38 -0.82)"/><path id="Path_35" data-name="Path 35" class="usul-small10" d="M51.56,37.17s.39-2.25,1.66-2.82,3.39.2,3.39.2l.88-2.82a8.72,8.72,0,0,1-3.89-.94,5.58,5.58,0,0,1-2-3.23,5.71,5.71,0,0,1-2,3.24,8.64,8.64,0,0,1-3.89.93l.87,2.83s2.07-.8,3.39-.2,1.67,2.82,1.67,2.82" transform="translate(-2.38 -0.82)"/><path id="Path_36" data-name="Path 36" class="usul-small10" d="M62.66,56.41s1.76,1.47,1.62,2.85S62.4,62.1,62.4,62.1l2,2.17a8.67,8.67,0,0,1,2.75-2.9A5.67,5.67,0,0,1,71,61.22a5.7,5.7,0,0,1-1.79-3.39A8.74,8.74,0,0,1,70.34,54l-2.88-.66s-.35,2.2-1.52,3-3.28,0-3.28,0" transform="translate(-2.38 -0.82)"/><path id="Path_37" data-name="Path 37" class="usul-small10" d="M40.45,56.41s-2.15.79-3.27,0-1.53-3-1.53-3L32.77,54a8.74,8.74,0,0,1,1.14,3.83,5.62,5.62,0,0,1-1.79,3.39,5.6,5.6,0,0,1,3.83.15,8.67,8.67,0,0,1,2.75,2.9l2-2.17S39,60.7,38.84,59.26s1.61-2.85,1.61-2.85" transform="translate(-2.38 -0.82)"/><path id="Path_38" data-name="Path 38" class="usul-small11" d="M53.16,39.59c.28,0,.58.21.71.93a17.41,17.41,0,0,1-.47,3.6l3.86-12.18s-1.88,4.69-2.68,5.63c-.6.7-.87.93-1.24.87s-.57-.35-.93-1.2a41,41,0,0,1-.85-6.18V43.84a16.71,16.71,0,0,1,.63-3.57c.34-.65.67-.72,1-.67" transform="translate(-2.38 -0.82)"/><path id="Path_39" data-name="Path 39" class="usul-small11" d="M50,39.59c.29,0,.62,0,1,.68a16.6,16.6,0,0,1,.63,3.57l0-12.78s-.38,5-.86,6.18c-.36.85-.55,1.15-.93,1.2s-.64-.17-1.24-.87c-.8-.94-2.68-5.64-2.68-5.64l3.86,12.19a16.84,16.84,0,0,1-.47-3.6c.13-.73.43-.89.71-.93" transform="translate(-2.38 -0.82)"/><path id="Path_40" data-name="Path 40" class="usul-small11" d="M50,60.41c.29,0,.62,0,1-.68a16.6,16.6,0,0,0,.63-3.57l0,12.78s-.38-5-.86-6.18c-.36-.85-.55-1.14-.93-1.2s-.64.17-1.24.87c-.8.94-2.68,5.64-2.68,5.64l3.86-12.19a16.84,16.84,0,0,0-.47,3.6c.13.73.43.89.71.93" transform="translate(-2.38 -0.82)"/><path id="Path_41" data-name="Path 41" class="usul-small11" d="M53.16,60.41c.28,0,.58-.21.71-.93a17.41,17.41,0,0,0-.47-3.6l3.86,12.18s-1.88-4.69-2.68-5.63c-.6-.71-.87-.93-1.24-.87s-.57.35-.93,1.2c-.48,1.14-.85,6.18-.85,6.18V56.16a16.61,16.61,0,0,0,.64,3.57c.33.66.67.72.95.68" transform="translate(-2.38 -0.82)"/><path id="Path_42" data-name="Path 42" class="usul-small11" d="M59.77,56.59c-.18.23-.47.4-1.16.15a17.15,17.15,0,0,1-2.88-2.2L64.35,64s-3.12-4-3.54-5.14c-.31-.87-.37-1.21-.13-1.51s.58-.31,1.5-.2A40.9,40.9,0,0,1,68,59.47L56.89,53.09a16.82,16.82,0,0,1,2.78,2.34c.4.61.28.93.1,1.16" transform="translate(-2.38 -0.82)"/><path id="Path_43" data-name="Path 43" class="usul-small11" d="M61.37,53.82c-.11.27-.33.52-1.06.49a16.36,16.36,0,0,1-3.41-1.24L68,59.48S63.78,56.63,63,55.64c-.56-.73-.72-1-.58-1.4s.46-.47,1.37-.64c1.22-.22,6.22.5,6.22.5L57.57,51.34a17,17,0,0,1,3.35,1.4c.56.47.56.81.45,1.08" transform="translate(-2.38 -0.82)"/><path id="Path_44" data-name="Path 44" class="usul-small11" d="M43.35,43.41c-.19.23-.3.55.1,1.17a17.26,17.26,0,0,0,2.78,2.33L35.15,40.53a40.9,40.9,0,0,0,5.78,2.35c.92.11,1.27.1,1.5-.2s.18-.64-.13-1.51C41.89,40,38.76,36,38.76,36l8.62,9.43a17.15,17.15,0,0,0-2.88-2.2c-.69-.26-1-.08-1.16.15" transform="translate(-2.38 -0.82)"/><path id="Path_45" data-name="Path 45" class="usul-small11" d="M41.74,46.18c-.1.27-.11.61.45,1.08a16.45,16.45,0,0,0,3.36,1.4L33.07,45.9s5,.72,6.21.5c.91-.16,1.24-.29,1.38-.64s0-.66-.58-1.4c-.75-1-4.92-3.83-4.92-3.83l11.06,6.4a16.54,16.54,0,0,0-3.41-1.23c-.74,0-1,.22-1.06.49" transform="translate(-2.38 -0.82)"/><path id="Path_46" data-name="Path 46" class="usul-small11" d="M41.74,53.82c-.1-.27-.11-.61.45-1.08a17.2,17.2,0,0,1,3.35-1.4L33.07,54.1s5-.72,6.21-.5c.91.16,1.24.29,1.38.64s0,.66-.58,1.4a40.94,40.94,0,0,1-4.92,3.84l11.06-6.4a16.75,16.75,0,0,1-3.41,1.23c-.74,0-1-.22-1.07-.49" transform="translate(-2.38 -0.82)"/><path id="Path_47" data-name="Path 47" class="usul-small11" d="M43.35,56.59c-.19-.22-.3-.54.1-1.16a16.82,16.82,0,0,1,2.78-2.34L35.15,59.47a40.9,40.9,0,0,1,5.78-2.35c.92-.11,1.27-.1,1.5.2s.18.64-.13,1.52C41.89,60,38.76,64,38.76,64l8.62-9.43a17.15,17.15,0,0,1-2.88,2.2c-.69.26-1,.08-1.16-.15" transform="translate(-2.38 -0.82)"/><path id="Path_48" data-name="Path 48" class="usul-small11" d="M61.37,46.18c-.11-.27-.33-.52-1.06-.49a16.36,16.36,0,0,0-3.41,1.24L68,40.53S63.78,43.38,63,44.36c-.56.74-.72,1-.58,1.4s.46.47,1.37.64c1.21.22,6.22-.5,6.22-.5L57.57,48.66a16.91,16.91,0,0,0,3.35-1.39c.56-.48.56-.81.45-1.08" transform="translate(-2.38 -0.82)"/><path id="Path_49" data-name="Path 49" class="usul-small11" d="M59.77,43.41c-.18-.23-.47-.4-1.16-.15a17.15,17.15,0,0,0-2.88,2.2L64.35,36a40.81,40.81,0,0,0-3.54,5.14c-.31.87-.37,1.22-.13,1.51s.58.31,1.5.2C63.4,42.73,68,40.53,68,40.53L56.89,46.91a16.82,16.82,0,0,0,2.78-2.34c.4-.61.28-.93.1-1.16" transform="translate(-2.38 -0.82)"/><path id="Path_50" data-name="Path 50" class="usul-small12" d="M54.15,34.66A2.27,2.27,0,0,0,56.09,34c1.09-1.2,2.49-5.28,2.49-5.28s-1.3,4.11-1.13,5.73a2.27,2.27,0,0,0,1.15,1.7,2.29,2.29,0,0,0-1.94.68c-1.09,1.21-2.49,5.28-2.49,5.28s1.3-4.11,1.14-5.73a2.32,2.32,0,0,0-1.16-1.7" transform="translate(-2.38 -0.82)"/><path id="Path_51" data-name="Path 51" class="usul-small12" d="M44.52,36.12a2.27,2.27,0,0,0,1.15-1.7c.16-1.62-1.14-5.73-1.14-5.73S45.93,32.76,47,34a2.25,2.25,0,0,0,1.94.68,2.3,2.3,0,0,0-1.15,1.71C47.65,38,49,42.08,49,42.08S47.55,38,46.46,36.8a2.32,2.32,0,0,0-1.94-.68" transform="translate(-2.38 -0.82)"/><path id="Path_52" data-name="Path 52" class="usul-small12" d="M39.4,40.28a2.26,2.26,0,0,1-1.9.78c-1.62-.18-5.38-2.28-5.38-2.28s3.7,2.2,4.67,3.52a2.25,2.25,0,0,1,.27,2,2.29,2.29,0,0,1,1.9-.78c1.62.18,5.38,2.28,5.38,2.28s-3.7-2.2-4.66-3.51a2.28,2.28,0,0,1-.28-2" transform="translate(-2.38 -0.82)"/><path id="Path_53" data-name="Path 53" class="usul-small12" d="M66.05,44.33a2.29,2.29,0,0,1,.28-2C67.29,41,71,38.78,71,38.78s-3.76,2.1-5.38,2.28a2.27,2.27,0,0,1-1.9-.78,2.28,2.28,0,0,1-.27,2c-1,1.31-4.66,3.51-4.66,3.51s3.76-2.1,5.37-2.28a2.31,2.31,0,0,1,1.9.78" transform="translate(-2.38 -0.82)"/><path id="Path_54" data-name="Path 54" class="usul-small12" d="M49.22,65.39a2.25,2.25,0,0,1,1.62,1.25c.66,1.49.72,5.8.72,5.8s0-4.31.71-5.8a2.27,2.27,0,0,1,1.63-1.25,2.3,2.3,0,0,1-1.63-1.26c-.66-1.49-.71-5.8-.71-5.8s-.06,4.31-.72,5.8a2.29,2.29,0,0,1-1.62,1.26" transform="translate(-2.38 -0.82)"/><path id="Path_55" data-name="Path 55" class="usul-small12" d="M63.55,59.92a2.29,2.29,0,0,0-.38,2c.5,1.55,3.33,4.8,3.33,4.8s-2.91-3.17-4.39-3.85a2.28,2.28,0,0,0-2,.15,2.29,2.29,0,0,0,.38-2c-.5-1.55-3.33-4.8-3.33-4.8S60,59.4,61.5,60.07a2.28,2.28,0,0,0,2-.15" transform="translate(-2.38 -0.82)"/><path id="Path_56" data-name="Path 56" class="usul-small12" d="M67.1,50.84a2.27,2.27,0,0,0,.9,1.85c1.32,1,5.53,1.88,5.53,1.88s-4.23-.82-5.82-.48a2.27,2.27,0,0,0-1.56,1.33,2.25,2.25,0,0,0-.9-1.84c-1.33-.95-5.53-1.88-5.53-1.88s4.23.82,5.82.48a2.26,2.26,0,0,0,1.56-1.34" transform="translate(-2.38 -0.82)"/><path id="Path_57" data-name="Path 57" class="usul-small12" d="M37,55.42a2.29,2.29,0,0,0-1.56-1.33c-1.59-.34-5.82.48-5.82.48s4.21-.94,5.53-1.88a2.28,2.28,0,0,0,.9-1.85,2.28,2.28,0,0,0,1.56,1.34c1.59.34,5.82-.48,5.82-.48s-4.21.93-5.53,1.88a2.25,2.25,0,0,0-.9,1.84" transform="translate(-2.38 -0.82)"/><path id="Path_58" data-name="Path 58" class="usul-small12" d="M43.06,63A2.28,2.28,0,0,0,41,62.89c-1.48.67-4.39,3.85-4.39,3.85s2.82-3.25,3.32-4.8a2.29,2.29,0,0,0-.37-2,2.26,2.26,0,0,0,2,.15c1.49-.67,4.4-3.85,4.4-3.85s-2.83,3.25-3.33,4.8a2.28,2.28,0,0,0,.38,2" transform="translate(-2.38 -0.82)"/></g><circle id="Ellipse_7" data-name="Ellipse 7" class="usul-small3" cx="49.18" cy="49.18" r="24.59"/></g></svg>