<svg id="Layer_1" data-name="Layer 1" xmlns="http://www.w3.org/2000/svg" xmlns:xlink="http://www.w3.org/1999/xlink" viewBox="0 0 200 200"><defs><style>.usul-hover1,.usul-hover12,.usul-hover7{fill:none;}.usul-hover2{fill:#b050e4;}.usul-hover12,.usul-hover2{stroke:#b050e4;}.usul-hover12,.usul-hover2,.usul-hover7{stroke-miterlimit:10;}.usul-hover3{clip-path:url(#usul-hover-clip-path);}.usul-hover4{fill:url(#linear-gradient);}.usul-hover5{opacity:0.33;}.usul-hover-6{clip-path:url(#usul-hover-clip-path-3);}.usul-hover7{stroke:#2f3d68;}.usul-hover8{fill:#584974;}.usul-hover9{fill:#ee3030;}.usul-hover10{fill:#eeca7f;}.usul-hover11{fill:#8aa1a5;}</style><clipPath id="usul-hover-clip-path" transform="translate(-49.96 -50.35)"><path class="usul-hover1" d="M100,150.35a50,50,0,1,0,50-50,50,50,0,0,0-50,50"/></clipPath><linearGradient id="linear-gradient" x1="1.02" y1="599.61" x2="1.03" y2="599.61" gradientTransform="matrix(141.42, 0, 0, -141.42, -55.47, 84947.52)" gradientUnits="userSpaceOnUse"><stop offset="0" stop-color="#0f1215"/><stop offset="0.19" stop-color="#11141a"/><stop offset="0.44" stop-color="#171c29"/><stop offset="0.7" stop-color="#202943"/><stop offset="0.99" stop-color="#2e3c66"/><stop offset="1" stop-color="#2f3d68"/></linearGradient><clipPath id="usul-hover-clip-path-3" transform="translate(-49.96 -50.35)"><rect class="usul-hover1" x="137.08" y="137.46" width="25.77" height="25.77"/></clipPath></defs><path id="Path_63" data-name="Path 63" class="usul-hover2" d="M210,150.35a60,60,0,1,1-36.06-55L185,89.72l.68,12.39A59.88,59.88,0,0,1,210,150.35Z" transform="translate(-49.96 -50.35)"/><g class="usul-hover3"><g id="Group_42" data-name="Group 42"><rect id="Rectangle_43" data-name="Rectangle 43" class="usul-hover4" x="79.25" y="79.64" width="141.42" height="141.42" transform="translate(-112.35 99.73) rotate(-45)"/><path id="Path_64" data-name="Path 64" d="M162.35,150.35A12.39,12.39,0,1,1,150,138h0a12.39,12.39,0,0,1,12.39,12.39h0" transform="translate(-49.96 -50.35)"/></g></g><g class="usul-hover3"><g id="Group_47" data-name="Group 47"><g id="Group_46" data-name="Group 46" class="usul-hover5"><g id="Group_45" data-name="Group 45"><g class="usul-hover6"><g id="Group_44" data-name="Group 44"><path id="Path_66" data-name="Path 66" class="usul-hover7" d="M162.35,150.35A12.39,12.39,0,1,1,150,138h0a12.39,12.39,0,0,1,12.39,12.39Z" transform="translate(-49.96 -50.35)"/></g></g></g></g><path id="Path_67" data-name="Path 67" class="usul-hover8" d="M165.52,197.88l-1.88-6s-5.83,2.65-9.5,1.46a7.58,7.58,0,0,1-4.18-4.12,7.56,7.56,0,0,1-4.17,4.12c-3.67,1.19-9.5-1.46-9.5-1.46l-1.88,6a50.26,50.26,0,0,0,31.11,0" transform="translate(-49.96 -50.35)"/><path id="Path_68" data-name="Path 68" class="usul-hover8" d="M101,140.05l6.12,1.36s.62-6.37,3.48-8.95a7.61,7.61,0,0,1,5.66-1.56,7.53,7.53,0,0,1-1.48-5.67c.8-3.78,6-7.5,6-7.5l-4.23-4.62A50.19,50.19,0,0,0,101,140.05" transform="translate(-49.96 -50.35)"/><path id="Path_69" data-name="Path 69" class="usul-hover8" d="M183.35,113.11l-4.24,4.62s5.21,3.73,6,7.5a7.56,7.56,0,0,1-1.48,5.68,7.53,7.53,0,0,1,5.66,1.55c2.86,2.59,3.49,9,3.49,9l6.11-1.36a50.27,50.27,0,0,0-15.55-26.95" transform="translate(-49.96 -50.35)"/><path id="Path_70" data-name="Path 70" class="usul-hover9" d="M150,124.28s.8-4.59,3.39-5.75,6.9.42,6.9.42L162,113.2s-4.93,0-7.91-1.89c-3.2-2-4.15-6.59-4.15-6.59s-1,4.56-4.15,6.59c-3,1.89-7.91,1.89-7.91,1.89l1.78,5.75s4.22-1.62,6.9-.42,3.38,5.75,3.38,5.75" transform="translate(-49.96 -50.35)"/><path id="Path_71" data-name="Path 71" class="usul-hover9" d="M172.54,163.38s3.57,3,3.28,5.8S172,175,172,175l4.09,4.41s2.46-4.27,5.59-5.9c3.36-1.75,7.78-.3,7.78-.3s-3.47-3.1-3.63-6.89c-.15-3.52,2.32-7.8,2.32-7.8l-5.86-1.33s-.71,4.46-3.09,6.18-6.67.06-6.67.06" transform="translate(-49.96 -50.35)"/><path id="Path_72" data-name="Path 72" class="usul-hover9" d="M127.38,163.38s-4.37,1.6-6.66-.06-3.1-6.18-3.1-6.18l-5.86,1.34s2.47,4.27,2.32,7.8c-.16,3.78-3.63,6.88-3.63,6.88s4.42-1.45,7.78.3c3.13,1.64,5.59,5.9,5.59,5.9l4.09-4.4s-3.51-2.85-3.81-5.77,3.28-5.8,3.28-5.8" transform="translate(-49.96 -50.35)"/><path id="Path_73" data-name="Path 73" class="usul-hover10" d="M153.22,129.19c.58.09,1.19.41,1.44,1.89.3,1.71-.95,7.31-.95,7.31l7.84-24.77s-3.82,9.54-5.44,11.45c-1.22,1.44-1.78,1.89-2.53,1.77s-1.15-.71-1.88-2.44c-1-2.31-1.75-12.57-1.75-12.57l0,26s.49-5.72,1.29-7.26c.69-1.33,1.37-1.46,1.95-1.37" transform="translate(-49.96 -50.35)"/><path id="Path_74" data-name="Path 74" class="usul-hover10" d="M146.7,129.19c.59-.09,1.26,0,2,1.37.8,1.54,1.29,7.26,1.29,7.26l0-26s-.77,10.25-1.75,12.56c-.73,1.74-1.12,2.34-1.88,2.45s-1.3-.34-2.52-1.77c-1.63-1.91-5.45-11.46-5.45-11.46l7.84,24.78s-1.25-5.6-1-7.31c.26-1.48.86-1.8,1.44-1.9" transform="translate(-49.96 -50.35)"/><path id="Path_75" data-name="Path 75" class="usul-hover10" d="M146.7,171.51c.59.09,1.26,0,2-1.37.8-1.55,1.29-7.27,1.29-7.27l0,26s-.77-10.25-1.75-12.56c-.73-1.73-1.12-2.33-1.88-2.45s-1.3.34-2.52,1.77c-1.63,1.91-5.45,11.46-5.45,11.46l7.84-24.78s-1.25,5.6-1,7.32c.26,1.47.86,1.8,1.44,1.89" transform="translate(-49.96 -50.35)"/><path id="Path_76" data-name="Path 76" class="usul-hover10" d="M153.22,171.51c.58-.09,1.19-.42,1.44-1.89.3-1.72-.95-7.32-.95-7.32l7.84,24.78s-3.82-9.55-5.44-11.46c-1.22-1.43-1.78-1.89-2.53-1.77s-1.15.72-1.88,2.45c-1,2.31-1.75,12.56-1.75,12.56l0-26s.49,5.72,1.29,7.27c.69,1.33,1.37,1.46,1.95,1.37" transform="translate(-49.96 -50.35)"/><path id="Path_77" data-name="Path 77" class="usul-hover10" d="M166.66,163.75c-.37.46-1,.82-2.36.3-1.63-.6-5.86-4.48-5.86-4.48L176,178.75s-6.36-8.08-7.2-10.44c-.64-1.78-.75-2.48-.27-3.08s1.19-.63,3.06-.4c2.48.31,11.75,4.77,11.75,4.77l-22.52-13s4.71,3.29,5.65,4.75c.8,1.26.58,1.91.21,2.37" transform="translate(-49.96 -50.35)"/><path id="Path_78" data-name="Path 78" class="usul-hover10" d="M169.92,158.11c-.22.55-.67,1.07-2.16,1-1.74-.08-6.94-2.52-6.94-2.52l22.49,13s-8.49-5.8-10-7.79c-1.14-1.5-1.46-2.14-1.19-2.85s.95-1,2.8-1.3c2.47-.46,12.65,1,12.65,1l-25.38-5.6s5.48,1.72,6.81,2.83c1.15,1,1.13,1.65.92,2.2" transform="translate(-49.96 -50.35)"/><path id="Path_79" data-name="Path 79" class="usul-hover10" d="M133.26,137c-.37.46-.59,1.11.22,2.37.93,1.46,5.64,4.75,5.64,4.75l-22.52-13s9.27,4.45,11.75,4.76c1.87.24,2.59.2,3.06-.4s.37-1.3-.27-3.07c-.84-2.36-7.2-10.44-7.2-10.44l17.54,19.17s-4.22-3.88-5.86-4.48c-1.4-.51-2-.15-2.36.3" transform="translate(-49.96 -50.35)"/><path id="Path_80" data-name="Path 80" class="usul-hover10" d="M130,142.59c-.22.55-.24,1.24.91,2.2,1.34,1.11,6.82,2.83,6.82,2.83L112.36,142s10.18,1.46,12.64,1c1.85-.34,2.52-.59,2.8-1.3s0-1.35-1.18-2.85c-1.51-2-10-7.8-10-7.8l22.49,13s-5.2-2.43-6.93-2.51c-1.5-.07-1.95.45-2.16,1" transform="translate(-49.96 -50.35)"/><path id="Path_81" data-name="Path 81" class="usul-hover10" d="M130,158.11c-.22-.55-.24-1.24.91-2.2,1.34-1.12,6.82-2.84,6.82-2.84l-25.38,5.61s10.18-1.47,12.65-1c1.85.34,2.52.59,2.8,1.3s0,1.35-1.19,2.85c-1.51,2-10,7.8-10,7.8l22.48-13s-5.2,2.44-6.93,2.52c-1.5.07-1.95-.45-2.16-1" transform="translate(-49.96 -50.35)"/><path id="Path_82" data-name="Path 82" class="usul-hover10" d="M133.26,163.75c-.37-.46-.59-1.11.22-2.37.93-1.47,5.64-4.75,5.64-4.75l-22.52,13s9.27-4.46,11.76-4.77c1.87-.23,2.58-.19,3.06.4s.36,1.3-.27,3.08c-.84,2.36-7.2,10.44-7.2,10.44l17.53-19.18s-4.22,3.88-5.86,4.48c-1.4.52-2,.16-2.36-.3" transform="translate(-49.96 -50.35)"/><path id="Path_83" data-name="Path 83" class="usul-hover10" d="M169.92,142.59c-.22-.55-.67-1.07-2.16-1-1.74.08-6.94,2.51-6.94,2.51l22.49-13s-8.49,5.8-10,7.8c-1.14,1.5-1.46,2.14-1.19,2.85s.95,1,2.8,1.3c2.47.46,12.65-1,12.65-1l-25.38,5.6s5.48-1.72,6.81-2.83c1.15-1,1.13-1.65.92-2.2" transform="translate(-49.96 -50.35)"/><path id="Path_84" data-name="Path 84" class="usul-hover10" d="M166.66,137c-.37-.46-1-.82-2.36-.3-1.63.6-5.86,4.48-5.86,4.48L176,122s-6.36,8.08-7.2,10.44c-.64,1.77-.75,2.48-.27,3.07s1.19.64,3.06.4c2.48-.31,11.75-4.77,11.75-4.77l-22.52,13s4.71-3.28,5.65-4.75c.8-1.25.58-1.91.21-2.37" transform="translate(-49.96 -50.35)"/><path id="Path_85" data-name="Path 85" class="usul-hover11" d="M155.24,119.14a4.6,4.6,0,0,0,3.94-1.38c2.22-2.46,5.07-10.74,5.07-10.74s-2.63,8.35-2.31,11.65a4.58,4.58,0,0,0,2.34,3.45,4.64,4.64,0,0,0-3.94,1.39c-2.22,2.46-5.07,10.74-5.07,10.74s2.63-8.35,2.31-11.65a4.61,4.61,0,0,0-2.34-3.46" transform="translate(-49.96 -50.35)"/><path id="Path_86" data-name="Path 86" class="usul-hover11" d="M135.64,122.12a4.61,4.61,0,0,0,2.35-3.45c.32-3.3-2.32-11.65-2.32-11.65s2.86,8.28,5.07,10.74a4.6,4.6,0,0,0,3.94,1.38,4.66,4.66,0,0,0-2.34,3.46c-.32,3.3,2.31,11.65,2.31,11.65s-2.85-8.28-5.07-10.74a4.63,4.63,0,0,0-3.94-1.39" transform="translate(-49.96 -50.35)"/><path id="Path_87" data-name="Path 87" class="usul-hover11" d="M125.25,130.58a4.61,4.61,0,0,1-3.87,1.59c-3.29-.36-10.93-4.64-10.93-4.64s7.53,4.48,9.48,7.15a4.62,4.62,0,0,1,.56,4.14,4.64,4.64,0,0,1,3.86-1.59c3.29.36,10.93,4.64,10.93,4.64s-7.52-4.48-9.48-7.15a4.61,4.61,0,0,1-.55-4.14" transform="translate(-49.96 -50.35)"/><path id="Path_88" data-name="Path 88" class="usul-hover11" d="M179.44,138.82a4.62,4.62,0,0,1,.55-4.14c2-2.67,9.48-7.15,9.48-7.15s-7.64,4.28-10.93,4.64a4.58,4.58,0,0,1-3.86-1.59,4.62,4.62,0,0,1-.56,4.14c-2,2.67-9.48,7.15-9.48,7.15s7.64-4.28,10.93-4.63a4.64,4.64,0,0,1,3.87,1.58" transform="translate(-49.96 -50.35)"/><path id="Path_89" data-name="Path 89" class="usul-hover11" d="M145.2,181.63a4.62,4.62,0,0,1,3.31,2.55c1.34,3,1.45,11.79,1.45,11.79s.12-8.76,1.45-11.79a4.66,4.66,0,0,1,3.31-2.55,4.66,4.66,0,0,1-3.31-2.55c-1.33-3-1.45-11.79-1.45-11.79s-.11,8.76-1.45,11.79a4.62,4.62,0,0,1-3.31,2.55" transform="translate(-49.96 -50.35)"/><path id="Path_90" data-name="Path 90" class="usul-hover11" d="M174.34,170.52a4.65,4.65,0,0,0-.76,4.11c1,3.14,6.76,9.76,6.76,9.76s-5.92-6.46-8.93-7.83a4.62,4.62,0,0,0-4.17.3,4.59,4.59,0,0,0,.77-4.11c-1-3.15-6.76-9.76-6.76-9.76s5.92,6.46,8.93,7.83a4.6,4.6,0,0,0,4.16-.3" transform="translate(-49.96 -50.35)"/><path id="Path_91" data-name="Path 91" class="usul-hover11" d="M181.56,152.06a4.65,4.65,0,0,0,1.83,3.76c2.69,1.92,11.24,3.82,11.24,3.82s-8.6-1.67-11.84-1a4.65,4.65,0,0,0-3.17,2.72,4.61,4.61,0,0,0-1.82-3.76c-2.69-1.92-11.25-3.82-11.25-3.82s8.6,1.67,11.84,1a4.61,4.61,0,0,0,3.17-2.72" transform="translate(-49.96 -50.35)"/><path id="Path_92" data-name="Path 92" class="usul-hover11" d="M120.3,161.38a4.61,4.61,0,0,0-3.17-2.72c-3.24-.69-11.84,1-11.84,1s8.56-1.9,11.25-3.82a4.61,4.61,0,0,0,1.82-3.76,4.63,4.63,0,0,0,3.17,2.72c3.24.69,11.84-1,11.84-1s-8.55,1.9-11.25,3.82a4.64,4.64,0,0,0-1.82,3.76" transform="translate(-49.96 -50.35)"/><path id="Path_93" data-name="Path 93" class="usul-hover11" d="M132.68,176.86a4.62,4.62,0,0,0-4.17-.3c-3,1.37-8.93,7.83-8.93,7.83s5.75-6.62,6.77-9.76a4.65,4.65,0,0,0-.77-4.11,4.6,4.6,0,0,0,4.16.3c3-1.37,8.94-7.83,8.94-7.83s-5.75,6.61-6.77,9.76a4.62,4.62,0,0,0,.77,4.11" transform="translate(-49.96 -50.35)"/></g></g><circle id="Ellipse_10" data-name="Ellipse 10" class="usul-hover12" cx="100" cy="100" r="50"/></svg>