<?xml version="1.0" encoding="utf-8"?>
<!-- Generator: Adobe Illustrator 25.4.1, SVG Export Plug-In . SVG Version: 6.00 Build 0)  -->
<svg version="1.1" id="Layer_1" xmlns="http://www.w3.org/2000/svg" xmlns:xlink="http://www.w3.org/1999/xlink" x="0px" y="0px"
	 viewBox="0 0 200 200" style="enable-background:new 0 0 200 200;" xml:space="preserve">
<style type="text/css">
	.st0{fill:#2D3032;stroke:#B050E4;stroke-miterlimit:10;}
	.st1{clip-path:url(#SVGID_00000109745345270308421950000013014206300123329939_);}
	.st2{fill:url(#Rectangle_43_00000139283154243039996550000006114276310047696815_);}
	.st3{clip-path:url(#SVGID_00000142149500555140297850000013894196917932658322_);}
	.st4{opacity:0.33;}
	.st5{clip-path:url(#SVGID_00000106146150903582089590000015219955740019345818_);}
	.st6{fill:none;stroke:#2F3D68;stroke-miterlimit:10;}
	.st7{fill:#584974;}
	.st8{fill:#EE3030;}
	.st9{fill:#EECA7F;}
	.st10{fill:#8AA1A5;}
	.st11{fill:none;stroke:#B050E4;stroke-miterlimit:10;}
</style>
<path id="Path_63" class="st0" d="M160.04,100c0.009,33.137-26.846,60.008-59.983,60.017s-60.008-26.846-60.017-59.983
	c-0.009-33.137,26.846-60.008,59.983-60.017c8.243-0.002,16.398,1.694,23.957,4.983l11.06-5.63l0.68,12.39
	C151.032,63.062,160.06,80.969,160.04,100z"/>
<g>
	<defs>
		<path id="SVGID_1_" d="M50.04,100c0,27.614,22.386,50,50,50s50-22.386,50-50s-22.386-50-50-50S50.04,72.386,50.04,100"/>
	</defs>
	<clipPath id="SVGID_00000008835754343593158170000004274366477393419151_">
		<use xlink:href="#SVGID_1_"  style="overflow:visible;"/>
	</clipPath>
	<g style="clip-path:url(#SVGID_00000008835754343593158170000004274366477393419151_);">
		<g id="Group_42">
			
				<linearGradient id="Rectangle_43_00000168834232158910049590000016080951542989520523_" gradientUnits="userSpaceOnUse" x1="-297.48" y1="-196.1223" x2="-297.47" y2="-196.1223" gradientTransform="matrix(99.999 -99.999 99.999 99.999 49416.4922 -9992.4043)">
				<stop  offset="0" style="stop-color:#0F1215"/>
				<stop  offset="0.19" style="stop-color:#11141A"/>
				<stop  offset="0.44" style="stop-color:#171C29"/>
				<stop  offset="0.7" style="stop-color:#202943"/>
				<stop  offset="0.99" style="stop-color:#2E3C66"/>
				<stop  offset="1" style="stop-color:#2F3D68"/>
			</linearGradient>
			<polygon id="Rectangle_43" style="fill:url(#Rectangle_43_00000168834232158910049590000016080951542989520523_);" points="
				0.002,100.006 100.001,0.007 200,100.006 100.001,200.005 			"/>
			<path id="Path_64" d="M112.39,100c0.022,6.843-5.507,12.408-12.35,12.43c-6.843,0.022-12.408-5.507-12.43-12.35
				c-0.022-6.843,5.507-12.408,12.35-12.43c0.027,0,0.053,0,0.08,0l0,0c6.843,0,12.39,5.547,12.39,12.39l0,0"/>
		</g>
	</g>
</g>
<g>
	<defs>
		<path id="SVGID_00000127009782617007308550000013701228389088110262_" d="M50.04,100c0,27.614,22.386,50,50,50s50-22.386,50-50
			s-22.386-50-50-50S50.04,72.386,50.04,100"/>
	</defs>
	<clipPath id="SVGID_00000064354364545600036730000009670957085371952260_">
		<use xlink:href="#SVGID_00000127009782617007308550000013701228389088110262_"  style="overflow:visible;"/>
	</clipPath>
	<g style="clip-path:url(#SVGID_00000064354364545600036730000009670957085371952260_);">
		<g id="Group_47">
			<g id="Group_46" class="st4">
				<g id="Group_45">
					<g>
						<defs>
							<rect id="SVGID_00000183218446476060083100000018228629887836931479_" x="87.12" y="87.11" width="25.77" height="25.77"/>
						</defs>
						<clipPath id="SVGID_00000109751361475838101090000000607858228440986774_">
							<use xlink:href="#SVGID_00000183218446476060083100000018228629887836931479_"  style="overflow:visible;"/>
						</clipPath>
						<g style="clip-path:url(#SVGID_00000109751361475838101090000000607858228440986774_);">
							<g id="Group_44">
								<path id="Path_66" class="st6" d="M112.39,100c0.022,6.843-5.507,12.408-12.35,12.43c-6.843,0.022-12.408-5.507-12.43-12.35
									c-0.022-6.843,5.507-12.408,12.35-12.43c0.027,0,0.053,0,0.08,0l0,0c6.843,0,12.39,5.547,12.39,12.39L112.39,100z"/>
							</g>
						</g>
					</g>
				</g>
			</g>
			<path id="Path_67" class="st7" d="M115.56,147.53l-1.88-6c0,0-5.83,2.65-9.5,1.46c-1.89-0.756-3.396-2.241-4.18-4.12
				c-0.779,1.878-2.282,3.363-4.17,4.12c-3.67,1.19-9.5-1.46-9.5-1.46l-1.88,6C94.559,150.82,105.451,150.82,115.56,147.53"/>
			<path id="Path_68" class="st7" d="M51.04,89.7l6.12,1.36c0,0,0.62-6.37,3.48-8.95c1.602-1.256,3.641-1.818,5.66-1.56
				c-1.239-1.613-1.772-3.658-1.48-5.67c0.8-3.78,6-7.5,6-7.5l-4.23-4.62C58.685,69.867,53.24,79.3,51.04,89.7"/>
			<path id="Path_69" class="st7" d="M133.39,62.76l-4.24,4.62c0,0,5.21,3.73,6,7.5c0.292,2.015-0.242,4.063-1.48,5.68
				c2.019-0.27,4.061,0.289,5.66,1.55c2.86,2.59,3.49,9,3.49,9l6.11-1.36c-2.203-10.402-7.647-19.837-15.55-26.95"/>
			<path id="Path_70" class="st8" d="M100.04,73.93c0,0,0.8-4.59,3.39-5.75s6.9,0.42,6.9,0.42l1.71-5.75c0,0-4.93,0-7.91-1.89
				c-3.2-2-4.15-6.59-4.15-6.59s-1,4.56-4.15,6.59c-3,1.89-7.91,1.89-7.91,1.89l1.78,5.75c0,0,4.22-1.62,6.9-0.42
				s3.38,5.75,3.38,5.75"/>
			<path id="Path_71" class="st8" d="M122.58,113.03c0,0,3.57,3,3.28,5.8s-3.82,5.82-3.82,5.82l4.09,4.41c0,0,2.46-4.27,5.59-5.9
				c3.36-1.75,7.78-0.3,7.78-0.3s-3.47-3.1-3.63-6.89c-0.15-3.52,2.32-7.8,2.32-7.8l-5.86-1.33c0,0-0.71,4.46-3.09,6.18
				c-2.38,1.72-6.67,0.06-6.67,0.06"/>
			<path id="Path_72" class="st8" d="M77.42,113.03c0,0-4.37,1.6-6.66-0.06s-3.1-6.18-3.1-6.18l-5.86,1.34c0,0,2.47,4.27,2.32,7.8
				c-0.16,3.78-3.63,6.88-3.63,6.88s4.42-1.45,7.78,0.3c3.13,1.64,5.59,5.9,5.59,5.9l4.09-4.4c0,0-3.51-2.85-3.81-5.77
				s3.28-5.8,3.28-5.8"/>
			<path id="Path_73" class="st9" d="M103.26,78.84c0.58,0.09,1.19,0.41,1.44,1.89c0.3,1.71-0.95,7.31-0.95,7.31l7.84-24.77
				c0,0-3.82,9.54-5.44,11.45c-1.22,1.44-1.78,1.89-2.53,1.77s-1.15-0.71-1.88-2.44c-1-2.31-1.75-12.57-1.75-12.57v26
				c0,0,0.49-5.72,1.29-7.26c0.69-1.33,1.37-1.46,1.95-1.37"/>
			<path id="Path_74" class="st9" d="M96.74,78.84c0.59-0.09,1.26,0,2,1.37c0.8,1.54,1.29,7.26,1.29,7.26v-26
				c0,0-0.77,10.25-1.75,12.56c-0.73,1.74-1.12,2.34-1.88,2.45s-1.3-0.34-2.52-1.77c-1.63-1.91-5.45-11.46-5.45-11.46l7.84,24.78
				c0,0-1.25-5.6-1-7.31c0.26-1.48,0.86-1.8,1.44-1.9"/>
			<path id="Path_75" class="st9" d="M96.74,121.16c0.59,0.09,1.26,0,2-1.37c0.8-1.55,1.29-7.27,1.29-7.27v26
				c0,0-0.77-10.25-1.75-12.56c-0.73-1.73-1.12-2.33-1.88-2.45s-1.3,0.34-2.52,1.77c-1.63,1.91-5.45,11.46-5.45,11.46l7.84-24.78
				c0,0-1.25,5.6-1,7.32c0.26,1.47,0.86,1.8,1.44,1.89"/>
			<path id="Path_76" class="st9" d="M103.26,121.16c0.58-0.09,1.19-0.42,1.44-1.89c0.3-1.72-0.95-7.32-0.95-7.32l7.84,24.78
				c0,0-3.82-9.55-5.44-11.46c-1.22-1.43-1.78-1.89-2.53-1.77s-1.15,0.72-1.88,2.45c-1,2.31-1.75,12.56-1.75,12.56v-26
				c0,0,0.49,5.72,1.29,7.27c0.69,1.33,1.37,1.46,1.95,1.37"/>
			<path id="Path_77" class="st9" d="M116.7,113.4c-0.37,0.46-1,0.82-2.36,0.3c-1.63-0.6-5.86-4.48-5.86-4.48l17.56,19.18
				c0,0-6.36-8.08-7.2-10.44c-0.64-1.78-0.75-2.48-0.27-3.08s1.19-0.63,3.06-0.4c2.48,0.31,11.75,4.77,11.75,4.77l-22.52-13
				c0,0,4.71,3.29,5.65,4.75c0.8,1.26,0.58,1.91,0.21,2.37"/>
			<path id="Path_78" class="st9" d="M119.96,107.76c-0.22,0.55-0.67,1.07-2.16,1c-1.74-0.08-6.94-2.52-6.94-2.52l22.49,13
				c0,0-8.49-5.8-10-7.79c-1.14-1.5-1.46-2.14-1.19-2.85s0.95-1,2.8-1.3c2.47-0.46,12.65,1,12.65,1l-25.38-5.6
				c0,0,5.48,1.72,6.81,2.83c1.15,1,1.13,1.65,0.92,2.2"/>
			<path id="Path_79" class="st9" d="M83.3,86.65c-0.37,0.46-0.59,1.11,0.22,2.37c0.93,1.46,5.64,4.75,5.64,4.75l-22.52-13
				c0,0,9.27,4.45,11.75,4.76c1.87,0.24,2.59,0.2,3.06-0.4s0.37-1.3-0.27-3.07c-0.84-2.36-7.2-10.44-7.2-10.44l17.54,19.17
				c0,0-4.22-3.88-5.86-4.48c-1.4-0.51-2-0.15-2.36,0.3"/>
			<path id="Path_80" class="st9" d="M80.04,92.24c-0.22,0.55-0.24,1.24,0.91,2.2c1.34,1.11,6.82,2.83,6.82,2.83L62.4,91.65
				c0,0,10.18,1.46,12.64,1c1.85-0.34,2.52-0.59,2.8-1.3c0.28-0.71,0-1.35-1.18-2.85c-1.51-2-10-7.8-10-7.8l22.49,13
				c0,0-5.2-2.43-6.93-2.51c-1.5-0.07-1.95,0.45-2.16,1"/>
			<path id="Path_81" class="st9" d="M80.04,107.76c-0.22-0.55-0.24-1.24,0.91-2.2c1.34-1.12,6.82-2.84,6.82-2.84l-25.38,5.61
				c0,0,10.18-1.47,12.65-1c1.85,0.34,2.52,0.59,2.8,1.3c0.28,0.71,0,1.35-1.19,2.85c-1.51,2-10,7.8-10,7.8l22.48-13
				c0,0-5.2,2.44-6.93,2.52c-1.5,0.07-1.95-0.45-2.16-1"/>
			<path id="Path_82" class="st9" d="M83.3,113.4c-0.37-0.46-0.59-1.11,0.22-2.37c0.93-1.47,5.64-4.75,5.64-4.75l-22.52,13
				c0,0,9.27-4.46,11.76-4.77c1.87-0.23,2.58-0.19,3.06,0.4s0.36,1.3-0.27,3.08c-0.84,2.36-7.2,10.44-7.2,10.44l17.53-19.18
				c0,0-4.22,3.88-5.86,4.48c-1.4,0.52-2,0.16-2.36-0.3"/>
			<path id="Path_83" class="st9" d="M119.96,92.24c-0.22-0.55-0.67-1.07-2.16-1c-1.74,0.08-6.94,2.51-6.94,2.51l22.49-13
				c0,0-8.49,5.8-10,7.8c-1.14,1.5-1.46,2.14-1.19,2.85s0.95,1,2.8,1.3c2.47,0.46,12.65-1,12.65-1l-25.38,5.6
				c0,0,5.48-1.72,6.81-2.83c1.15-1,1.13-1.65,0.92-2.2"/>
			<path id="Path_84" class="st9" d="M116.7,86.65c-0.37-0.46-1-0.82-2.36-0.3c-1.63,0.6-5.86,4.48-5.86,4.48l17.56-19.18
				c0,0-6.36,8.08-7.2,10.44c-0.64,1.77-0.75,2.48-0.27,3.07s1.19,0.64,3.06,0.4c2.48-0.31,11.75-4.77,11.75-4.77l-22.52,13
				c0,0,4.71-3.28,5.65-4.75c0.8-1.25,0.58-1.91,0.21-2.37"/>
			<path id="Path_85" class="st10" d="M105.28,68.79c1.458,0.197,2.923-0.316,3.94-1.38c2.22-2.46,5.07-10.74,5.07-10.74
				s-2.63,8.35-2.31,11.65c0.181,1.459,1.052,2.742,2.34,3.45c-1.459-0.188-2.921,0.328-3.94,1.39c-2.22,2.46-5.07,10.74-5.07,10.74
				s2.63-8.35,2.31-11.65C107.437,70.789,106.568,69.504,105.28,68.79"/>
			<path id="Path_86" class="st10" d="M85.68,71.77c1.289-0.709,2.162-1.991,2.35-3.45c0.32-3.3-2.32-11.65-2.32-11.65
				s2.86,8.28,5.07,10.74c1.017,1.064,2.482,1.577,3.94,1.38c-1.282,0.72-2.15,2.002-2.34,3.46c-0.32,3.3,2.31,11.65,2.31,11.65
				s-2.85-8.28-5.07-10.74C88.602,72.097,87.14,71.581,85.68,71.77"/>
			<path id="Path_87" class="st10" d="M75.29,80.23c-0.961,1.119-2.4,1.71-3.87,1.59c-3.29-0.36-10.93-4.64-10.93-4.64
				s7.53,4.48,9.48,7.15c0.836,1.212,1.044,2.75,0.56,4.14c0.962-1.112,2.394-1.701,3.86-1.59c3.29,0.36,10.93,4.64,10.93,4.64
				s-7.52-4.48-9.48-7.15C75.006,83.157,74.802,81.619,75.29,80.23"/>
			<path id="Path_88" class="st10" d="M129.48,88.47c-0.486-1.389-0.282-2.926,0.55-4.14c2-2.67,9.48-7.15,9.48-7.15
				s-7.64,4.28-10.93,4.64c-1.467,0.121-2.904-0.47-3.86-1.59c0.484,1.39,0.276,2.928-0.56,4.14c-2,2.67-9.48,7.15-9.48,7.15
				s7.64-4.28,10.93-4.63C127.078,86.773,128.514,87.359,129.48,88.47"/>
			<path id="Path_89" class="st10" d="M95.24,131.28c1.447,0.274,2.676,1.221,3.31,2.55c1.34,3,1.45,11.79,1.45,11.79
				s0.12-8.76,1.45-11.79c0.639-1.325,1.866-2.27,3.31-2.55c-1.444-0.28-2.671-1.225-3.31-2.55c-1.33-3-1.45-11.79-1.45-11.79
				s-0.11,8.76-1.45,11.79C97.916,130.059,96.687,131.006,95.24,131.28"/>
			<path id="Path_90" class="st10" d="M124.38,120.17c-0.889,1.173-1.171,2.697-0.76,4.11c1,3.14,6.76,9.76,6.76,9.76
				s-5.92-6.46-8.93-7.83c-1.358-0.571-2.907-0.459-4.17,0.3c0.902-1.167,1.189-2.696,0.77-4.11c-1-3.15-6.76-9.76-6.76-9.76
				s5.92,6.46,8.93,7.83C121.575,121.041,123.121,120.929,124.38,120.17"/>
			<path id="Path_91" class="st10" d="M131.6,101.71c-0.02,1.472,0.659,2.867,1.83,3.76c2.69,1.92,11.24,3.82,11.24,3.82
				s-8.6-1.67-11.84-1c-1.427,0.354-2.603,1.363-3.17,2.72c0.029-1.472-0.648-2.869-1.82-3.76c-2.69-1.92-11.25-3.82-11.25-3.82
				s8.6,1.67,11.84,1C129.86,104.082,131.038,103.071,131.6,101.71"/>
			<path id="Path_92" class="st10" d="M70.34,111.03c-0.562-1.361-1.74-2.372-3.17-2.72c-3.24-0.69-11.84,1-11.84,1
				s8.56-1.9,11.25-3.82c1.172-0.891,1.849-2.288,1.82-3.76c0.564,1.359,1.741,2.369,3.17,2.72c3.24,0.69,11.84-1,11.84-1
				s-8.55,1.9-11.25,3.82C70.992,108.164,70.316,109.559,70.34,111.03"/>
			<path id="Path_93" class="st10" d="M82.72,126.51c-1.263-0.759-2.812-0.871-4.17-0.3c-3,1.37-8.93,7.83-8.93,7.83
				s5.75-6.62,6.77-9.76c0.409-1.415,0.123-2.939-0.77-4.11c1.259,0.759,2.805,0.871,4.16,0.3c3-1.37,8.94-7.83,8.94-7.83
				s-5.75,6.61-6.77,9.76C81.537,123.814,81.823,125.341,82.72,126.51"/>
		</g>
	</g>
</g>
<circle id="Ellipse_10" class="st11" cx="100" cy="100" r="50"/>
</svg>
