<svg version="1.1" xmlns="http://www.w3.org/2000/svg" xmlns:xlink="http://www.w3.org/1999/xlink" x="0px" y="0px" viewBox="0 0 1000 1000">
   <g><path d="M373.1,25.1C512.2-8.6,667.1,13.6,784,99.5c177,119.9,250,362.3,179.1,562.3C919.7,789,821.2,895.9,697.6,949.1C488.3,1043.5,217.8,969.6,92.8,775C10.3,656.4-9.1,500.8,28.1,362.7C73.7,199.7,209.3,67.6,373.1,25.1z M487.1,55.6c-214.7,4-408.5,182-428.3,396c-32,234.5,157.6,468.5,392.8,489.1c239,32.9,476-164.8,490-405C969.7,282.3,740.8,43.1,487.1,55.6z"/><path d="M366.4,267.8C495,344,623.6,420.2,749.7,500.1c-125.3,79.2-254.4,152.3-379.3,232C360.9,577.7,368.5,422.5,366.4,267.8z"/></g>
</svg>
