<svg id="Layer_1" data-name="Layer 1" xmlns="http://www.w3.org/2000/svg" viewBox="0 0 40 40"><defs><style>.wrap-token-default-1{fill:#9615db;}</style></defs><path class="wrap-token-default-1" d="M45,59.12l4.12-2.24L45,62.5l-4.12-5.62Zm-4.12-4.5L45,56.88l4.12-2.26L45,47.5ZM65,40V70a5,5,0,0,1-5,5H30a5,5,0,0,1-5-5V40a5,5,0,0,1,5-5H60A5,5,0,0,1,65,40ZM58.98,57.35a.751.751,0,0,0-.89.57,13.371,13.371,0,0,1-25.6,1.9l.85-.22c.02-.01.04-.01.05-.03a.115.115,0,0,0,.01-.17l-2.29-2.38a.219.219,0,0,0-.05-.03.124.124,0,0,0-.15.08l-.9,3.18a.085.085,0,0,0,0,.07.116.116,0,0,0,.15.08l.86-.22a15.013,15.013,0,0,0,13.34,9.81c.21.01.43.01.65.01A14.893,14.893,0,0,0,59.55,58.25.758.758,0,0,0,58.98,57.35ZM45,65.5A10.5,10.5,0,1,0,34.5,55,10.5,10.5,0,0,0,45,65.5ZM59.99,49.75a.116.116,0,0,0-.08-.15h-.06l-.87.22a14.873,14.873,0,0,0-28.53,1.93.756.756,0,0,0,.57.9.881.881,0,0,0,.17.02.738.738,0,0,0,.72-.59,13.372,13.372,0,0,1,25.6-1.9l-.85.22a.131.131,0,0,0-.09.15.219.219,0,0,0,.03.05l2.28,2.38a.137.137,0,0,0,.18.01c.01-.02.03-.04.03-.06Z" transform="translate(-25 -35)"/></svg>